<?xml version="1.0" encoding="utf-8"?>
<!-- Generator: Adobe Illustrator 18.1.1, SVG Export Plug-In . SVG Version: 6.00 Build 0)  -->
<svg version="1.1" id="Слой_1" xmlns="http://www.w3.org/2000/svg" xmlns:xlink="http://www.w3.org/1999/xlink" x="0px" y="0px"
	 viewBox="0 0 120 120" enable-background="new 0 0 120 120" xml:space="preserve">
<rect x="44.5" y="40" fill="none" stroke="#D62228" stroke-width="0.1135" stroke-miterlimit="10" width="28.2" height="36.8"/>
<path fill="#D72128" d="M18.6,108.3c0.2-0.7,0.4-1.4,0.8-2.6c-0.1,1.5-0.1,2.4-0.2,3.5c3.2,1.4,6.5,1.5,9.9,0.5c0.4-0.1,1-0.6,1-0.8
	c0-1.9-0.1-3.9-0.2-5.8c0.4-0.8,1-1.6,1.2-2.4c0.4-1.8,0.4-3.6,0.7-5.4c0.7-4.3,0.9-8.5-1-12.6c-0.7-1.5-0.9-3.2-1.3-4.8l0,0
	c1.1,2.6,2.3,5.3,3.4,7.9c0.3-2.3,0.2-4.7,0.3-7c0.6-10.4,1.3-20.8,1.9-31.3c0.1-0.9-0.4-1.9-0.7-2.8c-0.8-2.3-1.6-4.5-2.3-6.8
	c0.2-0.1,0.3-0.1,0.5-0.2c0.6,1.8,1.3,3.7,1.9,5.5c0.2-0.1,0.4-0.1,0.6-0.2c-0.9-3-1.8-6.1-2.8-9.6c0.6,0.9,0.8,1.4,1.4,2.3
	c0-1.1,0-1.8,0-2.7c0.9,4.1,1.8,7.9,2.4,11.7c0.4,2.4,0.8,4.8,0.6,7.2c-0.9,10-1.6,20-1.2,30.1c0.2,5.3-0.5,10.6-0.8,15.9l0-0.1
	c-0.2,2.3-1.3,4.7,0.7,6.7c-1.3,0.6-1.5,1.9-0.3,2.6c0.8,0.4,1.8,0.7,2.7,0.7c2.2-0.1,4.4-0.2,6.6-0.7c6-1.2,12-1.7,18-0.1
	c3,0.8,6,1.3,9.1,1.8c4.1,0.6,7.9-0.4,11.2-3c1.1-0.8,1.4-1.7,0.6-2.9c-7.7,3.4-9.1,3.7-15.6,2.5c-8.6-1.7-17.2-2.8-26-0.6
	c-2,0.5-4.2-0.2-6.4-0.4c2.1-0.1,4.2,0.2,6.2-0.2c8.2-1.9,16.4-1.8,24.6,0.3c5.4,1.3,10.5,1,15.5-1.4c1.5-0.7,1.8-1.7,1.6-3.2
	c-0.3-2.7-0.6-5.5-0.7-8.2c-0.3-5.3,0.7-10.6-0.8-15.8l0,0c0.3,0.1,0.5,0.2,0.6,0.2c-0.3-12.9-0.6-25.7-0.9-38.6c0.2,0,0.4,0,0.7,0
	c0,1.9,0,3.8,0,5.6c0.1,0,0.2,0,0.3,0c0.1-0.5,0.1-1.1,0.2-1.5c2,1.4,0.1,2.9,0.1,4.1c2.7-5.7,5.5-11.7,8.4-17.7l0,0
	c-0.2,0.6-0.4,1.3-0.6,1.9c-1.6,4.1-3.2,8.2-4.9,12.3c-0.8,1.9-1.8,3.7-2.6,5.6c-0.2,0.5-0.4,1.1-0.4,1.7c0.4,7.7,0.9,15.3,1.3,23
	c0,0.4,0.1,0.8,0.1,1.2c0.1,0,0.2,0,0.3,0c0.2-0.9,0.4-1.7,0.6-2.6c0.1,1.6-0.1,3.1-0.2,4.7c-0.3,8.3,1.3,16.3,3.2,24.3
	c0.2,0.8,1.1,1.8,1.9,2c2,0.4,4.1,0.5,6.2,0.5c1.8,0.1,2.4-1.1,2.5-2.7c0-1.2,0-2.4,0-3.6c0.1,0,0.3,0,0.4,0c0,1.7,0,3.5,0,5.7
	c0.3-0.7,0.4-0.9,0.4-1.1c1-7.7,0.5-15.5-0.2-23.2c-0.5-5.5-0.9-11-1.4-16.5l-0.1,0.1c0.5,3.3,1.3,6.6,1.5,9.9
	c0.6,7.9,1.1,15.7,1.2,23.6c0,4.5-0.9,9-1.4,13.6c-0.1,0.6-0.8,1.5-1.2,1.5c-2.6,0.1-5.3,0-7.9-0.2c-0.4,0-0.9-0.9-1-1.5
	c-1.5-7.9-3.3-15.8-4.2-23.8c-0.9-8.1-1-16.3-1.4-24.4c-0.1-2.1-0.3-4.3-0.3-6.4c0,4.6-0.1,9.2,0,13.8c0.1,6.2,0.5,12.4,0.6,18.6
	c0.1,6-0.1,12,1.2,17.9c0.1,0.7-0.3,1.7-0.8,2.2c-3.8,3.7-8.6,4.4-13.5,3.6c-3.8-0.6-7.5-1.8-11.2-2.6c-4.5-1-8.8,0.2-13.2,0.9
	c-2.8,0.4-5.6,0.7-8.4,0.6c-2.8,0-3.5-1-3.4-3.7c0.3-5.8,0.7-11.6,0.9-17.3c0.2-4.9-0.1-9.8,0.1-14.8c0.2-6.5,0.7-13.1,1.1-19.6
	c0.1-0.9,0-1.7-0.3-2.7c-0.3,2.2-0.7,4.3-0.8,6.5c-0.5,9.5-0.8,19-1.3,28.5c-0.2,3.5-0.9,7.1-1.4,10.6c0,0.2-0.1,0.4-0.1,0.6
	c-0.4,3.8-0.8,7.7-1.3,11.5c-0.1,0.7-0.7,1.7-1.3,1.9c-3.7,1.3-7.4,1.4-10.9-0.7C18.6,109.2,18.6,108.7,18.6,108.3z M88.8,103.1
	c0.1,0.7,0.3,1.6,0.3,2.5c0.3,3.8,0.8,4.3,4.6,4.2c1.1,0,2.2-0.1,3.2-0.4c0.6-0.2,1.4-0.8,1.4-1.3c0.2-1.7,0.1-3.5,0.1-5
	C95,103.1,92,103.1,88.8,103.1z"/>
<path fill="#D72128" d="M21,88c0.2-8.8,0.1-17.5,0.5-26.3c0.3-6.4,1.2-12.9,1.7-19.3c0.3-4,0.3-8.1,0.7-12.1
	c0.3-2.8,1.1-5.5,1.8-8.3c1-3.7,3.6-5.8,7.2-7c3.6-1.1,7.2-2.3,10.7-3.5c1.2-0.4,2.2-1.1,3.3-1.7c1.1,0,2.2,0,3.2,0
	c5.4,1.3,10.9,1.8,16.4,0.6c0.8-0.2,1.7,0.1,2.6,0.2l0,0c-6.4,1.5-12.8,1.7-19.1,0.1c-0.1,0-0.4,0.4-0.6,0.7l-0.1,0.1
	c-0.8-0.7-1.6-1.9-2.4,0c0,0.1-0.2,0.1-0.4,0.2c-0.9,0.2-1.8,0.3-2.6,0.6c-4.1,1.4-8.3,2.7-12.4,4.2c-2.1,0.7-3.7,2-3.3,4.6
	c0,0.1-0.1,0.2-0.2,0.3c-0.1-0.6-0.2-1.1-0.3-1.7c-3.7,4.9-2,9.6,0.4,14.3c-0.2,0-0.3,0-0.5,0.1c-0.8-1.7-1.5-3.4-2.3-5.1
	c-0.7,0.6-1,1.3-1,1.9c-0.2,4.2-0.3,8.3-0.6,12.5c-0.5,6.5-1.4,13-1.7,19.5c-0.4,7.5-0.3,15.1-0.5,22.6C21.4,86.3,21.1,87.2,21,88z"
	/>
<path fill="#D72128" d="M69.2,10.8c2.1,0.7,4.2,1.3,6.2,2.2c3.9,1.7,7.8,3.6,11.8,5.1c3,1.2,4.5,3.4,5.1,6.3
	c1.5,8.1,2.9,16.1,4.1,24.2c0.6,4.2,0.8,8.6,1.2,12.8l0.1-0.1c-0.5-2.8-0.9-5.6-1.5-8.8c-0.1,0.9-0.2,1.5-0.3,2
	c-0.2-6.6-0.7-13.2-2.2-19.7c-0.2,0-0.4,0-0.5,0c-0.2,2.5-0.3,5.1-0.5,8c-1-5.4,1.3-10.5-0.5-15.5c-0.4,0.3-0.7,0.5-1,0.7l0,0
	c0.1-0.9,0.2-1.9,0.4-2.8c-0.1,0-0.2,0-0.3-0.1c-0.5,0.9-1,1.8-1.4,2.6c0-0.9,0.2-1.8,0.6-2.5c0.8-1.6,0.6-3.2-0.5-4.5
	c-0.7-0.8-1.8-1.2-2.8-1.7c-4.5-2.2-9-4.3-13.5-6.5c-1.8-0.9-2.9-0.8-4.1,1c-1.8,2.8-4.6,4.3-7.9,4.6c3.3-0.8,6-2.7,7.9-5.5
	C70,12.1,70.4,11.3,69.2,10.8L69.2,10.8z"/>
<path fill="#D72128" d="M19.8,96.4c-0.1,1.5-0.4,2.9-0.3,4.4c0,0.8,0.7,1.6,1,2.3c-0.5,0.1-0.9,0.2-1.8,0.3
	C19.1,101.1,19.5,98.7,19.8,96.4z"/>
<path fill="#D72128" d="M49.5,11.5c3.6,4,8.1,5.2,13.1,3.6c1.9-0.6,3.6-2.1,5.1-3.1c-1.1,2.9-7.3,4.8-10.3,4.3
	c-3.3-0.6-6.5-1.4-8.1-4.8L49.5,11.5z"/>
<path fill="#D72128" d="M34.7,98c0.7-3.3,1.4-6.6,2.1-9.9c0.1,0,0.3,0,0.4,0.1c-0.7,4.1-1.4,8.2-2.1,12.2c-0.1,0-0.3,0-0.4,0
	C34.8,99.5,34.8,98.7,34.7,98C34.8,97.9,34.7,98,34.7,98z"/>
<path fill="#D72128" d="M87.5,29.5c-1.1,2.4-2.3,4.9-3.4,7.3c-0.1,0-0.1,0-0.2-0.1c0.3-2.1,0.7-4.2,1-6.3c0.1,0.7,0.1,1.3,0.2,2.3
	c0.8-1.3,1.5-2.3,2.2-3.3C87.4,29.4,87.4,29.4,87.5,29.5z"/>
<path fill="#D72128" d="M28.9,42.6c-0.9-3.1-1.7-6.1-2.6-9.2c0.2,0,0.3-0.1,0.5-0.1c0.9,3.1,1.7,6.2,2.6,9.2
	C29.2,42.5,29.1,42.6,28.9,42.6z"/>
<path fill="#D72128" d="M81.8,75.9c-0.7-3.1-1.3-6.2-2-9.3c0.2,0,0.4-0.1,0.6-0.1C80.9,69.7,81.3,72.8,81.8,75.9L81.8,75.9z"/>
<path fill="#D72128" d="M29.6,78c-0.8-2.7-1.6-5.4-2.4-8c0.2-0.1,0.5-0.1,0.7-0.2C28.4,72.5,29,75.2,29.6,78L29.6,78z"/>
<g>
	<path fill="#D62228" d="M18.6,102.7c0,0,0.7,0.4,1.9,0.6c0.6,0.1,1.3,0.2,2,0.3c0.4,0,0.8,0,1.1,0.1c0.4,0,0.8,0,1.2,0l0.6,0
		l0.6-0.1c0.4,0,0.8-0.1,1.2-0.1c0.4,0,0.7-0.1,1.1-0.1c0.3-0.1,0.6-0.1,0.9-0.2c0.3-0.1,0.6-0.1,0.8-0.1c0.2-0.1,0.4-0.1,0.6-0.2
		c0.3-0.1,0.5-0.2,0.5-0.2c0,0-0.1,0.2-0.4,0.3c-0.2,0.1-0.3,0.2-0.6,0.3c-0.2,0.1-0.5,0.2-0.8,0.3c-0.3,0.1-0.6,0.2-1,0.3
		c-0.3,0.1-0.7,0.1-1.1,0.2c-0.4,0-0.8,0.1-1.2,0.1l-0.6,0.1c-0.2,0-0.4,0-0.6,0c-0.4,0-0.8,0-1.2,0c-0.4,0-0.8-0.1-1.2-0.1
		c-0.8-0.1-1.5-0.3-2-0.5c-0.6-0.2-1-0.5-1.3-0.6C18.8,102.9,18.6,102.7,18.6,102.7z"/>
</g>
<path fill="none" stroke="#ED1C24" stroke-width="2.871003e-002" stroke-miterlimit="10" d="M66.1,54.2c0,0,0.3,1.6,0.4,2.1
	c0.1,0.5-0.1,1.6-0.1,2c-0.1,0.4-0.1,1.1-0.1,1.3c0,0.2-0.1,1-0.7,1.8s-1.2,1.4-1.3,1.5s-0.7,1.1-1.9,1.2c-1.1,0.1-1.7-0.2-2-0.4
	s-1.6-1.5-1.8-1.7c-0.3-0.2-1-0.9-1.2-1.4c-0.1-0.4-0.2-0.8-0.4-1.4C57,58.6,56.8,58,56.8,58"/>
<path fill="#D62228" d="M63.4,60.9c-0.3-0.2-0.6-0.3-0.9-0.3c-0.3,0-0.5,0.2-0.6,0.2c-0.1,0-0.2,0-0.2-0.1c-0.1,0-0.2-0.1-0.4,0
	c-0.1,0-0.3,0.2-0.3,0.2s-0.5,0.3-0.6,0.5c-0.1,0.1-0.2,0.2-0.2,0.2s0.3,0,0.5,0c0.1,0,0.1,0,0.4-0.1c0.2,0,0.4-0.1,0.4-0.1
	s0.1,0,0.3,0c0.1,0,0.2-0.1,0.2-0.1s0.1,0,0.1,0c0,0,0.1,0,0.1,0s0.1,0,0.3,0c0.1,0,0.2,0,0.3,0s0.2,0.1,0.3,0.1s0.2,0,0.2,0
	s0.2,0,0.4,0.1s0.3-0.1,0.3-0.1S63.7,61.1,63.4,60.9z M60.9,61.3C60.9,61.3,60.9,61.3,60.9,61.3C60.9,61.3,60.9,61.3,60.9,61.3
	C60.9,61.3,60.9,61.2,60.9,61.3C60.9,61.2,60.9,61.2,60.9,61.3c-0.1-0.1-0.1-0.1-0.1-0.1c0,0,0,0,0,0c0,0,0,0,0,0c0,0,0,0,0,0
	s0,0,0,0c0,0,0,0,0,0c0,0,0,0,0,0C60.9,61.2,60.9,61.2,60.9,61.3C60.9,61.2,60.9,61.2,60.9,61.3C60.9,61.2,60.9,61.2,60.9,61.3
	C60.9,61.3,60.9,61.3,60.9,61.3C60.9,61.3,60.9,61.3,60.9,61.3C60.9,61.3,60.9,61.3,60.9,61.3C61,61.3,61,61.3,60.9,61.3
	C61,61.3,61,61.3,60.9,61.3z M61.9,61.1C61.9,61.1,61.9,61.1,61.9,61.1C61.9,61.1,61.9,61.1,61.9,61.1
	C61.9,61.1,61.9,61.1,61.9,61.1C61.9,61.1,61.9,61.1,61.9,61.1C61.8,61,61.8,61,61.9,61.1c0-0.1,0-0.1,0-0.1c0,0,0,0,0,0
	c0,0,0,0,0,0c0,0,0,0,0,0c0,0,0,0,0,0c0,0,0,0,0,0c0,0,0,0,0,0s0,0,0,0c0,0,0,0,0,0c0,0,0,0,0,0c0,0,0,0,0,0
	C61.9,60.9,61.9,61,61.9,61.1C61.9,61,61.9,61,61.9,61.1C61.9,61,61.9,61.1,61.9,61.1z M62,60.9C62,60.9,62,61,62,60.9
	c0,0.1,0,0.1,0,0.1c0,0,0,0,0,0s0,0,0,0C62,61,62,61,62,60.9C62,61,62,60.9,62,60.9C62,60.9,62,60.8,62,60.9c0-0.1,0-0.1,0-0.1
	c0,0,0,0,0,0c0,0,0,0,0,0s0,0,0,0c0,0,0,0,0,0C62,60.8,62,60.8,62,60.9C62,60.8,62,60.8,62,60.9C62,60.9,62,60.9,62,60.9z
	 M63.1,61.1C63.1,61.1,63.1,61.1,63.1,61.1C63.1,61.1,63.1,61.1,63.1,61.1C63.1,61.1,63.1,61.1,63.1,61.1
	C63.1,61.1,63.1,61.1,63.1,61.1C63,61.1,63,61.1,63.1,61.1C63,61.2,63,61.2,63,61.2S63,61.2,63.1,61.1C63,61.1,63,61.1,63.1,61.1
	C63,61.1,63.1,61.1,63.1,61.1C63.1,61.1,63.1,61.1,63.1,61.1C63.1,61.1,63.1,61.1,63.1,61.1C63.1,61,63.1,61,63.1,61.1
	C63.1,61,63.1,61,63.1,61.1z"/>
<g>
	<path fill="#ED1C24" d="M62,61.3c0,0,0.2,0,0.3,0c0,0,0.1,0,0.1,0c0,0,0.1-0.1,0.1-0.1c0.1,0,0-0.1,0-0.1c0,0,0,0.1,0,0.1
		c0,0,0,0.1-0.1,0.1c0,0-0.1,0-0.1,0C62.2,61.4,62,61.3,62,61.3z"/>
</g>
<g>
	<path fill="#ED1C24" d="M61.2,61.4l0.2,0c0,0,0,0,0.1,0.1c0,0,0.1,0,0.1,0l0.4,0l0,0l0-0.1l0,0.1l0,0l-0.4,0c0,0-0.1,0-0.1,0
		c0,0,0-0.1-0.1-0.1L61.2,61.4z"/>
</g>
<g>
	<path fill="#ED1C24" d="M62.6,61.2C62.6,61.2,62.6,61.2,62.6,61.2c0,0.1,0.1,0,0.1,0c0.1,0,0.2,0,0.2,0s-0.1,0-0.2,0
		C62.7,61.2,62.7,61.3,62.6,61.2C62.6,61.2,62.6,61.2,62.6,61.2L62.6,61.2z"/>
</g>
<g>
	<path fill="#ED1C24" d="M62.7,58.6c0,0,0,0.1,0.1,0.2c0.1,0.1,0.2,0.3,0.2,0.4c0,0.1,0,0.2-0.1,0.3c0,0.1-0.1,0.1-0.2,0.2
		c-0.1,0.1-0.2,0.1-0.2,0.1s0.1,0,0.2-0.1c0.1,0,0.1-0.1,0.2-0.2c0.1-0.1,0.1-0.2,0-0.2c-0.1-0.2-0.2-0.3-0.2-0.4
		C62.8,58.7,62.7,58.6,62.7,58.6z"/>
</g>
<g>
	<path fill="#ED1C24" d="M60.7,59.2c0,0,0,0.1-0.1,0.2c0,0.1-0.1,0.2,0,0.4c0,0.1,0.1,0.1,0.1,0.1c0.1,0,0.1,0,0.2,0.1
		c0.1,0,0.2,0,0.2,0s-0.1,0-0.2,0c0,0-0.1,0-0.2-0.1c0,0-0.1-0.1-0.1-0.1c0-0.1,0-0.3,0-0.4C60.7,59.3,60.7,59.2,60.7,59.2z"/>
</g>
<g>
	<path fill="#ED1C24" d="M60.9,59.8c0,0,0.2-0.1,0.3-0.1c0,0,0.1,0,0.1,0c0,0,0.1,0,0.1,0.1c0.1,0,0.1,0.1,0.1,0.1s0,0-0.1-0.1
		c0,0-0.1,0-0.1-0.1c0,0-0.1,0-0.1,0C61.1,59.7,60.9,59.8,60.9,59.8z"/>
</g>
<g>
	<path fill="#ED1C24" d="M61.7,60c0,0,0.1,0,0.2,0c0.1,0,0.2-0.1,0.3-0.2c0.1-0.1,0.2-0.3,0.3-0.2c0.1,0,0.2,0,0.2,0s-0.1,0-0.2,0
		c-0.1,0-0.2,0.1-0.3,0.2c-0.1,0.1-0.2,0.2-0.4,0.2C61.8,60,61.7,60,61.7,60z"/>
</g>
<path fill="#D62228" d="M62.4,59.6c0,0,0.1,0,0.2-0.1c0,0,0.1,0,0.1,0C62.8,59.5,62.5,59.4,62.4,59.6z"/>
<path fill="#D62228" d="M61.4,59.8C61.4,59.8,61.4,59.7,61.4,59.8c-0.1-0.1-0.2-0.1-0.2-0.1L61.4,59.8z"/>
<g>
	<path fill="#ED1C24" d="M61.2,62.8c0,0,0.5-0.1,1.1-0.2c0.3,0,0.5,0,0.7,0c0.2,0,0.3,0,0.3,0s-0.1,0-0.3,0c-0.2,0-0.5,0-0.7,0
		C61.7,62.7,61.2,62.8,61.2,62.8z"/>
</g>
<g>
	<path fill="#ED1C24" d="M63.2,56.1c0,0-0.1,0.1-0.3,0.2c-0.1,0.1-0.2,0.1-0.2,0.2c0,0.1,0,0.1,0,0.1s0,0,0-0.1
		c0-0.1,0.1-0.1,0.2-0.2C63.1,56.2,63.2,56.1,63.2,56.1L63.2,56.1z"/>
</g>
<g>
	<path fill="#ED1C24" d="M62.8,56.6c0,0,0.1-0.1,0.3-0.2c0.2-0.1,0.5,0,0.8,0c0.3,0,0.5-0.1,0.7-0.2c0.2-0.1,0.3-0.2,0.3-0.2
		c0,0-0.1,0.1-0.3,0.2c-0.2,0.1-0.4,0.2-0.7,0.2c-0.3,0-0.6-0.1-0.8,0C62.9,56.5,62.8,56.6,62.8,56.6z"/>
</g>
<g>
	<path fill="#ED1C24" d="M64.6,56.1c0,0-0.1,0.1-0.2,0.1c-0.1,0-0.2,0.2-0.4,0.2c-0.1,0.1-0.3,0.1-0.4,0c-0.1,0-0.2,0-0.2,0
		s0.1,0,0.2,0c0.1,0,0.3,0,0.4-0.1c0.2,0,0.3-0.1,0.4-0.2C64.6,56.1,64.6,56.1,64.6,56.1z"/>
</g>
<path fill="none" stroke="#ED1C24" stroke-width="1.435502e-002" stroke-miterlimit="10" d="M63,56.3C63,56.3,63.1,56.3,63,56.3"/>
<path fill="#D62228" d="M65.2,54.9c-0.2-0.1-0.5-0.1-0.7-0.1c0,0,0,0,0,0c0,0-0.1,0-0.1,0c0,0-0.1,0-0.1,0c0,0,0,0,0,0
	c0,0-0.1,0-0.1,0.1c-0.1,0-0.2,0.1-0.3,0.1c0,0,0,0,0,0c0,0,0,0-0.1,0c0,0,0,0-0.1,0c0,0,0,0-0.1,0c0,0,0,0-0.1,0c0,0,0,0-0.1,0
	c0,0,0,0,0,0c0,0,0,0,0,0c0,0,0,0,0,0c0,0-0.1,0-0.1,0c0,0,0,0-0.1,0c0,0-0.1,0-0.1,0c0,0-0.1,0-0.1,0c0,0,0,0,0,0
	c0,0-0.1,0.1-0.1,0.1c0,0.1-0.1,0-0.1,0.1c0,0,0,0,0,0c0,0,0,0,0,0c0,0,0,0,0,0c0,0,0,0-0.1,0c0,0,0,0,0,0.1c0,0,0.1,0,0.1-0.1
	c0,0,0,0-0.1,0.1c0,0,0,0,0.1,0c0,0,0,0,0,0l-0.1,0.1c0,0,0,0,0,0c0,0,0,0,0,0c0,0,0,0,0,0c0,0,0,0,0,0c0,0,0,0,0,0.1
	c0.1,0,0.1,0,0.2-0.1c0,0,0,0,0,0c0.1,0,0.1-0.1,0.1-0.1c0,0,0,0,0,0c0,0,0,0,0,0c0,0,0,0,0,0.1c0,0,0,0,0,0c0,0,0,0,0,0
	c0,0,0,0,0,0c0,0,0,0,0,0c0,0,0.1,0,0.1,0c0,0,0,0,0,0c0,0,0,0,0,0c0,0,0,0,0.1,0c0,0,0,0,0,0c0,0,0,0,0,0c0,0,0,0,0,0c0,0,0,0,0,0
	c0,0,0.1,0,0.1,0c0,0,0.1,0,0.1,0c0,0,0.1,0,0.1,0c0,0,0,0,0,0c0,0,0,0,0-0.1c0,0,0.6-0.2,0.6-0.2c0.1,0,0.3-0.1,0.7-0.2
	c0.2,0,0.4,0,0.4,0c0,0,0.2,0.1,0.3,0.1C65.6,55.1,65.4,54.9,65.2,54.9z M63.2,55.6c0.1,0,0.1,0,0.1,0
	C63.3,55.5,63.3,55.6,63.2,55.6z"/>
<path fill="#D62228" d="M65.2,56C65.2,56,65.3,56,65.2,56C65.3,56,65.3,55.9,65.2,56c0-0.1,0.1-0.1,0.1-0.1c0,0,0,0,0-0.1
	c0.1-0.1,0.1-0.1,0.1-0.2c0,0.1,0,0.1-0.1,0.2c0,0-0.1,0.1-0.1,0.1c0,0-0.1,0.1-0.2,0.1l0,0c0.1-0.1,0.2-0.2,0.2-0.4
	c0,0,0,0.1,0,0.1c0,0,0,0.1-0.1,0.1c0,0,0,0,0,0c0,0.1-0.1,0.1-0.1,0.1c0-0.1,0-0.1,0.1-0.1c0,0,0-0.1,0.1-0.1
	c-0.1,0.1-0.1,0.1-0.2,0.2c0.1-0.1,0.1-0.1,0.2-0.2c0-0.1,0.1-0.1,0.1-0.2c0,0.1-0.1,0.1-0.1,0.2l0,0c0,0,0,0,0-0.1
	c0,0-0.1,0.1-0.1,0.1c0,0,0,0,0,0l0,0c0,0,0,0,0,0.1c0-0.1,0-0.1,0.1-0.2c0-0.1,0-0.2,0-0.2c0,0.1,0,0.1,0,0.2c0,0,0,0,0,0
	c0,0,0-0.1,0-0.1c0,0.1,0,0.2-0.1,0.3c0,0,0,0,0,0c0,0,0,0,0-0.1c0,0-0.1,0-0.1,0c0,0,0,0,0,0.1c0,0,0,0,0,0c0,0,0,0,0,0
	c0,0,0,0-0.1,0c0-0.1,0-0.2,0-0.3c0,0.1,0,0.1,0,0.2c0,0,0,0,0,0c0,0,0,0,0-0.1c0,0,0,0,0-0.1c0,0,0,0,0,0c0,0.1,0,0.1-0.1,0.1
	c0,0,0,0,0-0.1c0,0,0,0,0,0c0,0,0,0.1,0,0.1c0,0,0,0,0,0c0,0,0,0,0,0c0,0,0,0,0,0c0,0,0-0.1,0.1-0.1c0,0,0,0,0,0l-0.1,0.1
	c0,0,0,0,0,0c0,0,0-0.1,0-0.1c0,0,0,0,0,0c0,0,0,0.1-0.1,0.2c0,0,0,0,0-0.1c0,0,0,0-0.1,0c0,0,0-0.1,0-0.1c0,0,0,0.1,0,0.1
	c0,0,0,0,0,0c0,0,0,0,0,0c0,0,0,0,0,0l0,0l0,0c0,0,0,0,0,0c0,0,0,0,0,0c0,0,0,0,0-0.1c0,0,0,0,0,0c0,0,0,0.1,0,0.1c0,0,0,0,0,0
	c0,0,0,0,0,0c0,0,0,0,0-0.1c0,0,0,0,0,0c0,0,0,0,0,0c0,0,0,0,0,0.1c0,0,0,0,0,0c0,0,0,0,0,0l0,0c0,0,0,0,0,0c0,0-0.1,0-0.1,0
	c0,0-0.1,0-0.1,0c0,0,0,0.1,0,0.1c0,0,0,0,0,0c0,0,0,0,0,0.1c0,0,0,0,0,0c0,0,0,0,0,0c0,0,0,0,0,0c0,0,0,0,0,0c0,0,0-0.1,0-0.1
	c0,0,0,0,0,0c0,0,0,0,0,0c0,0,0,0-0.1,0c0,0,0,0,0,0c0,0,0,0,0,0c0,0,0,0,0,0l0,0c0,0,0,0,0,0.1c0,0,0,0,0-0.1c0,0,0,0,0,0
	c0,0,0,0,0,0c0,0,0,0,0,0c0,0,0,0,0,0c0,0,0,0,0,0c0,0,0,0,0,0.1c0,0,0,0,0,0c0,0,0,0.1,0,0.1c0,0-0.1,0-0.1-0.1c0,0,0,0,0,0
	c0,0,0,0,0,0c0,0,0,0,0-0.1c0,0,0,0,0,0c0,0,0,0,0,0c0,0,0,0,0,0.1l0,0c0,0,0,0.1,0,0.1c-0.1,0-0.1,0-0.1,0.1c0,0-0.1,0.1-0.1,0.1
	c0,0,0,0,0,0c0,0,0,0,0,0c0,0,0,0,0,0c0,0,0,0,0,0.1c0,0,0,0-0.1,0c0,0,0,0.1,0,0.1c0,0-0.1,0.1-0.1,0.1c0,0,0,0-0.1,0
	c0,0,0,0.1,0,0.1c0,0,0.1,0,0.1-0.1c0,0,0.1,0,0.1,0c0,0,0,0,0,0c0-0.1,0-0.1,0.1-0.2c0,0,0,0,0.1,0c0,0,0,0,0,0
	c0.1,0,0.1-0.1,0.1-0.1c0,0,0,0,0,0c0,0,0,0,0.1,0c0,0,0,0,0,0c0,0,0,0,0,0c0,0,0,0,0,0c0,0,0,0.1,0,0.1c0,0.1,0.1,0.3,0.3,0.3
	c0.1,0,0.1,0,0.1,0c0,0-0.1,0-0.1,0c0,0,0,0,0,0c0,0,0-0.1,0-0.1c0,0,0,0,0.1,0c0.1,0,0.1,0,0.1,0c0,0,0,0,0.1,0l0,0c0,0,0,0,0,0.1
	c0,0,0,0,0,0c0,0,0,0,0,0c0,0,0,0,0-0.1c0,0,0,0,0,0c0,0,0,0,0,0c0,0,0,0.1,0,0.1c0,0,0,0,0,0.1c0.1,0,0.2,0,0.3-0.1
	c0.2-0.1,0.1-0.3,0.2-0.3c0.1,0,0.1,0,0.2,0.1c0,0,0,0,0.1,0c0,0.1,0,0.1,0,0.2c0,0,0,0,0.1,0c0,0.1,0.1,0.1,0.1,0.1c0,0,0,0-0.1,0
	c-0.1-0.1-0.1-0.1-0.2,0c0,0,0,0,0.1,0c0,0,0,0,0,0c0,0,0,0-0.1,0c0,0,0,0,0,0c-0.1,0-0.1,0-0.1,0c-0.1,0-0.1,0-0.2,0
	c0.1,0,0.1,0.1,0.1,0.2c0,0,0,0,0,0c0,0,0-0.1,0-0.1l0,0c0,0,0,0,0,0c0,0,0,0,0,0c0,0,0,0,0,0c0,0,0.1,0,0.1,0c0,0,0,0.1,0.1,0.1
	c0,0,0,0,0,0c0,0,0,0,0,0c0,0,0,0,0,0c0,0,0,0,0-0.1c0,0,0,0,0-0.1c0,0,0,0.1,0.1,0c0,0,0-0.1-0.1-0.1c0,0,0,0,0,0l0.1,0.1
	c0,0,0,0,0,0c0,0,0,0,0,0l0,0c0,0,0,0,0,0c0,0,0,0,0,0c0,0,0-0.1-0.1-0.1c0.1,0,0.2,0,0.3,0.1c0,0,0,0,0,0c0,0-0.1-0.1-0.1-0.1l0,0
	c0,0,0,0,0.1,0c0-0.1,0,0,0.1,0c0,0,0,0,0-0.1c0,0,0,0,0,0c0,0,0,0,0,0c0,0,0,0,0,0c0,0,0,0,0,0c0,0,0-0.1,0-0.1c0,0,0,0,0,0
	c0,0,0,0,0,0c0,0,0,0-0.1,0c0,0,0,0,0.1,0c0,0,0.1,0,0.1,0c0,0,0.1,0,0.1,0c0,0-0.1,0-0.1,0c0-0.1,0.1-0.1,0.2-0.1c0,0,0,0-0.1,0
	C65.2,56.1,65.3,56.1,65.2,56C65.3,56,65.3,56.1,65.2,56C65.2,56,65.2,56,65.2,56C65.3,56,65.3,56,65.2,56C65.2,56,65.2,56,65.2,56
	C65.2,56,65.2,56,65.2,56z M63.3,56.1C63.3,56.1,63.3,56.1,63.3,56.1C63.3,56,63.3,56,63.3,56.1C63.3,56,63.3,56,63.3,56.1
	C63.3,56,63.3,56,63.3,56.1z M63.3,56C63.3,55.9,63.4,55.9,63.3,56C63.4,56,63.4,56,63.3,56C63.4,56,63.4,56,63.3,56z M63.6,56.1
	C63.6,56.1,63.6,56.1,63.6,56.1C63.6,56.1,63.6,56.1,63.6,56.1C63.5,56.1,63.6,56.1,63.6,56.1z M63.7,56.3L63.7,56.3
	C63.6,56.3,63.6,56.3,63.7,56.3C63.7,56.3,63.7,56.3,63.7,56.3L63.7,56.3C63.7,56.3,63.7,56.3,63.7,56.3z M63.7,56.2
	C63.6,56.2,63.6,56.2,63.7,56.2C63.6,56.2,63.6,56.2,63.7,56.2C63.7,56.2,63.7,56.2,63.7,56.2C63.7,56.2,63.6,56.2,63.7,56.2
	C63.7,56.2,63.7,56.1,63.7,56.2C63.7,56.1,63.7,56.1,63.7,56.2C63.7,56.2,63.7,56.2,63.7,56.2z M63.9,56.1
	C63.9,56.1,63.9,56.1,63.9,56.1C63.8,56,63.8,56,63.9,56.1C63.8,56,63.8,56,63.9,56.1c-0.1-0.1-0.1,0-0.1,0c0,0-0.1-0.1-0.1-0.1
	c0,0,0.1,0,0.1,0c0,0,0,0,0,0c0,0,0,0,0,0c0,0,0,0,0,0c0,0,0,0,0,0c0,0,0,0,0,0C63.9,55.9,63.9,56,63.9,56.1
	C63.9,56,63.9,56.1,63.9,56.1z M64,56.2C64,56.2,64,56.2,64,56.2C64,56.2,64,56.2,64,56.2C64.1,56.2,64.1,56.2,64,56.2
	C64.1,56.2,64,56.2,64,56.2z M64.6,55.6c0,0,0-0.1,0.1-0.1C64.7,55.6,64.7,55.6,64.6,55.6z M65,56.1c0.1,0,0.1,0,0.2-0.1
	c0,0,0,0,0,0C65.1,56.1,65.1,56.1,65,56.1z M65.1,56c0,0,0.1,0,0.1,0c0,0,0,0,0,0C65.2,56,65.1,56,65.1,56z"/>
<path fill="#D62228" d="M63.6,56.6c0-0.1,0-0.1,0-0.1c0,0,0,0,0,0C63.6,56.5,63.6,56.5,63.6,56.6c0-0.1,0-0.1,0-0.1c0,0,0,0,0,0
	c0,0,0,0,0.1,0C63.7,56.5,63.7,56.5,63.6,56.6C63.7,56.6,63.7,56.6,63.6,56.6z"/>
<path fill="#D62228" d="M63.9,56.6C63.9,56.6,63.8,56.6,63.9,56.6c-0.1-0.1-0.1-0.1-0.1-0.1c0,0,0,0,0,0c0,0,0,0,0,0c0,0,0,0,0,0
	c0,0,0,0,0,0C63.9,56.5,63.9,56.5,63.9,56.6c0-0.1,0-0.1,0-0.2c0,0,0,0,0,0C63.9,56.5,63.9,56.5,63.9,56.6
	C63.9,56.6,63.9,56.6,63.9,56.6z"/>
<path fill="#D62228" d="M64,56.5C64,56.5,64,56.5,64,56.5C64.1,56.6,64.1,56.6,64,56.5C64.1,56.6,64.1,56.6,64,56.5
	C64,56.6,64,56.6,64,56.5c0.1,0.1,0.1,0.1,0.1,0.1c0,0,0,0,0,0C64,56.6,64,56.6,64,56.5C64,56.5,64,56.5,64,56.5z"/>
<path fill="#D62228" d="M63.3,56.5C63.4,56.5,63.4,56.5,63.3,56.5c0.1-0.1,0.1-0.1,0.1,0C63.4,56.5,63.4,56.5,63.3,56.5
	C63.3,56.5,63.3,56.5,63.3,56.5z"/>
<path fill="#D62228" d="M63.5,56.5C63.5,56.5,63.5,56.5,63.5,56.5c0,0.1,0,0.1,0,0.1C63.5,56.5,63.5,56.5,63.5,56.5z"/>
<path fill="#D62228" d="M63.5,56.6C63.5,56.5,63.5,56.5,63.5,56.6C63.5,56.5,63.5,56.5,63.5,56.6C63.5,56.5,63.5,56.5,63.5,56.6
	C63.5,56.6,63.5,56.6,63.5,56.6z"/>
<g>
	<path fill="#ED1C24" d="M62.6,56.5c0,0,0-0.1,0.1-0.1c0-0.1,0.1-0.2,0.2-0.3c0.1-0.1,0.2-0.2,0.3-0.2c0.1-0.1,0.1-0.1,0.1-0.1l0,0
		c0,0-0.1,0-0.1,0.1C63.1,56,63,56,62.9,56.1c-0.1,0.1-0.2,0.2-0.2,0.3C62.6,56.5,62.6,56.5,62.6,56.5z"/>
</g>
<path fill="#D62228" d="M64.2,50.7c0.1,0.1,1,1.8-0.3,3.6c-1.3,1.8-3,2.5-3,2.5s1.5-1.2,2.2-2.9c0.7-1.7,0.5-2.1,0.5-2.1
	s0,3.2-2.8,4.9s-3,0.9-3,0.9s-1.1,0.7-2.3,0.5s0.7,0.2,1.4-0.7c0.7-1,0.5-2.4,0.4-3.6c-0.1-1.2,0,2.9-0.6,3.5s-0.8,1.2-0.3,1.4
	c0.5,0.2-3.8-0.9,0.8-7s-1.8,3.3-2.4,2.9c0,0-0.5-0.6-0.2-1.7c0.3-1,0.2-0.3-0.4-1c-0.6-0.7-0.7-1.5-0.3-2.5c0.4-1,1-1.2,1-1.2
	s-0.2,0.3,0.5-0.5c0.7-0.8,1.1-1.5,2.5-2c1.2-0.4,2.7,0,3,0c0.2,0-0.9-0.4-0.9-0.4s2.9-0.1,3.3,0c1.1,0.3,1.4,0.5,1.6,0.6
	c0.8,0.5,1.1,0.8,1.4,1.2c0.9,0.7,1,1.5,1,1.5s-0.3,0.5,0.3,1.2c0.6,0.7,0.9,0.8,0.9,0.8s0.1,0.7-0.3,1.1c-0.4,0.4,0.1,0.5-0.7,0.9
	c-0.5,0.3-0.3,1.1-0.3,1.1L66.8,54l0.1,0.3c0,0,0.3,0.2,0.6,0.7s0.3,1.5,0,2.3c-0.3,0.8-0.8,2.1-0.5,2.3c0.4,0.2,0.5-0.6,0.5-0.6
	s0,1.4-0.7,0.3c-0.7-1.1,0.8-1.5,0.2-2.8c-0.6-1.3-0.8-2-0.8-2s-0.1,0.2-0.7-0.7S64.2,50.7,64.2,50.7z"/>
<path fill="#D62228" d="M66.4,58.4c0,0,0.2,4,0.7,4.4c0.1,0.1,0,0.2-0.1,0.2c-0.1,0.1-0.2,0.2-0.2,0.2s-0.8-0.5-0.9-1.3
	c-0.2-0.8-0.2-0.8-0.2-0.8S66,61,66.2,60C66.3,59.6,66.3,59,66.4,58.4z"/>
<g>
	<path fill="#ED1C24" d="M66.5,57.9c0,0,0.1,0,0.1,0c0.1,0,0.2-0.1,0.2-0.2c0.1-0.1,0.1-0.2,0.1-0.3c0-0.1,0-0.2,0-0.2s0,0.1,0,0.2
		c0,0,0,0.1,0,0.2c0,0.1,0,0.1-0.1,0.2c-0.1,0.1-0.2,0.2-0.2,0.2C66.5,57.9,66.5,57.9,66.5,57.9z"/>
</g>
<path fill="#D62228" d="M53.2,55.7c0,0-0.3,1.5-0.7,2.5c-0.5,1.4,0.5,2.9,1.8,4.2c1.2,1.3,0.9,1.4,1.3,1.8c0.2,0.2,0.8,0.8,0.8,0.8
	l0.9,0.1c0,0,0.2-0.2-1.9-2.9c-2-2.6-1.8-3.2-1.8-4.2C53.6,57,53.2,55.7,53.2,55.7z"/>
<path fill="#D62228" d="M57.6,64.9c0,0,1.5-0.1-0.9-2.3c-2.4-2.2-3.1-2.6-3.1-3.6c0-1-0.2-2.9-0.3-3.4c-0.1-0.4,1.2-1,1.2-1
	s0.1,3.4,1.2,4c0.8,0.5,0.7,0,0.7,0s-0.1-0.1-0.3-0.2c-0.3-0.2-0.1-0.2-0.1-0.2l0.7-0.1c0,0,0.3,0.9,0.4,1.3c0.1,0.4,0.2,1,0.3,1.4
	c0.1,0.3,0.5,0.7,0.5,0.7s1.1,3.6,0.6,3.8c-0.5,0.2-1.1,0.1-1.4,0S57.6,64.9,57.6,64.9z"/>
<path fill="#D62228" d="M54.4,60.5c0,0,2.7,3.6,2.6,4.1c-0.1,0.5,0.7,0.4,0.7,0.4S57.4,62.7,54.4,60.5z"/>
<path fill="#D52328" d="M58.8,65.7c0,0,0.1-0.5,0-1.2"/>
<g>
	<path fill="#D52328" d="M53.3,55.9c0,0-0.5,0.5-1,1.3c-0.3,0.4-0.5,0.9-0.7,1.5c-0.2,0.6-0.3,1.3-0.1,1.9c0.2,0.6,0.6,1.2,1,1.7
		c0.4,0.5,0.8,0.8,1.2,1.1c0.8,0.6,1.4,0.8,1.4,0.8s-0.6-0.2-1.4-0.8c-0.4-0.3-0.8-0.7-1.3-1.1c-0.4-0.5-0.8-1-1-1.7
		c-0.2-0.6-0.1-1.3,0-1.9c0.2-0.6,0.4-1.1,0.7-1.5C52.8,56.3,53.2,55.8,53.3,55.9L53.3,55.9z"/>
</g>
<g>
	<path fill="#D52328" d="M52.9,56.5c0,0-0.3,0.4-0.6,1.1c-0.1,0.4-0.3,0.8-0.3,1.3c0,0.2-0.1,0.5,0,0.7c0,0.3,0.1,0.5,0.2,0.7
		c0.1,0.2,0.2,0.5,0.4,0.7c0.2,0.2,0.3,0.4,0.5,0.5c0.4,0.3,0.7,0.6,1,0.9c0.3,0.3,0.5,0.5,0.7,0.6c0.2,0.1,0.3,0.2,0.3,0.2
		s-0.1-0.1-0.3-0.2c-0.2-0.1-0.4-0.4-0.7-0.6c-0.3-0.3-0.6-0.6-1-0.9c-0.2-0.2-0.4-0.3-0.5-0.5c-0.1-0.2-0.3-0.4-0.4-0.7
		c-0.1-0.2-0.1-0.5-0.2-0.8c0-0.3,0-0.5,0-0.7c0.1-0.5,0.2-0.9,0.3-1.3C52.5,56.9,52.8,56.5,52.9,56.5L52.9,56.5z"/>
</g>
<path fill="none" stroke="#D52328" stroke-width="1.435502e-002" stroke-miterlimit="10" d="M52.9,56.2c0,0-2,3.2,0.5,5.7"/>
<path fill="#D62228" d="M62.9,61.4c-0.4,0.2-0.9,0.3-1.4,0.2c-0.5,0-0.6-0.2-0.8-0.2c-0.2,0-0.6,0-0.6,0s0.3,0.3,0.5,0.6
	c0.2,0.3,0.7,0.6,1.4,0.5c0.8-0.1,1-0.4,1.2-0.5c0.2-0.2,0.5-0.8,0.5-0.8S63.3,61.2,62.9,61.4z M60.7,61.7L60.7,61.7L60.7,61.7
	l-0.1,0.1l0-0.1l-0.1,0l-0.1-0.1v0h0.1h0.1l0.1,0L60.7,61.7v-0.1V61.7z M61.7,61.9C61.7,61.9,61.7,61.9,61.7,61.9
	C61.7,61.9,61.7,61.9,61.7,61.9C61.7,61.9,61.7,62,61.7,61.9c0,0.1,0,0.1,0,0.1c0,0,0,0,0,0c0,0,0,0,0,0c0,0,0,0,0,0c0,0,0,0,0,0
	s0,0,0,0c0,0,0,0,0,0c0,0,0,0,0,0C61.7,62,61.7,62,61.7,61.9C61.7,62,61.7,62,61.7,61.9C61.7,61.9,61.7,61.9,61.7,61.9
	C61.7,61.9,61.7,61.9,61.7,61.9C61.7,61.9,61.7,61.9,61.7,61.9C61.7,61.9,61.7,61.9,61.7,61.9z M60.8,61.9
	C60.8,61.9,60.8,61.9,60.8,61.9C60.8,61.9,60.8,61.9,60.8,61.9C60.8,61.9,60.8,61.9,60.8,61.9C60.8,61.9,60.8,61.9,60.8,61.9
	c0-0.1,0-0.1,0-0.1c0,0,0,0,0,0c0,0,0,0,0,0c0,0,0,0,0,0s0,0,0,0c0,0,0,0,0,0c0,0,0,0,0,0C60.8,61.8,60.8,61.8,60.8,61.9
	C60.8,61.9,60.8,61.9,60.8,61.9C60.8,61.9,60.8,61.9,60.8,61.9C60.8,61.9,60.8,61.9,60.8,61.9z M61.1,62l-0.1,0.1L61.1,62l-0.2,0
	l0-0.2L60.8,62l0.1-0.1l0.2-0.1l-0.1,0.2l0.2-0.1L61.1,62l0.2-0.2L61.1,62L61.1,62z M61.2,62.3v-0.2C61.2,62.1,61.2,62.1,61.2,62.3
	c-0.1,0-0.1-0.2,0-0.3l0.1-0.1L61.2,62l0.2-0.2l-0.1,0.3L61.2,62.3z M61.8,62.1L61.8,62.1l-0.2,0.1v-0.1l-0.1,0.1l0-0.1l-0.1,0.1
	l0-0.1l-0.1,0.1l0.1-0.2l0.1-0.1v0l0.1-0.1L61.6,62l0.1,0l0,0.1c0,0,0.1,0,0.1-0.1c0-0.1,0-0.1,0-0.1L61.8,62.1z M62.5,61.9
	C62.5,61.9,62.5,61.9,62.5,61.9C62.5,61.9,62.5,61.9,62.5,61.9C62.5,61.8,62.6,61.8,62.5,61.9C62.6,61.8,62.6,61.8,62.5,61.9
	C62.6,61.8,62.6,61.8,62.5,61.9C62.6,61.8,62.6,61.8,62.5,61.9C62.6,61.8,62.6,61.8,62.5,61.9C62.6,61.8,62.6,61.9,62.5,61.9
	C62.6,61.9,62.6,61.9,62.5,61.9C62.6,61.9,62.6,61.9,62.5,61.9C62.6,61.9,62.6,61.9,62.5,61.9C62.6,61.9,62.5,61.9,62.5,61.9
	C62.5,61.9,62.5,61.9,62.5,61.9C62.5,61.9,62.5,61.9,62.5,61.9C62.5,61.9,62.5,61.9,62.5,61.9C62.5,61.9,62.5,61.9,62.5,61.9
	C62.5,61.9,62.5,61.9,62.5,61.9C62.5,61.9,62.5,61.9,62.5,61.9z M62,62.4C62,62.4,62,62.4,62,62.4C62,62.4,62,62.4,62,62.4
	c0-0.1,0-0.1,0-0.1c0,0,0,0,0-0.1c0,0,0-0.1,0-0.1c0,0,0-0.1,0-0.1c0,0,0-0.1,0-0.1c0,0,0-0.1,0-0.1c0,0,0,0,0,0s0,0,0,0
	c0,0,0,0,0,0.1c0,0.1,0,0.1,0,0.2c0,0,0,0.1,0,0.1c0,0,0,0,0,0.1C62,62.3,62,62.4,62,62.4C62,62.4,62,62.4,62,62.4
	C62,62.4,62,62.4,62,62.4C62,62.5,62,62.5,62,62.4C62,62.5,62,62.5,62,62.4z M62.5,62.1L62.5,62.1l-0.1,0c0,0,0,0,0,0.1
	c0,0-0.1,0-0.1,0l0,0.1l-0.1-0.1c0,0,0,0,0,0.1c0,0.1-0.1-0.1-0.1-0.1l0,0.1c0,0-0.1,0-0.1-0.3l0.1-0.1l0,0.1l0.1-0.1c0,0,0,0,0,0.1
	s0,0.1,0,0.1v-0.2l0,0.1l0-0.1l0.1-0.1l0,0.1l0-0.1l0.1,0.1h0l0.1,0.2L62.5,62.1z M62.6,62.1C62.6,62.1,62.6,62.1,62.6,62.1
	C62.6,62.1,62.6,62.1,62.6,62.1C62.6,62.1,62.6,62.1,62.6,62.1C62.6,62,62.6,62,62.6,62.1c-0.1-0.1-0.1-0.1-0.1-0.1c0,0,0,0,0,0
	c0,0,0,0,0,0c0,0,0,0,0,0c0,0,0,0,0,0c0,0,0,0,0,0c0,0,0,0,0,0s0,0,0,0c0,0,0,0,0,0c0,0,0,0,0,0c0,0,0,0,0,0c0,0,0,0,0,0
	c0,0,0,0,0,0c0,0,0,0,0,0C62.6,62,62.6,62,62.6,62.1C62.6,62,62.6,62,62.6,62.1C62.6,62.1,62.6,62.1,62.6,62.1
	C62.6,62.1,62.6,62.1,62.6,62.1C62.6,62.1,62.6,62.1,62.6,62.1C62.6,62.1,62.6,62.1,62.6,62.1z"/>
<g>
	<path fill="#ED1C24" d="M61.8,60.1c0,0,0,0.1-0.1,0.1c0,0,0,0.1-0.1,0.2c0,0,0,0.1,0,0.1c0,0,0,0.1,0,0.1c0.1,0.1,0.2,0.1,0.3,0
		c0.1,0,0.1-0.1,0.1-0.1c0,0,0,0.1-0.1,0.1c-0.1,0-0.2,0.1-0.3,0c0-0.1,0-0.1,0-0.2c0-0.1,0-0.1,0.1-0.1
		C61.8,60.2,61.8,60.1,61.8,60.1z"/>
</g>
<g>
	<path fill="#ED1C24" d="M62.4,56.1c0,0,0,0-0.1,0.1c-0.1,0.1,0,0.2-0.1,0.3c0,0.1,0,0.3,0,0.3c0,0.1,0,0.2,0,0.2s0-0.1,0-0.2
		c0-0.1,0-0.2,0-0.3c0-0.1,0-0.3,0.1-0.3C62.3,56.1,62.4,56.1,62.4,56.1z"/>
</g>
<g>
	<path fill="#D52328" d="M52.8,48.5c0,0-0.1,0.9-0.3,2.2c-0.1,0.3,0,0.7-0.2,1.1c-0.2,0.3-0.4,0.7-0.7,1c-0.5,0.6-1.2,1.3-1.8,1.9
		c-2.5,2.5-5.1,4.9-5.1,4.9s2.6-2.4,5.1-5c0.6-0.6,1.2-1.3,1.8-1.9c0.3-0.3,0.5-0.6,0.7-1c0.1-0.4,0.1-0.7,0.2-1.1
		C52.7,49.4,52.8,48.5,52.8,48.5z"/>
</g>
<path fill="#D62228" d="M54.1,52.2c0,0,0,2.1-2.9,5.6c-2.9,3.4-4.1,6-4.1,6l-0.8,1.6c0,0,3.2-5,4.2-6.2c1-1.2,3.8-4.6,3.8-4.6
	S54.4,52.7,54.1,52.2z"/>
<g>
	<path fill="#D52328" d="M64.8,65.7c0,0,0.8-1.1,1.7-2.1c0.2-0.3,0.5-0.5,0.7-0.7c0.2-0.2,0.5-0.4,0.7-0.6c0.2-0.2,0.4-0.3,0.5-0.4
		c0.1-0.1,0.2-0.1,0.2-0.1s-0.1,0-0.2,0.1c-0.1,0.1-0.3,0.2-0.5,0.4c-0.2,0.2-0.4,0.4-0.6,0.6c-0.2,0.2-0.5,0.5-0.7,0.7
		C65.6,64.6,64.8,65.7,64.8,65.7z"/>
</g>
<g>
	<path fill="#D52328" d="M67.8,64.1c0,0,0.8-2.4,1.9-4.7c0.3-0.6,0.6-1.1,0.8-1.7c0.1-0.3,0.3-0.5,0.4-0.7c0.1-0.2,0.3-0.5,0.4-0.7
		c0.1-0.2,0.3-0.4,0.4-0.5c0.1-0.2,0.2-0.3,0.3-0.4c0.2-0.2,0.3-0.3,0.3-0.3s-0.1,0.1-0.3,0.4c-0.1,0.1-0.2,0.2-0.3,0.4
		c-0.1,0.2-0.2,0.3-0.4,0.5c-0.1,0.2-0.2,0.4-0.4,0.7c-0.1,0.2-0.3,0.5-0.4,0.7c-0.3,0.5-0.6,1.1-0.8,1.7
		C68.7,61.7,67.8,64.1,67.8,64.1z"/>
</g>
<g>
	<path fill="#D52328" d="M68.4,48.5c0,0,0.2,0.2,0.6,0.3c0.2,0.1,0.4,0.2,0.6,0.2c0.2,0,0.5,0,0.8,0c1-0.1,2.1-0.2,2.1-0.2
		s-1,0.2-2.1,0.3c-0.3,0-0.5,0-0.8,0c-0.2-0.1-0.5-0.1-0.6-0.2C68.6,48.7,68.4,48.5,68.4,48.5z"/>
</g>
<g>
	<path fill="#D52328" d="M68.2,51.9c0,0,0.1,0,0.2,0.1c0.1,0.1,0.3,0.2,0.5,0.3c0.2,0.1,0.4,0.2,0.7,0.3c0.3,0.1,0.5,0.1,0.8,0.2
		c0.3,0.1,0.6,0.1,0.8,0.2c0.3,0.1,0.5,0.1,0.7,0.2c0.1,0,0.2,0.1,0.3,0.1c0.1,0,0.1,0.1,0.2,0.1c0.1,0.1,0.1,0.2,0.1,0.1
		c0,0,0-0.1-0.1-0.1c-0.1,0-0.1-0.1-0.2-0.1c-0.1,0-0.2-0.1-0.3-0.1c-0.2-0.1-0.4-0.1-0.7-0.2c-0.3,0-0.5-0.1-0.8-0.1
		c-0.3-0.1-0.6-0.1-0.8-0.2c-0.3-0.1-0.5-0.2-0.7-0.3c-0.2-0.1-0.3-0.2-0.4-0.3C68.2,52,68.2,51.9,68.2,51.9z"/>
</g>
<g>
	<path fill="#D52328" d="M69.7,52.7c0,0-0.2,0-0.4,0.1c-0.1,0-0.3,0.1-0.4,0c-0.2,0-0.3,0-0.5,0c-0.2,0-0.3,0-0.5,0
		c-0.2,0-0.3,0.1-0.4,0.1c-0.2,0.1-0.4,0.2-0.4,0.2s0.2-0.1,0.4-0.2c0.1,0,0.3-0.1,0.4-0.1c0.1-0.1,0.3,0,0.5,0c0.2,0,0.3,0,0.5,0.1
		c0.2,0,0.3,0,0.4,0C69.6,52.7,69.7,52.7,69.7,52.7z"/>
</g>
<g>
	<path fill="#D52328" d="M59.5,63.9c0,0,0.2,0.4,0.3,0.9c0.1,0.2,0.1,0.4,0.1,0.6c0,0.1,0,0.2,0,0.2c0,0,0,0.1,0,0.1s0,0,0-0.1
		c0,0,0-0.1,0-0.2c0-0.2,0-0.4-0.1-0.6C59.7,64.3,59.5,63.9,59.5,63.9z"/>
</g>
<g>
	<path fill="#D52328" d="M56.1,65c0,0-0.6,0-1.5,0.1c-0.4,0-1,0.1-1.5,0.1c-0.6,0-1.2,0.1-1.7,0.2c-0.3,0.1-0.6,0.1-0.9,0.2
		c-0.3,0-0.6,0.1-0.9,0.1c-0.6,0.1-1.1,0-1.5-0.1c-0.9-0.1-1.5-0.3-1.5-0.3s0.6,0.2,1.5,0.3c0.4,0,1,0.1,1.5,0
		c0.3,0,0.6-0.1,0.9-0.1c0.3-0.1,0.6-0.1,0.9-0.2c0.6-0.1,1.2-0.2,1.7-0.2c0.6-0.1,1.1-0.1,1.5-0.1C55.5,65,56.1,65,56.1,65z"/>
</g>
</svg>
