<?xml version="1.0" encoding="utf-8"?>
<!-- Generator: Adobe Illustrator 18.1.1, SVG Export Plug-In . SVG Version: 6.00 Build 0)  -->
<svg version="1.1" id="Слой_1" xmlns="http://www.w3.org/2000/svg" xmlns:xlink="http://www.w3.org/1999/xlink" x="0px" y="0px"
	 viewBox="0 0 120 120" enable-background="new 0 0 120 120" xml:space="preserve">
<path fill="#ED1C24" d="M15,22c1.3-0.6,2.6-1.7,4-1.9c5.1-0.7,10.2-1.5,15.3-1.7c8.4-0.3,16.8-0.3,25.2,0c5.4,0.2,10.9,1.2,16.3,1.9
	c0.5,0.1,1.1,0.3,1.6,0.5c1,0.4,1.3,0.9,1.3,2.2c-0.2,3.3-0.1,6.7-0.1,10.2c2.6-0.3,5.2-0.8,7.7-1c2.7-0.2,5.5-0.3,8.2-0.1
	c4.7,0.5,8.1,3.1,10.6,6.9c2.7,4.1,4,8.8,4.6,13.6c0.9,6.7,0.5,13.3-1.9,19.6c-2.6,6.8-7.1,11.9-14.2,14.1
	c-4.2,1.3-8.4,0.7-12.5-0.2c-0.8-0.2-1.5-0.3-2.5-0.5c0,1.8,0,3.4,0,5.1c0,1.1-0.1,2.2,0,3.2c0.3,2.1-0.8,3.3-2.3,4.4
	c-3.1,2.1-6.7,3-10.3,3.6c-11.4,2-22.8,2.1-34.3,0.8c-5.5-0.6-10.7-2.4-15.2-5.8c-0.9-0.7-1.3-1.4-1.3-2.5c0-23.4,0-46.8,0-70.1
	c0-0.6-0.2-1.2-0.3-1.9C15,22.4,15,22.2,15,22z M77.6,24.2c-20.5,3.1-40.8,3.1-61.2,0c0-0.1,0,0.1,0,0.2c0,23.4,0,46.9,0,70.3
	c0,0.5,0.4,1.1,0.8,1.5c2.5,2,5.3,3.4,8.4,4.3c5.2,1.6,10.6,1.9,16,2c8.6,0.2,17.2,0,25.7-1.8c3.1-0.6,6-1.5,8.7-3.3
	c1.1-0.8,1.8-1.7,1.7-3.2c-0.1-3.2,0-6.4,0-9.8c1.4,0.3,2.6,0.6,3.8,0.9c4.1,0.9,8.2,1.5,12.2,0.2c6.6-2.2,10.8-7,13.2-13.3
	c2.4-6.2,2.7-12.8,1.9-19.4c-0.6-4.6-1.9-9-4.4-13c-2.3-3.6-5.5-6.2-9.8-6.6c-2.6-0.2-5.3-0.1-7.9,0c-2.9,0.2-5.9,0.7-8.9,1.1
	C77.6,30.9,77.6,27.4,77.6,24.2z M77.6,22.6c0-0.1,0-0.3,0-0.4c-0.4-0.2-0.9-0.4-1.4-0.5c-1.8-0.4-3.6-0.9-5.4-1.1
	c-6.6-0.5-13.2-1-19.9-1.2c-10.4-0.2-20.8-0.1-31.1,1.7c-1.1,0.2-2.2,0.6-3.4,1c0,0.1,0,0.3,0,0.4c0.5,0.2,1.1,0.5,1.7,0.6
	c2.7,0.5,5.5,1.2,8.2,1.3c8.8,0.4,17.6,0.9,26.5,0.8c6.9-0.1,13.9-1,20.8-1.6C74.9,23.5,76.2,23,77.6,22.6z"/>
<g>
	<defs>
		<path id="SVGID_7_" d="M16.1,23.1l0.5,72.1c0,0,4.4,9.3,33.4,7.3S77.7,96,77.7,96V23.3c0,0-15.6,3.2-27.9,3.2S16.1,23.1,16.1,23.1
			z"/>
	</defs>
	<clipPath id="SVGID_2_">
		<use xlink:href="#SVGID_7_"  overflow="visible"/>
	</clipPath>
	<g clip-path="url(#SVGID_2_)">
		<path fill="none" stroke="#D52328" stroke-width="8.029461e-002" stroke-miterlimit="10" d="M62.4,41.2c0,0,1,4.6,1.2,5.9
			c0.2,1.3-0.1,4.4-0.4,5.5c-0.2,1.1-0.3,3.1-0.4,3.6c-0.1,0.6-0.2,2.9-1.8,4.9c-1.6,2-3.5,3.8-3.6,4.1c-0.2,0.3-2.1,3.2-5.2,3.5
			c-3.1,0.3-4.8-0.7-5.5-1.3c-0.7-0.6-4.4-4.2-5-4.6c-0.7-0.6-2.8-2.6-3.2-3.8c-0.4-1.3-0.4-2.2-1-3.9c-0.6-1.7-1.1-3.4-1.1-3.4"/>
		<path fill="#D62228" d="M54.8,59.8c-0.9-0.5-1.7-0.9-2.4-0.9s-1.5,0.6-1.7,0.6c-0.2,0-0.5-0.1-0.7-0.2c-0.3-0.1-0.6-0.2-1.1-0.1
			c-0.3,0-0.9,0.4-0.9,0.4s-1.3,0.9-1.6,1.3c-0.2,0.3-0.6,0.5-0.6,0.5s0.9,0,1.3,0c0.2,0,0.4,0,1-0.2c0.6-0.1,1.2-0.4,1.2-0.4
			s0.3,0,0.8-0.1c0.4-0.1,0.5-0.2,0.5-0.2s0.1,0,0.2,0c0,0,0.2-0.1,0.2-0.1s0.4,0,0.7,0c0.4,0,0.6-0.1,0.9-0.1
			c0.3,0,0.5,0.1,0.7,0.2c0.3,0.1,0.6,0.1,0.6,0.1s0.5,0.1,1,0.1c0.5,0,0.9-0.3,0.9-0.3S55.7,60.4,54.8,59.8z M48,61
			C48,61,47.9,61,48,61c-0.1-0.1-0.1-0.1-0.1-0.1c0,0,0,0,0,0c0,0,0,0,0,0c0,0,0-0.1,0-0.1c0,0,0,0,0,0c0,0,0,0,0,0c0,0,0,0,0,0
			s0,0,0,0c0,0,0,0,0,0c0,0,0,0,0,0c0,0,0,0,0,0c0,0,0,0,0,0c0,0,0,0.1,0,0.1c0,0,0,0,0,0C47.9,60.9,47.9,60.9,48,61
			C48,61,48,61,48,61C48,61.1,48,61.1,48,61C48,61.1,48,61.1,48,61z M50.5,60.4C50.5,60.4,50.5,60.4,50.5,60.4c0,0.1,0,0.1,0,0.1
			S50.5,60.5,50.5,60.4C50.5,60.4,50.5,60.4,50.5,60.4c0-0.1,0-0.2,0-0.2c0,0,0,0,0-0.1c0,0,0,0,0-0.1c0,0,0,0,0-0.1c0,0,0,0,0-0.1
			c0,0,0,0,0,0c0,0,0,0,0,0c0,0,0,0,0,0s0,0,0,0c0,0,0,0,0,0c0,0,0,0,0,0c0,0,0,0.1,0,0.1c0,0,0,0.1,0,0.1c0,0,0,0.1,0,0.1
			C50.5,60.3,50.5,60.3,50.5,60.4z M51.1,59.9c0,0.1,0,0.2,0,0.3c0,0,0,0.1,0,0.1c0,0,0,0,0,0s0,0,0,0c0,0,0-0.1,0-0.1
			C51,60.1,51,60,51.1,59.9c0-0.1,0-0.2,0-0.3c0,0,0,0,0,0c0,0,0,0,0,0c0,0,0,0,0,0s0,0,0,0c0,0,0,0,0,0c0,0,0,0,0,0
			c0,0,0,0.1,0,0.1C51.1,59.8,51.1,59.9,51.1,59.9z M54,60.3C54,60.4,54,60.4,54,60.3c-0.1,0.1-0.1,0.1-0.1,0.1c0,0,0,0,0,0
			c0,0,0,0-0.1,0.1c0,0,0,0-0.1,0c0,0-0.1,0-0.1,0s0,0,0.1-0.1c0,0,0,0,0.1-0.1c0,0,0,0,0.1-0.1C53.9,60.4,53.9,60.4,54,60.3
			C54,60.4,54,60.4,54,60.3C54,60.3,54.1,60.3,54,60.3C54.1,60.3,54.1,60.3,54,60.3z"/>
		<g>
			<path fill="#D52328" d="M51,61.1c0,0,0.1,0,0.3,0c0.2,0,0.4,0,0.7-0.1c0.1,0,0.2-0.1,0.3-0.1c0.1-0.1,0.2-0.1,0.2-0.2
				c0.1-0.1,0.1-0.1,0.1-0.2c0-0.1,0-0.1,0-0.1s0,0,0,0.1c0,0.1,0,0.1-0.1,0.2c-0.1,0.1-0.1,0.1-0.2,0.2c-0.1,0-0.2,0.1-0.3,0.1
				c-0.2,0-0.5,0-0.7,0C51.2,61.1,51,61.1,51,61.1z"/>
		</g>
		<g>
			<path fill="#D52328" d="M48.6,61.2l0.6-0.1c0,0,0.1,0,0.1,0.1c0,0,0,0.1,0.1,0.1c0.1,0,0.2,0,0.3,0c0.4,0,0.8-0.1,1.2-0.1l0,0
				l0.1-0.3l-0.1,0.3l0,0l0,0c-0.4,0-0.8,0.1-1.2,0.1c-0.1,0-0.2,0-0.3,0c-0.1,0-0.1-0.2-0.2-0.2L48.6,61.2z"/>
		</g>
		<g>
			<path fill="#D52328" d="M52.7,60.7c0,0,0,0.1,0,0.1c0,0,0.1,0,0.1,0c0.1,0,0.1,0,0.2,0c0.2,0,0.5,0,0.5,0s-0.2,0-0.5,0.1
				c-0.1,0-0.1,0-0.2,0c0,0-0.1,0-0.2,0C52.7,60.8,52.7,60.7,52.7,60.7L52.7,60.7z"/>
		</g>
		<g>
			<path fill="#D52328" d="M53,53.6c0,0,0.1,0.2,0.3,0.5c0.2,0.3,0.5,0.7,0.7,1.2c0,0.1,0.1,0.3,0,0.4c0,0.1-0.1,0.3-0.2,0.3
				c-0.1,0.2-0.3,0.3-0.5,0.5c-0.3,0.2-0.5,0.4-0.5,0.4s0.2-0.1,0.5-0.4c0.1-0.1,0.3-0.3,0.5-0.5c0.1-0.1,0.1-0.2,0.1-0.3
				c0.1-0.1,0-0.2,0-0.4c-0.1-0.5-0.4-0.9-0.6-1.2C53.1,53.8,53,53.6,53,53.6z"/>
		</g>
		<g>
			<path fill="#D52328" d="M47.4,55.1c0,0-0.1,0.2-0.2,0.5c0,0.1-0.1,0.3-0.1,0.5c0,0.2,0,0.4,0.1,0.6c0.1,0.2,0.2,0.3,0.4,0.4
				c0.2,0.1,0.3,0.1,0.5,0.2c0.3,0.1,0.5,0.1,0.5,0.1s-0.2,0-0.5-0.1c-0.1,0-0.3-0.1-0.5-0.2c-0.2-0.1-0.3-0.2-0.4-0.4
				c-0.1-0.2-0.1-0.4,0-0.6c0-0.2,0.1-0.3,0.1-0.5C47.3,55.3,47.4,55.1,47.4,55.1z"/>
		</g>
		<g>
			<path fill="#D52328" d="M47.9,56.9c0,0,0.4-0.2,0.9-0.3c0.1,0,0.3,0,0.4,0c0.1,0.1,0.2,0.1,0.2,0.2c0.1,0.1,0.2,0.2,0.2,0.2
				s-0.1-0.1-0.2-0.2c-0.1-0.1-0.2-0.1-0.3-0.2c-0.1-0.1-0.2,0-0.3,0C48.4,56.6,47.9,56.9,47.9,56.9z"/>
		</g>
		<g>
			<path fill="#D52328" d="M50.1,57.3c0,0,0.2,0,0.5,0c0.3-0.1,0.7-0.3,1-0.6c0.2-0.2,0.3-0.3,0.4-0.5c0.1-0.1,0.3-0.2,0.5-0.2
				c0.3,0,0.5,0.1,0.5,0c0,0-0.2,0-0.5,0c-0.2,0-0.3,0.1-0.5,0.2c-0.1,0.1-0.3,0.3-0.4,0.5c-0.3,0.3-0.7,0.6-1,0.6
				C50.3,57.3,50.1,57.3,50.1,57.3z"/>
		</g>
		<path fill="#D52328" d="M52,56.2c0,0,0.4-0.1,0.6-0.2c0.1,0,0.4,0,0.4,0C53.1,56,52.2,55.8,52,56.2z"/>
		<path fill="#D52328" d="M49.3,56.7c0,0-0.2-0.2-0.3-0.2c-0.1,0-0.3,0-0.3,0L49.3,56.7z"/>
		<g>
			<path fill="#D52328" d="M48.6,65.3c0,0,0.4-0.1,0.9-0.2c0.6-0.1,1.3-0.2,2-0.3c0.4,0,0.7-0.1,1.1-0.1c0.4,0,0.7,0,1,0
				c0.6,0,0.9,0,0.9,0s-0.4,0-0.9,0c-0.3,0-0.6,0-1,0c-0.4,0-0.7,0.1-1.1,0.1c-0.8,0-1.5,0.1-2,0.2C49,65.2,48.6,65.3,48.6,65.3z"/>
		</g>
		<g>
			<path fill="#D52328" d="M54.4,46.5c0,0-0.4,0.3-0.8,0.7c-0.1,0.1-0.2,0.2-0.3,0.2c-0.1,0.1-0.2,0.2-0.2,0.2
				c-0.1,0.2-0.1,0.3-0.1,0.3c0,0,0-0.1,0.1-0.3c0-0.1,0.1-0.2,0.2-0.3c0.1-0.1,0.2-0.2,0.3-0.3C53.9,46.7,54.3,46.4,54.4,46.5
				L54.4,46.5z"/>
		</g>
		<g>
			<path fill="#D52328" d="M53.1,48c0,0,0.1-0.1,0.2-0.2c0.1-0.1,0.1-0.1,0.2-0.2c0.1-0.1,0.2-0.2,0.4-0.2c0.1,0,0.3-0.1,0.5-0.1
				c0.2,0,0.3,0,0.5,0c0.4,0,0.7,0.1,1.1,0.1c0.4,0,0.8,0,1.1-0.1c0.2,0,0.3-0.1,0.5-0.2c0.2-0.1,0.3-0.1,0.4-0.2
				c0.2-0.1,0.5-0.3,0.6-0.4c0.1-0.1,0.2-0.2,0.2-0.2S58.5,46.7,58,47c-0.1,0.1-0.3,0.1-0.4,0.2c-0.2,0.1-0.3,0.1-0.5,0.2
				c-0.4,0.1-0.7,0.1-1.1,0.1c-0.4,0-0.8-0.1-1.1-0.1c-0.2,0-0.3,0-0.5,0c-0.2,0-0.3,0.1-0.4,0.1c-0.1,0-0.2,0.1-0.4,0.2
				c-0.1,0.1-0.2,0.1-0.2,0.2C53.2,47.9,53.1,48,53.1,48z"/>
		</g>
		<g>
			<path fill="#D52328" d="M58.3,46.4c0,0-0.1,0.2-0.4,0.3c-0.1,0.1-0.3,0.2-0.5,0.3c-0.1,0.1-0.2,0.1-0.3,0.2l-0.3,0.1
				c-0.2,0.1-0.4,0.1-0.6,0.1c-0.2,0-0.4,0-0.6,0c-0.3,0-0.5-0.1-0.5-0.1s0.2,0,0.5,0c0.2,0,0.3,0,0.5,0c0.2,0,0.4-0.1,0.6-0.1
				l0.3-0.1c0.1,0,0.2-0.1,0.3-0.1c0.2-0.1,0.3-0.2,0.5-0.3C58.2,46.5,58.3,46.4,58.3,46.4z"/>
		</g>
		<path fill="none" stroke="#D52328" stroke-width="4.014730e-002" stroke-miterlimit="10" d="M53.7,47.2c0,0,0.1,0,0.2,0.1"/>
		<path fill="#D62228" d="M60,43.1c-0.6-0.3-1.3-0.3-1.9-0.4c0,0-0.1,0-0.1,0c-0.1,0-0.3,0.1-0.4,0.1c-0.1,0-0.2,0-0.3,0
			c0,0-0.1,0-0.1,0.1C57.1,43,57,43,56.8,43.1c-0.3,0.1-0.6,0.2-0.9,0.3c0,0,0,0,0,0c0,0.1-0.1,0.1-0.2,0.1c-0.1,0-0.1,0-0.2,0.1
			c0,0.1-0.1,0.1-0.2,0.1c-0.1,0-0.1,0-0.2,0c-0.1,0.1-0.1,0.1-0.2,0.1c0,0,0,0,0,0c0,0,0,0,0,0c0,0-0.1,0-0.1,0
			c-0.1,0-0.2,0.1-0.3,0.1c-0.1,0-0.1,0.1-0.2,0.1c-0.1,0-0.3,0-0.4,0.1c-0.1,0.1-0.2,0.1-0.3,0.1c0,0-0.1,0-0.1,0
			c-0.1,0.1-0.3,0.2-0.4,0.1c-0.1,0.2-0.3,0.1-0.4,0.1c0,0.1-0.1,0.1-0.1,0.1c0,0,0,0.1,0,0.1c0,0,0,0.1,0,0.1c-0.1,0-0.1,0-0.2,0.1
			c0,0.1,0,0.1,0,0.2c0.1-0.1,0.2-0.1,0.3-0.1c0,0.1-0.1,0.1-0.2,0.2c0.1,0,0.1,0,0.2,0c0,0,0,0,0,0l-0.3,0.1c0,0,0,0,0,0
			c0,0,0,0,0.1,0c0,0,0.1,0,0.1,0c0,0,0,0,0,0c0,0.1-0.1,0.1-0.1,0.2c0.2-0.1,0.3-0.1,0.5-0.2c0,0,0,0.1-0.1,0.1
			c0.2,0,0.2-0.2,0.3-0.2c0,0,0,0-0.1,0c0,0,0.1,0,0.1,0c0,0.1,0,0.1,0.1,0.1c0,0,0,0,0,0c0,0,0-0.1,0-0.1c0.1,0,0.1,0,0.1,0
			c0,0,0,0,0,0.1c0.1,0,0.2,0,0.4-0.1c0,0,0.1,0,0.1,0c0,0,0,0,0,0c0,0,0.1,0,0.1,0c0,0,0.1,0,0.1,0c0,0,0,0,0,0c0,0,0,0,0,0
			c0,0,0.1,0,0.1,0c0.1-0.1,0.2-0.1,0.3-0.1c0.1,0,0.2-0.1,0.3-0.1c0.1,0,0.2,0,0.2,0c0,0,0,0,0,0c0,0,0.1-0.1,0-0.1
			c0.1,0,1.7-0.4,1.8-0.4c0.3-0.1,1-0.4,1.9-0.5c0.7-0.1,1.1-0.1,1.2-0.1c0.1,0,0.6,0.3,0.8,0.1C61,43.7,60.3,43.3,60,43.1z
			 M54.4,45c0.2-0.1,0.3-0.1,0.4-0.1C54.7,44.9,54.6,45,54.4,45z"/>
		<path fill="#D62228" d="M60,46.2C60,46.2,60,46.1,60,46.2c0.1-0.1,0.1-0.1,0.1-0.2c0,0,0.1-0.1,0.1-0.1c0,0,0-0.1,0.1-0.1
			c0.2-0.2,0.3-0.4,0.3-0.7c-0.1,0.2-0.1,0.3-0.2,0.4c-0.1,0.1-0.2,0.3-0.3,0.4c-0.1,0.1-0.3,0.2-0.4,0.3l0,0
			c0.2-0.3,0.6-0.6,0.5-1.1c-0.1,0.1-0.1,0.2-0.1,0.3c0,0.1-0.1,0.2-0.2,0.2c0,0,0,0,0,0c0,0.2-0.2,0.3-0.4,0.4
			c0-0.1,0.1-0.2,0.2-0.2c0.1-0.1,0.1-0.2,0.2-0.3c-0.2,0.1-0.4,0.3-0.6,0.4c0.2-0.2,0.3-0.3,0.4-0.5c0.1-0.2,0.2-0.4,0.2-0.6
			c-0.1,0.2-0.2,0.4-0.3,0.6l0,0c0,0,0-0.1,0-0.2c-0.1,0.1-0.2,0.2-0.3,0.2c0,0,0,0,0-0.1l0,0c0,0-0.1,0.1-0.1,0.2
			c0.1-0.2,0.1-0.4,0.2-0.6c0.1-0.2,0.1-0.5,0-0.6c0,0.1,0,0.3-0.1,0.4c0,0,0,0,0,0c0-0.1,0-0.2,0-0.3c-0.1,0.3-0.1,0.6-0.3,0.8
			c-0.1,0-0.1-0.1,0-0.1c0-0.1,0.1-0.1,0.1-0.2c-0.1,0-0.1,0-0.2,0c0,0,0,0.1-0.1,0.2c0-0.1,0-0.1,0.1-0.1c0,0,0,0,0,0
			c0,0-0.1,0.1-0.2,0.1c0.1-0.4,0.1-0.6,0-0.8c0,0.2,0,0.3,0,0.5c0,0,0,0,0,0c0-0.1,0-0.1,0-0.2c0-0.1,0-0.1-0.1-0.2c0,0,0,0,0,0
			c0.1,0.1,0,0.3-0.2,0.4c0-0.1,0-0.1,0.1-0.2c-0.1,0.1-0.1,0-0.1-0.1c0,0.1,0,0.2-0.1,0.2c0,0-0.1,0.1-0.1,0.1c0,0,0-0.1-0.1-0.1
			c0-0.1,0-0.1-0.1-0.1c0.1-0.1,0.1-0.2,0.2-0.4c0,0,0,0,0,0l-0.2,0.3c0,0,0,0,0,0c0-0.1,0-0.3,0-0.4c0,0,0,0,0,0
			c0,0.1-0.1,0.3-0.1,0.4c-0.1-0.1-0.1-0.1-0.1-0.2c0,0-0.1,0.1-0.2,0.1c0-0.1,0-0.2,0-0.4c-0.1,0.1,0,0.2-0.1,0.3c0,0,0-0.1,0-0.1
			c0,0-0.1,0.1-0.1,0.1c0,0,0,0,0,0l0-0.1l0,0c0,0,0,0.1-0.1,0.1c0,0-0.1,0-0.1-0.1c0,0,0-0.1,0-0.2c0,0,0,0,0,0
			c0,0.1-0.1,0.1-0.1,0.2c0,0-0.1,0-0.1,0c0,0-0.1,0-0.1,0.1c0-0.1,0-0.1,0-0.2c0,0-0.1,0.1-0.1,0.1c0,0,0,0-0.1-0.1
			c0,0.1-0.1,0.1-0.1,0.1c-0.1,0.1-0.1-0.1-0.1-0.1c0,0,0,0-0.1,0.1l0,0c0,0,0-0.1,0-0.1c-0.1,0.1-0.2,0.1-0.2,0
			c-0.1,0.1-0.2,0-0.3,0.1c0,0.1,0,0.3,0,0.4c0,0,0,0,0,0c0,0.1,0,0.1,0,0.2c0,0,0,0,0,0c0,0,0-0.1-0.1-0.1c0,0,0,0,0-0.1
			c0,0,0,0,0,0c0-0.1,0-0.2,0-0.4c0,0,0,0,0,0c0,0,0,0.1-0.1,0.1c-0.1,0-0.1,0-0.2,0c0,0,0,0,0,0c0,0,0,0.1,0,0.1c0,0,0,0.1,0,0.1
			c0,0,0,0,0,0c0,0.1,0,0.1,0,0.2c-0.1,0-0.1-0.1-0.1-0.2c0,0,0,0,0,0c0,0,0-0.1,0-0.1c0,0,0,0,0-0.1c0,0,0,0-0.1,0c0,0,0,0,0,0
			c0,0.1,0,0.1,0,0.2c0,0,0,0,0,0c0,0.1,0,0.2,0,0.3c-0.1,0-0.1-0.1-0.1-0.2c0,0,0,0,0,0c0,0,0,0,0-0.1c0-0.1,0-0.1,0-0.2
			c0,0,0,0,0,0c0,0,0,0,0,0c0,0.1,0,0.1-0.1,0.2l0,0c0,0.1,0,0.1,0.1,0.2c-0.2,0-0.2,0.1-0.3,0.2c-0.1,0.1-0.2,0.2-0.3,0.3
			c0,0,0,0,0,0c0,0,0,0.1,0,0.1c0,0-0.1,0-0.1,0c0,0.1,0.1,0.1,0.1,0.2c-0.1,0-0.1,0-0.1,0c0,0.1-0.1,0.2-0.1,0.2
			c-0.1,0.1-0.2,0.2-0.2,0.3C53.7,47,53.6,47,53.5,47c0,0.1-0.1,0.2-0.1,0.3c0.1,0,0.2-0.1,0.2-0.2c0.1,0,0.2,0,0.2,0
			c0,0,0.1,0,0.1,0c0.1-0.1,0.1-0.3,0.2-0.4c0.1,0,0.1,0,0.2,0c0,0,0,0,0.1,0c0.2-0.1,0.2-0.2,0.2-0.3c0,0,0.1,0.1,0.1,0.1
			c0,0,0.1,0,0.2,0c0,0,0-0.1,0.1-0.1c0,0,0-0.1,0-0.1c0,0,0,0,0,0c0,0.1,0.1,0.2,0.1,0.3c0.1,0.4,0.4,0.7,0.8,0.8
			c0.1,0,0.1,0,0.2-0.1c-0.1,0-0.2,0-0.2,0c-0.1,0-0.1,0-0.1-0.1c0-0.1,0.1-0.2,0.1-0.3c0.1,0,0.1,0.1,0.2,0.1
			c0.1-0.1,0.2-0.1,0.3,0c0.1,0,0.1-0.1,0.2-0.1l0,0c0,0,0,0.1,0.1,0.1c0,0,0,0.1,0,0.1c0,0,0,0,0,0c0,0-0.1-0.1-0.1-0.2
			c0,0,0,0-0.1,0.1c0,0-0.1-0.1-0.1-0.1c0,0.1,0,0.2-0.1,0.2c0,0.1-0.1,0.1-0.1,0.2c0.2,0,0.6,0,0.8-0.2c0.5-0.4,0.4-0.9,0.5-0.9
			c0.2,0.1,0.4,0.1,0.5,0.3c0.1,0.1,0.1,0.1,0.2,0.1c0,0.2-0.1,0.3-0.1,0.5c0.1,0,0.1,0,0.2,0c0,0.2,0.2,0.1,0.3,0.2
			c0,0.1-0.1,0.1-0.1,0c-0.2-0.2-0.3-0.2-0.5,0c0.1,0,0.1,0,0.2,0c0,0,0,0,0,0c0,0-0.1,0-0.1,0c-0.1,0-0.1,0-0.1,0.1
			c-0.2,0-0.2,0-0.2,0.1c-0.2,0-0.4,0-0.6,0.1c0.2,0.1,0.3,0.2,0.3,0.5c0,0,0,0,0,0c0-0.1,0-0.2,0-0.3l0,0c0,0,0.1,0.1,0.1,0.1
			c0,0,0,0,0,0c0,0,0-0.1,0-0.1c0.1,0,0.2,0,0.2,0.1c0.1,0.1,0.1,0.2,0.1,0.3c0,0,0,0,0,0c0,0,0,0,0-0.1c0,0,0,0,0.1,0.1
			c0-0.1,0-0.1-0.1-0.1c0,0,0-0.1-0.1-0.2c0.1,0,0.1,0.2,0.2,0.1c-0.1-0.1-0.1-0.2-0.2-0.3c0,0,0,0,0,0l0.2,0.2c0,0,0,0,0,0
			c0,0-0.1-0.1-0.1-0.1l0,0c0,0,0.1,0.1,0.1,0.1c0,0,0,0,0,0c-0.1-0.1-0.1-0.1-0.2-0.2c0.3-0.1,0.6,0.1,0.8,0.2c0,0,0,0,0,0
			c-0.1-0.1-0.2-0.2-0.2-0.2l0,0c0.1,0,0.1,0.1,0.2,0.1c0-0.3,0.1,0,0.2,0c0-0.1,0.1-0.1,0.1-0.2c0,0,0-0.1,0-0.1c0,0,0,0,0-0.1
			c0,0,0.1,0,0.1,0c0,0,0.1,0,0.1,0c0-0.1,0-0.2-0.1-0.2c0.1,0,0.1,0,0.1,0.1c0,0,0,0,0,0c-0.1,0-0.1-0.1-0.2-0.1
			c0.1,0,0.1-0.1,0.2-0.1c0.1,0,0.2,0,0.2,0c0.1,0,0.2,0,0.3,0c-0.1,0-0.1,0-0.2,0c0.1-0.2,0.3-0.2,0.4-0.3c0,0-0.1,0-0.2,0
			c0.2-0.1,0.4-0.1,0.6-0.3c-0.1,0-0.2,0.1-0.3,0.1C60,46.3,60,46.3,60,46.2C60,46.2,60,46.2,60,46.2c0,0.1-0.1,0.1-0.2,0.2
			C59.8,46.3,59.9,46.2,60,46.2z M54.5,46.4C54.5,46.4,54.5,46.4,54.5,46.4c0-0.1,0-0.1,0-0.2c0,0,0.1,0,0.1,0.1
			C54.5,46.3,54.5,46.3,54.5,46.4z M54.7,46.1C54.7,46.1,54.7,46,54.7,46.1c0.1,0,0.1,0,0.1,0.1C54.8,46.3,54.7,46.2,54.7,46.1z
			 M55.5,46.5C55.5,46.5,55.5,46.5,55.5,46.5c0,0.1-0.1,0.1-0.2,0.2C55.3,46.4,55.4,46.5,55.5,46.5z M55.6,47.1L55.6,47.1
			c0,0,0-0.1,0-0.1c0,0,0.1,0,0.1,0L55.6,47.1C55.6,47,55.6,47,55.6,47.1z M55.5,46.9c-0.1,0-0.2-0.1-0.2-0.2c0.1,0,0.1,0.1,0.2,0.1
			c0,0,0,0,0,0c0,0,0-0.1,0-0.1c0,0,0.1,0,0.1,0c0,0,0,0,0,0C55.6,46.7,55.6,46.8,55.5,46.9z M56.2,46.4c-0.1,0-0.1,0-0.1,0
			c0-0.1,0-0.1-0.1-0.2c0,0,0,0,0,0c0,0.1-0.1,0.1-0.1,0.2c-0.1,0-0.2-0.2-0.2-0.3c0-0.1,0.1-0.1,0.2-0.1c0,0,0,0,0,0
			c0,0,0.1,0,0.1,0c0,0,0,0,0,0c0,0,0.1,0.1,0.1,0.1c0,0,0-0.1,0-0.1c0.1,0,0.2,0.2,0.2,0.3C56.3,46.3,56.3,46.4,56.2,46.4z
			 M56.6,46.9c-0.1,0-0.1-0.1-0.1-0.1C56.5,46.8,56.6,46.8,56.6,46.9C56.7,46.8,56.7,46.9,56.6,46.9C56.7,46.9,56.6,46.9,56.6,46.9z
			 M58.2,45.2c0.1-0.1,0.1-0.2,0.2-0.3C58.4,45.1,58.3,45.1,58.2,45.2z M59.3,46.4c0.2-0.1,0.3-0.1,0.5-0.2c0,0,0,0,0,0
			C59.6,46.4,59.5,46.5,59.3,46.4z M59.6,46.2c0.1,0,0.2-0.1,0.3-0.1c0,0,0,0,0,0C59.8,46.2,59.7,46.2,59.6,46.2z"/>
		<path fill="#D52328" d="M55.5,47.9c0-0.1-0.1-0.3-0.1-0.4c0,0,0,0,0,0c0,0,0,0.1,0.1,0.1c0,0,0,0,0,0c0,0,0-0.1,0-0.1
			c0.1,0,0.1,0,0.2,0c0.1,0,0.1,0.1,0,0.1C55.6,47.8,55.6,47.8,55.5,47.9z"/>
		<path fill="#D52328" d="M56.2,48c0,0-0.1,0-0.1-0.1c0-0.1-0.1-0.2-0.1-0.3c0,0,0,0,0,0c0,0,0,0,0.1,0.1c0-0.1,0-0.1,0-0.1
			c0,0,0.1,0,0.1,0c0,0.1,0,0.1,0.1,0.2c0-0.1,0.1-0.1,0.1-0.2c0,0,0,0,0,0c0,0.1,0,0.1,0,0.2C56.2,47.7,56.2,47.7,56.2,48z"/>
		<path fill="#D52328" d="M56.5,47.6c0.1,0.1,0.2,0.1,0.2,0.2c0,0,0,0,0,0c0,0,0,0-0.1,0c0,0,0,0,0,0c0,0.1,0.1,0.1,0.1,0.2
			c0,0,0,0,0,0C56.6,47.9,56.5,47.8,56.5,47.6C56.5,47.6,56.5,47.6,56.5,47.6z"/>
		<path fill="#D52328" d="M54.7,47.6c0.1-0.1,0.2-0.1,0.3-0.2c0.1,0,0.1,0,0.1,0C54.9,47.5,54.8,47.6,54.7,47.6
			C54.7,47.6,54.7,47.6,54.7,47.6z"/>
		<path fill="#D52328" d="M55.2,47.5c0,0.1,0,0.2,0,0.3c0,0,0,0,0,0C55.2,47.7,55.1,47.6,55.2,47.5z"/>
		<path fill="#D52328" d="M55,47.7c0-0.1,0-0.1,0.1-0.2c0,0,0,0,0,0C55.1,47.6,55,47.7,55,47.7C55,47.7,55,47.7,55,47.7z"/>
		<g>
			<path fill="#D52328" d="M52.6,47.7c0,0,0.1-0.2,0.2-0.4c0.2-0.2,0.4-0.6,0.7-0.8c0.3-0.3,0.6-0.5,0.8-0.7
				c0.2-0.2,0.4-0.3,0.4-0.3l0.1,0.1c0,0-0.2,0.1-0.4,0.2c-0.2,0.1-0.6,0.4-0.8,0.6c-0.3,0.2-0.5,0.5-0.7,0.8
				C52.6,47.6,52.6,47.7,52.6,47.7z"/>
		</g>
		<path fill="#D62228" d="M57,31.3c0.2,0.3,2.7,5-0.8,10s-8.5,7-8.5,7s4.1-3.5,6.1-8.2s1.5-5.8,1.5-5.8s0,9-7.9,13.6
			s-8.4,2.5-8.4,2.5s-3,2.1-6.5,1.5c-3.5-0.6,2,0.6,3.9-2.1c1.8-2.7,1.4-6.8,1.2-10c-0.2-3.3,0.1,8.2-1.8,9.8
			c-1.9,1.5-2.2,3.3-0.8,4c1.5,0.7-10.8-2.6,2.1-19.6s-5,9.3-6.7,8.2c0,0-1.4-1.8-0.6-4.7c0.9-2.9,0.5-0.8-1.2-2.9
			c-1.7-2.1-2-4.1-0.9-6.9c1.1-2.8,2.8-3.5,2.8-3.5s-0.6,0.8,1.3-1.3c2-2.4,3.1-4.2,7-5.6c3.4-1.2,7.5,0,8.3,0
			c0.7,0-2.6-1.2-2.6-1.2s8-0.3,9.2,0.1c3,0.8,3.9,1.3,4.6,1.7c2.1,1.4,3,2.4,4,3.3c2.5,2.1,2.8,4.2,2.8,4.2s-0.8,1.4,0.9,3.4
			s2.6,2.1,2.6,2.1s0.3,2-0.7,3.1c-1,1,0.2,1.4-2,2.6c-1.4,0.8-0.8,3.2-0.8,3.2l-0.8,0.8l0.2,0.8c0,0,0.9,0.6,1.8,1.9
			c0.8,1.3,0.9,4.2,0.1,6.3c-0.8,2.1-2.4,5.9-1.4,6.5s1.4-1.6,1.4-1.6s-0.1,3.9-2.1,0.8c-2-3.2,2.3-4.2,0.6-7.9
			c-1.7-3.8-2.1-5.6-2.1-5.6s-0.2,0.6-2-2C59.2,37.1,57,31.3,57,31.3z"/>
		<path fill="#D62228" d="M63.2,53c0,0,0.5,11.1,1.9,12.3c0.3,0.3,0,0.5-0.2,0.7c-0.2,0.3-0.5,0.7-0.5,0.7s-2.1-1.4-2.6-3.6
			c-0.5-2.2-0.5-2.2-0.5-2.2s0.9-0.6,1.4-3.5C62.9,56.2,63,54.6,63.2,53z"/>
		<g>
			<path fill="#D52328" d="M63.4,51.5c0,0,0.2,0,0.4-0.1c0.2-0.1,0.5-0.3,0.6-0.7c0.2-0.3,0.2-0.6,0.3-0.9c0-0.3,0-0.4,0-0.4
				s0,0.2,0,0.4c0,0.3-0.1,0.6-0.3,0.9c-0.2,0.3-0.4,0.5-0.7,0.7C63.6,51.5,63.4,51.5,63.4,51.5z"/>
		</g>
		<path fill="#D62228" d="M26.3,45.4c0,0-0.9,4.1-1.9,6.9c-1.3,3.8,1.5,8,4.9,11.8c3.4,3.8,2.5,3.9,3.7,5.1c0.5,0.5,2.3,2.3,2.3,2.3
			l2.6,0.3c0,0,0.7-0.4-5.4-8.1c-5.7-7.3-5.2-8.9-5.1-11.8C27.5,49.1,26.3,45.4,26.3,45.4z"/>
		<path fill="#D62228" d="M38.7,71c0,0,4.3-0.1-2.4-6.4s-8.7-7.4-8.5-10.1c0.1-2.8-0.5-8.2-0.8-9.5c-0.2-1.1,3.3-2.9,3.3-2.9
			s0.3,9.5,3.3,11.2c2.3,1.3,1.9,0.1,1.9,0.1s-0.2-0.2-1-0.7c-0.8-0.5-0.2-0.5-0.2-0.5l2-0.4c0,0,0.9,2.6,1.3,3.7
			c0.3,1.1,0.5,2.9,0.9,3.8c0.4,0.8,1.5,2,1.5,2s3.1,10,1.7,10.5c-1.3,0.5-3.1,0.2-3.8,0C37.3,71.7,38.7,71,38.7,71z"/>
		<path fill="#D62228" d="M29.6,58.7c0,0,7.6,10,7.3,11.5c-0.3,1.5,1.9,1.1,1.9,1.1S38,65,29.6,58.7z"/>
		<path fill="#D62228" d="M42.1,73.3c0,0,0.4-1.4,0-3.4"/>
		<g>
			<path fill="#D52328" d="M26.5,45.9c0,0-0.3,0.3-0.8,0.9c-0.5,0.6-1.2,1.5-2,2.7c-0.7,1.2-1.5,2.6-2,4.3c-0.5,1.6-0.7,3.5-0.2,5.3
				c0.3,0.9,0.7,1.7,1.2,2.5c0.5,0.8,1,1.5,1.6,2.2c0.6,0.7,1.1,1.3,1.7,1.8c0.6,0.5,1.2,1,1.7,1.4c1.1,0.8,2.1,1.4,2.9,1.7
				c0.7,0.4,1.2,0.5,1.2,0.5s-0.4-0.2-1.2-0.5c-0.7-0.4-1.7-0.9-2.9-1.7c-0.6-0.4-1.2-0.9-1.8-1.4c-0.6-0.5-1.2-1.1-1.8-1.8
				c-0.6-0.7-1.1-1.4-1.6-2.2c-0.5-0.8-0.9-1.6-1.2-2.5c-0.6-1.8-0.4-3.7,0.1-5.4c0.5-1.7,1.3-3.1,2-4.3c1.5-2.4,2.8-3.7,2.8-3.7
				L26.5,45.9z"/>
		</g>
		<g>
			<path fill="#D52328" d="M25.4,47.6c0,0-0.8,1.2-1.6,3.2c-0.2,0.5-0.4,1.1-0.6,1.6c-0.2,0.6-0.3,1.2-0.4,1.9
				c-0.1,0.3-0.1,0.7-0.1,1c0,0.3,0,0.7,0,1c0,0.4,0,0.7,0.1,1.1c0.1,0.3,0.1,0.7,0.3,1c0.2,0.7,0.6,1.3,1,1.9
				c0.5,0.5,0.9,1.1,1.4,1.5c1,0.9,1.9,1.8,2.7,2.5c0.8,0.7,1.5,1.3,2,1.7c0.2,0.2,0.4,0.3,0.6,0.5c0.1,0.1,0.2,0.1,0.2,0.1
				s-0.1,0-0.2-0.1c-0.1-0.1-0.3-0.3-0.6-0.4c-0.5-0.4-1.2-1-2-1.7c-0.8-0.7-1.7-1.6-2.7-2.5c-0.5-0.4-1-1-1.5-1.5
				c-0.4-0.6-0.8-1.2-1-1.9c-0.2-0.3-0.2-0.7-0.3-1c-0.1-0.4-0.1-0.7-0.1-1.1c0-0.4,0-0.7,0-1.1c0-0.3,0-0.7,0.1-1
				c0.1-0.7,0.2-1.3,0.4-1.9c0.2-0.6,0.4-1.2,0.6-1.7c0.8-2,1.6-3.2,1.6-3.2L25.4,47.6z"/>
		</g>
		<path fill="none" stroke="#D52328" stroke-width="4.014730e-002" stroke-miterlimit="10" d="M25.5,46.9c0,0-5.5,8.9,1.3,15.9"/>
		<path fill="#D62228" d="M53.4,61.3c-1.2,0.6-2.5,0.8-3.8,0.7s-1.8-0.5-2.2-0.5s-1.6,0-1.6,0s0.8,0.9,1.4,1.7c0.7,0.9,2,1.6,4,1.4
			c2.1-0.1,2.9-1,3.3-1.5c0.5-0.5,1.4-2.3,1.4-2.3S54.7,60.7,53.4,61.3z M47.2,62.2l-0.1,0.3L47,62.3l-0.2,0.1l0-0.3l-0.1-0.1
			l-0.2-0.2v-0.1h0.2h0.2L47,62L47,62.2l0.2-0.2V62.2z M50.1,62.6C50.2,62.7,50.2,62.7,50.1,62.6c0,0.1,0,0.1,0,0.2c0,0,0,0.1,0,0.1
			c0,0,0,0,0,0c0,0,0,0,0,0c0,0,0,0,0,0c0,0,0,0,0,0c0,0,0,0,0,0s0,0,0,0c0,0,0,0,0,0c0,0,0,0,0,0c0,0,0,0,0-0.1c0,0,0-0.1,0-0.1
			C50.1,62.8,50.1,62.8,50.1,62.6C50.1,62.7,50.1,62.7,50.1,62.6C50.1,62.6,50.1,62.6,50.1,62.6C50.1,62.6,50.1,62.6,50.1,62.6z
			 M47.5,62.8C47.4,62.8,47.4,62.8,47.5,62.8C47.4,62.8,47.4,62.8,47.5,62.8C47.5,62.8,47.5,62.7,47.5,62.8c0-0.1,0-0.1,0.1-0.2
			c0,0,0-0.1,0.1-0.1c0,0,0-0.1,0.1-0.1c0,0,0-0.1,0.1-0.1c0,0,0.1-0.1,0.1-0.1s0,0-0.1,0.1c0,0,0,0.1-0.1,0.1c0,0,0,0.1-0.1,0.1
			c0,0,0,0,0,0.1c0,0,0,0,0,0.1C47.5,62.7,47.5,62.7,47.5,62.8C47.5,62.7,47.5,62.8,47.5,62.8z M48.3,63L48,63.2L48,63l-0.3,0.1
			l0.1-0.5L47.5,63l0.2-0.4l0.5-0.3l-0.3,0.5l0.6-0.3l-0.1,0.3l0.4-0.4l-0.4,0.7L48.3,63z M48.8,63.7v-0.4c0,0-0.1,0-0.2,0.3
			c-0.1,0.3,0-0.5,0.2-0.8l0.3-0.3l-0.3,0.6l0.5-0.4l-0.4,0.8L48.8,63.7z M50.3,63.4l-0.1,0.1l-0.4,0.2v-0.2l-0.3,0.3l0-0.3
			l-0.2,0.2l0-0.3l-0.3,0.3l0.2-0.5l0.3-0.2v0.1l0.3-0.3l-0.2,0.3l0.3-0.1l0.1,0.2c0,0,0.2,0.1,0.3-0.2c0.1-0.3,0.1-0.3,0.1-0.3
			L50.3,63.4z M52.4,62.7C52.4,62.6,52.4,62.6,52.4,62.7C52.4,62.6,52.4,62.6,52.4,62.7c0-0.1,0-0.1,0-0.1c0,0,0,0,0,0c0,0,0,0,0,0
			s0,0,0,0c0,0,0,0,0,0C52.5,62.6,52.5,62.6,52.4,62.7C52.5,62.6,52.5,62.6,52.4,62.7C52.5,62.7,52.5,62.7,52.4,62.7
			C52.5,62.7,52.5,62.7,52.4,62.7C52.5,62.7,52.5,62.7,52.4,62.7C52.5,62.7,52.5,62.7,52.4,62.7c0,0.1,0,0.1,0,0.1
			S52.5,62.8,52.4,62.7C52.4,62.7,52.4,62.7,52.4,62.7C52.4,62.7,52.4,62.7,52.4,62.7C52.4,62.7,52.4,62.7,52.4,62.7z M50.9,64.2
			C50.9,64.2,50.9,64.2,50.9,64.2c0-0.1,0-0.2,0-0.2c0,0,0-0.1,0-0.1c0,0,0-0.1,0-0.1c0-0.1,0-0.2,0-0.3c0-0.1,0-0.2,0-0.3
			c0-0.1,0-0.2,0-0.3c0-0.1,0-0.1,0-0.2c0,0,0-0.1,0-0.1s0,0,0,0.1c0,0,0,0.1,0,0.2c0,0.2,0,0.4,0,0.6c0,0.1,0,0.2,0,0.3
			c0,0.1,0,0.1,0,0.1c0,0,0,0.1,0,0.1C50.9,64.1,50.9,64.1,50.9,64.2C50.9,64.2,50.9,64.2,50.9,64.2C50.9,64.3,50.9,64.3,50.9,64.2
			C50.9,64.3,50.9,64.3,50.9,64.2z M52.2,63.2l-0.1,0.1l-0.2-0.1c0,0-0.1,0-0.1,0.2c0,0.1-0.2,0-0.2,0l-0.1,0.3l-0.2-0.3
			c0,0-0.1,0.1-0.1,0.4c0,0.2-0.2-0.3-0.2-0.3l0,0.3c0,0-0.2,0-0.2-0.8l0.2-0.2l0.1,0.2l0.2-0.2c0,0,0.1,0.1,0.1,0.2
			s0.1,0.4,0.1,0.4v-0.5l0.1,0.2l0.1-0.2l0.1-0.2l0.1,0.3l0.1-0.3l0.2,0.2h0.1l0.3,0.5L52.2,63.2z M52.7,63.2
			C52.7,63.2,52.6,63.2,52.7,63.2C52.6,63.2,52.6,63.2,52.7,63.2C52.6,63.2,52.6,63.1,52.7,63.2c-0.1-0.1-0.1-0.2-0.2-0.2
			c0,0,0-0.1-0.1-0.2c0,0,0-0.1,0-0.1c0,0,0-0.1,0-0.1c0,0,0,0,0-0.1c0,0,0,0,0-0.1c0,0,0-0.1-0.1-0.1c0,0,0,0,0,0s0,0,0,0
			c0,0,0,0,0.1,0.1c0,0,0,0,0,0.1c0,0,0,0,0,0.1c0,0,0,0.1,0,0.1c0,0,0,0.1,0,0.1c0,0,0,0.1,0,0.1c0,0,0,0.1,0,0.1
			c0,0,0,0.1,0.1,0.1C52.6,63.1,52.6,63.1,52.7,63.2C52.6,63.2,52.6,63.2,52.7,63.2C52.7,63.2,52.7,63.2,52.7,63.2
			C52.7,63.2,52.7,63.2,52.7,63.2z"/>
		<g>
			<path fill="#D52328" d="M50.4,57.7c0,0-0.1,0.2-0.2,0.4c0,0.1-0.1,0.3-0.2,0.4c-0.1,0.1-0.1,0.3,0,0.5c0.3,0.2,0.7,0.2,0.9,0
				c0.2-0.1,0.2-0.4,0.2-0.4c0,0,0,0.2-0.2,0.4c-0.2,0.1-0.6,0.2-0.9,0C50,59,49.9,58.9,50,58.8c0-0.1,0-0.2,0.1-0.2
				c0.1-0.2,0.1-0.3,0.2-0.4C50.3,57.9,50.4,57.7,50.4,57.7z"/>
		</g>
		<g>
			<path fill="#D52328" d="M52,46.4c0,0-0.1,0.1-0.2,0.4c-0.1,0.1-0.1,0.3-0.1,0.4c0,0.2,0,0.3-0.1,0.5c0,0.2,0,0.4,0,0.5
				c0,0.2,0,0.3,0,0.5c0,0.3,0.1,0.4,0.1,0.4s0-0.2-0.1-0.4c0-0.1-0.1-0.3-0.1-0.5c0-0.2,0-0.3,0-0.5c0-0.2,0-0.4,0.1-0.5
				c0-0.2,0.1-0.3,0.1-0.4C51.9,46.5,52,46.4,52,46.4z"/>
		</g>
		<g>
			<path fill="#D52328" d="M25.1,25.3c0,0-0.3,2.5-0.7,6.2c-0.1,0.5-0.1,0.9-0.2,1.4c-0.1,0.5,0,1-0.3,1.5c-0.5,1-1.3,1.8-2,2.7
				c-1.5,1.8-3.2,3.6-5,5.4c-3.5,3.5-7.1,7-9.8,9.6c-2.7,2.6-4.6,4.2-4.6,4.2s1.8-1.7,4.5-4.3c2.7-2.6,6.3-6,9.8-9.6
				c1.7-1.8,3.5-3.6,5-5.3c0.7-0.9,1.5-1.7,2-2.7c0.2-0.5,0.2-1,0.3-1.5c0.1-0.5,0.1-1,0.2-1.4C24.8,27.8,25.1,25.3,25.1,25.3z"/>
		</g>
		<path fill="#D62228" d="M28.9,35.4c0,0,0.1,6-8.1,15.6S9.4,67.7,9.4,67.7l-2.2,4.5c0,0,9-14,11.7-17.4c2.7-3.4,10.6-13,10.6-13
			S29.6,36.9,28.9,35.4z"/>
		<g>
			<path fill="#D52328" d="M58.8,73.3c0,0,0.6-0.8,1.4-1.9c0.9-1.1,2.1-2.6,3.4-4c0.6-0.7,1.3-1.4,2-2c0.6-0.6,1.3-1.2,1.8-1.6
				c0.5-0.5,1.1-0.8,1.4-1c0.3-0.2,0.5-0.4,0.5-0.4s-0.2,0.1-0.5,0.4c-0.3,0.3-0.9,0.6-1.4,1c-0.5,0.5-1.2,1-1.8,1.7
				c-0.6,0.7-1.3,1.3-1.9,2c-1.3,1.4-2.5,2.9-3.4,4C59.4,72.5,58.8,73.3,58.8,73.3z"/>
		</g>
		<g>
			<path fill="#D52328" d="M67.2,68.8c0,0,0.6-1.7,1.5-4.1c0.9-2.5,2.3-5.7,3.7-8.9c0.7-1.6,1.5-3.2,2.3-4.6
				c0.4-0.7,0.8-1.4,1.2-2.1c0.4-0.7,0.8-1.3,1.1-1.8c0.3-0.6,0.7-1.1,1-1.5c0.3-0.4,0.6-0.8,0.8-1.1c0.5-0.6,0.8-0.9,0.8-0.9
				s-0.3,0.4-0.7,1c-0.2,0.3-0.5,0.7-0.8,1.1c-0.3,0.5-0.6,0.9-1,1.5c-0.3,0.6-0.7,1.2-1.1,1.8c-0.4,0.7-0.8,1.4-1.1,2.1
				c-0.8,1.5-1.5,3-2.3,4.6c-1.5,3.2-2.8,6.4-3.8,8.9C67.8,67.2,67.2,68.8,67.2,68.8z"/>
		</g>
		<g>
			<path fill="#D52328" d="M68.7,25.4c0,0,0.6,0.4,1.6,0.9c0.2,0.1,0.5,0.2,0.8,0.3c0.3,0.1,0.6,0.2,0.9,0.3c0.3,0,0.7,0.1,1.1,0
				c0.4,0,0.7,0,1.1-0.1c2.9-0.2,5.8-0.7,5.8-0.7s-2.9,0.5-5.8,0.7c-0.4,0-0.7,0-1.1,0.1c-0.4,0-0.7,0-1.1,0
				c-0.3-0.1-0.7-0.2-0.9-0.3c-0.3-0.1-0.6-0.2-0.8-0.4C69.3,25.8,68.7,25.4,68.7,25.4z"/>
		</g>
		<g>
			<path fill="#D52328" d="M68.1,34.9c0,0,0.2,0.1,0.4,0.3c0.3,0.2,0.7,0.4,1.3,0.7c0.3,0.1,0.6,0.3,0.9,0.4c0.3,0.1,0.7,0.2,1,0.3
				c0.4,0.1,0.7,0.2,1.1,0.3c0.4,0.1,0.8,0.2,1.2,0.2c0.8,0.1,1.6,0.2,2.3,0.4c0.4,0.1,0.7,0.2,1.1,0.2c0.3,0.1,0.6,0.2,0.9,0.3
				c0.3,0.1,0.5,0.2,0.8,0.3c0.2,0.1,0.4,0.3,0.5,0.4c0.1,0.1,0.2,0.2,0.3,0.3c0.1,0.1,0.1,0.1,0.1,0.1s0-0.1-0.1-0.1
				c0-0.1-0.2-0.2-0.3-0.3c-0.1-0.1-0.3-0.2-0.5-0.3c-0.2-0.1-0.5-0.2-0.8-0.3c-0.3-0.1-0.6-0.2-0.9-0.3c-0.3-0.1-0.7-0.2-1.1-0.2
				c-0.7-0.1-1.5-0.2-2.3-0.3c-0.4-0.1-0.8-0.1-1.2-0.2c-0.4-0.1-0.8-0.2-1.1-0.3c-0.4-0.1-0.7-0.2-1-0.4c-0.3-0.1-0.6-0.3-0.9-0.4
				C68.7,35.4,68.1,34.9,68.1,34.9z"/>
		</g>
		<g>
			<path fill="#D52328" d="M72.5,37c0,0-0.1,0-0.3,0.1c-0.2,0-0.5,0.1-0.8,0.2c-0.2,0-0.4,0.1-0.6,0.1c-0.2,0.1-0.4,0-0.6,0
				c-0.4,0-0.9-0.1-1.4-0.1c-0.2,0-0.5,0-0.7,0c-0.2,0-0.4,0.1-0.7,0.1c-0.4,0.1-0.8,0.3-1.1,0.4c-0.7,0.3-1.1,0.4-1.1,0.4
				s0.4-0.2,1.1-0.5c0.3-0.1,0.7-0.3,1.1-0.4c0.2-0.1,0.4-0.1,0.7-0.1c0.2,0,0.5,0,0.7,0c0.5,0,0.9,0.1,1.4,0.2c0.2,0,0.4,0,0.6,0
				c0.2,0,0.4-0.1,0.6-0.1C72.1,37.1,72.5,37,72.5,37z"/>
		</g>
		<g>
			<path fill="#D52328" d="M44,68.4c0,0,0.5,1.2,0.9,2.4c0.2,0.6,0.3,1.3,0.3,1.7c0,0.2,0,0.4-0.1,0.6c0,0.1-0.1,0.2-0.1,0.2
				s0.1-0.3,0.1-0.8c0-0.5-0.1-1.1-0.3-1.7C44.5,69.5,44,68.4,44,68.4z"/>
		</g>
		<g>
			<path fill="#D52328" d="M34.5,71.3c0,0-1.7,0-4.2,0.2c-1.3,0.1-2.7,0.2-4.3,0.3c-0.8,0.1-1.6,0.2-2.4,0.2
				c-0.8,0.1-1.6,0.2-2.5,0.3c-0.8,0.1-1.6,0.3-2.4,0.5c-0.8,0.1-1.6,0.4-2.4,0.4c-0.4,0-0.8,0-1.2,0.1c-0.4,0-0.7,0-1.1,0
				c-0.7,0-1.4-0.1-2-0.2c-0.6-0.1-1.2-0.2-1.7-0.3c-0.5-0.1-0.9-0.2-1.3-0.3C8.4,72.4,8,72.3,8,72.3s0.4,0.1,1.1,0.3
				c0.4,0.1,0.8,0.2,1.3,0.3c0.5,0.1,1.1,0.2,1.7,0.3c0.6,0.1,1.3,0.2,2,0.2c0.4,0,0.7,0,1.1,0c0.4,0,0.8,0,1.1-0.1
				c0.8,0,1.6-0.2,2.4-0.4c0.8-0.2,1.6-0.4,2.4-0.5c0.8-0.1,1.7-0.2,2.5-0.3c0.8-0.1,1.6-0.2,2.4-0.2c1.6-0.1,3-0.2,4.3-0.3
				C32.9,71.4,34.5,71.3,34.5,71.3z"/>
		</g>
	</g>
</g>
<path fill="none" stroke="#ED1C24" stroke-width="0.75" stroke-miterlimit="10" d="M77.7,40v38.1c0,0,4.3,2.4,9.5,2.5
	s15.1-4,15.9-21S98.1,39,93.8,38.7C89.4,38.5,77.7,40,77.7,40z"/>
</svg>
