<?xml version="1.0" encoding="utf-8"?>
<!-- Generator: Adobe Illustrator 18.1.1, SVG Export Plug-In . SVG Version: 6.00 Build 0)  -->
<svg version="1.1" id="Слой_1" xmlns="http://www.w3.org/2000/svg" xmlns:xlink="http://www.w3.org/1999/xlink" x="0px" y="0px"
	 viewBox="0 0 120 120" enable-background="new 0 0 120 120" xml:space="preserve">
<path fill="none" stroke="#000000" stroke-width="0.3824" stroke-miterlimit="10" d="M83.6,108.8c0,1.5-1.2,2.7-2.7,2.7H37.5
	c-1.5,0-2.7-1.2-2.7-2.7V12.8c0-1.5,1.2-2.7,2.7-2.7H81c1.5,0,2.7,1.2,2.7,2.7V108.8z"/>
<path d="M82.9,109.9c0,0.5-0.7,1-1.2,1H36.9c-0.5,0-1.1-0.5-1.1-1c0,0-0.1-1,1.1-0.9h44.7C83.3,108.9,82.9,109.9,82.9,109.9z"/>
<line fill="none" x1="34.8" y1="107.7" x2="83.6" y2="107.7"/>
<line fill="none" stroke="#000000" stroke-width="0.3313" stroke-miterlimit="10" x1="34.7" y1="107.7" x2="83.5" y2="107.7"/>
<path d="M84.1,45.8c0,0.3-0.3,0.6-0.6,0.6H34.9c-0.3,0-0.6-0.3-0.6-0.6l0,0c0-0.3,0.3-0.6,0.6-0.6h48.6
	C83.8,45.2,84.1,45.4,84.1,45.8L84.1,45.8z"/>
<path d="M84.1,47.5c0,0.3-0.3,0.6-0.6,0.6H34.9c-0.3,0-0.6-0.3-0.6-0.6l0,0c0-0.3,0.3-0.6,0.6-0.6h48.6
	C83.9,46.9,84.1,47.2,84.1,47.5L84.1,47.5z"/>
<path fill="none" stroke="#000000" stroke-width="0.1656" stroke-miterlimit="10" d="M48.4,45.4l-10.1,0V16c0-1.5,1.2-2.7,2.7-2.7
	h7.4V45.4z"/>
<rect x="38.3" y="47.8" fill="none" stroke="#000000" stroke-width="0.1656" stroke-miterlimit="10" width="10.1" height="59.9"/>
<ellipse cx="39.9" cy="35.7" rx="2.4" ry="1"/>
<path d="M49.8,35.7c0,0.5-2.6,0.4-5.7,0.4c-1.9,0-3.7,0.1-4.7,0c-0.7,0-0.8-0.2-0.8-0.4c0-0.2,0-0.4,0.6-0.5c1-0.1,3.2-0.1,5.1-0.1
	C49.2,35.1,49.8,35.2,49.8,35.7z"/>
<ellipse cx="39.5" cy="55.5" rx="2.4" ry="1"/>
<path d="M49.5,55.5c0,0.5-2.6,0.4-5.7,0.4c-1.9,0-3.7,0.1-4.7,0c-0.7,0-0.8-0.2-0.8-0.4c0-0.2,0-0.4,0.6-0.5c1-0.1,3.2-0.1,5.1-0.1
	C48.8,54.9,49.5,55,49.5,55.5z"/>
<path fill="none" stroke="#000000" stroke-width="0.3313" stroke-miterlimit="10" d="M75.4,26.4c-0.3,6-10.9,13.7-10.9,13.7
	s-10.6-7.9-10.9-13.9c-0.4-6,6.7-10,10.9-4.3C70,15.4,75.7,20.1,75.4,26.4z"/>
<g>
	<path fill="none" stroke="#000000" stroke-width="1.687528e-002" stroke-miterlimit="10" d="M70,27.8c0,0,0.2,1,0.3,1.2
		c0.1,0.3,0,0.9-0.1,1.2s-0.1,0.6-0.1,0.8c0,0.1-0.1,0.6-0.4,1c-0.3,0.4-0.7,0.8-0.8,0.9c0,0.1-0.4,0.7-1.1,0.7s-1-0.1-1.2-0.3
		s-0.9-0.9-1.1-1c-0.2-0.1-0.6-0.5-0.7-0.8c-0.1-0.3-0.1-0.5-0.2-0.8c-0.1-0.3-0.2-0.7-0.2-0.7"/>
	<path d="M68.4,31.7c-0.2-0.1-0.4-0.2-0.5-0.2s-0.3,0.1-0.4,0.1c0,0-0.1,0-0.1,0c-0.1,0-0.1,0-0.2,0c-0.1,0-0.2,0.1-0.2,0.1
		s-0.3,0.2-0.3,0.3c0,0.1-0.1,0.1-0.1,0.1s0.2,0,0.3,0c0,0,0.1,0,0.2,0c0.1,0,0.2-0.1,0.2-0.1s0.1,0,0.2,0c0.1,0,0.1,0,0.1,0
		s0,0,0,0c0,0,0,0,0,0s0.1,0,0.2,0c0.1,0,0.1,0,0.2,0c0.1,0,0.1,0,0.2,0c0.1,0,0.1,0,0.1,0s0.1,0,0.2,0s0.2-0.1,0.2-0.1
		S68.6,31.8,68.4,31.7z M66.9,31.9C66.9,31.9,66.9,31.9,66.9,31.9C66.9,31.9,66.9,31.9,66.9,31.9C66.9,31.9,66.9,31.9,66.9,31.9
		C66.9,31.9,66.9,31.9,66.9,31.9C66.9,31.9,66.9,31.9,66.9,31.9C66.9,31.9,66.9,31.9,66.9,31.9C66.9,31.8,66.9,31.8,66.9,31.9
		C66.9,31.8,66.9,31.8,66.9,31.9C66.9,31.8,66.9,31.8,66.9,31.9C66.9,31.8,66.9,31.8,66.9,31.9C66.9,31.9,66.9,31.9,66.9,31.9
		C66.9,31.9,66.9,31.9,66.9,31.9C66.9,31.9,66.9,31.9,66.9,31.9C66.9,31.9,66.9,31.9,66.9,31.9C66.9,31.9,66.9,31.9,66.9,31.9
		C66.9,31.9,66.9,31.9,66.9,31.9C66.9,31.9,66.9,31.9,66.9,31.9C66.9,31.9,66.9,31.9,66.9,31.9C66.9,31.9,66.9,31.9,66.9,31.9z
		 M67.5,31.8C67.5,31.8,67.5,31.8,67.5,31.8C67.5,31.8,67.5,31.8,67.5,31.8C67.5,31.8,67.5,31.8,67.5,31.8
		C67.5,31.8,67.5,31.8,67.5,31.8C67.5,31.8,67.5,31.8,67.5,31.8C67.5,31.7,67.5,31.7,67.5,31.8C67.5,31.7,67.5,31.7,67.5,31.8
		C67.5,31.7,67.5,31.7,67.5,31.8c0-0.1,0-0.1,0-0.1c0,0,0,0,0,0c0,0,0,0,0,0c0,0,0,0,0,0s0,0,0,0c0,0,0,0,0,0c0,0,0,0,0,0
		C67.5,31.7,67.5,31.7,67.5,31.8C67.5,31.7,67.5,31.7,67.5,31.8C67.5,31.7,67.5,31.8,67.5,31.8C67.5,31.8,67.5,31.8,67.5,31.8z
		 M67.6,31.7C67.6,31.7,67.6,31.7,67.6,31.7C67.6,31.8,67.6,31.8,67.6,31.7C67.6,31.8,67.6,31.8,67.6,31.7
		C67.6,31.8,67.6,31.8,67.6,31.7C67.6,31.8,67.6,31.8,67.6,31.7C67.6,31.7,67.6,31.7,67.6,31.7C67.6,31.7,67.6,31.7,67.6,31.7
		C67.6,31.6,67.6,31.6,67.6,31.7C67.6,31.6,67.6,31.6,67.6,31.7C67.6,31.6,67.6,31.6,67.6,31.7C67.6,31.6,67.6,31.6,67.6,31.7
		C67.6,31.6,67.6,31.6,67.6,31.7C67.6,31.6,67.6,31.6,67.6,31.7C67.6,31.6,67.6,31.7,67.6,31.7C67.6,31.7,67.6,31.7,67.6,31.7z
		 M68.2,31.8C68.2,31.8,68.2,31.8,68.2,31.8C68.2,31.8,68.2,31.8,68.2,31.8C68.2,31.8,68.2,31.8,68.2,31.8
		C68.2,31.8,68.2,31.8,68.2,31.8C68.2,31.8,68.2,31.8,68.2,31.8C68.1,31.8,68.1,31.8,68.2,31.8C68.1,31.8,68.1,31.8,68.2,31.8
		C68.2,31.8,68.2,31.8,68.2,31.8C68.2,31.8,68.2,31.8,68.2,31.8C68.2,31.8,68.2,31.8,68.2,31.8C68.2,31.8,68.2,31.8,68.2,31.8
		C68.2,31.8,68.2,31.8,68.2,31.8C68.2,31.8,68.2,31.8,68.2,31.8z"/>
	<g>
		<path d="M67.6,31.9c0,0,0.1,0,0.2,0c0.1,0,0.1,0,0.1-0.1c0,0,0-0.1,0-0.1c0,0,0,0,0,0.1c0,0-0.1,0.1-0.1,0.1
			C67.7,32,67.6,31.9,67.6,31.9z"/>
	</g>
	<g>
		<path d="M67.1,32l0.1,0c0,0,0,0,0,0c0,0,0,0,0.1,0l0.2,0l0,0l0-0.1l0,0.1l0,0l-0.2,0c0,0,0,0-0.1,0c0,0,0,0,0,0L67.1,32z"/>
	</g>
	<g>
		<path d="M67.9,31.9C67.9,31.9,67.9,31.9,67.9,31.9C67.9,31.9,68,31.9,67.9,31.9c0.1,0,0.2,0,0.2,0S68.1,31.9,67.9,31.9
			C68,31.9,67.9,31.9,67.9,31.9C67.9,31.9,67.9,31.9,67.9,31.9L67.9,31.9z"/>
	</g>
	<g>
		<path d="M68,30.4c0,0,0.1,0.2,0.2,0.4c0,0.1,0,0.1,0,0.1c0,0-0.1,0.1-0.1,0.1c-0.1,0.1-0.1,0.1-0.1,0.1s0,0,0.1-0.1
			c0,0,0.1-0.1,0.1-0.1c0,0,0-0.1,0-0.1C68.1,30.5,68,30.4,68,30.4z"/>
	</g>
	<g>
		<path d="M66.8,30.7C66.8,30.7,66.8,30.7,66.8,30.7c0,0.2-0.1,0.2,0,0.3c0,0.1,0.1,0.1,0.2,0.1c0.1,0,0.1,0,0.1,0s0,0-0.1,0
			c-0.1,0-0.1,0-0.2-0.1C66.7,30.9,66.8,30.8,66.8,30.7C66.8,30.7,66.8,30.7,66.8,30.7z"/>
	</g>
	<g>
		<path d="M66.9,31c0,0,0.1,0,0.2-0.1c0.1,0,0.1,0,0.1,0c0,0,0,0,0,0s0,0-0.1,0c0,0-0.1-0.1-0.1,0C67,31,66.9,31,66.9,31z"/>
	</g>
	<g>
		<path d="M67.4,31.1c0,0,0.2,0,0.3-0.1c0.1-0.1,0.1-0.1,0.2-0.1c0.1,0,0.1,0,0.1,0s0,0-0.1,0c-0.1,0-0.1,0.1-0.2,0.1
			C67.6,31.2,67.4,31.1,67.4,31.1z"/>
	</g>
	<path d="M67.8,30.9c0,0,0.1,0,0.1,0c0,0,0.1,0,0.1,0C68,30.9,67.8,30.8,67.8,30.9z"/>
	<path d="M67.2,31C67.2,31,67.2,31,67.2,31c-0.1,0-0.1,0-0.1,0L67.2,31z"/>
	<g>
		<path d="M67.1,32.8c0,0,0.3-0.1,0.6-0.1c0.3,0,0.6,0,0.6,0s-0.3,0-0.6,0C67.4,32.7,67.1,32.8,67.1,32.8z"/>
	</g>
	<g>
		<path d="M68.3,28.9c0,0-0.1,0.1-0.2,0.1C68,29.1,68,29.2,68,29.2c0,0,0-0.1,0.1-0.2C68.2,28.9,68.3,28.8,68.3,28.9L68.3,28.9z"/>
	</g>
	<g>
		<path d="M68,29.2c0,0,0-0.1,0.2-0.1c0.1-0.1,0.3,0,0.4,0c0.2,0,0.3,0,0.4-0.1c0.1,0,0.2-0.1,0.2-0.1c0,0-0.1,0.1-0.2,0.1
			c-0.1,0.1-0.3,0.1-0.4,0.1c-0.2,0-0.3-0.1-0.4,0C68.1,29.1,68,29.2,68,29.2z"/>
	</g>
	<g>
		<path d="M69.1,28.8C69.1,28.8,69.1,28.9,69.1,28.8c-0.2,0.1-0.2,0.2-0.3,0.2c-0.1,0-0.2,0-0.2,0c-0.1,0-0.1,0-0.1,0s0,0,0.1,0
			c0.1,0,0.2,0,0.2,0C68.9,29,68.9,28.9,69.1,28.8C69.1,28.9,69.1,28.8,69.1,28.8z"/>
	</g>
	<path fill="none" stroke="#000000" stroke-width="8.437641e-003" stroke-miterlimit="10" d="M68.1,29C68.1,29,68.2,29,68.1,29"/>
	<path d="M69.5,28.1c-0.1-0.1-0.3-0.1-0.4-0.1c0,0,0,0,0,0c0,0-0.1,0-0.1,0c0,0,0,0-0.1,0c0,0,0,0,0,0c0,0-0.1,0-0.1,0
		c-0.1,0-0.1,0.1-0.2,0.1c0,0,0,0,0,0c0,0,0,0,0,0c0,0,0,0,0,0c0,0,0,0,0,0c0,0,0,0,0,0c0,0,0,0,0,0c0,0,0,0,0,0c0,0,0,0,0,0
		c0,0,0,0,0,0c0,0,0,0-0.1,0c0,0,0,0,0,0c0,0-0.1,0-0.1,0c0,0,0,0-0.1,0c0,0,0,0,0,0c0,0-0.1,0-0.1,0c0,0-0.1,0-0.1,0c0,0,0,0,0,0
		c0,0,0,0,0,0c0,0,0,0,0,0c0,0,0,0,0,0c0,0,0,0,0,0c0,0,0,0,0.1,0c0,0,0,0,0,0c0,0,0,0,0,0c0,0,0,0,0,0l-0.1,0c0,0,0,0,0,0
		c0,0,0,0,0,0c0,0,0,0,0,0c0,0,0,0,0,0c0,0,0,0,0,0c0,0,0.1,0,0.1,0c0,0,0,0,0,0c0,0,0-0.1,0.1,0c0,0,0,0,0,0c0,0,0,0,0,0
		c0,0,0,0,0,0c0,0,0,0,0,0c0,0,0,0,0,0c0,0,0,0,0,0c0,0,0,0,0,0c0,0,0.1,0,0.1,0c0,0,0,0,0,0c0,0,0,0,0,0c0,0,0,0,0,0c0,0,0,0,0,0
		c0,0,0,0,0,0c0,0,0,0,0,0c0,0,0,0,0,0c0,0,0,0,0.1,0c0,0,0,0,0.1,0c0,0,0,0,0.1,0c0,0,0,0,0,0c0,0,0,0,0,0c0,0,0.4-0.1,0.4-0.1
		c0.1,0,0.2-0.1,0.4-0.1c0.1,0,0.2,0,0.3,0c0,0,0.1,0.1,0.2,0C69.7,28.3,69.5,28.2,69.5,28.1z M68.3,28.6
		C68.3,28.5,68.3,28.5,68.3,28.6C68.3,28.5,68.3,28.5,68.3,28.6z"/>
	<path d="M69.5,28.8C69.5,28.8,69.5,28.8,69.5,28.8C69.5,28.8,69.5,28.8,69.5,28.8C69.5,28.8,69.5,28.7,69.5,28.8
		C69.5,28.7,69.5,28.7,69.5,28.8c0.1-0.1,0.1-0.2,0.1-0.2c0,0,0,0.1,0,0.1C69.5,28.7,69.5,28.7,69.5,28.8
		C69.4,28.8,69.4,28.8,69.5,28.8L69.5,28.8c-0.1-0.1,0-0.1,0-0.2c0,0,0,0,0,0.1c0,0,0,0,0,0c0,0,0,0,0,0c0,0-0.1,0.1-0.1,0.1
		c0,0,0,0,0,0c0,0,0,0,0-0.1c0,0-0.1,0.1-0.1,0.1c0,0,0.1-0.1,0.1-0.1c0,0,0-0.1,0-0.1c0,0,0,0.1-0.1,0.1l0,0c0,0,0,0,0,0
		c0,0,0,0-0.1,0c0,0,0,0,0,0l0,0c0,0,0,0,0,0c0,0,0-0.1,0-0.1c0,0,0-0.1,0-0.1c0,0,0,0.1,0,0.1c0,0,0,0,0,0c0,0,0,0,0-0.1
		c0,0.1,0,0.1-0.1,0.2c0,0,0,0,0,0c0,0,0,0,0,0c0,0,0,0,0,0c0,0,0,0,0,0c0,0,0,0,0,0c0,0,0,0,0,0c0,0,0,0,0,0c0-0.1,0-0.1,0-0.2
		c0,0,0,0.1,0,0.1c0,0,0,0,0,0c0,0,0,0,0,0c0,0,0,0,0,0c0,0,0,0,0,0c0,0,0,0.1,0,0.1c0,0,0,0,0,0c0,0,0,0,0,0c0,0,0,0,0,0
		c0,0,0,0,0,0c0,0,0,0,0,0c0,0,0,0,0,0c0,0,0-0.1,0-0.1c0,0,0,0,0,0l0,0.1c0,0,0,0,0,0c0,0,0-0.1,0-0.1c0,0,0,0,0,0c0,0,0,0.1,0,0.1
		c0,0,0,0,0,0c0,0,0,0,0,0c0,0,0,0,0-0.1c0,0,0,0,0,0.1c0,0,0,0,0,0c0,0,0,0,0,0c0,0,0,0,0,0l0,0l0,0c0,0,0,0,0,0c0,0,0,0,0,0
		c0,0,0,0,0,0c0,0,0,0,0,0c0,0,0,0,0,0c0,0,0,0,0,0c0,0,0,0,0,0c0,0,0,0,0,0c0,0,0,0,0,0c0,0,0,0,0,0c0,0,0,0,0,0c0,0,0,0,0,0
		c0,0,0,0,0,0l0,0c0,0,0,0,0,0c0,0,0,0,0,0c0,0,0,0-0.1,0c0,0,0,0.1,0,0.1l0,0c0,0,0,0,0,0c0,0,0,0,0,0c0,0,0,0,0,0c0,0,0,0,0,0
		c0,0,0,0,0,0c0,0,0,0,0-0.1c0,0,0,0,0,0c0,0,0,0,0,0c0,0,0,0,0,0c0,0,0,0,0,0c0,0,0,0,0,0c0,0,0,0,0,0l0,0c0,0,0,0,0,0c0,0,0,0,0,0
		c0,0,0,0,0,0c0,0,0,0,0,0c0,0,0,0,0,0c0,0,0,0,0,0c0,0,0,0,0,0c0,0,0,0,0,0c0,0,0,0,0,0c0,0,0,0,0,0.1c0,0,0,0,0,0c0,0,0,0,0,0
		c0,0,0,0,0,0c0,0,0,0,0,0c0,0,0,0,0,0c0,0,0,0,0,0c0,0,0,0,0,0l0,0c0,0,0,0,0,0c0,0,0,0-0.1,0c0,0,0,0-0.1,0.1c0,0,0,0,0,0
		c0,0,0,0,0,0c0,0,0,0,0,0c0,0,0,0,0,0c0,0,0,0,0,0c0,0,0,0,0,0c0,0,0,0,0,0.1c0,0,0,0,0,0c0,0,0,0,0,0.1c0,0,0,0,0,0c0,0,0,0,0.1,0
		c0,0,0,0,0,0c0,0,0-0.1,0-0.1c0,0,0,0,0,0c0,0,0,0,0,0c0,0,0,0,0-0.1c0,0,0,0,0,0c0,0,0,0,0,0c0,0,0,0,0,0c0,0,0,0,0,0c0,0,0,0,0,0
		c0,0,0,0,0,0.1c0,0.1,0.1,0.1,0.2,0.2c0,0,0,0,0,0c0,0,0,0,0,0c0,0,0,0,0,0c0,0,0,0,0-0.1c0,0,0,0,0,0c0,0,0,0,0.1,0c0,0,0,0,0,0
		l0,0c0,0,0,0,0,0c0,0,0,0,0,0c0,0,0,0,0,0c0,0,0,0,0,0c0,0,0,0,0,0c0,0,0,0,0,0c0,0,0,0,0,0c0,0,0,0,0,0c0,0,0.1,0,0.2,0
		c0.1-0.1,0.1-0.2,0.1-0.2c0,0,0.1,0,0.1,0.1c0,0,0,0,0,0c0,0,0,0.1,0,0.1c0,0,0,0,0,0c0,0,0,0,0.1,0c0,0,0,0,0,0c0,0-0.1,0-0.1,0
		c0,0,0,0,0,0c0,0,0,0,0,0c0,0,0,0,0,0c0,0,0,0,0,0c0,0,0,0,0,0c0,0-0.1,0-0.1,0c0,0,0.1,0,0.1,0.1c0,0,0,0,0,0c0,0,0,0,0-0.1l0,0
		c0,0,0,0,0,0c0,0,0,0,0,0c0,0,0,0,0,0c0,0,0,0,0.1,0c0,0,0,0,0,0.1c0,0,0,0,0,0c0,0,0,0,0,0c0,0,0,0,0,0c0,0,0,0,0,0c0,0,0,0,0,0
		c0,0,0,0,0,0c0,0,0,0,0-0.1c0,0,0,0,0,0l0,0c0,0,0,0,0,0c0,0,0,0,0,0l0,0c0,0,0,0,0,0c0,0,0,0,0,0c0,0,0,0,0,0c0.1,0,0.1,0,0.2,0
		c0,0,0,0,0,0c0,0,0,0-0.1,0l0,0c0,0,0,0,0,0c0-0.1,0,0,0,0c0,0,0,0,0,0c0,0,0,0,0,0c0,0,0,0,0,0c0,0,0,0,0,0c0,0,0,0,0,0
		c0,0,0,0,0-0.1c0,0,0,0,0,0c0,0,0,0,0,0c0,0,0,0,0,0c0,0,0,0,0,0c0,0,0,0,0.1,0c0,0,0,0,0.1,0c0,0,0,0,0,0
		C69.3,28.9,69.4,28.9,69.5,28.8C69.4,28.9,69.4,28.9,69.5,28.8C69.4,28.9,69.5,28.8,69.5,28.8C69.5,28.8,69.5,28.8,69.5,28.8
		C69.5,28.8,69.5,28.8,69.5,28.8C69.5,28.8,69.5,28.8,69.5,28.8C69.5,28.8,69.4,28.8,69.5,28.8C69.4,28.8,69.4,28.8,69.5,28.8z
		 M68.3,28.8C68.3,28.8,68.3,28.8,68.3,28.8C68.3,28.8,68.3,28.8,68.3,28.8C68.3,28.8,68.3,28.8,68.3,28.8
		C68.3,28.8,68.3,28.8,68.3,28.8z M68.3,28.8C68.3,28.8,68.4,28.8,68.3,28.8C68.4,28.8,68.4,28.8,68.3,28.8
		C68.4,28.8,68.4,28.8,68.3,28.8z M68.5,28.9C68.5,28.9,68.5,28.9,68.5,28.9C68.5,28.9,68.5,28.9,68.5,28.9
		C68.5,28.9,68.5,28.9,68.5,28.9z M68.5,29L68.5,29C68.5,29,68.5,29,68.5,29C68.5,29,68.5,29,68.5,29L68.5,29
		C68.5,29,68.5,29,68.5,29z M68.5,28.9C68.5,28.9,68.5,28.9,68.5,28.9C68.5,28.9,68.5,28.9,68.5,28.9C68.5,28.9,68.5,28.9,68.5,28.9
		C68.5,28.9,68.5,28.9,68.5,28.9C68.5,28.9,68.5,28.9,68.5,28.9C68.5,28.9,68.5,28.9,68.5,28.9C68.5,28.9,68.5,28.9,68.5,28.9z
		 M68.7,28.8C68.7,28.9,68.6,28.9,68.7,28.8C68.6,28.8,68.6,28.8,68.7,28.8C68.6,28.8,68.6,28.8,68.7,28.8
		C68.6,28.8,68.6,28.8,68.7,28.8c-0.1,0-0.1-0.1-0.1-0.1C68.6,28.8,68.6,28.8,68.7,28.8c-0.1-0.1-0.1-0.1-0.1-0.1
		C68.6,28.7,68.6,28.7,68.7,28.8c0-0.1,0-0.1,0-0.1C68.6,28.8,68.6,28.8,68.7,28.8C68.7,28.8,68.7,28.8,68.7,28.8
		C68.7,28.8,68.7,28.8,68.7,28.8C68.7,28.8,68.7,28.8,68.7,28.8z M68.8,28.9C68.7,28.9,68.7,28.9,68.8,28.9
		C68.7,28.9,68.7,28.9,68.8,28.9C68.8,28.9,68.8,28.9,68.8,28.9C68.8,28.9,68.8,29,68.8,28.9z M69.1,28.6
		C69.1,28.6,69.1,28.6,69.1,28.6C69.1,28.6,69.1,28.6,69.1,28.6z M69.3,28.8C69.3,28.8,69.4,28.8,69.3,28.8
		C69.4,28.8,69.4,28.8,69.3,28.8C69.4,28.8,69.4,28.9,69.3,28.8z M69.4,28.8C69.4,28.8,69.4,28.8,69.4,28.8
		C69.4,28.8,69.4,28.8,69.4,28.8C69.4,28.8,69.4,28.8,69.4,28.8z"/>
	<path d="M68.5,29.2C68.5,29.1,68.5,29.1,68.5,29.2C68.5,29.1,68.5,29.1,68.5,29.2C68.5,29.1,68.5,29.1,68.5,29.2
		C68.5,29.1,68.5,29.1,68.5,29.2C68.5,29.1,68.5,29.1,68.5,29.2C68.5,29.1,68.5,29.1,68.5,29.2C68.6,29.1,68.6,29.1,68.5,29.2
		C68.5,29.1,68.5,29.2,68.5,29.2z"/>
	<path d="M68.7,29.2C68.6,29.2,68.6,29.2,68.7,29.2C68.6,29.1,68.6,29.1,68.7,29.2C68.6,29.1,68.6,29.1,68.7,29.2
		C68.6,29.1,68.6,29.1,68.7,29.2C68.6,29.1,68.6,29.1,68.7,29.2C68.6,29.1,68.6,29.1,68.7,29.2C68.7,29.1,68.7,29.1,68.7,29.2
		C68.7,29.1,68.7,29.1,68.7,29.2C68.7,29.1,68.7,29.1,68.7,29.2C68.7,29.1,68.7,29.1,68.7,29.2C68.7,29.1,68.7,29.1,68.7,29.2z"/>
	<path d="M68.7,29.1C68.7,29.1,68.8,29.1,68.7,29.1C68.8,29.1,68.8,29.1,68.7,29.1C68.8,29.1,68.8,29.1,68.7,29.1
		C68.8,29.1,68.8,29.1,68.7,29.1C68.8,29.1,68.8,29.2,68.7,29.1C68.8,29.2,68.8,29.2,68.7,29.1C68.7,29.2,68.7,29.1,68.7,29.1
		C68.7,29.1,68.7,29.1,68.7,29.1z"/>
	<path d="M68.3,29.1C68.4,29.1,68.4,29.1,68.3,29.1C68.4,29.1,68.4,29.1,68.3,29.1C68.4,29.1,68.4,29.1,68.3,29.1
		C68.3,29.1,68.3,29.1,68.3,29.1z"/>
	<path d="M68.5,29.1C68.5,29.1,68.5,29.1,68.5,29.1C68.4,29.1,68.4,29.1,68.5,29.1C68.4,29.1,68.4,29.1,68.5,29.1z"/>
	<path d="M68.4,29.1C68.4,29.1,68.4,29.1,68.4,29.1C68.4,29.1,68.4,29.1,68.4,29.1C68.4,29.1,68.4,29.1,68.4,29.1
		C68.4,29.1,68.4,29.1,68.4,29.1z"/>
	<g>
		<path d="M67.9,29.1c0,0,0.1-0.1,0.2-0.3c0.1-0.1,0.3-0.2,0.3-0.2l0,0c0,0-0.1,0.1-0.3,0.2C68,29,67.9,29.1,67.9,29.1z"/>
	</g>
	<path d="M68.8,25.7c0.1,0.1,0.6,1-0.2,2.1s-1.8,1.5-1.8,1.5s0.9-0.7,1.3-1.7c0.4-1,0.3-1.2,0.3-1.2s0,1.9-1.7,2.9
		c-1.7,1-1.8,0.5-1.8,0.5s-0.6,0.4-1.4,0.3c-0.7-0.1,0.4,0.1,0.8-0.4c0.4-0.6,0.3-1.4,0.2-2.1s0,1.7-0.4,2.1
		c-0.4,0.3-0.5,0.7-0.2,0.8s-2.3-0.5,0.4-4.1c2.7-3.6-1.1,1.9-1.4,1.7c0,0-0.3-0.4-0.1-1c0.2-0.6,0.1-0.2-0.3-0.6s-0.4-0.9-0.2-1.4
		c0.2-0.6,0.6-0.7,0.6-0.7s-0.1,0.2,0.3-0.3c0.4-0.5,0.6-0.9,1.5-1.2c0.7-0.2,1.6,0,1.7,0c0.1,0-0.5-0.3-0.5-0.3s1.7-0.1,1.9,0
		c0.6,0.2,0.8,0.3,1,0.4c0.4,0.3,0.6,0.5,0.8,0.7c0.5,0.4,0.6,0.9,0.6,0.9s-0.2,0.3,0.2,0.7c0.4,0.4,0.6,0.4,0.6,0.4
		s0.1,0.4-0.2,0.6c-0.2,0.2,0,0.3-0.4,0.5c-0.3,0.2-0.2,0.7-0.2,0.7l-0.2,0.2l0,0.2c0,0,0.2,0.1,0.4,0.4s0.2,0.9,0,1.3
		c-0.2,0.4-0.5,1.2-0.3,1.4c0.2,0.1,0.3-0.3,0.3-0.3s0,0.8-0.4,0.2C70,30,70.9,29.8,70.5,29c-0.4-0.8-0.4-1.2-0.4-1.2s0,0.1-0.4-0.4
		C69.3,26.9,68.8,25.7,68.8,25.7z"/>
	<path d="M70.1,30.2c0,0,0.1,2.3,0.4,2.6c0.1,0.1,0,0.1,0,0.1c0,0.1-0.1,0.1-0.1,0.1s-0.4-0.3-0.5-0.8c-0.1-0.5-0.1-0.5-0.1-0.5
		s0.2-0.1,0.3-0.7C70.1,30.9,70.1,30.6,70.1,30.2z"/>
	<g>
		<path d="M70.2,29.9C70.2,29.9,70.2,29.9,70.2,29.9c0.1,0,0.2-0.1,0.2-0.2c0.1-0.1,0.1-0.3,0.1-0.3s0,0.1-0.1,0.3
			C70.4,29.8,70.3,29.9,70.2,29.9C70.2,29.9,70.2,29.9,70.2,29.9z"/>
	</g>
	<path d="M62.4,28.6c0,0-0.2,0.9-0.4,1.4c-0.3,0.8,0.3,1.7,1,2.5c0.7,0.8,0.5,0.8,0.8,1.1c0.1,0.1,0.5,0.5,0.5,0.5l0.5,0.1
		c0,0,0.1-0.1-1.1-1.7c-1.2-1.5-1.1-1.9-1.1-2.5C62.6,29.4,62.4,28.6,62.4,28.6z"/>
	<path d="M65,34c0,0,0.9,0-0.5-1.3c-1.4-1.3-1.8-1.6-1.8-2.1c0-0.6-0.1-1.7-0.2-2c0-0.2,0.7-0.6,0.7-0.6s0.1,2,0.7,2.4
		c0.5,0.3,0.4,0,0.4,0s0,0-0.2-0.1s-0.1-0.1-0.1-0.1l0.4-0.1c0,0,0.2,0.5,0.3,0.8c0.1,0.2,0.1,0.6,0.2,0.8c0.1,0.2,0.3,0.4,0.3,0.4
		s0.6,2.1,0.4,2.2c-0.3,0.1-0.7,0-0.8,0S65,34,65,34z"/>
	<path d="M63.1,31.4c0,0,1.6,2.1,1.5,2.4s0.4,0.2,0.4,0.2S64.8,32.8,63.1,31.4z"/>
	<path d="M65.7,34.5c0,0,0.1-0.3,0-0.7"/>
	<g>
		<path d="M62.4,28.7c0,0-0.3,0.3-0.6,0.8c-0.3,0.5-0.7,1.2-0.5,2c0.3,0.7,0.8,1.3,1.3,1.6c0.5,0.3,0.8,0.5,0.8,0.5
			s-0.4-0.1-0.8-0.5c-0.5-0.3-1.1-0.9-1.3-1.6c-0.2-0.8,0.2-1.6,0.4-2C62.1,29,62.4,28.7,62.4,28.7L62.4,28.7z"/>
	</g>
	<g>
		<path d="M62.2,29.1c0,0-0.2,0.2-0.3,0.7c-0.2,0.4-0.3,1-0.1,1.6c0.1,0.3,0.3,0.5,0.5,0.7c0.2,0.2,0.4,0.4,0.6,0.5
			c0.3,0.3,0.6,0.5,0.6,0.5s-0.2-0.2-0.6-0.5c-0.2-0.2-0.4-0.3-0.6-0.5c-0.2-0.2-0.4-0.4-0.5-0.7c-0.2-0.6,0-1.2,0.1-1.6
			C62,29.3,62.2,29.1,62.2,29.1L62.2,29.1z"/>
	</g>
	<path fill="none" stroke="#000000" stroke-width="8.437641e-003" stroke-miterlimit="10" d="M62.2,28.9c0,0-1.2,1.9,0.3,3.3"/>
	<path d="M68.1,32c-0.3,0.1-0.5,0.2-0.8,0.1S66.9,32,66.8,32c-0.1,0-0.3,0-0.3,0s0.2,0.2,0.3,0.4c0.1,0.2,0.4,0.3,0.8,0.3
		c0.4,0,0.6-0.2,0.7-0.3c0.1-0.1,0.3-0.5,0.3-0.5S68.3,31.8,68.1,32z M66.8,32.2L66.8,32.2L66.8,32.2L66.8,32.2L66.8,32.2l-0.1,0
		l0,0v0h0L66.8,32.2L66.8,32.2L66.8,32.2L66.8,32.2L66.8,32.2z M67.4,32.3C67.4,32.3,67.4,32.3,67.4,32.3
		C67.4,32.3,67.4,32.3,67.4,32.3C67.4,32.3,67.4,32.3,67.4,32.3C67.4,32.3,67.4,32.3,67.4,32.3C67.4,32.3,67.4,32.3,67.4,32.3
		C67.4,32.3,67.4,32.3,67.4,32.3C67.4,32.3,67.4,32.3,67.4,32.3C67.4,32.3,67.4,32.3,67.4,32.3C67.4,32.3,67.4,32.3,67.4,32.3
		C67.4,32.3,67.4,32.3,67.4,32.3C67.4,32.3,67.4,32.3,67.4,32.3C67.4,32.3,67.4,32.3,67.4,32.3C67.4,32.3,67.4,32.3,67.4,32.3
		C67.4,32.3,67.4,32.3,67.4,32.3C67.4,32.3,67.4,32.3,67.4,32.3C67.4,32.3,67.4,32.2,67.4,32.3C67.4,32.2,67.4,32.3,67.4,32.3z
		 M66.8,32.3C66.8,32.3,66.8,32.3,66.8,32.3C66.8,32.3,66.8,32.3,66.8,32.3C66.8,32.3,66.8,32.3,66.8,32.3
		C66.8,32.3,66.8,32.3,66.8,32.3C66.8,32.2,66.8,32.2,66.8,32.3C66.9,32.2,66.9,32.2,66.8,32.3c0-0.1,0.1-0.1,0.1-0.1c0,0,0,0,0,0
		s0,0,0,0C66.9,32.2,66.9,32.2,66.8,32.3C66.9,32.2,66.9,32.2,66.8,32.3C66.9,32.2,66.9,32.2,66.8,32.3
		C66.8,32.2,66.8,32.3,66.8,32.3C66.8,32.3,66.8,32.3,66.8,32.3C66.8,32.3,66.8,32.3,66.8,32.3z M67,32.3L67,32.3L67,32.3l-0.1,0
		l0-0.1l-0.1,0.1l0-0.1l0.1-0.1L67,32.3l0-0.1L67,32.3l0.1-0.1L67,32.3L67,32.3z M67.1,32.5L67.1,32.5
		C67.1,32.4,67.1,32.4,67.1,32.5c-0.1,0,0-0.1,0-0.2l0.1-0.1l-0.1,0.1l0.1-0.1L67.1,32.5L67.1,32.5z M67.4,32.4L67.4,32.4L67.4,32.4
		L67.4,32.4l-0.2,0.1l0-0.1l0,0l0-0.1l-0.1,0.1l0-0.1l0.1,0v0l0.1-0.1l0,0.1L67.4,32.4L67.4,32.4C67.4,32.4,67.4,32.4,67.4,32.4
		c0-0.1,0-0.1,0-0.1L67.4,32.4z M67.9,32.3C67.9,32.3,67.9,32.3,67.9,32.3C67.9,32.3,67.9,32.3,67.9,32.3
		C67.9,32.2,67.9,32.2,67.9,32.3C67.9,32.2,67.9,32.2,67.9,32.3C67.9,32.2,67.9,32.2,67.9,32.3C67.9,32.2,67.9,32.2,67.9,32.3
		C67.9,32.2,67.9,32.2,67.9,32.3C67.9,32.2,67.9,32.2,67.9,32.3C67.9,32.3,67.9,32.3,67.9,32.3C67.9,32.3,67.9,32.3,67.9,32.3
		C67.9,32.3,67.9,32.3,67.9,32.3C67.9,32.3,67.9,32.3,67.9,32.3C67.9,32.3,67.9,32.3,67.9,32.3C67.9,32.3,67.9,32.3,67.9,32.3
		C67.9,32.3,67.9,32.3,67.9,32.3C67.9,32.3,67.9,32.3,67.9,32.3C67.9,32.3,67.9,32.3,67.9,32.3C67.9,32.3,67.9,32.3,67.9,32.3z
		 M67.5,32.6C67.5,32.6,67.5,32.6,67.5,32.6C67.5,32.6,67.5,32.6,67.5,32.6C67.5,32.5,67.5,32.5,67.5,32.6
		C67.5,32.5,67.5,32.5,67.5,32.6c0-0.1,0-0.1,0-0.2c0,0,0,0,0-0.1c0,0,0,0,0-0.1c0,0,0,0,0,0c0,0,0,0,0,0s0,0,0,0c0,0,0,0,0,0
		c0,0,0,0.1,0,0.1C67.5,32.4,67.5,32.5,67.5,32.6C67.5,32.5,67.5,32.5,67.5,32.6C67.5,32.5,67.5,32.5,67.5,32.6
		C67.5,32.6,67.5,32.6,67.5,32.6C67.5,32.6,67.5,32.6,67.5,32.6C67.6,32.6,67.6,32.6,67.5,32.6C67.6,32.6,67.6,32.6,67.5,32.6z
		 M67.8,32.4L67.8,32.4L67.8,32.4C67.8,32.4,67.7,32.4,67.8,32.4c-0.1,0.1-0.1,0-0.1,0l0,0.1l0-0.1c0,0,0,0,0,0.1c0,0,0-0.1,0-0.1
		l0,0.1c0,0,0,0,0-0.2l0,0l0,0l0,0c0,0,0,0,0,0c0,0,0,0.1,0,0.1v-0.1l0,0l0,0l0,0L67.8,32.4l-0.1-0.1L67.8,32.4L67.8,32.4L67.8,32.4
		L67.8,32.4z M67.9,32.4C67.9,32.4,67.9,32.4,67.9,32.4C67.9,32.4,67.9,32.4,67.9,32.4C67.9,32.4,67.9,32.4,67.9,32.4
		C67.9,32.4,67.9,32.3,67.9,32.4C67.9,32.3,67.9,32.3,67.9,32.4C67.9,32.3,67.9,32.3,67.9,32.4c-0.1-0.1-0.1-0.1-0.1-0.1
		c0,0,0,0,0,0c0,0,0,0,0,0c0,0,0,0,0,0c0,0,0,0,0,0s0,0,0,0c0,0,0,0,0,0c0,0,0,0,0,0c0,0,0,0,0,0C67.9,32.3,67.9,32.3,67.9,32.4
		C67.9,32.3,67.9,32.3,67.9,32.4C67.9,32.3,67.9,32.3,67.9,32.4C67.9,32.3,67.9,32.3,67.9,32.4C67.9,32.3,67.9,32.4,67.9,32.4
		C67.9,32.4,67.9,32.4,67.9,32.4C67.9,32.4,67.9,32.4,67.9,32.4C67.9,32.4,67.9,32.4,67.9,32.4C67.9,32.4,67.9,32.4,67.9,32.4z"/>
	<g>
		<path d="M67.4,31.2C67.4,31.2,67.4,31.3,67.4,31.2c0,0.1-0.1,0.2-0.1,0.3c0.1,0,0.1,0,0.2,0c0.1,0,0-0.1,0-0.1c0,0,0,0,0,0.1
			c0,0-0.1,0-0.2,0C67.3,31.4,67.4,31.4,67.4,31.2C67.4,31.3,67.4,31.2,67.4,31.2z"/>
	</g>
	<g>
		<path d="M67.8,28.9c0,0-0.1,0.1-0.1,0.3c0,0.1,0,0.3,0,0.3s0-0.1,0-0.3C67.7,29,67.8,28.8,67.8,28.9z"/>
	</g>
	<g>
		<path d="M62.1,24.4c0,0-0.1,0.5-0.1,1.3c0,0.2,0,0.4-0.1,0.6c-0.1,0.2-0.3,0.4-0.4,0.6c-0.3,0.4-0.7,0.8-1,1.1
			c-1.5,1.5-3,2.9-3,2.9s1.5-1.4,3-2.9c0.4-0.4,0.7-0.7,1.1-1.1c0.2-0.2,0.3-0.4,0.4-0.6c0.1-0.2,0.1-0.4,0.1-0.6
			C62.1,24.9,62.1,24.4,62.1,24.4z"/>
	</g>
	<path d="M62.9,26.5c0,0,0,1.3-1.7,3.3s-2.4,3.5-2.4,3.5l-0.5,0.9c0,0,1.9-2.9,2.5-3.7c0.6-0.7,2.2-2.7,2.2-2.7S63.1,26.8,62.9,26.5
		z"/>
	<g>
		<path d="M69.2,34.5c0,0,0.5-0.7,1-1.2c0.1-0.1,0.3-0.3,0.4-0.4c0.1-0.1,0.3-0.2,0.4-0.3c0.2-0.2,0.4-0.3,0.4-0.3s-0.2,0.1-0.4,0.3
			c-0.1,0.1-0.3,0.2-0.4,0.3c-0.1,0.1-0.3,0.3-0.4,0.4C69.7,33.9,69.2,34.5,69.2,34.5z"/>
	</g>
	<g>
		<path d="M71,33.6c0,0,0.5-1.4,1.1-2.7c0.3-0.7,0.7-1.3,1-1.8c0.1-0.2,0.3-0.4,0.4-0.5c0.1-0.1,0.2-0.2,0.2-0.2s-0.1,0.1-0.1,0.2
			c-0.1,0.1-0.2,0.3-0.4,0.6c-0.3,0.5-0.6,1.1-0.9,1.8C71.5,32.2,71,33.6,71,33.6z"/>
	</g>
	<g>
		<path d="M71.3,24.4c0,0,0.1,0.1,0.3,0.2c0.1,0.1,0.2,0.1,0.4,0.1c0.1,0,0.3,0,0.4,0c0.3,0,0.6,0,0.8-0.1c0.2,0,0.4,0,0.4,0
			s-0.2,0-0.4,0.1c-0.2,0-0.5,0.1-0.8,0.1c-0.2,0-0.3,0-0.4,0c-0.1,0-0.3-0.1-0.4-0.1C71.4,24.5,71.3,24.4,71.3,24.4z"/>
	</g>
	<g>
		<path d="M71.2,26.4c0,0,0.1,0.1,0.4,0.2c0.1,0,0.3,0.1,0.4,0.2c0.2,0,0.3,0.1,0.5,0.1c0.2,0,0.3,0.1,0.5,0.1c0.2,0,0.3,0,0.4,0.1
			c0.1,0,0.2,0.1,0.3,0.1c0.1,0,0.1,0.1,0.1,0.1s0,0-0.1-0.1c-0.1-0.1-0.1-0.1-0.3-0.1C73.2,27,73.1,27,72.9,27
			c-0.2,0-0.3-0.1-0.5-0.1c-0.2,0-0.3-0.1-0.5-0.1c-0.1-0.1-0.3-0.1-0.4-0.2C71.3,26.5,71.2,26.4,71.2,26.4z"/>
	</g>
	<g>
		<path d="M72.1,26.9c0,0-0.1,0-0.2,0c-0.1,0-0.2,0-0.3,0c-0.1,0-0.2,0-0.3,0c-0.1,0-0.2,0-0.3,0c-0.1,0-0.2,0.1-0.2,0.1
			c-0.1,0.1-0.2,0.1-0.2,0.1s0.1,0,0.2-0.1c0.1,0,0.2-0.1,0.2-0.1c0.1,0,0.2,0,0.3,0c0.1,0,0.2,0,0.3,0c0.1,0,0.2,0,0.3,0
			C72,26.9,72.1,26.9,72.1,26.9z"/>
	</g>
	<g>
		<path d="M66.1,33.5c0,0,0.1,0.2,0.2,0.5c0,0.1,0.1,0.3,0.1,0.4c0,0.1,0,0.2,0,0.2c0,0,0-0.1,0-0.2c0-0.1,0-0.2-0.1-0.4
			C66.2,33.7,66.1,33.5,66.1,33.5z"/>
	</g>
	<g>
		<path d="M64.1,34.1c0,0-0.4,0-0.9,0c-0.5,0-1.2,0.1-1.9,0.2c-0.3,0.1-0.7,0.1-1,0.1c-0.3,0.1-0.6,0-0.9,0
			c-0.5-0.1-0.9-0.2-0.9-0.2s0.3,0.1,0.9,0.2c0.3,0,0.6,0.1,0.9,0c0.3,0,0.7-0.1,1-0.2c0.7-0.1,1.4-0.2,1.9-0.2
			C63.8,34.1,64.1,34.1,64.1,34.1z"/>
	</g>
</g>
</svg>
