<?xml version="1.0" encoding="utf-8"?>
<!-- Generator: Adobe Illustrator 18.1.1, SVG Export Plug-In . SVG Version: 6.00 Build 0)  -->
<svg version="1.1" id="Слой_1" xmlns="http://www.w3.org/2000/svg" xmlns:xlink="http://www.w3.org/1999/xlink" x="0px" y="0px"
	 viewBox="0 0 120 120" enable-background="new 0 0 120 120" xml:space="preserve">
<polygon fill="none" stroke="#D62228" stroke-width="1.5082" stroke-miterlimit="10" points="94.6,112 24.2,112 24.2,10.2 
	74.8,10.2 94.6,29.5 "/>
<polyline fill="none" stroke="#D62228" stroke-width="0.7541" stroke-miterlimit="10" points="75.1,9.6 75.1,30.3 95.2,30.3 "/>
<rect x="37.4" y="40.8" fill="none" stroke="#ED1C24" stroke-width="0.672" stroke-miterlimit="10" width="44.3" height="44.9"/>
<g>
	<text transform="matrix(1 0 0 1 45.3107 104.9795)" fill="#D62228" font-family="'Code-Pro-Bold'" font-size="15.7597">2018</text>
</g>
<g>
	<path fill="none" stroke="#D52328" stroke-width="4.471046e-002" stroke-miterlimit="10" d="M71.1,60.7c0,0,0.5,2.6,0.7,3.3
		s-0.1,2.5-0.2,3.1c-0.1,0.6-0.1,1.7-0.2,2c-0.1,0.3-0.1,1.6-1,2.7c-0.9,1.1-1.9,2.1-2,2.3c-0.1,0.2-1.2,1.8-2.9,1.9
		c-1.7,0.2-2.7-0.4-3.1-0.7s-2.5-2.3-2.8-2.6c-0.4-0.3-1.6-1.4-1.8-2.1s-0.2-1.2-0.6-2.2c-0.3-0.9-0.6-1.9-0.6-1.9"/>
	<path fill="#D62228" d="M66.9,71.1c-0.5-0.3-0.9-0.5-1.4-0.5c-0.4,0-0.8,0.3-1,0.3c-0.1,0-0.3-0.1-0.4-0.1c-0.2,0-0.3-0.1-0.6-0.1
		c-0.2,0-0.5,0.2-0.5,0.2s-0.7,0.5-0.9,0.7c-0.1,0.2-0.3,0.3-0.3,0.3s0.5,0,0.7,0c0.1,0,0.2,0,0.6-0.1c0.3-0.1,0.6-0.2,0.6-0.2
		s0.2,0,0.4,0c0.2,0,0.3-0.1,0.3-0.1s0.1,0,0.1,0c0,0,0.1,0,0.1,0s0.2,0,0.4,0c0.2,0,0.3-0.1,0.5-0.1s0.3,0.1,0.4,0.1s0.3,0,0.3,0
		s0.3,0.1,0.6,0.1s0.5-0.1,0.5-0.1S67.4,71.4,66.9,71.1z M63.1,71.7C63.1,71.7,63.1,71.7,63.1,71.7C63,71.7,63,71.7,63.1,71.7
		C63,71.7,63,71.6,63,71.6c0,0,0,0,0,0c0,0,0,0,0,0c0,0,0,0,0,0c0,0,0,0,0,0c0,0,0,0,0,0s0,0,0,0c0,0,0,0,0,0c0,0,0,0,0,0
		c0,0,0,0,0,0c0,0,0,0,0,0C63,71.6,63,71.6,63.1,71.7C63,71.7,63.1,71.7,63.1,71.7C63.1,71.7,63.1,71.7,63.1,71.7
		C63.1,71.7,63.1,71.7,63.1,71.7C63.1,71.7,63.1,71.8,63.1,71.7C63.1,71.8,63.1,71.8,63.1,71.7z M64.5,71.4
		C64.5,71.4,64.5,71.4,64.5,71.4C64.5,71.4,64.5,71.4,64.5,71.4C64.5,71.4,64.5,71.4,64.5,71.4C64.5,71.4,64.5,71.4,64.5,71.4
		c0,0,0-0.1,0-0.1c0,0,0,0,0,0c0,0,0,0,0,0c0,0,0,0,0,0c0,0,0,0,0,0c0,0,0,0,0,0c0,0,0,0,0,0c0,0,0,0,0,0s0,0,0,0c0,0,0,0,0,0
		c0,0,0,0,0,0c0,0,0,0,0,0.1c0,0,0,0,0,0.1C64.5,71.3,64.5,71.3,64.5,71.4C64.5,71.3,64.5,71.3,64.5,71.4z M64.8,71.1
		c0,0.1,0,0.1,0,0.1c0,0,0,0,0,0c0,0,0,0,0,0s0,0,0,0c0,0,0,0,0,0C64.8,71.2,64.8,71.2,64.8,71.1c0-0.1,0-0.1,0-0.1c0,0,0,0,0,0
		c0,0,0,0,0,0c0,0,0,0,0,0s0,0,0,0c0,0,0,0,0,0c0,0,0,0,0,0C64.8,71,64.8,71,64.8,71.1C64.8,71.1,64.8,71.1,64.8,71.1z M66.5,71.4
		C66.5,71.4,66.4,71.4,66.5,71.4C66.4,71.4,66.4,71.4,66.5,71.4C66.4,71.4,66.4,71.4,66.5,71.4c-0.1,0.1-0.1,0.1-0.1,0.1
		c0,0,0,0,0,0c0,0,0,0,0,0s0,0,0,0c0,0,0,0,0,0C66.4,71.4,66.4,71.4,66.5,71.4C66.4,71.4,66.4,71.4,66.5,71.4
		C66.4,71.4,66.4,71.4,66.5,71.4C66.5,71.3,66.5,71.3,66.5,71.4C66.5,71.3,66.5,71.3,66.5,71.4z"/>
	<g>
		<path fill="#D52328" d="M64.8,71.8c0,0,0.1,0,0.2,0c0.1,0,0.2,0,0.4,0c0.1,0,0.3-0.1,0.3-0.2c0.1-0.1,0-0.2,0-0.2c0,0,0,0.1,0,0.2
			c-0.1,0.1-0.2,0.2-0.3,0.2c-0.1,0-0.3,0-0.4,0C64.9,71.8,64.8,71.8,64.8,71.8z"/>
	</g>
	<g>
		<path fill="#D52328" d="M63.4,71.8l0.3-0.1c0.1,0,0.1,0.1,0.1,0.1c0,0,0.1,0,0.2,0l0.7,0l0,0l0-0.2l0,0.2l0,0L64,71.9
			c-0.1,0-0.1,0-0.2,0c-0.1,0,0-0.1-0.1-0.1L63.4,71.8z"/>
	</g>
	<g>
		<path fill="#D52328" d="M65.7,71.6C65.7,71.6,65.7,71.6,65.7,71.6c0,0.1,0.1,0.1,0.2,0.1c0.1,0,0.3,0,0.3,0s-0.1,0-0.3,0
			C65.9,71.6,65.8,71.7,65.7,71.6C65.7,71.6,65.7,71.6,65.7,71.6L65.7,71.6z"/>
	</g>
	<g>
		<path fill="#D52328" d="M65.9,67.6c0,0,0.1,0.1,0.2,0.3c0.1,0.2,0.3,0.4,0.4,0.7c0,0.1,0,0.1,0,0.2c0,0.1,0,0.1-0.1,0.2
			c-0.1,0.1-0.2,0.2-0.3,0.3c-0.2,0.1-0.3,0.2-0.3,0.2s0.1-0.1,0.3-0.2c0.1-0.1,0.2-0.1,0.3-0.3c0.1,0,0.1-0.1,0.1-0.2
			c0-0.1,0-0.1,0-0.2c-0.1-0.3-0.2-0.5-0.3-0.7C65.9,67.7,65.9,67.6,65.9,67.6z"/>
	</g>
	<g>
		<path fill="#D52328" d="M62.7,68.5c0,0,0,0.1-0.1,0.3c0,0.2-0.1,0.4,0,0.6c0,0.1,0.1,0.2,0.2,0.2c0.1,0.1,0.2,0.1,0.3,0.1
			c0.2,0,0.3,0,0.3,0s-0.1,0-0.3,0c-0.1,0-0.2,0-0.3-0.1c-0.1-0.1-0.2-0.1-0.2-0.2c-0.1-0.2,0-0.4,0-0.6
			C62.7,68.6,62.7,68.5,62.7,68.5z"/>
	</g>
	<g>
		<path fill="#D52328" d="M63.1,69.4c0,0,0.2-0.1,0.5-0.2c0.1,0,0.1,0,0.2,0c0,0,0.1,0.1,0.1,0.1c0.1,0.1,0.1,0.1,0.1,0.1
			s-0.1,0-0.1-0.1c0,0-0.1-0.1-0.1-0.1c0,0-0.1,0-0.2,0C63.3,69.3,63.1,69.4,63.1,69.4z"/>
	</g>
	<g>
		<path fill="#D52328" d="M64.3,69.7c0,0,0.1,0,0.3,0c0.2,0,0.4-0.2,0.5-0.3c0.1-0.1,0.2-0.2,0.2-0.3c0.1-0.1,0.2-0.1,0.3-0.1
			c0.2,0,0.3,0,0.3,0c0,0-0.1,0-0.3,0c-0.1,0-0.2,0-0.3,0.1c-0.1,0.1-0.2,0.2-0.2,0.3c-0.2,0.2-0.4,0.3-0.6,0.3
			C64.4,69.7,64.3,69.7,64.3,69.7z"/>
	</g>
	<path fill="#D52328" d="M65.4,69.1c0,0,0.2-0.1,0.3-0.1c0.1,0,0.2,0,0.2,0C65.9,68.9,65.4,68.8,65.4,69.1z"/>
	<path fill="#D52328" d="M63.8,69.3c0,0-0.1-0.1-0.1-0.1c-0.1,0-0.2,0-0.2,0L63.8,69.3z"/>
	<g>
		<path fill="#D52328" d="M63.5,74.1c0,0,0.2-0.1,0.5-0.1c0.3-0.1,0.7-0.1,1.1-0.1c0.2,0,0.4,0,0.6,0c0.2,0,0.4,0,0.5,0
			c0.3,0,0.5,0,0.5,0s-0.2,0-0.5,0c-0.2,0-0.3,0-0.5,0c-0.2,0-0.4,0-0.6,0c-0.4,0-0.8,0.1-1.1,0.1C63.7,74.1,63.5,74.1,63.5,74.1z"
			/>
	</g>
	<g>
		<path fill="#D52328" d="M66.6,63.6c0,0-0.2,0.2-0.4,0.4c-0.1,0.1-0.2,0.2-0.3,0.3c-0.1,0.1-0.1,0.2-0.1,0.2s0-0.1,0-0.2
			c0-0.1,0.2-0.2,0.3-0.3C66.4,63.8,66.6,63.6,66.6,63.6L66.6,63.6z"/>
	</g>
	<g>
		<path fill="#D52328" d="M65.9,64.5c0,0,0,0,0.1-0.1c0,0,0.1-0.1,0.1-0.1c0.1,0,0.1-0.1,0.2-0.1c0.2-0.1,0.3-0.1,0.5,0
			c0.2,0,0.4,0.1,0.6,0.1c0.2,0,0.4,0,0.6-0.1c0.2-0.1,0.4-0.1,0.5-0.2c0.3-0.1,0.4-0.3,0.4-0.3s-0.1,0.2-0.4,0.3
			c-0.1,0.1-0.3,0.2-0.5,0.2c-0.2,0-0.4,0.1-0.6,0.1c-0.2,0-0.4,0-0.6-0.1c-0.2,0-0.4,0-0.5,0c-0.1,0-0.1,0.1-0.2,0.1
			c-0.1,0-0.1,0.1-0.1,0.1C66,64.4,65.9,64.5,65.9,64.5z"/>
	</g>
	<g>
		<path fill="#D52328" d="M68.9,63.6c0,0-0.1,0.1-0.2,0.2C68.4,63.8,68.3,64,68,64c-0.1,0-0.2,0.1-0.3,0.1c-0.1,0-0.2,0-0.3,0
			c-0.2,0-0.3,0-0.3,0s0.1,0,0.3,0c0.1,0,0.2,0,0.3,0c0.1,0,0.2,0,0.3-0.1c0.2,0,0.4-0.2,0.6-0.3C68.8,63.7,68.8,63.6,68.9,63.6z"/>
	</g>
	<path fill="none" stroke="#D52328" stroke-width="2.235523e-002" stroke-miterlimit="10" d="M66.3,64c0,0,0.1,0,0.1,0.1"/>
	<path fill="#D62228" d="M69.8,61.7c-0.4-0.2-0.7-0.2-1.1-0.2c0,0,0,0-0.1,0c-0.1,0-0.1,0-0.2,0.1c-0.1,0-0.1,0-0.2,0c0,0,0,0,0,0
		c-0.1,0-0.1,0-0.2,0.1c-0.2,0.1-0.3,0.1-0.5,0.1c0,0,0,0,0,0c0,0-0.1,0-0.1,0c0,0-0.1,0-0.1,0c0,0-0.1,0-0.1,0c0,0-0.1,0-0.1,0
		c0,0-0.1,0-0.1,0c0,0,0,0,0,0c0,0,0,0,0,0c0,0-0.1,0-0.1,0c-0.1,0-0.1,0-0.2,0.1c0,0-0.1,0-0.1,0c-0.1,0-0.1,0-0.2,0.1
		c0,0-0.1,0.1-0.2,0c0,0,0,0,0,0c-0.1,0.1-0.2,0.1-0.2,0.1c-0.1,0.1-0.1,0.1-0.2,0.1c0,0,0,0,0,0.1c0,0,0,0,0,0.1c0,0,0,0,0,0.1
		c0,0-0.1,0-0.1,0c0,0,0,0.1,0,0.1c0.1,0,0.1-0.1,0.2-0.1c0,0.1-0.1,0.1-0.1,0.1c0,0,0.1,0,0.1,0c0,0,0,0,0,0L65.7,63c0,0,0,0,0,0
		c0,0,0,0,0,0c0,0,0,0,0,0c0,0,0,0,0,0c0,0,0,0.1-0.1,0.1c0.1,0,0.2-0.1,0.3-0.1c0,0,0,0,0,0.1c0.1,0,0.1-0.1,0.2-0.1c0,0,0,0,0,0
		c0,0,0,0,0,0c0,0,0,0.1,0,0.1c0,0,0,0,0,0c0,0,0,0,0-0.1c0,0,0.1,0,0.1,0c0,0,0,0,0,0.1c0.1,0,0.1,0,0.2,0c0,0,0,0,0.1,0
		c0,0,0,0,0,0c0,0,0,0,0.1,0c0,0,0,0,0,0c0,0,0,0,0,0c0,0,0,0,0,0c0,0,0,0,0.1,0c0,0,0.1-0.1,0.2-0.1c0.1,0,0.1,0,0.1-0.1
		c0,0,0.1,0,0.1,0c0,0,0,0,0,0c0,0,0.1,0,0-0.1c0,0,1-0.2,1-0.2c0.2,0,0.5-0.2,1-0.3c0.4-0.1,0.6-0.1,0.7,0c0.1,0,0.3,0.1,0.4,0.1
		C70.3,62.1,70,61.8,69.8,61.7z M66.7,62.8c0.1-0.1,0.1-0.1,0.2-0.1C66.8,62.8,66.8,62.8,66.7,62.8z"/>
	<path fill="#D62228" d="M69.8,63.5C69.8,63.5,69.8,63.4,69.8,63.5C69.8,63.4,69.8,63.4,69.8,63.5c0.1-0.1,0.1-0.1,0.1-0.2
		c0,0,0-0.1,0-0.1c0.1-0.1,0.2-0.2,0.1-0.4c0,0.1-0.1,0.2-0.1,0.2c0,0.1-0.1,0.1-0.2,0.2c-0.1,0.1-0.2,0.1-0.2,0.1l0,0
		c0.1-0.2,0.3-0.3,0.3-0.6c0,0.1-0.1,0.1-0.1,0.2c0,0.1,0,0.1-0.1,0.1c0,0,0,0,0,0c0,0.1-0.1,0.2-0.2,0.2c0-0.1,0.1-0.1,0.1-0.1
		c0-0.1,0.1-0.1,0.1-0.2c-0.1,0.1-0.2,0.2-0.4,0.2c0.1-0.1,0.2-0.2,0.2-0.3c0.1-0.1,0.1-0.2,0.1-0.3c-0.1,0.1-0.1,0.2-0.2,0.3l0,0
		c0,0,0-0.1,0-0.1c-0.1,0-0.1,0.1-0.1,0.1c0,0,0,0,0,0l0,0c0,0,0,0.1-0.1,0.1c0-0.1,0.1-0.2,0.1-0.3c0-0.1,0-0.3,0-0.3
		c0,0.1,0,0.2,0,0.2c0,0,0,0,0,0c0,0,0-0.1,0-0.2c-0.1,0.1-0.1,0.3-0.2,0.4c0,0,0-0.1,0-0.1c0,0,0-0.1,0.1-0.1c0,0-0.1,0-0.1,0
		c0,0,0,0.1,0,0.1c0,0,0,0,0-0.1c0,0,0,0,0,0c0,0-0.1,0-0.1,0c0.1-0.2,0.1-0.4,0-0.4c0,0.1,0,0.2,0,0.3c0,0,0,0,0,0c0,0,0-0.1,0-0.1
		c0,0,0-0.1,0-0.1c0,0,0,0,0,0c0,0.1,0,0.2-0.1,0.2c0,0,0-0.1,0.1-0.1c-0.1,0-0.1,0-0.1-0.1c0,0,0,0.1,0,0.1c0,0,0,0,0,0
		c0,0,0,0,0,0c0,0,0-0.1-0.1,0c0-0.1,0.1-0.1,0.1-0.2c0,0,0,0,0,0l-0.1,0.2c0,0,0,0,0,0c0-0.1,0-0.1,0-0.2c0,0,0,0,0,0
		c0,0.1-0.1,0.2-0.1,0.2c0,0-0.1-0.1-0.1-0.1c0,0-0.1,0-0.1,0.1c0-0.1,0-0.1,0-0.2c-0.1,0.1,0,0.1-0.1,0.2c0,0,0,0,0-0.1
		c0,0,0,0,0,0.1c0,0,0,0,0,0l0-0.1l0,0c0,0,0,0,0,0.1c0,0,0,0-0.1,0c0,0,0-0.1,0-0.1c0,0,0,0,0,0c0,0,0,0.1-0.1,0.1c0,0,0,0-0.1,0
		c0,0,0,0-0.1,0c0,0,0-0.1,0-0.1c0,0,0,0-0.1,0.1c0,0,0,0,0,0c0,0,0,0.1-0.1,0.1c0,0,0,0-0.1,0c0,0,0,0,0,0l0,0c0,0,0,0,0-0.1
		c-0.1,0-0.1,0-0.1,0c0,0-0.1,0-0.2,0.1c0,0.1,0,0.1,0,0.2c0,0,0,0,0,0c0,0,0,0.1,0,0.1c0,0,0,0,0,0c0,0,0,0,0,0c0,0,0,0,0,0
		c0,0,0,0,0,0c0-0.1,0-0.1,0-0.2c0,0,0,0,0,0c0,0,0,0,0,0c0,0-0.1,0-0.1,0c0,0,0,0,0,0c0,0,0,0.1,0,0.1c0,0,0,0,0,0.1c0,0,0,0,0,0
		c0,0,0,0.1,0,0.1c0,0-0.1-0.1-0.1-0.1c0,0,0,0,0,0c0,0,0,0,0-0.1c0,0,0,0,0,0c0,0,0,0,0,0c0,0,0,0,0,0c0,0,0,0.1,0,0.1c0,0,0,0,0,0
		c0,0.1,0,0.1,0,0.2c-0.1,0-0.1,0-0.1-0.1c0,0,0,0,0,0c0,0,0,0,0,0c0,0,0-0.1,0-0.1c0,0,0,0,0,0c0,0,0,0,0,0c0,0,0,0.1,0,0.1l0,0
		c0,0,0,0.1,0,0.1c-0.1,0-0.1,0.1-0.2,0.1c-0.1,0.1-0.1,0.1-0.2,0.2c0,0,0,0,0,0c0,0,0,0,0,0.1c0,0,0,0,0,0c0,0.1,0,0.1,0.1,0.1
		c0,0-0.1,0-0.1,0c0,0,0,0.1-0.1,0.1c0,0.1-0.1,0.1-0.1,0.2c0,0-0.1,0.1-0.1,0.1c0,0.1,0,0.1-0.1,0.1c0.1,0,0.1,0,0.1-0.1
		c0,0,0.1,0,0.1,0c0,0,0,0,0,0c0-0.1,0.1-0.2,0.1-0.2c0,0,0.1,0,0.1,0c0,0,0,0,0.1,0c0.1-0.1,0.1-0.1,0.1-0.2c0,0,0,0,0.1,0
		c0,0,0.1,0,0.1,0c0,0,0,0,0-0.1c0,0,0,0,0,0c0,0,0,0,0,0c0,0.1,0,0.1,0.1,0.2c0.1,0.2,0.2,0.4,0.4,0.5c0.1,0,0.1,0,0.1-0.1
		c0,0-0.1,0-0.1,0c-0.1,0-0.1,0,0-0.1c0,0,0-0.1,0-0.1c0,0,0.1,0,0.1,0.1c0.1-0.1,0.1-0.1,0.2,0c0,0,0.1,0,0.1-0.1l0,0
		c0,0,0,0.1,0,0.1c0,0,0,0,0,0.1c0,0,0,0,0,0c0,0,0-0.1-0.1-0.1c0,0,0,0,0,0c0,0,0,0-0.1-0.1c0,0,0,0.1,0,0.1c0,0,0,0.1-0.1,0.1
		c0.1,0,0.3,0,0.4-0.1c0.3-0.2,0.2-0.5,0.3-0.5c0.1,0,0.2,0.1,0.3,0.2c0,0.1,0,0.1,0.1,0.1c0,0.1,0,0.2,0,0.3c0,0,0.1,0,0.1,0
		c0,0.1,0.1,0.1,0.1,0.1c0,0,0,0-0.1,0c-0.1-0.1-0.2-0.1-0.3,0c0,0,0.1,0,0.1,0c0,0,0,0,0,0c0,0-0.1,0-0.1,0c0,0-0.1,0-0.1,0.1
		c-0.1,0-0.1,0-0.1,0c-0.1,0-0.2,0-0.3,0c0.1,0.1,0.2,0.1,0.2,0.3c0,0,0,0,0,0c0-0.1,0-0.1,0-0.2l0,0c0,0,0,0,0,0.1c0,0,0,0,0,0
		c0,0,0,0,0-0.1c0.1,0,0.1,0,0.1,0c0,0.1,0.1,0.1,0.1,0.2c0,0,0,0,0,0c0,0,0,0,0,0c0,0,0,0,0,0c0-0.1,0-0.1-0.1-0.1c0,0,0-0.1,0-0.1
		c0,0,0,0.1,0.1,0.1c0-0.1-0.1-0.1-0.1-0.2c0,0,0,0,0,0l0.1,0.1c0,0,0,0,0,0c0,0,0-0.1-0.1-0.1l0,0c0,0,0,0,0.1,0c0,0,0,0,0,0
		c0,0-0.1-0.1-0.1-0.1c0.2,0,0.3,0.1,0.5,0.1c0,0,0,0,0,0c0,0-0.1-0.1-0.1-0.1l0,0c0,0,0.1,0,0.1,0c0-0.1,0.1,0,0.1,0
		c0,0,0-0.1,0.1-0.1c0,0,0,0,0,0c0,0,0,0,0,0c0,0,0,0,0,0c0,0,0.1,0,0.1,0c0,0,0-0.1,0-0.1c0,0,0.1,0,0.1,0c0,0,0,0,0,0
		c0,0-0.1,0-0.1,0c0,0,0.1,0,0.1,0c0,0,0.1,0,0.1,0c0.1,0,0.1,0,0.2,0c0,0-0.1,0-0.1,0c0-0.1,0.2-0.1,0.2-0.1c0,0-0.1,0-0.1,0
		c0.1-0.1,0.2-0.1,0.3-0.2C69.8,63.5,69.8,63.6,69.8,63.5C69.8,63.5,69.8,63.5,69.8,63.5C69.8,63.5,69.8,63.5,69.8,63.5
		C69.8,63.5,69.7,63.5,69.8,63.5C69.7,63.5,69.7,63.5,69.8,63.5z M66.7,63.6C66.7,63.6,66.7,63.6,66.7,63.6c0,0,0-0.1,0-0.1
		C66.7,63.5,66.7,63.5,66.7,63.6C66.7,63.5,66.7,63.6,66.7,63.6z M66.8,63.4C66.8,63.4,66.9,63.4,66.8,63.4
		C66.9,63.4,66.9,63.5,66.8,63.4C66.9,63.5,66.8,63.5,66.8,63.4z M67.3,63.6C67.3,63.6,67.3,63.6,67.3,63.6c0,0-0.1,0.1-0.1,0.1
		C67.1,63.6,67.2,63.7,67.3,63.6z M67.3,63.9L67.3,63.9C67.3,63.9,67.3,63.9,67.3,63.9C67.3,63.9,67.3,63.9,67.3,63.9L67.3,63.9
		C67.3,63.9,67.3,63.9,67.3,63.9z M67.3,63.8c-0.1,0-0.1-0.1-0.1-0.1C67.2,63.7,67.3,63.8,67.3,63.8C67.3,63.8,67.3,63.8,67.3,63.8
		c0-0.1,0-0.1,0-0.1c0,0,0,0,0.1,0c0,0,0,0,0,0C67.4,63.8,67.3,63.8,67.3,63.8z M67.7,63.6C67.6,63.6,67.6,63.6,67.7,63.6
		c-0.1-0.1-0.1-0.1-0.1-0.1c0,0,0,0,0,0c0,0,0,0.1-0.1,0.1c-0.1,0-0.1-0.1-0.1-0.2c0,0,0.1,0,0.1,0c0,0,0,0,0,0c0,0,0,0,0.1,0
		c0,0,0,0,0,0c0,0,0,0,0.1,0.1c0,0,0,0,0-0.1c0.1,0,0.1,0.1,0.1,0.2C67.8,63.5,67.7,63.6,67.7,63.6z M67.9,63.9
		C67.9,63.8,67.9,63.8,67.9,63.9C67.9,63.8,67.9,63.8,67.9,63.9C67.9,63.8,67.9,63.8,67.9,63.9C67.9,63.9,67.9,63.9,67.9,63.9z
		 M68.8,62.9c0-0.1,0.1-0.1,0.1-0.2C68.9,62.8,68.9,62.9,68.8,62.9z M69.4,63.6c0.1,0,0.2-0.1,0.3-0.1c0,0,0,0,0,0
		C69.6,63.6,69.5,63.6,69.4,63.6z M69.5,63.5c0.1,0,0.1,0,0.2-0.1c0,0,0,0,0,0C69.7,63.4,69.6,63.5,69.5,63.5z"/>
	<path fill="#D52328" d="M67.3,64.4c0-0.1,0-0.2-0.1-0.2c0,0,0,0,0,0c0,0,0,0,0,0.1c0,0,0,0,0,0c0,0,0-0.1,0-0.1c0,0,0.1,0,0.1,0
		c0,0,0,0,0,0.1C67.4,64.3,67.3,64.4,67.3,64.4z"/>
	<path fill="#D52328" d="M67.7,64.5C67.6,64.5,67.6,64.4,67.7,64.5c-0.1-0.1-0.1-0.1-0.1-0.2c0,0,0,0,0,0c0,0,0,0,0,0c0,0,0,0,0-0.1
		c0,0,0.1,0,0.1,0c0,0,0,0.1,0,0.1c0,0,0-0.1,0.1-0.1c0,0,0,0,0,0c0,0,0,0.1,0,0.1C67.7,64.3,67.7,64.3,67.7,64.5z"/>
	<path fill="#D52328" d="M67.8,64.3c0,0,0.1,0.1,0.1,0.1c0,0,0,0,0,0C67.9,64.4,67.9,64.4,67.8,64.3C67.9,64.3,67.9,64.3,67.8,64.3
		c0.1,0.1,0.1,0.2,0.1,0.2c0,0,0,0,0,0C67.9,64.4,67.9,64.3,67.8,64.3C67.8,64.3,67.8,64.3,67.8,64.3z"/>
	<path fill="#D52328" d="M66.8,64.3c0,0,0.1-0.1,0.1-0.1c0,0,0,0,0,0C67,64.2,66.9,64.2,66.8,64.3C66.8,64.3,66.8,64.3,66.8,64.3z"
		/>
	<path fill="#D52328" d="M67.1,64.2c0,0.1,0,0.1,0,0.1c0,0,0,0,0,0C67.1,64.3,67.1,64.2,67.1,64.2z"/>
	<path fill="#D52328" d="M67,64.3c0,0,0-0.1,0-0.1C67,64.2,67,64.2,67,64.3C67,64.3,67,64.3,67,64.3C67,64.3,67,64.3,67,64.3z"/>
	<g>
		<path fill="#D52328" d="M65.6,64.3c0,0,0-0.1,0.1-0.2c0.1-0.1,0.2-0.3,0.4-0.5c0.1-0.2,0.3-0.3,0.5-0.4c0.1-0.1,0.2-0.2,0.2-0.2
			l0,0.1c0,0-0.1,0.1-0.2,0.1c-0.1,0.1-0.3,0.2-0.5,0.3c-0.1,0.1-0.3,0.3-0.4,0.4C65.7,64.2,65.6,64.3,65.6,64.3z"/>
	</g>
	<path fill="#D62228" d="M68.1,55.2c0.1,0.2,1.5,2.8-0.5,5.6c-2,2.8-4.7,3.9-4.7,3.9s2.3-1.9,3.4-4.6c1.1-2.6,0.8-3.2,0.8-3.2
		s0,5-4.4,7.6S58,65.9,58,65.9s-1.7,1.2-3.6,0.8s1.1,0.3,2.2-1.2c1-1.5,0.8-3.8,0.6-5.6c-0.1-1.8,0,4.6-1,5.4
		c-1.1,0.8-1.3,1.8-0.4,2.2c0.8,0.4-6-1.4,1.2-10.9s-2.8,5.2-3.8,4.6c0,0-0.8-1-0.3-2.6c0.5-1.6,0.3-0.5-0.7-1.6
		c-0.9-1.2-1.1-2.3-0.5-3.8s1.6-1.9,1.6-1.9s-0.3,0.5,0.7-0.7c1.1-1.3,1.7-2.4,3.9-3.1c1.9-0.7,4.2,0,4.6,0c0.4,0-1.4-0.7-1.4-0.7
		s4.5-0.1,5.1,0c1.6,0.4,2.2,0.7,2.5,1c1.2,0.8,1.6,1.3,2.2,1.8c1.4,1.2,1.6,2.4,1.6,2.4s-0.4,0.8,0.5,1.9s1.5,1.2,1.5,1.2
		s0.2,1.1-0.4,1.7c-0.6,0.6,0.1,0.8-1.1,1.5c-0.8,0.4-0.5,1.8-0.5,1.8l-0.4,0.4l0.1,0.4c0,0,0.5,0.3,1,1.1c0.5,0.7,0.5,2.3,0.1,3.5
		c-0.4,1.2-1.3,3.3-0.8,3.6c0.6,0.4,0.8-0.9,0.8-0.9s0,2.2-1.2,0.4c-1.1-1.8,1.3-2.3,0.3-4.4c-0.9-2.1-1.2-3.1-1.2-3.1
		s-0.1,0.3-1.1-1.1C69.3,58.4,68.1,55.2,68.1,55.2z"/>
	<path fill="#D62228" d="M71.6,67.3c0,0,0.3,6.2,1,6.9c0.2,0.2,0,0.3-0.1,0.4c-0.1,0.2-0.3,0.4-0.3,0.4s-1.2-0.8-1.5-2
		s-0.3-1.2-0.3-1.2s0.5-0.4,0.8-2C71.4,69.1,71.5,68.1,71.6,67.3z"/>
	<g>
		<path fill="#D52328" d="M71.7,66.4c0,0,0.1,0,0.2,0c0.1,0,0.1-0.1,0.2-0.1c0-0.1,0.1-0.1,0.2-0.2c0.1-0.2,0.1-0.3,0.2-0.5
			c0-0.1,0-0.2,0-0.2s0,0.1,0,0.2c0,0.1,0,0.3-0.1,0.5c-0.1,0.1-0.1,0.2-0.2,0.2c-0.1,0.1-0.1,0.1-0.2,0.1
			C71.8,66.4,71.7,66.4,71.7,66.4z"/>
	</g>
	<path fill="#D62228" d="M51,63.1c0,0-0.5,2.3-1,3.8c-0.7,2.1,0.8,4.5,2.7,6.6c1.9,2.1,1.4,2.2,2,2.8c0.3,0.3,1.3,1.3,1.3,1.3
		l1.4,0.1c0,0,0.4-0.2-3-4.5c-3.2-4-2.9-5-2.8-6.6C51.7,65.1,51,63.1,51,63.1z"/>
	<path fill="#D62228" d="M58,77.3c0,0,2.4-0.1-1.3-3.6s-4.8-4.1-4.8-5.6c0.1-1.5-0.3-4.6-0.4-5.3c-0.1-0.6,1.8-1.6,1.8-1.6
		s0.1,5.3,1.9,6.2c1.3,0.7,1,0.1,1,0.1s-0.1-0.1-0.5-0.4c-0.4-0.3-0.1-0.3-0.1-0.3l1.1-0.2c0,0,0.5,1.4,0.7,2
		c0.2,0.6,0.3,1.6,0.5,2.1c0.2,0.4,0.8,1.1,0.8,1.1s1.7,5.6,1,5.9c-0.7,0.3-1.7,0.1-2.1,0C57.1,77.7,58,77.3,58,77.3z"/>
	<path fill="#D62228" d="M52.8,70.4c0,0,4.2,5.6,4.1,6.4c-0.2,0.8,1.1,0.6,1.1,0.6S57.5,73.9,52.8,70.4z"/>
	<path fill="#D62228" d="M59.8,78.6c0,0,0.2-0.8,0-1.9"/>
	<g>
		<path fill="#D52328" d="M51.1,63.3c0,0-0.7,0.7-1.6,2c-0.4,0.7-0.8,1.5-1.1,2.4c-0.3,0.9-0.4,2-0.1,3c0.1,0.5,0.4,0.9,0.6,1.4
			c0.3,0.4,0.6,0.8,0.9,1.2c0.6,0.7,1.3,1.3,1.9,1.8c1.3,0.9,2.2,1.3,2.2,1.3s-1-0.4-2.2-1.3c-0.6-0.4-1.3-1-2-1.8
			c-0.3-0.4-0.6-0.8-0.9-1.2c-0.3-0.4-0.5-0.9-0.7-1.4c-0.3-1-0.2-2.1,0.1-3c0.3-0.9,0.7-1.7,1.1-2.4C50.3,64,51.1,63.2,51.1,63.3
			L51.1,63.3z"/>
	</g>
	<g>
		<path fill="#D52328" d="M50.5,64.2c0,0-0.5,0.7-0.9,1.8c-0.2,0.6-0.4,1.2-0.5,2c0,0.4-0.1,0.8,0,1.2c0,0.2,0,0.4,0.1,0.6
			c0,0.2,0.1,0.4,0.2,0.6c0.1,0.4,0.3,0.7,0.6,1.1c0.3,0.3,0.5,0.6,0.8,0.8c0.6,0.5,1.1,1,1.5,1.4c0.5,0.4,0.8,0.7,1.1,1
			c0.3,0.2,0.4,0.3,0.4,0.3s-0.2-0.1-0.4-0.3c-0.3-0.2-0.6-0.6-1.1-0.9c-0.4-0.4-1-0.9-1.5-1.4c-0.3-0.2-0.5-0.5-0.8-0.8
			c-0.2-0.3-0.4-0.7-0.6-1.1c-0.1-0.2-0.1-0.4-0.2-0.6C49,69.5,49,69.3,49,69.1c0-0.4,0-0.8,0-1.2c0.1-0.8,0.3-1.4,0.5-2
			C50,64.9,50.4,64.2,50.5,64.2L50.5,64.2z"/>
	</g>
	<path fill="none" stroke="#D52328" stroke-width="2.235523e-002" stroke-miterlimit="10" d="M50.6,63.8c0,0-3.1,5,0.7,8.9"/>
	<path fill="#D62228" d="M66.1,71.9c-0.7,0.4-1.4,0.5-2.1,0.4c-0.7-0.1-1-0.3-1.3-0.3c-0.3,0-0.9,0-0.9,0s0.4,0.5,0.8,1
		c0.4,0.5,1.1,0.9,2.2,0.8c1.2-0.1,1.6-0.6,1.8-0.8c0.3-0.3,0.8-1.3,0.8-1.3S66.8,71.5,66.1,71.9z M62.7,72.4l-0.1,0.2l0-0.1
		l-0.1,0.1l0-0.1l-0.1,0l-0.1-0.1v0h0.1h0.1l0.1,0.1l0,0.1l0.1-0.1V72.4z M64.3,72.6C64.3,72.6,64.3,72.7,64.3,72.6
		C64.3,72.7,64.3,72.7,64.3,72.6c0,0.1,0,0.1,0,0.1c0,0,0,0,0,0c0,0,0,0,0,0c0,0,0,0,0,0c0,0,0,0,0,0c0,0,0,0,0,0s0,0,0,0
		c0,0,0,0,0,0c0,0,0,0,0,0c0,0,0,0,0,0C64.3,72.8,64.3,72.7,64.3,72.6C64.3,72.7,64.3,72.7,64.3,72.6C64.3,72.7,64.3,72.6,64.3,72.6
		C64.3,72.6,64.3,72.6,64.3,72.6C64.3,72.6,64.3,72.6,64.3,72.6z M62.8,72.7C62.8,72.7,62.8,72.7,62.8,72.7
		C62.8,72.7,62.8,72.7,62.8,72.7C62.8,72.7,62.8,72.7,62.8,72.7c0-0.1,0-0.1,0-0.1c0,0,0,0,0-0.1c0,0,0,0,0-0.1c0,0,0,0,0,0
		c0,0,0,0,0,0s0,0,0,0.1c0,0,0,0,0,0.1c0,0,0,0,0,0.1c0,0,0,0,0,0C62.9,72.6,62.9,72.6,62.8,72.7C62.8,72.6,62.8,72.7,62.8,72.7
		C62.8,72.7,62.8,72.7,62.8,72.7z M63.3,72.8l-0.2,0.1l0-0.1l-0.2,0.1l0-0.3l-0.2,0.2l0.1-0.2l0.3-0.2l-0.1,0.3l0.3-0.2l0,0.1
		l0.2-0.2l-0.2,0.4L63.3,72.8z M63.5,73.2V73c0,0-0.1,0-0.1,0.2s0-0.3,0.1-0.5l0.2-0.2l-0.2,0.3l0.3-0.2L63.6,73L63.5,73.2z
		 M64.4,73L64.4,73l-0.3,0.2v-0.1L64,73.2l0-0.2l-0.1,0.1l0-0.2l-0.2,0.2l0.1-0.3l0.2-0.1v0.1l0.2-0.1L64,72.9l0.1-0.1l0,0.1
		c0,0,0.1,0.1,0.1-0.1c0-0.2,0.1-0.2,0.1-0.2L64.4,73z M65.6,72.6C65.6,72.6,65.6,72.6,65.6,72.6C65.6,72.6,65.6,72.6,65.6,72.6
		C65.6,72.6,65.6,72.6,65.6,72.6C65.6,72.6,65.6,72.5,65.6,72.6c0.1-0.1,0.1-0.1,0.1-0.1S65.6,72.5,65.6,72.6
		C65.6,72.6,65.6,72.6,65.6,72.6C65.6,72.6,65.6,72.6,65.6,72.6C65.6,72.6,65.6,72.6,65.6,72.6C65.6,72.6,65.6,72.6,65.6,72.6
		C65.6,72.7,65.6,72.7,65.6,72.6C65.6,72.7,65.6,72.7,65.6,72.6C65.6,72.7,65.6,72.7,65.6,72.6C65.6,72.7,65.6,72.7,65.6,72.6
		C65.6,72.7,65.6,72.7,65.6,72.6C65.6,72.7,65.6,72.7,65.6,72.6C65.6,72.7,65.6,72.7,65.6,72.6C65.6,72.6,65.6,72.6,65.6,72.6z
		 M64.7,73.5C64.7,73.5,64.7,73.5,64.7,73.5c0-0.1,0-0.1,0-0.1c0,0,0,0,0-0.1c0,0,0-0.1,0-0.1c0-0.1,0-0.1,0-0.2c0-0.1,0-0.1,0-0.2
		c0-0.1,0-0.1,0-0.2c0,0,0-0.1,0-0.1c0,0,0,0,0,0s0,0,0,0c0,0,0,0.1,0,0.1c0,0.1,0,0.2,0,0.3c0,0.1,0,0.1,0,0.2c0,0,0,0.1,0,0.1
		c0,0,0,0,0,0.1C64.7,73.4,64.7,73.4,64.7,73.5C64.7,73.5,64.7,73.5,64.7,73.5C64.7,73.5,64.7,73.5,64.7,73.5
		C64.7,73.5,64.7,73.5,64.7,73.5z M65.5,72.9L65.5,72.9l-0.2,0c0,0-0.1,0,0,0.1c0,0.1-0.1,0-0.1,0l0,0.1L65,73c0,0-0.1,0.1-0.1,0.2
		c0,0.1-0.1-0.2-0.1-0.2l0,0.2c0,0-0.1,0-0.1-0.4l0.1-0.1l0.1,0.1l0.1-0.1c0,0,0.1,0,0.1,0.1c0,0.1,0.1,0.2,0.1,0.2v-0.3l0,0.1
		l0.1-0.1l0.1-0.1l0,0.2l0-0.2l0.1,0.1h0.1l0.2,0.3L65.5,72.9z M65.7,72.9C65.7,72.9,65.7,72.9,65.7,72.9
		C65.7,72.9,65.7,72.9,65.7,72.9C65.7,72.9,65.7,72.9,65.7,72.9c-0.1-0.1-0.1-0.1-0.1-0.1c0,0,0-0.1,0-0.1c0,0,0,0,0,0c0,0,0,0,0,0
		c0,0,0,0,0,0c0,0,0,0,0,0c0,0,0,0,0,0c0,0,0,0,0,0s0,0,0,0c0,0,0,0,0,0c0,0,0,0,0,0c0,0,0,0,0,0c0,0,0,0,0,0c0,0,0,0,0,0
		c0,0,0,0,0,0c0,0,0,0,0,0C65.6,72.8,65.7,72.9,65.7,72.9C65.7,72.9,65.7,72.9,65.7,72.9C65.7,72.9,65.7,72.9,65.7,72.9
		C65.7,72.9,65.7,72.9,65.7,72.9C65.7,72.9,65.7,72.9,65.7,72.9z"/>
	<g>
		<path fill="#D52328" d="M64.4,69.9c0,0,0,0.1-0.1,0.2c0,0.1-0.1,0.1-0.1,0.2c0,0,0,0.1,0,0.1c0,0.1,0,0.1,0,0.1
			c0.2,0.1,0.4,0.1,0.5,0c0.1-0.1,0.1-0.2,0.1-0.2c0,0,0,0.1-0.1,0.2c-0.1,0.1-0.3,0.1-0.5,0c0,0-0.1-0.1,0-0.1c0,0,0-0.1,0-0.1
			c0-0.1,0.1-0.2,0.1-0.2C64.4,70,64.4,69.9,64.4,69.9z"/>
	</g>
	<g>
		<path fill="#D52328" d="M65.4,63.6c0,0-0.1,0.1-0.1,0.2c-0.1,0.1-0.1,0.3-0.1,0.5c0,0.1,0,0.2,0,0.3c0,0.1,0,0.2,0,0.3
			c0,0.1,0,0.2,0,0.2s0-0.1,0-0.2c0-0.1,0-0.2,0-0.3c0-0.1,0-0.2,0-0.3c0-0.2,0-0.4,0.1-0.5C65.3,63.7,65.4,63.6,65.4,63.6z"/>
	</g>
	<g>
		<path fill="#D52328" d="M50.4,51.9c0,0-0.2,1.4-0.4,3.4c0,0.3-0.1,0.5-0.1,0.8c0,0.3,0,0.6-0.2,0.9c-0.3,0.5-0.7,1-1.1,1.5
			c-0.8,1-1.8,2-2.8,3c-3.9,3.9-8,7.7-8,7.7s4.1-3.8,7.9-7.7c1-1,1.9-2,2.8-3c0.4-0.5,0.8-1,1.1-1.5c0.1-0.3,0.1-0.6,0.2-0.8
			c0-0.3,0.1-0.5,0.1-0.8C50.2,53.2,50.4,51.9,50.4,51.9z"/>
	</g>
	<path fill="#D62228" d="M52.5,57.5c0,0,0.1,3.3-4.5,8.7s-6.3,9.3-6.3,9.3L40.4,78c0,0,5-7.8,6.5-9.7c1.5-1.9,5.9-7.2,5.9-7.2
		S52.8,58.3,52.5,57.5z"/>
	<g>
		<path fill="#D52328" d="M69.1,78.6c0,0,1.3-1.7,2.7-3.3c0.4-0.4,0.7-0.8,1.1-1.1c0.4-0.4,0.7-0.6,1-0.9c0.3-0.3,0.6-0.4,0.8-0.6
			c0.2-0.1,0.3-0.2,0.3-0.2s-0.1,0.1-0.3,0.2c-0.2,0.1-0.5,0.3-0.8,0.6c-0.3,0.3-0.7,0.6-1,0.9c-0.3,0.4-0.7,0.7-1.1,1.1
			C70.4,76.9,69.1,78.6,69.1,78.6z"/>
	</g>
	<g>
		<path fill="#D52328" d="M73.8,76.1c0,0,0.3-0.9,0.8-2.3c0.3-0.7,0.6-1.5,0.9-2.3c0.3-0.9,0.8-1.7,1.1-2.6c0.4-0.9,0.9-1.8,1.3-2.6
			c0.2-0.4,0.4-0.8,0.7-1.2c0.2-0.4,0.4-0.7,0.6-1c0.2-0.3,0.4-0.6,0.6-0.8c0.2-0.2,0.3-0.4,0.5-0.6c0.3-0.3,0.4-0.5,0.4-0.5
			s-0.1,0.2-0.4,0.6c-0.1,0.2-0.3,0.4-0.4,0.6c-0.2,0.2-0.4,0.5-0.6,0.8c-0.2,0.3-0.4,0.7-0.6,1c-0.2,0.4-0.4,0.7-0.6,1.2
			c-0.4,0.8-0.9,1.7-1.3,2.6c-0.4,0.9-0.8,1.8-1.2,2.6c-0.4,0.8-0.7,1.6-1,2.3C74.1,75.2,73.8,76.1,73.8,76.1z"/>
	</g>
	<g>
		<path fill="#D52328" d="M74.6,51.9c0,0,0.3,0.2,0.9,0.5c0.1,0.1,0.3,0.1,0.5,0.2c0.2,0,0.3,0.1,0.5,0.2c0.2,0,0.4,0,0.6,0
			c0.2,0,0.4,0,0.6,0c1.6-0.1,3.2-0.4,3.2-0.4s-1.6,0.3-3.2,0.4c-0.2,0-0.4,0-0.6,0c-0.2,0-0.4,0-0.6,0c-0.2-0.1-0.4-0.1-0.5-0.2
			c-0.2,0-0.3-0.1-0.4-0.2C75,52.1,74.6,51.9,74.6,51.9z"/>
	</g>
	<g>
		<path fill="#D52328" d="M74.3,57.2c0,0,0.1,0.1,0.2,0.2c0.2,0.1,0.4,0.2,0.7,0.4c0.3,0.1,0.7,0.3,1.1,0.4c0.2,0.1,0.4,0.1,0.6,0.1
			c0.2,0,0.4,0.1,0.7,0.1c0.4,0.1,0.9,0.2,1.3,0.2c0.4,0.1,0.8,0.2,1.1,0.3c0.3,0.1,0.6,0.3,0.7,0.4c0.1,0.1,0.2,0.2,0.2,0.2
			s0-0.1-0.2-0.2c-0.2-0.1-0.4-0.3-0.7-0.4c-0.3-0.1-0.7-0.2-1.1-0.3c-0.4-0.1-0.9-0.1-1.3-0.2c-0.2,0-0.4-0.1-0.7-0.1
			c-0.2-0.1-0.4-0.1-0.6-0.1c-0.4-0.2-0.8-0.3-1.1-0.4c-0.3-0.2-0.5-0.3-0.7-0.4C74.4,57.2,74.3,57.2,74.3,57.2z"/>
	</g>
	<g>
		<path fill="#D52328" d="M76.8,58.4c0,0-0.3,0.1-0.6,0.1c-0.2,0-0.4,0.1-0.7,0.1c-0.2,0-0.5-0.1-0.8-0.1c-0.3,0-0.5,0-0.7,0.1
			c-0.2,0.1-0.5,0.1-0.6,0.2c-0.4,0.1-0.6,0.2-0.6,0.2s0.2-0.1,0.6-0.3c0.2-0.1,0.4-0.1,0.6-0.2c0.2-0.1,0.5-0.1,0.8-0.1
			c0.3,0,0.5,0.1,0.8,0.1c0.2,0,0.5,0,0.7,0C76.5,58.4,76.8,58.4,76.8,58.4z"/>
	</g>
	<g>
		<path fill="#D52328" d="M60.9,75.8c0,0,0.3,0.7,0.5,1.3c0.1,0.3,0.2,0.7,0.2,1c0,0.1,0,0.2,0,0.3c0,0.1,0,0.1,0,0.1s0,0,0-0.1
			c0-0.1,0.1-0.2,0-0.3c0-0.3-0.1-0.6-0.2-1C61.2,76.5,60.9,75.8,60.9,75.8z"/>
	</g>
	<g>
		<path fill="#D52328" d="M55.6,77.5c0,0-0.9,0-2.3,0.1c-0.7,0-1.5,0.1-2.4,0.2c-0.4,0-0.9,0.1-1.3,0.1c-0.5,0.1-0.9,0.2-1.4,0.2
			c-0.5,0.1-0.9,0.2-1.4,0.2c-0.5,0.1-0.9,0.2-1.3,0.2c-0.4,0-0.9,0-1.3,0c-0.4,0-0.8-0.1-1.1-0.1c-1.4-0.2-2.3-0.5-2.3-0.5
			s0.9,0.3,2.3,0.4c0.3,0,0.7,0.1,1.1,0.1c0.4,0,0.8,0,1.3,0c0.4,0,0.9-0.1,1.3-0.2c0.5-0.1,0.9-0.2,1.4-0.2
			c0.5-0.1,0.9-0.2,1.4-0.2c0.5,0,0.9-0.1,1.3-0.1c0.9-0.1,1.7-0.1,2.4-0.2C54.7,77.5,55.6,77.5,55.6,77.5z"/>
	</g>
</g>
</svg>
