<?xml version="1.0" encoding="utf-8"?>
<!-- Generator: Adobe Illustrator 18.1.1, SVG Export Plug-In . SVG Version: 6.00 Build 0)  -->
<svg version="1.1" id="Слой_1" xmlns="http://www.w3.org/2000/svg" xmlns:xlink="http://www.w3.org/1999/xlink" x="0px" y="0px"
	 viewBox="0 0 120 120" enable-background="new 0 0 120 120" xml:space="preserve">
<g>
	<path fill="none" stroke="#D62228" stroke-width="0.784" stroke-miterlimit="10" d="M21.9,46c1-5.2,1.9-10.5,2.9-15.7
		c0.8-4.2,1.7-8.4,2.8-12.6c0.3-1,1.5-1.8,2.5-2.5c4.7-3.5,10.4-4,16-4.9c1-0.1,1.9-0.3,3.1-0.5c-1.2,3.9,0,7.1,2.2,10
		c3.1,4.1,6.3,8.1,9.6,12c1.4,1.7,3.1,1.7,5.1,0.6c4.1-2.4,7.6-5.7,9.4-10c1.1-2.8,0.4-6.2,0.5-8.9c4,1.8,8.9,4.1,13.8,6.3
		c5.8,2.6,9.5,9.1,9,15.5c-0.2,2.2-0.3,4.5-0.1,6.6c0.3,2.5,0.1,4.6-2.3,6.1c0.6,1.2,1.1,2.4,1.7,3.5c1.5,2.6,1.4,3.5-1.6,4
		c-3.8,0.6-7.7,0.7-11.8,1c-0.2,1.2,1.2,22.7,1.5,24.4c0.3,2.3,3.1,24.3,3.9,28c-19.4,2.9-38.5,2.2-57.5,1.8
		c0.8-19.4,1.6-38.8,2.3-57.3c-4.8-2.3-8.9-4.3-13-6.2C21.9,46.9,21.9,46.4,21.9,46z"/>
	<g>
		<g>
			<path fill="#D62228" d="M83.8,56.5c-0.1,0.8-0.2,1.7-0.3,2.5c-0.1,0.8-0.2,1.7-0.4,2.5l-0.1,0.6l-0.5-0.5
				c-0.7-0.7-1.3-1.4-1.8-2.1c-0.5-0.8-1-1.6-1.5-2.4c-0.5-0.8-0.9-1.6-1.3-2.4l-0.7-1.2l-0.7-1.2c0.7,0.6,1.4,1.3,1.9,2
				c0.6,0.7,1.1,1.5,1.5,2.3c0.5,0.8,1,1.6,1.4,2.3c0.5,0.8,1,1.5,1.5,2.3l-0.6,0.1c0.2-0.8,0.4-1.6,0.6-2.4
				C83.4,58.1,83.6,57.3,83.8,56.5z"/>
			<path fill="#D62228" d="M83.3,99.2l0.4,0.3l-0.1,0c0.9-0.8,1.9-1.6,2.9-2.3l0.5-0.3l0.2,0.6c0.5,1.9,0.9,3.8,1.3,5.7
				c0.2,1,0.3,1.9,0.5,2.9c0.1,0.5,0.1,1,0.2,1.4c0,0.5,0.1,1,0.1,1.5c-0.2-0.5-0.3-0.9-0.5-1.4c-0.2-0.5-0.3-0.9-0.4-1.4
				c-0.3-0.9-0.5-1.9-0.8-2.8c-0.5-1.9-0.9-3.8-1.2-5.7l0.6,0.3c-1.1,0.6-2.2,1.2-3.3,1.7l-0.1,0l0,0L83.3,99.2z"/>
			<path fill="#D62228" d="M85.1,88.7c0,0,0.1,0.3,0,0.6c0,0.4-0.1,0.8-0.3,1.2c-0.2,0.4-0.4,0.8-0.7,1c-0.2,0.3-0.5,0.4-0.5,0.4
				s-0.1-0.3,0-0.6c0-0.4,0.1-0.8,0.3-1.2c0.2-0.4,0.4-0.8,0.7-1C84.9,88.8,85.1,88.7,85.1,88.7z"/>
			<path fill="#D62228" d="M83.3,86.3c0,0,0,0.3-0.1,0.8c-0.1,0.5-0.3,1-0.6,1.5c-0.3,0.5-0.6,1-0.9,1.4c-0.3,0.3-0.6,0.5-0.6,0.5
				s0-0.3,0.1-0.8c0.1-0.5,0.3-1,0.6-1.5c0.3-0.5,0.6-1,0.9-1.3C83,86.4,83.3,86.3,83.3,86.3z"/>
			<path fill="#D62228" d="M79.1,69.1c1.6,0.2,3.2-0.1,4.8-0.1l0.4,0l-0.3,0.3c-1.3,1.5-2.6,2.9-3.9,4.3c-1.3,1.4-2.6,2.9-3.9,4.3
				l0.1-0.5l0.4,0.6l-0.5-0.2l8-2.8l0.5-0.2l0.1,0.6c0.2,1.2,0.4,2.4,0.6,3.6l0.3,1.8c0.1,0.6,0.1,1.3-0.1,2
				c-0.2,0.7-0.7,1.3-1.2,1.7c-0.5,0.4-1.1,0.7-1.7,0.9l-3.3,1.4c-2.2,0.9-4.4,1.9-6.5,3.1c-2.1,1.2-4,2.6-5.8,4.2
				c0.8-0.9,1.7-1.7,2.6-2.5c0.5-0.4,0.9-0.8,1.4-1.1c0.5-0.4,1-0.7,1.5-1c2-1.3,4.2-2.4,6.4-3.4c1.1-0.5,2.2-1,3.3-1.4
				c1.1-0.5,2.1-1.1,2.3-2c0.1-0.5,0.1-1,0-1.6l-0.3-1.8c-0.2-1.2-0.4-2.4-0.6-3.6l0.6,0.4l-8.1,2.7l-0.3,0.1L76,78.4l-0.4-0.6
				l-0.2-0.3l0.2-0.2c1.3-1.4,2.7-2.8,4.1-4.1c1.4-1.4,2.7-2.8,4.1-4.1l0.1,0.3C82.3,69.2,80.7,69.4,79.1,69.1z"/>
			<path fill="#D62228" d="M86.9,46.8c-0.4,1.3-0.6,2.7-1.1,4l-0.6-0.6c1.2-0.5,2.4-0.9,3.7-1.3c1.2-0.4,2.5-0.7,3.8-1.1
				c-1,0.8-2.3,1.4-3.5,1.9c-1.2,0.5-2.4,0.9-3.7,1.3l-1,0.3l0.4-0.9c0.3-0.6,0.5-1.2,0.8-1.9C86.1,48,86.4,47.4,86.9,46.8z"/>
			<path fill="#D62228" d="M93.9,37.8c-0.5,0-0.9,0-1.4,0c-0.5,0-1,0-1.4-0.1c-0.2,0-0.5-0.1-0.8-0.3c-0.2-0.2-0.5-0.4-0.5-0.7
				c-0.1-0.3-0.1-0.6-0.1-0.8c0-0.3,0.1-0.5,0.1-0.7c0.1-0.5,0.2-0.9,0.3-1.4c0.1-0.2,0.1-0.4,0.1-0.7l0.1-0.7l0.5-2.8l0.3,0.6
				l-1-0.4l0.6-0.2C90,31,89.3,32.5,88.4,34c-0.8,1.5-1.7,3-2.6,4.5c0.6-1.6,1.3-3.2,2-4.8c0.7-1.6,1.4-3.1,2.2-4.7l0.2-0.4l0.4,0.2
				l1,0.4l0.4,0.2l-0.1,0.4l-0.6,2.8l-0.2,0.7c0,0.2-0.1,0.5-0.2,0.7l-0.4,1.4c0,0.2-0.1,0.4-0.1,0.7c0,0.2,0,0.4,0,0.6
				c0,0.3,0.3,0.6,0.8,0.7C92,37.5,93,37.6,93.9,37.8z"/>
			<path fill="#D62228" d="M81.8,95.7c0,0-0.3,0.1-0.7,0.2c-0.2,0-0.5,0.1-0.8,0.2c-0.3,0.1-0.6,0.3-1,0.4c-0.3,0.1-0.7,0.3-1.1,0.5
				c-0.4,0.2-0.8,0.4-1.2,0.7c-0.4,0.2-0.8,0.5-1.2,0.8c-0.4,0.3-0.8,0.6-1.2,0.9c-0.4,0.3-0.8,0.6-1.2,0.9
				c-0.4,0.3-0.8,0.6-1.1,0.9c-0.7,0.6-1.3,1.3-1.8,1.8c-0.2,0.3-0.5,0.5-0.7,0.8c-0.2,0.2-0.4,0.5-0.5,0.7
				c-0.2,0.4-0.4,0.6-0.4,0.6s0.1-0.2,0.2-0.7c0.1-0.2,0.2-0.5,0.3-0.8c0.1-0.3,0.3-0.6,0.5-0.9c0.2-0.3,0.5-0.7,0.7-1
				c0.3-0.3,0.6-0.7,0.9-1.1c0.3-0.4,0.7-0.7,1.1-1.1c0.4-0.4,0.8-0.7,1.2-1c0.4-0.3,0.9-0.6,1.3-0.9c0.4-0.3,0.9-0.5,1.3-0.7
				c0.4-0.2,0.9-0.4,1.3-0.6c0.4-0.1,0.8-0.3,1.2-0.4c0.4-0.1,0.7-0.2,1.1-0.2c0.3,0,0.6-0.1,0.8-0.1C81.5,95.7,81.8,95.7,81.8,95.7
				z"/>
		</g>
	</g>
	<g>
		<path fill="#D62228" d="M21.9,43.9c0,0,0.6,0,1.6,0.2c0.5,0.1,1,0.2,1.6,0.4c0.6,0.1,1.2,0.4,1.8,0.6c0.6,0.2,1.2,0.5,1.7,0.8
			c0.3,0.1,0.5,0.3,0.7,0.5c0.2,0.2,0.4,0.3,0.6,0.4c0.2,0.1,0.3,0.3,0.5,0.4c0.1,0.1,0.3,0.3,0.4,0.4C30.9,47.9,31,48,31,48
			s-0.1-0.1-0.4-0.2c-0.1-0.1-0.2-0.2-0.4-0.3c-0.2-0.1-0.3-0.2-0.5-0.4c-0.4-0.2-0.9-0.5-1.4-0.7c-0.5-0.2-1.1-0.5-1.7-0.7
			c-0.6-0.2-1.2-0.5-1.7-0.7c-0.5-0.2-1.1-0.4-1.5-0.6C22.5,44.1,21.9,43.9,21.9,43.9z"/>
	</g>
	<g>
		<polygon fill="#D62228" points="34.4,53.5 35.6,43.9 35.4,53.5 		"/>
	</g>
	<g>
		<polygon fill="#D62228" points="83.7,59.5 84.9,49.9 84.7,59.5 		"/>
	</g>
</g>
<rect x="47.3" y="42.7" fill="none" stroke="#D62228" stroke-width="0.1135" stroke-miterlimit="10" width="28.2" height="36.8"/>
<path fill="none" stroke="#ED1C24" stroke-width="2.871003e-002" stroke-miterlimit="10" d="M68.9,56.9c0,0,0.3,1.6,0.4,2.1
	s-0.1,1.6-0.1,2s-0.1,1.1-0.1,1.3c0,0.2-0.1,1-0.7,1.8c-0.6,0.7-1.2,1.4-1.3,1.5c-0.1,0.1-0.7,1.1-1.9,1.2s-1.7-0.2-2-0.4
	c-0.2-0.2-1.6-1.5-1.8-1.7c-0.3-0.2-1-0.9-1.2-1.4s-0.2-0.8-0.4-1.4c-0.2-0.6-0.4-1.2-0.4-1.2"/>
<path fill="#D62228" d="M66.2,63.6c-0.3-0.2-0.6-0.3-0.9-0.3c-0.3,0-0.5,0.2-0.6,0.2c-0.1,0-0.2,0-0.2-0.1c-0.1,0-0.2-0.1-0.4,0
	c-0.1,0-0.3,0.2-0.3,0.2s-0.5,0.3-0.6,0.5c-0.1,0.1-0.2,0.2-0.2,0.2s0.3,0,0.5,0c0.1,0,0.1,0,0.4-0.1c0.2,0,0.4-0.1,0.4-0.1
	s0.1,0,0.3,0c0.1,0,0.2-0.1,0.2-0.1s0.1,0,0.1,0c0,0,0.1,0,0.1,0s0.1,0,0.3,0c0.1,0,0.2,0,0.3,0s0.2,0.1,0.3,0.1s0.2,0,0.2,0
	s0.2,0,0.4,0.1c0.2,0,0.3-0.1,0.3-0.1S66.5,63.7,66.2,63.6z M63.7,64C63.7,64,63.7,64,63.7,64C63.7,64,63.7,63.9,63.7,64
	C63.7,63.9,63.7,63.9,63.7,64C63.7,63.9,63.7,63.9,63.7,64c-0.1-0.1-0.1-0.1-0.1-0.1c0,0,0,0,0,0c0,0,0,0,0,0c0,0,0,0,0,0s0,0,0,0
	c0,0,0,0,0,0c0,0,0,0,0,0C63.7,63.9,63.7,63.9,63.7,64C63.7,63.9,63.7,63.9,63.7,64C63.7,63.9,63.7,63.9,63.7,64
	C63.7,63.9,63.7,63.9,63.7,64C63.7,63.9,63.7,63.9,63.7,64C63.7,64,63.7,64,63.7,64C63.7,64,63.8,64,63.7,64
	C63.8,64,63.7,64,63.7,64z M64.6,63.7C64.6,63.8,64.6,63.8,64.6,63.7C64.6,63.8,64.6,63.8,64.6,63.7C64.6,63.8,64.6,63.8,64.6,63.7
	C64.6,63.8,64.6,63.8,64.6,63.7C64.6,63.7,64.6,63.7,64.6,63.7c0-0.1,0-0.1,0-0.1c0,0,0,0,0,0c0,0,0,0,0,0c0,0,0,0,0,0c0,0,0,0,0,0
	c0,0,0,0,0,0c0,0,0,0,0,0s0,0,0,0c0,0,0,0,0,0c0,0,0,0,0,0c0,0,0,0,0,0C64.6,63.6,64.6,63.6,64.6,63.7
	C64.6,63.7,64.6,63.7,64.6,63.7C64.6,63.7,64.6,63.7,64.6,63.7z M64.8,63.6C64.8,63.6,64.8,63.7,64.8,63.6c0,0.1,0,0.1,0,0.1
	c0,0,0,0,0,0s0,0,0,0C64.8,63.7,64.8,63.7,64.8,63.6C64.8,63.7,64.8,63.6,64.8,63.6C64.8,63.6,64.8,63.5,64.8,63.6
	c0-0.1,0-0.1,0-0.1c0,0,0,0,0,0c0,0,0,0,0,0s0,0,0,0c0,0,0,0,0,0C64.8,63.5,64.8,63.5,64.8,63.6C64.8,63.5,64.8,63.5,64.8,63.6
	C64.8,63.6,64.8,63.6,64.8,63.6z M65.9,63.7C65.9,63.7,65.9,63.8,65.9,63.7C65.9,63.8,65.9,63.8,65.9,63.7
	C65.9,63.8,65.9,63.8,65.9,63.7C65.8,63.8,65.8,63.8,65.9,63.7C65.8,63.8,65.8,63.8,65.9,63.7c-0.1,0.1-0.1,0.1-0.1,0.1
	S65.8,63.8,65.9,63.7C65.8,63.8,65.8,63.8,65.9,63.7C65.8,63.8,65.8,63.8,65.9,63.7C65.9,63.8,65.9,63.8,65.9,63.7
	C65.9,63.7,65.9,63.7,65.9,63.7C65.9,63.7,65.9,63.7,65.9,63.7C65.9,63.7,65.9,63.7,65.9,63.7z"/>
<g>
	<path fill="#ED1C24" d="M64.8,64c0,0,0.2,0,0.3,0c0,0,0.1,0,0.1,0c0,0,0.1-0.1,0.1-0.1c0.1,0,0-0.1,0-0.1c0,0,0,0.1,0,0.1
		c0,0,0,0.1-0.1,0.1c0,0-0.1,0-0.1,0C65,64,64.8,64,64.8,64z"/>
</g>
<g>
	<path fill="#ED1C24" d="M64,64l0.2,0c0,0,0,0,0.1,0.1c0,0,0.1,0,0.1,0l0.4,0l0,0l0-0.1l0,0.1l0,0l-0.4,0c0,0-0.1,0-0.1,0
		c0,0,0-0.1-0.1-0.1L64,64z"/>
</g>
<g>
	<path fill="#ED1C24" d="M65.4,63.9C65.4,63.9,65.4,63.9,65.4,63.9c0,0.1,0.1,0,0.1,0c0.1,0,0.2,0,0.2,0s-0.1,0-0.2,0
		C65.5,63.9,65.5,63.9,65.4,63.9C65.4,63.9,65.4,63.9,65.4,63.9L65.4,63.9z"/>
</g>
<g>
	<path fill="#ED1C24" d="M65.5,61.3c0,0,0,0.1,0.1,0.2c0.1,0.1,0.2,0.3,0.2,0.4c0,0.1,0,0.2-0.1,0.3c0,0.1-0.1,0.1-0.2,0.2
		c-0.1,0.1-0.2,0.1-0.2,0.1s0.1,0,0.2-0.1c0.1,0,0.1-0.1,0.2-0.2c0.1-0.1,0.1-0.2,0-0.2c-0.1-0.2-0.2-0.3-0.2-0.4
		C65.6,61.4,65.5,61.3,65.5,61.3z"/>
</g>
<g>
	<path fill="#ED1C24" d="M63.5,61.9c0,0,0,0.1-0.1,0.2c0,0.1-0.1,0.2,0,0.4c0,0.1,0.1,0.1,0.1,0.1c0.1,0,0.1,0,0.2,0.1
		c0.1,0,0.2,0,0.2,0s-0.1,0-0.2,0c0,0-0.1,0-0.2-0.1c0,0-0.1-0.1-0.1-0.1c0-0.1,0-0.3,0-0.4C63.5,61.9,63.5,61.9,63.5,61.9z"/>
</g>
<g>
	<path fill="#ED1C24" d="M63.7,62.5c0,0,0.2-0.1,0.3-0.1c0,0,0.1,0,0.1,0c0,0,0.1,0,0.1,0.1c0.1,0,0.1,0.1,0.1,0.1s0,0-0.1-0.1
		c0,0-0.1,0-0.1-0.1c0,0-0.1,0-0.1,0C63.9,62.4,63.7,62.5,63.7,62.5z"/>
</g>
<g>
	<path fill="#ED1C24" d="M64.5,62.6c0,0,0.1,0,0.2,0c0.1,0,0.2-0.1,0.3-0.2c0.1-0.1,0.2-0.3,0.3-0.2c0.1,0,0.2,0,0.2,0s-0.1,0-0.2,0
		c-0.1,0-0.2,0.1-0.3,0.2c-0.1,0.1-0.2,0.2-0.4,0.2C64.6,62.7,64.5,62.6,64.5,62.6z"/>
</g>
<path fill="#D62228" d="M65.2,62.3c0,0,0.1,0,0.2-0.1c0,0,0.1,0,0.1,0C65.6,62.2,65.2,62.1,65.2,62.3z"/>
<path fill="#D62228" d="M64.2,62.4C64.2,62.4,64.2,62.4,64.2,62.4c-0.1-0.1-0.2-0.1-0.2-0.1L64.2,62.4z"/>
<g>
	<path fill="#ED1C24" d="M64,65.5c0,0,0.5-0.1,1.1-0.2c0.3,0,0.5,0,0.7,0c0.2,0,0.3,0,0.3,0s-0.1,0-0.3,0c-0.2,0-0.5,0-0.7,0
		C64.5,65.4,64,65.5,64,65.5z"/>
</g>
<g>
	<path fill="#ED1C24" d="M66,58.8c0,0-0.1,0.1-0.3,0.2c-0.1,0.1-0.2,0.1-0.2,0.2c0,0.1,0,0.1,0,0.1s0,0,0-0.1c0-0.1,0.1-0.1,0.2-0.2
		C65.9,58.9,66,58.7,66,58.8L66,58.8z"/>
</g>
<g>
	<path fill="#ED1C24" d="M65.6,59.3c0,0,0.1-0.1,0.3-0.2c0.2-0.1,0.5,0,0.8,0c0.3,0,0.5-0.1,0.7-0.2c0.2-0.1,0.3-0.2,0.3-0.2
		c0,0-0.1,0.1-0.3,0.2c-0.2,0.1-0.4,0.2-0.7,0.2c-0.3,0-0.6-0.1-0.8,0C65.7,59.2,65.6,59.3,65.6,59.3z"/>
</g>
<g>
	<path fill="#ED1C24" d="M67.4,58.7c0,0-0.1,0.1-0.2,0.1c-0.1,0-0.2,0.2-0.4,0.2c-0.1,0.1-0.3,0.1-0.4,0c-0.1,0-0.2,0-0.2,0
		s0.1,0,0.2,0c0.1,0,0.3,0,0.4-0.1c0.2,0,0.3-0.1,0.4-0.2C67.4,58.8,67.4,58.7,67.4,58.7z"/>
</g>
<path fill="none" stroke="#ED1C24" stroke-width="1.435502e-002" stroke-miterlimit="10" d="M65.8,59C65.8,59,65.8,59,65.8,59"/>
<path fill="#D62228" d="M68,57.6c-0.2-0.1-0.5-0.1-0.7-0.1c0,0,0,0,0,0c0,0-0.1,0-0.1,0c0,0-0.1,0-0.1,0c0,0,0,0,0,0
	c0,0-0.1,0-0.1,0.1c-0.1,0-0.2,0.1-0.3,0.1c0,0,0,0,0,0c0,0,0,0-0.1,0c0,0,0,0-0.1,0c0,0,0,0-0.1,0c0,0,0,0-0.1,0c0,0,0,0-0.1,0
	c0,0,0,0,0,0c0,0,0,0,0,0c0,0,0,0,0,0c0,0-0.1,0-0.1,0c0,0,0,0-0.1,0c0,0-0.1,0-0.1,0c0,0-0.1,0-0.1,0c0,0,0,0,0,0
	c0,0-0.1,0.1-0.1,0.1c0,0.1-0.1,0-0.1,0.1c0,0,0,0,0,0c0,0,0,0,0,0c0,0,0,0,0,0c0,0,0,0-0.1,0c0,0,0,0,0,0.1c0,0,0.1,0,0.1-0.1
	c0,0,0,0-0.1,0.1c0,0,0,0,0.1,0c0,0,0,0,0,0l-0.1,0.1c0,0,0,0,0,0c0,0,0,0,0,0c0,0,0,0,0,0c0,0,0,0,0,0c0,0,0,0,0,0.1
	c0.1,0,0.1,0,0.2-0.1c0,0,0,0,0,0c0.1,0,0.1-0.1,0.1-0.1c0,0,0,0,0,0c0,0,0,0,0,0c0,0,0,0,0,0.1c0,0,0,0,0,0c0,0,0,0,0,0
	c0,0,0,0,0,0c0,0,0,0,0,0c0,0,0.1,0,0.1,0c0,0,0,0,0,0c0,0,0,0,0,0c0,0,0,0,0.1,0c0,0,0,0,0,0c0,0,0,0,0,0c0,0,0,0,0,0c0,0,0,0,0,0
	c0,0,0.1,0,0.1,0c0,0,0.1,0,0.1,0c0,0,0.1,0,0.1,0c0,0,0,0,0,0c0,0,0,0,0-0.1c0,0,0.6-0.2,0.6-0.2c0.1,0,0.3-0.1,0.7-0.2
	c0.2,0,0.4,0,0.4,0c0,0,0.2,0.1,0.3,0.1C68.4,57.8,68.1,57.6,68,57.6z M66,58.2c0.1,0,0.1,0,0.1,0C66.1,58.2,66.1,58.2,66,58.2z"/>
<path fill="#D62228" d="M68,58.7C68,58.7,68,58.7,68,58.7C68.1,58.6,68.1,58.6,68,58.7c0-0.1,0.1-0.1,0.1-0.1c0,0,0,0,0-0.1
	c0.1-0.1,0.1-0.1,0.1-0.2c0,0.1,0,0.1-0.1,0.2c0,0-0.1,0.1-0.1,0.1c0,0-0.1,0.1-0.2,0.1l0,0c0.1-0.1,0.2-0.2,0.2-0.4
	c0,0,0,0.1,0,0.1c0,0,0,0.1-0.1,0.1c0,0,0,0,0,0c0,0.1-0.1,0.1-0.1,0.1c0-0.1,0-0.1,0.1-0.1c0,0,0-0.1,0.1-0.1
	c-0.1,0.1-0.1,0.1-0.2,0.2c0.1-0.1,0.1-0.1,0.2-0.2c0-0.1,0.1-0.1,0.1-0.2c0,0.1-0.1,0.1-0.1,0.2l0,0c0,0,0,0,0-0.1
	c0,0-0.1,0.1-0.1,0.1c0,0,0,0,0,0l0,0c0,0,0,0,0,0.1c0-0.1,0-0.1,0.1-0.2c0-0.1,0-0.2,0-0.2c0,0.1,0,0.1,0,0.2c0,0,0,0,0,0
	c0,0,0-0.1,0-0.1c0,0.1,0,0.2-0.1,0.3c0,0,0,0,0,0c0,0,0,0,0-0.1c0,0-0.1,0-0.1,0c0,0,0,0,0,0.1c0,0,0,0,0,0c0,0,0,0,0,0
	c0,0,0,0-0.1,0c0-0.1,0-0.2,0-0.3c0,0.1,0,0.1,0,0.2c0,0,0,0,0,0c0,0,0,0,0-0.1c0,0,0,0,0-0.1c0,0,0,0,0,0c0,0.1,0,0.1-0.1,0.1
	c0,0,0,0,0-0.1c0,0,0,0,0,0c0,0,0,0.1,0,0.1c0,0,0,0,0,0c0,0,0,0,0,0c0,0,0,0,0,0c0,0,0-0.1,0.1-0.1c0,0,0,0,0,0l-0.1,0.1
	c0,0,0,0,0,0c0,0,0-0.1,0-0.1c0,0,0,0,0,0c0,0,0,0.1-0.1,0.2c0,0,0,0,0-0.1c0,0,0,0-0.1,0c0,0,0-0.1,0-0.1c0,0,0,0.1,0,0.1
	c0,0,0,0,0,0c0,0,0,0,0,0c0,0,0,0,0,0l0,0l0,0c0,0,0,0,0,0c0,0,0,0,0,0c0,0,0,0,0-0.1c0,0,0,0,0,0c0,0,0,0.1,0,0.1c0,0,0,0,0,0
	c0,0,0,0,0,0c0,0,0,0,0-0.1c0,0,0,0,0,0c0,0,0,0,0,0c0,0,0,0,0,0.1c0,0,0,0,0,0c0,0,0,0,0,0l0,0c0,0,0,0,0,0c0,0-0.1,0-0.1,0
	c0,0-0.1,0-0.1,0c0,0,0,0.1,0,0.1c0,0,0,0,0,0c0,0,0,0,0,0.1c0,0,0,0,0,0c0,0,0,0,0,0c0,0,0,0,0,0c0,0,0,0,0,0c0,0,0-0.1,0-0.1
	c0,0,0,0,0,0c0,0,0,0,0,0c0,0,0,0-0.1,0c0,0,0,0,0,0c0,0,0,0,0,0c0,0,0,0,0,0c0,0,0,0,0,0c0,0,0,0,0,0.1c0,0,0,0,0-0.1c0,0,0,0,0,0
	c0,0,0,0,0,0c0,0,0,0,0,0c0,0,0,0,0,0c0,0,0,0,0,0c0,0,0,0,0,0.1c0,0,0,0,0,0c0,0,0,0.1,0,0.1c0,0-0.1,0-0.1-0.1c0,0,0,0,0,0
	c0,0,0,0,0,0c0,0,0,0,0-0.1c0,0,0,0,0,0c0,0,0,0,0,0c0,0,0,0,0,0.1l0,0c0,0,0,0.1,0,0.1c-0.1,0-0.1,0-0.1,0.1c0,0-0.1,0.1-0.1,0.1
	c0,0,0,0,0,0c0,0,0,0,0,0c0,0,0,0,0,0c0,0,0,0,0,0.1c0,0,0,0-0.1,0c0,0,0,0.1,0,0.1c0,0-0.1,0.1-0.1,0.1c0,0,0,0-0.1,0
	c0,0,0,0.1,0,0.1c0,0,0.1,0,0.1-0.1c0,0,0.1,0,0.1,0c0,0,0,0,0,0c0-0.1,0-0.1,0.1-0.2c0,0,0,0,0.1,0c0,0,0,0,0,0
	c0.1,0,0.1-0.1,0.1-0.1c0,0,0,0,0,0c0,0,0,0,0.1,0c0,0,0,0,0,0c0,0,0,0,0,0c0,0,0,0,0,0c0,0,0,0.1,0,0.1c0,0.1,0.1,0.3,0.3,0.3
	c0.1,0,0.1,0,0.1,0c0,0-0.1,0-0.1,0c0,0,0,0,0,0c0,0,0-0.1,0-0.1c0,0,0,0,0.1,0c0.1,0,0.1,0,0.1,0c0,0,0,0,0.1,0l0,0c0,0,0,0,0,0.1
	c0,0,0,0,0,0c0,0,0,0,0,0c0,0,0,0,0-0.1c0,0,0,0,0,0c0,0,0,0,0,0c0,0,0,0.1,0,0.1c0,0,0,0,0,0.1c0.1,0,0.2,0,0.3-0.1
	c0.2-0.1,0.1-0.3,0.2-0.3c0.1,0,0.1,0,0.2,0.1c0,0,0,0,0.1,0c0,0.1,0,0.1,0,0.2c0,0,0,0,0.1,0c0,0.1,0.1,0.1,0.1,0.1c0,0,0,0-0.1,0
	c-0.1-0.1-0.1-0.1-0.2,0c0,0,0,0,0.1,0c0,0,0,0,0,0c0,0,0,0-0.1,0c0,0,0,0,0,0c-0.1,0-0.1,0-0.1,0c-0.1,0-0.1,0-0.2,0
	c0.1,0,0.1,0.1,0.1,0.2c0,0,0,0,0,0c0,0,0-0.1,0-0.1l0,0c0,0,0,0,0,0c0,0,0,0,0,0c0,0,0,0,0,0c0,0,0.1,0,0.1,0c0,0,0,0.1,0.1,0.1
	c0,0,0,0,0,0c0,0,0,0,0,0c0,0,0,0,0,0c0,0,0,0,0-0.1c0,0,0,0,0-0.1c0,0,0,0.1,0.1,0c0,0,0-0.1-0.1-0.1c0,0,0,0,0,0l0.1,0.1
	c0,0,0,0,0,0c0,0,0,0,0,0l0,0c0,0,0,0,0,0c0,0,0,0,0,0c0,0,0-0.1-0.1-0.1c0.1,0,0.2,0,0.3,0.1c0,0,0,0,0,0c0,0-0.1-0.1-0.1-0.1l0,0
	c0,0,0,0,0.1,0c0-0.1,0,0,0.1,0c0,0,0,0,0-0.1c0,0,0,0,0,0c0,0,0,0,0,0c0,0,0,0,0,0c0,0,0,0,0,0c0,0,0-0.1,0-0.1c0,0,0,0,0,0
	c0,0,0,0,0,0c0,0,0,0-0.1,0c0,0,0,0,0.1,0c0,0,0.1,0,0.1,0c0,0,0.1,0,0.1,0c0,0-0.1,0-0.1,0c0-0.1,0.1-0.1,0.2-0.1c0,0,0,0-0.1,0
	C68,58.8,68,58.8,68,58.7C68.1,58.7,68,58.7,68,58.7C68,58.7,68,58.7,68,58.7C68,58.7,68,58.7,68,58.7C68,58.7,68,58.7,68,58.7
	C68,58.7,68,58.7,68,58.7z M66.1,58.7C66.1,58.7,66.1,58.7,66.1,58.7C66.1,58.7,66.1,58.7,66.1,58.7C66.1,58.7,66.1,58.7,66.1,58.7
	C66.1,58.7,66.1,58.7,66.1,58.7z M66.1,58.7C66.1,58.6,66.1,58.6,66.1,58.7C66.2,58.6,66.2,58.7,66.1,58.7
	C66.2,58.7,66.1,58.7,66.1,58.7z M66.4,58.8C66.4,58.8,66.4,58.8,66.4,58.8C66.4,58.8,66.4,58.8,66.4,58.8
	C66.3,58.8,66.4,58.8,66.4,58.8z M66.4,59L66.4,59C66.4,59,66.4,59,66.4,59C66.4,58.9,66.5,58.9,66.4,59L66.4,59
	C66.5,59,66.5,59,66.4,59z M66.4,58.9C66.4,58.9,66.4,58.9,66.4,58.9C66.4,58.9,66.4,58.9,66.4,58.9C66.4,58.9,66.4,58.9,66.4,58.9
	C66.4,58.9,66.4,58.8,66.4,58.9C66.4,58.8,66.5,58.8,66.4,58.9C66.5,58.8,66.5,58.8,66.4,58.9C66.5,58.9,66.5,58.9,66.4,58.9z
	 M66.7,58.8C66.7,58.8,66.6,58.8,66.7,58.8C66.6,58.7,66.6,58.7,66.7,58.8C66.6,58.7,66.6,58.7,66.7,58.8c-0.1-0.1-0.1,0-0.1,0
	c0,0-0.1-0.1-0.1-0.1c0,0,0.1,0,0.1,0c0,0,0,0,0,0c0,0,0,0,0,0c0,0,0,0,0,0c0,0,0,0,0,0c0,0,0,0,0,0C66.7,58.6,66.7,58.6,66.7,58.8
	C66.7,58.7,66.7,58.7,66.7,58.8z M66.8,58.9C66.8,58.9,66.8,58.9,66.8,58.9C66.8,58.9,66.8,58.9,66.8,58.9
	C66.8,58.9,66.8,58.9,66.8,58.9C66.8,58.9,66.8,58.9,66.8,58.9z M67.4,58.3c0,0,0-0.1,0.1-0.1C67.5,58.3,67.4,58.3,67.4,58.3z
	 M67.8,58.8c0.1,0,0.1,0,0.2-0.1c0,0,0,0,0,0C67.9,58.7,67.8,58.8,67.8,58.8z M67.9,58.7c0,0,0.1,0,0.1,0c0,0,0,0,0,0
	C68,58.7,67.9,58.7,67.9,58.7z"/>
<path fill="#D62228" d="M66.4,59.3c0-0.1,0-0.1,0-0.1c0,0,0,0,0,0C66.4,59.2,66.4,59.2,66.4,59.3c0-0.1,0-0.1,0-0.1c0,0,0,0,0,0
	c0,0,0,0,0.1,0C66.5,59.2,66.5,59.2,66.4,59.3C66.5,59.2,66.4,59.3,66.4,59.3z"/>
<path fill="#D62228" d="M66.7,59.3C66.7,59.3,66.6,59.3,66.7,59.3c-0.1-0.1-0.1-0.1-0.1-0.1c0,0,0,0,0,0c0,0,0,0,0,0c0,0,0,0,0,0
	c0,0,0,0,0,0C66.7,59.2,66.7,59.2,66.7,59.3c0-0.1,0-0.1,0-0.2c0,0,0,0,0,0C66.7,59.2,66.7,59.2,66.7,59.3
	C66.7,59.2,66.7,59.2,66.7,59.3z"/>
<path fill="#D62228" d="M66.8,59.2C66.8,59.2,66.8,59.2,66.8,59.2C66.9,59.2,66.9,59.2,66.8,59.2C66.8,59.2,66.8,59.2,66.8,59.2
	C66.8,59.2,66.8,59.2,66.8,59.2c0.1,0.1,0.1,0.1,0.1,0.1c0,0,0,0,0,0C66.8,59.3,66.8,59.2,66.8,59.2C66.8,59.2,66.8,59.2,66.8,59.2z
	"/>
<path fill="#D62228" d="M66.1,59.2C66.2,59.2,66.2,59.1,66.1,59.2c0.1-0.1,0.1-0.1,0.1,0C66.2,59.2,66.2,59.2,66.1,59.2
	C66.1,59.2,66.1,59.2,66.1,59.2z"/>
<path fill="#D62228" d="M66.3,59.1C66.3,59.2,66.3,59.2,66.3,59.1c0,0.1,0,0.1,0,0.1C66.3,59.2,66.3,59.2,66.3,59.1z"/>
<path fill="#D62228" d="M66.2,59.2C66.3,59.2,66.3,59.2,66.2,59.2C66.3,59.2,66.3,59.2,66.2,59.2C66.3,59.2,66.3,59.2,66.2,59.2
	C66.3,59.2,66.2,59.2,66.2,59.2z"/>
<g>
	<path fill="#ED1C24" d="M65.4,59.2c0,0,0-0.1,0.1-0.1c0-0.1,0.1-0.2,0.2-0.3c0.1-0.1,0.2-0.2,0.3-0.2c0.1-0.1,0.1-0.1,0.1-0.1l0,0
		c0,0-0.1,0-0.1,0.1c-0.1,0.1-0.2,0.1-0.3,0.2c-0.1,0.1-0.2,0.2-0.2,0.3C65.4,59.2,65.4,59.2,65.4,59.2z"/>
</g>
<path fill="#D62228" d="M66.9,53.3c0.1,0.1,1,1.8-0.3,3.6c-1.3,1.8-3,2.5-3,2.5s1.5-1.2,2.2-2.9c0.7-1.7,0.5-2.1,0.5-2.1
	s0,3.2-2.8,4.9c-2.8,1.6-3,0.9-3,0.9s-1.1,0.7-2.3,0.5c-1.2-0.2,0.7,0.2,1.4-0.7c0.7-1,0.5-2.4,0.4-3.6c-0.1-1.2,0,2.9-0.6,3.5
	c-0.7,0.5-0.8,1.2-0.3,1.4s-3.8-0.9,0.8-7s-1.8,3.3-2.4,2.9c0,0-0.5-0.6-0.2-1.7s0.2-0.3-0.4-1c-0.6-0.7-0.7-1.5-0.3-2.5
	c0.4-1,1-1.2,1-1.2s-0.2,0.3,0.5-0.5c0.7-0.8,1.1-1.5,2.5-2c1.2-0.4,2.7,0,3,0c0.2,0-0.9-0.4-0.9-0.4s2.9-0.1,3.3,0
	c1.1,0.3,1.4,0.5,1.6,0.6c0.8,0.5,1.1,0.8,1.4,1.2c0.9,0.7,1,1.5,1,1.5s-0.3,0.5,0.3,1.2c0.6,0.7,0.9,0.8,0.9,0.8s0.1,0.7-0.3,1.1
	c-0.4,0.4,0.1,0.5-0.7,0.9c-0.5,0.3-0.3,1.1-0.3,1.1l-0.3,0.3l0.1,0.3c0,0,0.3,0.2,0.6,0.7c0.3,0.5,0.3,1.5,0,2.3s-0.8,2.1-0.5,2.3
	c0.4,0.2,0.5-0.6,0.5-0.6s0,1.4-0.7,0.3c-0.7-1.1,0.8-1.5,0.2-2.8c-0.6-1.3-0.8-2-0.8-2s-0.1,0.2-0.7-0.7
	C67.7,55.4,66.9,53.3,66.9,53.3z"/>
<path fill="#D62228" d="M69.2,61.1c0,0,0.2,4,0.7,4.4c0.1,0.1,0,0.2-0.1,0.2c-0.1,0.1-0.2,0.2-0.2,0.2s-0.8-0.5-0.9-1.3
	c-0.2-0.8-0.2-0.8-0.2-0.8s0.3-0.2,0.5-1.3C69.1,62.3,69.1,61.7,69.2,61.1z"/>
<g>
	<path fill="#ED1C24" d="M69.3,60.6c0,0,0.1,0,0.1,0c0.1,0,0.2-0.1,0.2-0.2c0.1-0.1,0.1-0.2,0.1-0.3c0-0.1,0-0.2,0-0.2s0,0.1,0,0.2
		c0,0,0,0.1,0,0.2c0,0.1,0,0.1-0.1,0.2c-0.1,0.1-0.2,0.2-0.2,0.2C69.3,60.6,69.3,60.6,69.3,60.6z"/>
</g>
<path fill="#D62228" d="M56,58.4c0,0-0.3,1.5-0.7,2.5c-0.5,1.4,0.5,2.9,1.8,4.2c1.2,1.3,0.9,1.4,1.3,1.8c0.2,0.2,0.8,0.8,0.8,0.8
	l0.9,0.1c0,0,0.2-0.2-1.9-2.9c-2-2.6-1.8-3.2-1.8-4.2C56.4,59.7,56,58.4,56,58.4z"/>
<path fill="#D62228" d="M60.4,67.6c0,0,1.5-0.1-0.9-2.3c-2.4-2.2-3.1-2.6-3.1-3.6c0-1-0.2-2.9-0.3-3.4c-0.1-0.4,1.2-1,1.2-1
	s0.1,3.4,1.2,4c0.8,0.5,0.7,0,0.7,0s-0.1-0.1-0.3-0.2c-0.3-0.2-0.1-0.2-0.1-0.2l0.7-0.1c0,0,0.3,0.9,0.4,1.3c0.1,0.4,0.2,1,0.3,1.4
	c0.1,0.3,0.5,0.7,0.5,0.7s1.1,3.6,0.6,3.8c-0.5,0.2-1.1,0.1-1.4,0C59.9,67.8,60.4,67.6,60.4,67.6z"/>
<path fill="#D62228" d="M57.2,63.1c0,0,2.7,3.6,2.6,4.1s0.7,0.4,0.7,0.4S60.2,65.4,57.2,63.1z"/>
<path fill="#D52328" d="M61.6,68.4c0,0,0.1-0.5,0-1.2"/>
<g>
	<path fill="#D52328" d="M56.1,58.6c0,0-0.5,0.5-1,1.3c-0.3,0.4-0.5,0.9-0.7,1.5c-0.2,0.6-0.3,1.3-0.1,1.9c0.2,0.6,0.6,1.2,1,1.7
		c0.4,0.5,0.8,0.8,1.2,1.1c0.8,0.6,1.4,0.8,1.4,0.8s-0.6-0.2-1.4-0.8c-0.4-0.3-0.8-0.7-1.3-1.1c-0.4-0.5-0.8-1-1-1.7
		c-0.2-0.6-0.1-1.3,0-1.9c0.2-0.6,0.4-1.1,0.7-1.5C55.5,59,56,58.5,56.1,58.6L56.1,58.6z"/>
</g>
<g>
	<path fill="#D52328" d="M55.7,59.2c0,0-0.3,0.4-0.6,1.1c-0.1,0.4-0.3,0.8-0.3,1.3c0,0.2-0.1,0.5,0,0.7c0,0.3,0.1,0.5,0.2,0.7
		c0.1,0.2,0.2,0.5,0.4,0.7c0.2,0.2,0.3,0.4,0.5,0.5c0.4,0.3,0.7,0.6,1,0.9c0.3,0.3,0.5,0.5,0.7,0.6c0.2,0.1,0.3,0.2,0.3,0.2
		s-0.1-0.1-0.3-0.2c-0.2-0.1-0.4-0.4-0.7-0.6c-0.3-0.3-0.6-0.6-1-0.9c-0.2-0.2-0.4-0.3-0.5-0.5c-0.1-0.2-0.3-0.4-0.4-0.7
		c-0.1-0.2-0.1-0.5-0.2-0.8c0-0.3,0-0.5,0-0.7c0.1-0.5,0.2-0.9,0.3-1.3C55.3,59.6,55.6,59.1,55.7,59.2L55.7,59.2z"/>
</g>
<path fill="none" stroke="#D52328" stroke-width="1.435502e-002" stroke-miterlimit="10" d="M55.7,58.9c0,0-2,3.2,0.5,5.7"/>
<path fill="#D62228" d="M65.7,64.1c-0.4,0.2-0.9,0.3-1.4,0.2s-0.6-0.2-0.8-0.2c-0.2,0-0.6,0-0.6,0s0.3,0.3,0.5,0.6
	c0.2,0.3,0.7,0.6,1.4,0.5c0.8-0.1,1-0.4,1.2-0.5c0.2-0.2,0.5-0.8,0.5-0.8S66.1,63.9,65.7,64.1z M63.5,64.4L63.5,64.4L63.5,64.4
	l-0.1,0.1l0-0.1l-0.1,0l-0.1-0.1v0h0.1h0.1l0.1,0L63.5,64.4v-0.1V64.4z M64.5,64.6C64.5,64.6,64.5,64.6,64.5,64.6
	C64.5,64.6,64.5,64.6,64.5,64.6C64.5,64.6,64.5,64.6,64.5,64.6c0,0.1,0,0.1,0,0.1c0,0,0,0,0,0c0,0,0,0,0,0c0,0,0,0,0,0c0,0,0,0,0,0
	s0,0,0,0c0,0,0,0,0,0c0,0,0,0,0,0C64.5,64.7,64.5,64.7,64.5,64.6C64.5,64.6,64.5,64.6,64.5,64.6C64.5,64.6,64.5,64.6,64.5,64.6
	C64.5,64.6,64.5,64.6,64.5,64.6C64.5,64.5,64.5,64.5,64.5,64.6C64.5,64.5,64.5,64.5,64.5,64.6z M63.5,64.6
	C63.5,64.6,63.5,64.6,63.5,64.6C63.5,64.6,63.5,64.6,63.5,64.6C63.5,64.6,63.5,64.6,63.5,64.6C63.6,64.6,63.6,64.6,63.5,64.6
	c0-0.1,0-0.1,0-0.1c0,0,0,0,0,0c0,0,0,0,0,0c0,0,0,0,0,0s0,0,0,0c0,0,0,0,0,0c0,0,0,0,0,0C63.6,64.5,63.6,64.5,63.5,64.6
	C63.6,64.5,63.6,64.5,63.5,64.6C63.6,64.6,63.6,64.6,63.5,64.6C63.6,64.6,63.5,64.6,63.5,64.6z M63.8,64.7l-0.1,0.1L63.8,64.7
	l-0.2,0l0-0.2l-0.1,0.1l0.1-0.1l0.2-0.1l-0.1,0.2l0.2-0.1L63.8,64.7l0.2-0.2L63.8,64.7L63.8,64.7z M64,64.9v-0.2
	C64,64.8,64,64.8,64,64.9c-0.1,0-0.1-0.2,0-0.3l0.1-0.1L64,64.7l0.2-0.2l-0.1,0.3L64,64.9z M64.6,64.8L64.6,64.8l-0.2,0.1v-0.1
	l-0.1,0.1l0-0.1l-0.1,0.1l0-0.1l-0.1,0.1l0.1-0.2l0.1-0.1v0l0.1-0.1l-0.1,0.1l0.1,0l0,0.1c0,0,0.1,0,0.1-0.1c0-0.1,0-0.1,0-0.1
	L64.6,64.8z M65.3,64.6C65.3,64.6,65.3,64.6,65.3,64.6C65.3,64.5,65.3,64.5,65.3,64.6C65.3,64.5,65.3,64.5,65.3,64.6
	C65.3,64.5,65.4,64.5,65.3,64.6C65.4,64.5,65.4,64.5,65.3,64.6C65.4,64.5,65.4,64.5,65.3,64.6C65.4,64.5,65.4,64.5,65.3,64.6
	C65.4,64.5,65.3,64.5,65.3,64.6C65.3,64.5,65.3,64.6,65.3,64.6C65.3,64.6,65.3,64.6,65.3,64.6C65.3,64.6,65.3,64.6,65.3,64.6
	C65.3,64.6,65.3,64.6,65.3,64.6C65.3,64.6,65.3,64.6,65.3,64.6C65.3,64.6,65.3,64.6,65.3,64.6C65.3,64.6,65.3,64.6,65.3,64.6
	C65.3,64.6,65.3,64.6,65.3,64.6C65.3,64.6,65.3,64.6,65.3,64.6C65.3,64.6,65.3,64.6,65.3,64.6z M64.8,65.1
	C64.8,65.1,64.8,65.1,64.8,65.1C64.8,65.1,64.8,65.1,64.8,65.1c0-0.1,0-0.1,0-0.1c0,0,0,0,0-0.1c0,0,0-0.1,0-0.1c0,0,0-0.1,0-0.1
	c0,0,0-0.1,0-0.1c0,0,0-0.1,0-0.1c0,0,0,0,0,0s0,0,0,0c0,0,0,0,0,0.1c0,0.1,0,0.1,0,0.2c0,0,0,0.1,0,0.1c0,0,0,0,0,0.1
	C64.8,65,64.8,65,64.8,65.1C64.8,65.1,64.8,65.1,64.8,65.1C64.8,65.1,64.8,65.1,64.8,65.1C64.8,65.1,64.8,65.1,64.8,65.1
	C64.8,65.1,64.8,65.1,64.8,65.1z M65.3,64.7L65.3,64.7l-0.1,0c0,0,0,0,0,0.1c0,0-0.1,0-0.1,0l0,0.1l-0.1-0.1c0,0,0,0,0,0.1
	c0,0.1-0.1-0.1-0.1-0.1l0,0.1c0,0-0.1,0-0.1-0.3l0.1-0.1l0,0.1l0.1-0.1c0,0,0,0,0,0.1c0,0,0,0.1,0,0.1v-0.2l0,0.1l0-0.1l0.1-0.1
	l0,0.1l0-0.1l0.1,0.1h0l0.1,0.2L65.3,64.7z M65.4,64.8C65.4,64.8,65.4,64.8,65.4,64.8C65.4,64.8,65.4,64.7,65.4,64.8
	C65.4,64.7,65.4,64.7,65.4,64.8C65.4,64.7,65.4,64.7,65.4,64.8c-0.1-0.1-0.1-0.1-0.1-0.1c0,0,0,0,0,0c0,0,0,0,0,0c0,0,0,0,0,0
	c0,0,0,0,0,0c0,0,0,0,0,0c0,0,0,0,0,0s0,0,0,0c0,0,0,0,0,0c0,0,0,0,0,0c0,0,0,0,0,0c0,0,0,0,0,0c0,0,0,0,0,0c0,0,0,0,0,0
	C65.4,64.7,65.4,64.7,65.4,64.8C65.4,64.7,65.4,64.7,65.4,64.8C65.4,64.7,65.4,64.7,65.4,64.8C65.4,64.7,65.4,64.7,65.4,64.8
	C65.4,64.8,65.4,64.8,65.4,64.8C65.4,64.8,65.4,64.8,65.4,64.8z"/>
<g>
	<path fill="#ED1C24" d="M64.6,62.8c0,0,0,0.1-0.1,0.1c0,0,0,0.1-0.1,0.2c0,0,0,0.1,0,0.1c0,0,0,0.1,0,0.1c0.1,0.1,0.2,0.1,0.3,0
		c0.1,0,0.1-0.1,0.1-0.1c0,0,0,0.1-0.1,0.1c-0.1,0-0.2,0.1-0.3,0c0-0.1,0-0.1,0-0.2c0-0.1,0-0.1,0.1-0.1
		C64.6,62.9,64.6,62.8,64.6,62.8z"/>
</g>
<g>
	<path fill="#ED1C24" d="M65.2,58.8c0,0,0,0-0.1,0.1c-0.1,0.1,0,0.2-0.1,0.3c0,0.1,0,0.3,0,0.3c0,0.1,0,0.2,0,0.2s0-0.1,0-0.2
		c0-0.1,0-0.2,0-0.3c0-0.1,0-0.3,0.1-0.3C65.1,58.8,65.2,58.8,65.2,58.8z"/>
</g>
<g>
	<path fill="#D52328" d="M55.6,51.2c0,0-0.1,0.9-0.3,2.2c-0.1,0.3,0,0.7-0.2,1.1c-0.2,0.3-0.4,0.7-0.7,1c-0.5,0.6-1.2,1.3-1.8,1.9
		c-2.5,2.5-5.1,4.9-5.1,4.9s2.6-2.4,5.1-5c0.6-0.6,1.2-1.3,1.8-1.9c0.3-0.3,0.5-0.6,0.7-1c0.1-0.4,0.1-0.7,0.2-1.1
		C55.5,52.1,55.6,51.2,55.6,51.2z"/>
</g>
<path fill="#D62228" d="M56.9,54.8c0,0,0,2.1-2.9,5.6c-2.9,3.4-4.1,6-4.1,6L49.2,68c0,0,3.2-5,4.2-6.2c1-1.2,3.8-4.6,3.8-4.6
	S57.1,55.3,56.9,54.8z"/>
<g>
	<path fill="#D52328" d="M67.6,68.4c0,0,0.8-1.1,1.7-2.1c0.2-0.3,0.5-0.5,0.7-0.7c0.2-0.2,0.5-0.4,0.7-0.6c0.2-0.2,0.4-0.3,0.5-0.4
		c0.1-0.1,0.2-0.1,0.2-0.1s-0.1,0-0.2,0.1c-0.1,0.1-0.3,0.2-0.5,0.4c-0.2,0.2-0.4,0.4-0.6,0.6c-0.2,0.2-0.5,0.5-0.7,0.7
		C68.4,67.3,67.6,68.4,67.6,68.4z"/>
</g>
<g>
	<path fill="#D52328" d="M70.6,66.8c0,0,0.8-2.4,1.9-4.7c0.3-0.6,0.6-1.1,0.8-1.7c0.1-0.3,0.3-0.5,0.4-0.7c0.1-0.2,0.3-0.5,0.4-0.7
		c0.1-0.2,0.3-0.4,0.4-0.5c0.1-0.2,0.2-0.3,0.3-0.4c0.2-0.2,0.3-0.3,0.3-0.3s-0.1,0.1-0.3,0.4c-0.1,0.1-0.2,0.2-0.3,0.4
		c-0.1,0.2-0.2,0.3-0.4,0.5c-0.1,0.2-0.2,0.4-0.4,0.7c-0.1,0.2-0.3,0.5-0.4,0.7c-0.3,0.5-0.6,1.1-0.8,1.7
		C71.5,64.4,70.6,66.8,70.6,66.8z"/>
</g>
<g>
	<path fill="#D52328" d="M71.2,51.2c0,0,0.2,0.2,0.6,0.3c0.2,0.1,0.4,0.2,0.6,0.2c0.2,0,0.5,0,0.8,0c1-0.1,2.1-0.2,2.1-0.2
		s-1,0.2-2.1,0.3c-0.3,0-0.5,0-0.8,0c-0.2-0.1-0.5-0.1-0.6-0.2C71.4,51.4,71.2,51.2,71.2,51.2z"/>
</g>
<g>
	<path fill="#D52328" d="M70.9,54.6c0,0,0.1,0,0.2,0.1c0.1,0.1,0.3,0.2,0.5,0.3c0.2,0.1,0.4,0.2,0.7,0.3c0.3,0.1,0.5,0.1,0.8,0.2
		c0.3,0.1,0.6,0.1,0.8,0.2c0.3,0.1,0.5,0.1,0.7,0.2c0.1,0,0.2,0.1,0.3,0.1c0.1,0,0.1,0.1,0.2,0.1c0.1,0.1,0.1,0.2,0.1,0.1
		c0,0,0-0.1-0.1-0.1c-0.1,0-0.1-0.1-0.2-0.1c-0.1,0-0.2-0.1-0.3-0.1c-0.2-0.1-0.4-0.1-0.7-0.2c-0.3,0-0.5-0.1-0.8-0.1
		c-0.3-0.1-0.6-0.1-0.8-0.2c-0.3-0.1-0.5-0.2-0.7-0.3c-0.2-0.1-0.3-0.2-0.4-0.3C71,54.7,70.9,54.6,70.9,54.6z"/>
</g>
<g>
	<path fill="#D52328" d="M72.5,55.4c0,0-0.2,0-0.4,0.1c-0.1,0-0.3,0.1-0.4,0c-0.2,0-0.3,0-0.5,0c-0.2,0-0.3,0-0.5,0
		c-0.2,0-0.3,0.1-0.4,0.1c-0.2,0.1-0.4,0.2-0.4,0.2s0.2-0.1,0.4-0.2c0.1,0,0.3-0.1,0.4-0.1c0.1-0.1,0.3,0,0.5,0c0.2,0,0.3,0,0.5,0.1
		c0.2,0,0.3,0,0.4,0C72.4,55.4,72.5,55.4,72.5,55.4z"/>
</g>
<g>
	<path fill="#D52328" d="M62.3,66.6c0,0,0.2,0.4,0.3,0.9c0.1,0.2,0.1,0.4,0.1,0.6c0,0.1,0,0.2,0,0.2c0,0,0,0.1,0,0.1s0,0,0-0.1
		c0,0,0-0.1,0-0.2c0-0.2,0-0.4-0.1-0.6C62.5,67,62.3,66.6,62.3,66.6z"/>
</g>
<g>
	<path fill="#D52328" d="M58.9,67.7c0,0-0.6,0-1.5,0.1c-0.4,0-1,0.1-1.5,0.1c-0.6,0-1.2,0.1-1.7,0.2c-0.3,0.1-0.6,0.1-0.9,0.2
		c-0.3,0-0.6,0.1-0.9,0.1c-0.6,0.1-1.1,0-1.5-0.1C50,68.2,49.4,68,49.4,68s0.6,0.2,1.5,0.3c0.4,0,1,0.1,1.5,0c0.3,0,0.6-0.1,0.9-0.1
		c0.3-0.1,0.6-0.1,0.9-0.2c0.6-0.1,1.2-0.2,1.7-0.2c0.6-0.1,1.1-0.1,1.5-0.1C58.3,67.7,58.9,67.7,58.9,67.7z"/>
</g>
</svg>
