<?xml version="1.0" encoding="utf-8"?>
<!-- Generator: Adobe Illustrator 18.1.1, SVG Export Plug-In . SVG Version: 6.00 Build 0)  -->
<svg version="1.1" id="Слой_1" xmlns="http://www.w3.org/2000/svg" xmlns:xlink="http://www.w3.org/1999/xlink" x="0px" y="0px"
	 viewBox="0 0 120 120" enable-background="new 0 0 120 120" xml:space="preserve">
<path fill="none" stroke="#D62228" stroke-width="0.9851" stroke-miterlimit="5" d="M100.8,107.3c0,2.9-2.3,5.2-5.2,5.2H26.2
	c-2.9,0-5.2-2.3-5.2-5.2V16c0-2.9,2.3-5.2,5.2-5.2h69.4c2.9,0,5.2,2.3,5.2,5.2V107.3z"/>
<g>
	<path fill="none" stroke="#D52328" stroke-width="8.227846e-002" stroke-miterlimit="10" d="M82.9,43.4c0,0,1,4.7,1.2,6
		c0.2,1.3-0.1,4.5-0.4,5.7c-0.2,1.2-0.3,3.1-0.4,3.7c-0.1,0.6-0.2,3-1.9,5c-1.6,2.1-3.5,3.9-3.7,4.2c-0.2,0.3-2.1,3.2-5.3,3.6
		c-3.2,0.3-4.9-0.7-5.6-1.3c-0.7-0.6-4.5-4.3-5.2-4.7c-0.7-0.6-2.9-2.6-3.3-3.9c-0.4-1.3-0.4-2.3-1-4c-0.6-1.7-1.1-3.5-1.1-3.5"/>
	<path fill="#D62228" d="M75.1,62.4c-1-0.5-1.7-0.9-2.5-0.9s-1.5,0.6-1.7,0.6c-0.2,0-0.5-0.1-0.7-0.2c-0.3-0.1-0.6-0.2-1.1-0.1
		c-0.3,0-0.9,0.4-0.9,0.4s-1.4,0.9-1.7,1.3c-0.2,0.3-0.6,0.5-0.6,0.5s1,0,1.3,0c0.2,0,0.4,0,1-0.2c0.6-0.1,1.2-0.4,1.2-0.4
		s0.3,0,0.8-0.1c0.4-0.1,0.5-0.2,0.5-0.2s0.1,0,0.2,0c0,0,0.2-0.1,0.2-0.1s0.4,0,0.7,0c0.4,0,0.6-0.1,0.9-0.1s0.5,0.1,0.7,0.2
		c0.3,0.1,0.6,0.1,0.6,0.1s0.6,0.1,1,0.1c0.5,0,1-0.3,1-0.3S76,63,75.1,62.4z M68.1,63.7C68.1,63.6,68,63.6,68.1,63.7
		C68,63.6,68,63.5,68,63.5c0,0,0,0,0,0c0,0,0,0,0,0c0,0,0-0.1,0-0.1c0,0,0,0,0,0c0,0,0,0,0,0c0,0,0,0,0,0s0,0,0,0c0,0,0,0,0,0
		c0,0,0,0,0,0c0,0,0,0,0,0c0,0,0,0,0,0c0,0,0,0.1,0,0.1c0,0,0,0,0,0C68,63.5,68,63.6,68.1,63.7C68.1,63.6,68.1,63.6,68.1,63.7
		C68.1,63.7,68.1,63.7,68.1,63.7C68.1,63.7,68.1,63.7,68.1,63.7z M70.7,63C70.7,63,70.7,63,70.7,63c0,0.1,0,0.1,0,0.1
		S70.7,63.1,70.7,63C70.7,63,70.7,63,70.7,63c0-0.1,0-0.2,0-0.2c0,0,0,0,0-0.1c0,0,0,0,0-0.1c0,0,0,0,0-0.1c0,0,0,0,0-0.1
		c0,0,0,0,0,0c0,0,0,0,0,0c0,0,0,0,0,0s0,0,0,0c0,0,0,0,0,0c0,0,0,0,0,0c0,0,0,0.1,0,0.1c0,0,0,0.1,0,0.1c0,0,0,0.1,0,0.1
		C70.7,62.9,70.7,62.9,70.7,63z M71.2,62.5c0,0.1,0,0.2,0,0.3c0,0,0,0.1,0,0.1c0,0,0,0,0,0s0,0,0,0c0,0,0-0.1,0-0.1
		C71.2,62.7,71.2,62.6,71.2,62.5c0-0.1,0-0.2,0-0.3c0,0,0,0,0,0c0,0,0,0,0,0c0,0,0,0,0,0s0,0,0,0c0,0,0,0,0,0c0,0,0,0,0,0.1
		c0,0,0,0.1,0,0.1C71.2,62.4,71.2,62.5,71.2,62.5z M74.3,62.9C74.3,63,74.3,63,74.3,62.9c-0.1,0.1-0.1,0.1-0.1,0.1c0,0,0,0,0,0
		c0,0,0,0-0.1,0.1c0,0,0,0-0.1,0.1c0,0-0.1,0-0.1,0s0,0,0.1-0.1c0,0,0,0,0.1-0.1c0,0,0,0,0.1-0.1C74.2,63,74.2,63,74.3,62.9
		C74.2,63,74.2,63,74.3,62.9C74.3,62.9,74.3,62.9,74.3,62.9C74.3,62.9,74.3,62.9,74.3,62.9z"/>
	<g>
		<path fill="#D52328" d="M71.2,63.7c0,0,0.1,0,0.3,0c0.2,0,0.4,0,0.7-0.1c0.1,0,0.2-0.1,0.4-0.1c0.1-0.1,0.2-0.1,0.2-0.2
			c0.1-0.1,0.1-0.1,0.1-0.2c0-0.1,0-0.1,0-0.1s0,0,0,0.1c0,0.1,0,0.1-0.1,0.2c-0.1,0.1-0.1,0.2-0.2,0.2c-0.1,0-0.2,0.1-0.4,0.1
			c-0.3,0-0.5,0-0.7,0C71.3,63.7,71.2,63.7,71.2,63.7z"/>
	</g>
	<g>
		<path fill="#D52328" d="M68.7,63.8l0.6-0.1c0,0,0.1,0,0.1,0.1c0,0,0.1,0.1,0.1,0.1c0.1,0,0.2,0,0.3,0c0.4,0,0.8-0.1,1.2-0.1l0,0
			l0.1-0.3L71,63.8l0,0l0,0c-0.4,0-0.8,0.1-1.2,0.1c-0.1,0-0.2,0-0.3,0c-0.1,0-0.1-0.2-0.2-0.2L68.7,63.8z"/>
	</g>
	<g>
		<path fill="#D52328" d="M72.9,63.3c0,0,0,0.1,0,0.1c0,0,0.1,0,0.1,0c0.1,0,0.1,0,0.2,0c0.3,0,0.5,0,0.5,0s-0.3,0-0.5,0.1
			c-0.1,0-0.1,0-0.2,0l-0.1,0c0,0-0.1,0-0.1,0C72.9,63.4,72.9,63.3,72.9,63.3L72.9,63.3z"/>
	</g>
	<g>
		<path fill="#D52328" d="M73.2,56c0,0,0.1,0.2,0.3,0.6c0.2,0.3,0.5,0.8,0.7,1.3c0,0.1,0.1,0.3,0,0.4c0,0.1-0.1,0.3-0.2,0.3
			c-0.1,0.2-0.3,0.4-0.5,0.5c-0.3,0.2-0.5,0.4-0.5,0.4s0.2-0.1,0.5-0.4c0.2-0.1,0.3-0.3,0.5-0.5c0.1-0.1,0.1-0.2,0.1-0.3
			c0.1-0.1,0-0.3,0-0.4c-0.1-0.5-0.5-0.9-0.6-1.3C73.3,56.3,73.2,56,73.2,56z"/>
	</g>
	<g>
		<path fill="#D52328" d="M67.4,57.6c0,0-0.1,0.2-0.2,0.5c0,0.1-0.1,0.3-0.1,0.5c0,0.2,0,0.4,0.1,0.6c0.1,0.2,0.2,0.3,0.4,0.4
			c0.2,0.1,0.3,0.1,0.5,0.2c0.3,0.1,0.5,0.1,0.5,0.1s-0.2,0-0.5-0.1c-0.1,0-0.3-0.1-0.5-0.2c-0.2-0.1-0.3-0.2-0.4-0.4
			c-0.1-0.2-0.1-0.4,0-0.6c0-0.2,0.1-0.4,0.1-0.5C67.4,57.8,67.4,57.6,67.4,57.6z"/>
	</g>
	<g>
		<path fill="#D52328" d="M68,59.4c0,0,0.4-0.2,0.9-0.4c0.1,0,0.3,0,0.4,0c0.1,0.1,0.2,0.1,0.2,0.2c0.1,0.1,0.2,0.2,0.2,0.2
			s-0.1-0.1-0.3-0.2c-0.1-0.1-0.2-0.1-0.3-0.2c-0.1-0.1-0.2,0-0.3,0C68.5,59.2,68,59.4,68,59.4z"/>
	</g>
	<g>
		<path fill="#D52328" d="M70.3,59.8c0,0,0.2,0,0.5,0c0.3-0.1,0.7-0.3,1-0.6c0.2-0.2,0.3-0.3,0.4-0.5c0.1-0.1,0.4-0.2,0.5-0.2
			c0.3,0,0.5,0.1,0.5,0c0,0-0.2,0-0.5,0c-0.2,0-0.3,0.1-0.5,0.2c-0.1,0.1-0.3,0.3-0.4,0.5c-0.3,0.3-0.7,0.6-1,0.6
			C70.5,59.9,70.3,59.8,70.3,59.8z"/>
	</g>
	<path fill="#D52328" d="M72.2,58.7c0,0,0.4-0.1,0.6-0.2c0.1,0,0.4,0,0.4,0C73.3,58.4,72.4,58.3,72.2,58.7z"/>
	<path fill="#D52328" d="M69.5,59.2c0,0-0.2-0.2-0.3-0.2c-0.1,0-0.3,0-0.3,0L69.5,59.2z"/>
	<g>
		<path fill="#D52328" d="M68.7,68c0,0,0.4-0.1,0.9-0.2c0.3,0,0.6-0.1,1-0.2c0.4,0,0.7-0.1,1.1-0.1c0.4,0,0.8-0.1,1.1-0.1
			c0.4,0,0.7,0,1,0c0.6,0,1,0,1,0s-0.4,0-1,0c-0.3,0-0.6,0-1,0c-0.4,0-0.7,0.1-1.1,0.1c-0.4,0-0.8,0-1.1,0.1c-0.4,0.1-0.7,0.1-1,0.1
			C69.1,67.9,68.7,68,68.7,68z"/>
	</g>
	<g>
		<path fill="#D52328" d="M74.6,48.7c0,0-0.4,0.4-0.8,0.7c-0.1,0.1-0.2,0.2-0.3,0.2c-0.1,0.1-0.2,0.2-0.2,0.3
			c-0.1,0.2-0.1,0.3-0.1,0.3c0,0,0-0.1,0.1-0.3c0-0.1,0.1-0.2,0.2-0.3c0.1-0.1,0.2-0.2,0.3-0.3C74.2,49,74.6,48.6,74.6,48.7
			L74.6,48.7z"/>
	</g>
	<g>
		<path fill="#D52328" d="M73.3,50.3c0,0,0.1-0.1,0.2-0.2c0.1-0.1,0.1-0.1,0.2-0.2c0.1-0.1,0.2-0.2,0.4-0.2c0.1,0,0.3-0.1,0.5-0.1
			c0.2,0,0.4,0,0.5,0c0.4,0,0.8,0.1,1.2,0.1c0.4,0,0.8,0,1.1-0.1c0.2,0,0.3-0.1,0.5-0.2c0.2-0.1,0.3-0.1,0.4-0.2
			c0.3-0.1,0.5-0.3,0.6-0.4c0.1-0.1,0.2-0.2,0.2-0.2s-0.3,0.3-0.8,0.6c-0.1,0.1-0.3,0.1-0.4,0.2c-0.2,0.1-0.3,0.1-0.5,0.2
			c-0.4,0.1-0.8,0.1-1.2,0.1c-0.4,0-0.8-0.1-1.2-0.1c-0.2,0-0.4,0-0.5,0c-0.2,0-0.3,0.1-0.5,0.1c-0.1,0-0.2,0.1-0.4,0.2
			c-0.1,0.1-0.2,0.1-0.3,0.2C73.4,50.2,73.3,50.3,73.3,50.3z"/>
	</g>
	<g>
		<path fill="#D52328" d="M78.7,48.6c0,0-0.1,0.2-0.4,0.3c-0.1,0.1-0.3,0.2-0.5,0.3c-0.1,0.1-0.2,0.1-0.3,0.2l-0.3,0.1
			c-0.2,0.1-0.4,0.1-0.6,0.1c-0.2,0-0.4,0-0.6,0c-0.3,0-0.6-0.1-0.6-0.1s0.2,0,0.6,0c0.2,0,0.4,0,0.6,0c0.2,0,0.4-0.1,0.6-0.1
			l0.3-0.1c0.1-0.1,0.2-0.1,0.3-0.1c0.2-0.1,0.4-0.2,0.5-0.3C78.5,48.8,78.7,48.6,78.7,48.6z"/>
	</g>
	<path fill="none" stroke="#D52328" stroke-width="4.113923e-002" stroke-miterlimit="10" d="M74,49.4c0,0,0.1,0,0.2,0.1"/>
	<path fill="#D62228" d="M80.4,45.2c-0.6-0.3-1.3-0.3-1.9-0.4c0,0-0.1,0-0.1,0c-0.1,0-0.3,0.1-0.4,0.1c-0.1,0-0.2,0-0.3,0
		c0,0-0.1,0-0.1,0.1c-0.1,0.1-0.3,0.1-0.4,0.1c-0.3,0.1-0.6,0.2-0.9,0.3c0,0,0,0,0,0c0,0.1-0.1,0.1-0.2,0.1c-0.1,0-0.1,0-0.2,0.1
		c0,0.1-0.1,0.1-0.2,0.1c-0.1,0-0.1,0-0.2,0c-0.1,0.1-0.1,0.1-0.2,0.1c0,0,0,0,0,0c0,0,0,0,0,0c-0.1,0-0.1,0-0.1,0
		c-0.1,0-0.2,0.1-0.3,0.1c-0.1,0-0.1,0.1-0.2,0.1c-0.1,0-0.3,0-0.4,0.1c-0.1,0.1-0.2,0.1-0.3,0.1c0,0-0.1,0-0.1,0
		c-0.1,0.1-0.3,0.2-0.4,0.1c-0.1,0.2-0.3,0.1-0.4,0.1c0,0.1-0.1,0.1-0.1,0.1c0,0,0,0.1,0,0.1c0,0,0,0.1,0,0.1c-0.1,0-0.1,0-0.2,0.1
		c0,0.1,0,0.1,0,0.2c0.1-0.1,0.2-0.1,0.3-0.2c0,0.1-0.1,0.1-0.2,0.2c0.1,0,0.1,0,0.2,0c0,0,0,0,0,0l-0.3,0.2c0,0,0,0,0,0
		c0,0,0,0,0.1,0c0,0,0.1,0,0.1,0c0,0,0,0,0,0c0,0.1-0.1,0.1-0.1,0.2c0.2-0.1,0.4-0.1,0.5-0.2c0,0,0,0.1-0.1,0.1
		c0.2,0,0.2-0.3,0.3-0.2c0,0,0,0-0.1,0c0,0,0.1,0,0.1,0c0,0.1,0,0.1,0.1,0.2c0,0,0,0,0,0c0,0,0-0.1,0-0.1c0.1,0,0.1,0,0.1,0
		c0,0,0,0.1,0,0.1c0.1,0,0.3,0,0.4-0.1c0,0,0.1,0,0.1,0c0,0,0,0,0,0c0,0,0.1,0,0.1,0c0,0,0.1,0,0.1,0c0,0,0,0,0,0c0,0,0,0,0,0
		c0,0,0.1,0,0.1,0c0.1-0.1,0.2-0.1,0.3-0.1c0.1,0,0.2-0.1,0.3-0.1c0.1,0,0.2,0,0.2,0c0,0,0,0,0,0c0,0,0.1-0.1,0-0.1
		c0.1,0,1.8-0.4,1.8-0.5c0.3-0.1,1-0.4,1.9-0.5c0.7-0.1,1.2-0.1,1.3-0.1c0.1,0,0.6,0.3,0.8,0.2C81.4,45.9,80.7,45.4,80.4,45.2z
		 M74.7,47.2c0.2-0.1,0.3-0.1,0.4-0.1C74.9,47.1,74.8,47.2,74.7,47.2z"/>
	<path fill="#D62228" d="M80.4,48.4C80.4,48.4,80.4,48.4,80.4,48.4c0.1-0.1,0.1-0.1,0.1-0.2c0,0,0.1-0.1,0.1-0.1c0,0,0-0.1,0.1-0.1
		c0.2-0.2,0.3-0.4,0.3-0.7c-0.1,0.2-0.1,0.3-0.2,0.5c-0.1,0.1-0.2,0.3-0.3,0.4c-0.1,0.1-0.3,0.2-0.4,0.3l0,0
		c0.2-0.3,0.6-0.6,0.6-1.1c-0.1,0.1-0.1,0.2-0.1,0.3c0,0.1-0.1,0.2-0.2,0.2c0,0,0,0,0,0c0,0.2-0.3,0.3-0.4,0.4
		c0-0.1,0.1-0.2,0.2-0.2c0.1-0.1,0.1-0.2,0.2-0.3c-0.2,0.1-0.4,0.4-0.7,0.4c0.2-0.2,0.3-0.3,0.4-0.5c0.1-0.2,0.2-0.4,0.2-0.6
		c-0.1,0.2-0.2,0.4-0.3,0.6l0,0c0,0,0-0.1,0-0.2c-0.1,0.1-0.2,0.2-0.3,0.2c0,0,0,0,0-0.1l0,0c0,0.1-0.1,0.1-0.1,0.2
		c0.1-0.2,0.1-0.4,0.2-0.6c0.1-0.2,0.1-0.5,0-0.6c0,0.1,0,0.3-0.1,0.5c0,0,0,0,0,0c0-0.1,0-0.2,0-0.3c-0.1,0.3-0.1,0.6-0.3,0.8
		c-0.1,0-0.1-0.1,0-0.1c0-0.1,0.1-0.1,0.1-0.2c-0.1,0-0.2,0-0.2,0c0,0,0,0.1-0.1,0.2c0-0.1,0-0.1,0.1-0.1c0,0,0,0,0,0
		c-0.1,0-0.1,0.1-0.2,0.1c0.1-0.4,0.1-0.7,0-0.8c0,0.2,0,0.4-0.1,0.5c0,0,0,0,0,0c0-0.1,0-0.1,0-0.2c0-0.1,0-0.1-0.1-0.2
		c0,0,0,0,0,0c0.1,0.1,0,0.3-0.2,0.4c0-0.1,0-0.1,0.1-0.2c-0.1,0.1-0.1,0-0.1-0.1c0,0.1,0,0.2-0.1,0.2c0,0-0.1,0.1-0.1,0.1
		c0,0,0-0.1-0.1-0.1c0-0.1,0-0.1-0.1-0.1c0.1-0.1,0.1-0.3,0.2-0.4c0,0,0,0,0,0L78,47.1c0,0,0,0,0,0c0-0.1,0-0.3,0-0.4c0,0,0,0,0,0
		c0,0.1-0.1,0.3-0.1,0.4c-0.1-0.1-0.1-0.1-0.1-0.2c0,0-0.1,0.1-0.2,0.1c0-0.1,0-0.2,0-0.4c-0.1,0.1,0,0.2-0.1,0.3c0,0,0-0.1,0-0.1
		c0,0-0.1,0.1-0.1,0.1c0,0,0,0,0,0l0-0.1l0,0c0,0,0,0.1-0.1,0.1c0,0-0.1,0-0.1-0.1c0,0,0-0.1,0-0.2c0,0,0,0,0,0
		c0,0.1-0.1,0.1-0.1,0.2c0,0-0.1,0-0.1,0c0,0-0.1,0-0.1,0.1c0-0.1,0-0.1,0-0.2c0,0-0.1,0.1-0.1,0.1c0,0,0,0-0.1-0.1
		c0,0.1-0.1,0.1-0.1,0.2c-0.1,0.1-0.1-0.1-0.1-0.1c0,0,0,0.1-0.1,0.1l0,0c0,0,0-0.1,0-0.1c-0.1,0.1-0.2,0.1-0.2,0
		c-0.1,0.1-0.2,0-0.3,0.1c0,0.1,0,0.3,0,0.4c0,0,0,0,0,0c0,0.1,0,0.1,0,0.2c0,0,0,0,0,0c0,0,0-0.1-0.1-0.1c0,0,0,0,0-0.1
		c0,0,0,0,0,0c0-0.1,0-0.2,0-0.4c0,0,0,0,0,0c0,0,0,0.1-0.1,0.1c-0.1,0-0.1,0-0.2,0c0,0,0,0,0,0c0,0,0,0.1,0,0.1c0,0,0,0.1,0,0.1
		c0,0,0,0,0,0c0,0.1,0,0.1,0,0.2c-0.1,0-0.1-0.1-0.1-0.2c0,0,0,0,0,0c0,0,0-0.1,0-0.1c0,0,0,0,0-0.1c0,0,0,0-0.1,0c0,0,0,0,0,0
		c0,0.1,0,0.1,0,0.2c0,0,0,0,0,0c0,0.1,0,0.2,0,0.3c-0.1,0-0.1-0.1-0.2-0.2c0,0,0,0,0,0c0,0,0,0,0-0.1c0-0.1,0-0.1,0-0.2
		c0,0,0,0,0,0c0,0,0,0,0,0c0,0.1,0,0.1-0.1,0.2l0,0c0,0.1,0,0.2,0.1,0.2c-0.2,0-0.2,0.1-0.3,0.2c-0.1,0.1-0.2,0.2-0.3,0.3
		c0,0,0,0,0,0c0,0,0,0.1,0,0.1c0,0-0.1,0-0.1,0c0,0.1,0.1,0.1,0.1,0.2c-0.1,0-0.1,0-0.1,0c0,0.1-0.1,0.2-0.1,0.2
		C74.1,48.9,74,49,74,49.1c-0.1,0.1-0.1,0.1-0.2,0.1c0,0.1-0.1,0.2-0.1,0.3c0.1,0,0.2-0.1,0.2-0.2c0.1,0,0.2,0,0.2,0
		c0,0,0.1,0,0.1,0c0.1-0.1,0.1-0.3,0.2-0.4c0.1,0,0.1,0,0.2,0c0,0,0,0,0.1,0c0.2-0.1,0.2-0.2,0.2-0.3c0,0,0.1,0.1,0.1,0.1
		c0,0,0.1,0,0.2,0c0,0,0-0.1,0.1-0.1c0,0,0-0.1,0-0.1c0,0,0,0,0,0c0,0.1,0.1,0.2,0.1,0.3c0.1,0.4,0.4,0.7,0.8,0.8
		c0.1,0,0.1,0,0.2-0.1c-0.1,0-0.2,0-0.2,0c-0.1,0-0.1,0-0.1-0.1c0-0.1,0.1-0.2,0.1-0.3c0.1,0,0.1,0.1,0.2,0.1c0.1-0.1,0.2-0.1,0.3,0
		c0.1,0,0.1-0.1,0.2-0.1c0,0,0,0,0,0c0,0.1,0,0.1,0.1,0.2c0,0,0,0.1,0,0.1c0,0,0,0,0,0c0-0.1-0.1-0.1-0.1-0.2c0,0,0,0-0.1,0.1
		c0,0-0.1-0.1-0.1-0.1c0,0.1,0,0.2-0.1,0.2c0,0.1-0.1,0.1-0.1,0.2c0.2,0,0.6,0,0.8-0.2c0.5-0.4,0.4-0.9,0.5-0.9
		c0.2,0.1,0.4,0.1,0.5,0.4c0.1,0.1,0.1,0.1,0.2,0.1c0,0.2-0.1,0.3-0.1,0.5c0.1,0,0.1,0,0.2,0c0,0.2,0.2,0.1,0.3,0.2
		c0,0.1-0.1,0.1-0.1,0c-0.2-0.2-0.3-0.2-0.5,0c0.1,0,0.1,0,0.2,0c0,0,0,0,0,0c-0.1,0-0.1,0-0.2,0c-0.1,0-0.1,0-0.1,0.1
		c-0.2,0-0.2,0-0.2,0.1c-0.2,0-0.4,0-0.6,0.1c0.2,0.1,0.3,0.2,0.3,0.5c0,0,0,0,0,0c0-0.1,0-0.2,0-0.3l0,0c0,0,0.1,0.1,0.1,0.1
		c0,0,0,0,0,0c0,0,0-0.1,0-0.1c0.1,0,0.2,0,0.2,0.1c0.1,0.1,0.1,0.2,0.1,0.3c0,0,0,0,0,0c0,0,0,0,0-0.1c0,0,0.1,0,0.1,0.1
		c0-0.1,0-0.1-0.1-0.1c0,0,0-0.1-0.1-0.2c0.1,0,0.1,0.2,0.2,0.1c-0.1-0.1-0.1-0.2-0.2-0.3c0,0,0,0,0,0l0.2,0.2c0,0,0,0,0,0
		c0,0-0.1-0.1-0.1-0.1l0,0c0,0,0.1,0.1,0.1,0.1c0,0,0,0,0,0c-0.1-0.1-0.1-0.1-0.2-0.2c0.3-0.1,0.6,0.1,0.9,0.2c0,0,0,0,0,0
		c-0.1-0.1-0.2-0.2-0.2-0.2l0,0c0.1,0,0.1,0.1,0.2,0.1c0-0.3,0.1,0,0.2,0c0-0.1,0.1-0.1,0.1-0.2c0,0,0-0.1,0-0.1c0,0,0,0,0-0.1
		c0,0,0.1,0,0.1,0c0,0,0.1,0,0.1,0c0-0.1,0-0.2-0.1-0.2c0.1,0,0.1,0,0.1,0.1c0,0,0,0,0,0c-0.1,0-0.1-0.1-0.2-0.1
		c0.1,0,0.1-0.1,0.2-0.1c0.1,0,0.2,0,0.3,0c0.1,0,0.2,0,0.3,0c-0.1,0-0.1,0-0.2,0c0.1-0.2,0.3-0.2,0.4-0.3c-0.1,0-0.1,0-0.2,0
		c0.2-0.1,0.4-0.1,0.6-0.3c-0.1,0-0.2,0.1-0.3,0.1C80.4,48.6,80.4,48.5,80.4,48.4C80.4,48.5,80.4,48.5,80.4,48.4
		c0,0.1-0.1,0.1-0.2,0.2C80.2,48.5,80.3,48.5,80.4,48.4z M74.7,48.6C74.7,48.6,74.7,48.6,74.7,48.6c0-0.1,0-0.1,0-0.2
		c0,0,0.1,0,0.1,0.1C74.8,48.6,74.8,48.6,74.7,48.6z M75,48.4C74.9,48.3,75,48.3,75,48.4c0.1,0,0.1,0,0.1,0.1
		C75,48.5,75,48.5,75,48.4z M75.7,48.7C75.8,48.7,75.8,48.7,75.7,48.7c0,0.1-0.1,0.1-0.2,0.2C75.5,48.7,75.7,48.8,75.7,48.7z
		 M75.8,49.3L75.8,49.3c0,0,0-0.1,0-0.1c0,0,0.1,0,0.1,0L75.8,49.3C75.9,49.3,75.9,49.3,75.8,49.3z M75.8,49.1
		c-0.1,0-0.2-0.1-0.2-0.2c0.1,0,0.1,0.1,0.2,0.1c0,0,0,0,0,0c0,0,0-0.1,0-0.1c0,0,0.1,0,0.1,0c0,0,0,0,0,0
		C75.9,49,75.9,49.1,75.8,49.1z M76.5,48.7c-0.1,0-0.1,0-0.1,0c0-0.1,0-0.1-0.1-0.2c0,0,0,0,0,0c0,0.1-0.1,0.1-0.1,0.2
		c-0.1,0-0.3-0.3-0.2-0.4c0-0.1,0.2-0.1,0.2-0.1c0,0,0,0,0,0c0,0,0.1,0,0.1,0c0,0,0,0,0,0c0,0,0.1,0.1,0.1,0.1c0-0.1,0-0.1,0-0.1
		c0.1,0,0.2,0.2,0.2,0.3C76.7,48.6,76.6,48.6,76.5,48.7z M76.9,49.2c-0.1,0-0.1-0.1-0.1-0.1C76.9,49.1,76.9,49.1,76.9,49.2
		C77,49.1,77,49.1,76.9,49.2C77,49.2,77,49.2,76.9,49.2z M78.5,47.4c0.1-0.1,0.1-0.2,0.2-0.3C78.7,47.3,78.7,47.4,78.5,47.4z
		 M79.7,48.7c0.2-0.1,0.3-0.1,0.5-0.2c0,0,0,0,0,0C80,48.6,79.9,48.7,79.7,48.7z M80,48.4c0.1,0,0.2-0.1,0.3-0.1c0,0,0,0,0,0
		C80.2,48.4,80.1,48.5,80,48.4z"/>
	<path fill="#D52328" d="M75.8,50.2c0-0.2-0.1-0.3-0.1-0.4c0,0,0,0,0,0c0,0,0,0.1,0.1,0.1c0,0,0,0,0,0c0,0,0-0.1,0-0.1
		c0.1,0,0.1,0,0.2,0c0.1,0,0.1,0.1,0,0.1C75.9,50,75.8,50.1,75.8,50.2z"/>
	<path fill="#D52328" d="M76.5,50.3c0,0-0.1,0-0.2-0.1c0-0.1-0.1-0.2-0.1-0.3c0,0,0,0,0,0c0,0,0,0,0.1,0.1c0-0.1,0-0.1,0-0.1
		c0.1,0,0.1,0,0.1,0c0,0.1,0,0.1,0.1,0.2c0-0.1,0.1-0.1,0.1-0.2c0,0,0,0,0,0c0,0.1,0,0.1,0,0.2C76.5,50,76.5,50,76.5,50.3z"/>
	<path fill="#D52328" d="M76.8,49.9C76.9,50,77,50,77,50.1c0,0,0,0,0,0c0,0,0,0-0.1,0c0,0,0,0,0,0c0,0.1,0.1,0.1,0.1,0.2
		c0,0,0,0,0,0C76.9,50.2,76.8,50.1,76.8,49.9C76.8,49.9,76.8,49.9,76.8,49.9z"/>
	<path fill="#D52328" d="M75,49.9c0.1-0.1,0.2-0.1,0.3-0.2c0.1,0,0.1,0,0.1,0C75.2,49.8,75.1,49.9,75,49.9C75,49.9,75,49.9,75,49.9z
		"/>
	<path fill="#D52328" d="M75.5,49.8c0,0.1,0,0.2,0,0.3c0,0,0,0,0,0C75.4,50,75.4,49.9,75.5,49.8z"/>
	<path fill="#D52328" d="M75.3,50c0-0.1,0-0.1,0.1-0.2c0,0,0,0,0,0C75.3,49.9,75.3,50,75.3,50C75.3,50,75.3,50,75.3,50z"/>
	<g>
		<path fill="#D52328" d="M72.8,50c0,0,0.1-0.2,0.2-0.4c0.2-0.2,0.4-0.6,0.7-0.8c0.3-0.3,0.6-0.5,0.8-0.7c0.2-0.2,0.4-0.3,0.4-0.3
			l0.1,0.1c0,0-0.2,0.1-0.4,0.2c-0.3,0.1-0.6,0.4-0.9,0.6c-0.3,0.2-0.5,0.6-0.7,0.8C72.8,49.8,72.8,50,72.8,50z"/>
	</g>
	<path fill="#D62228" d="M77.3,33.2c0.3,0.3,2.8,5.1-0.8,10.3c-3.6,5.2-8.7,7.2-8.7,7.2s4.2-3.6,6.3-8.4c2.1-4.9,1.5-5.9,1.5-5.9
		s0,9.2-8.1,13.9s-8.6,2.6-8.6,2.6s-3.1,2.1-6.6,1.5c-3.5-0.6,2.1,0.6,4-2.1c1.9-2.8,1.4-7,1.2-10.3c-0.2-3.3,0.1,8.4-1.9,10
		s-2.3,3.4-0.8,4.1c1.5,0.7-11-2.7,2.2-20.1s-5.1,9.5-6.9,8.4c0,0-1.5-1.9-0.6-4.8s0.5-0.9-1.2-3s-2-4.2-0.9-7s2.9-3.6,2.9-3.6
		s-0.6,0.8,1.3-1.4c2.1-2.4,3.2-4.4,7.2-5.8c3.5-1.2,7.7,0,8.5,0c0.7,0-2.6-1.3-2.6-1.3s8.2-0.3,9.5,0.1c3,0.8,4,1.3,4.7,1.8
		c2.2,1.5,3,2.4,4.1,3.3c2.5,2.1,2.9,4.4,2.9,4.4s-0.8,1.4,0.9,3.5s2.7,2.2,2.7,2.2s0.3,2.1-0.7,3.1s0.2,1.4-2.1,2.7
		c-1.5,0.8-0.9,3.3-0.9,3.3l-0.8,0.8l0.2,0.8c0,0,0.9,0.6,1.8,1.9c0.9,1.4,0.9,4.3,0.1,6.5s-2.4,6-1.4,6.7c1,0.7,1.4-1.6,1.4-1.6
		s-0.1,4-2.1,0.8c-2.1-3.3,2.3-4.3,0.6-8.1c-1.7-3.8-2.2-5.8-2.2-5.8s-0.2,0.6-2-2C79.6,39.1,77.3,33.2,77.3,33.2z"/>
	<path fill="#D62228" d="M83.7,55.4c0,0,0.5,11.4,1.9,12.6c0.3,0.3,0,0.5-0.2,0.7c-0.2,0.3-0.5,0.7-0.5,0.7s-2.2-1.5-2.7-3.7
		c-0.5-2.2-0.5-2.2-0.5-2.2s0.9-0.7,1.5-3.6C83.4,58.7,83.5,57.1,83.7,55.4z"/>
	<g>
		<path fill="#D52328" d="M83.9,53.9c0,0,0.2,0,0.4-0.1c0.2-0.1,0.5-0.4,0.6-0.7c0.2-0.3,0.3-0.6,0.3-0.9c0-0.3,0.1-0.4,0.1-0.4
			s0,0.2,0,0.4c0,0.3-0.1,0.6-0.3,0.9c-0.2,0.3-0.4,0.6-0.7,0.7C84.1,53.9,83.9,53.9,83.9,53.9z"/>
	</g>
	<path fill="#D62228" d="M45.9,47.7c0,0-0.9,4.2-1.9,7c-1.4,3.9,1.6,8.2,5,12.1s2.5,4,3.8,5.2c0.5,0.5,2.4,2.4,2.4,2.4l2.6,0.3
		c0,0,0.7-0.5-5.5-8.3c-5.9-7.4-5.3-9.2-5.2-12.1C47.1,51.4,45.9,47.7,45.9,47.7z"/>
	<path fill="#D62228" d="M58.6,73.9c0,0,4.4-0.2-2.5-6.5s-8.9-7.6-8.7-10.3c0.1-2.8-0.5-8.4-0.8-9.7c-0.2-1.1,3.4-2.9,3.4-2.9
		s0.3,9.7,3.4,11.5c2.3,1.3,1.9,0.1,1.9,0.1s-0.2-0.2-1-0.7s-0.3-0.5-0.3-0.5l2.1-0.4c0,0,0.9,2.6,1.3,3.8c0.4,1.1,0.5,3,0.9,3.9
		c0.4,0.8,1.6,2,1.6,2s3.1,10.2,1.8,10.8c-1.4,0.6-3.2,0.2-3.9,0C57.1,74.6,58.6,73.9,58.6,73.9z"/>
	<path fill="#D62228" d="M49.2,61.3c0,0,7.8,10.2,7.5,11.7c-0.3,1.5,2,1.2,2,1.2S57.9,67.7,49.2,61.3z"/>
	<path fill="#D62228" d="M62,76.2c0,0,0.4-1.5,0-3.5"/>
	<g>
		<path fill="#D52328" d="M46.1,48.1c0,0-0.3,0.3-0.9,1c-0.5,0.6-1.3,1.6-2,2.8c-0.7,1.2-1.5,2.7-2,4.4c-0.5,1.7-0.7,3.6-0.2,5.4
			c0.3,0.9,0.7,1.7,1.2,2.5c0.5,0.8,1,1.5,1.6,2.2c0.3,0.3,0.6,0.7,0.9,1c0.3,0.3,0.6,0.6,0.9,0.9c0.6,0.5,1.2,1,1.8,1.4
			c1.2,0.8,2.2,1.4,2.9,1.8c0.7,0.4,1.2,0.5,1.2,0.5s-0.4-0.2-1.2-0.5c-0.7-0.4-1.8-0.9-2.9-1.8c-0.6-0.4-1.2-0.9-1.8-1.4
			c-0.3-0.3-0.6-0.6-0.9-0.9c-0.3-0.3-0.6-0.6-0.9-1c-0.6-0.7-1.1-1.4-1.6-2.2c-0.5-0.8-0.9-1.6-1.2-2.5c-0.6-1.8-0.4-3.8,0.1-5.5
			c0.5-1.7,1.3-3.2,2-4.4c1.5-2.4,2.9-3.8,2.9-3.8L46.1,48.1z"/>
	</g>
	<g>
		<path fill="#D52328" d="M44.9,49.8c0,0-0.8,1.2-1.7,3.3c-0.2,0.5-0.4,1.1-0.6,1.7c-0.2,0.6-0.3,1.3-0.4,1.9
			c-0.1,0.3-0.1,0.7-0.1,1c0,0.4,0,0.7,0,1.1c0,0.4,0,0.7,0.1,1.1c0.1,0.4,0.1,0.7,0.3,1.1c0.2,0.7,0.6,1.3,1,1.9
			c0.5,0.5,0.9,1.1,1.5,1.5c1,0.9,2,1.8,2.8,2.6c0.8,0.7,1.5,1.4,2,1.8c0.3,0.2,0.5,0.4,0.6,0.5c0.1,0.1,0.2,0.1,0.2,0.1
			s-0.1,0-0.2-0.1c-0.1-0.1-0.3-0.3-0.6-0.5c-0.5-0.4-1.2-1-2-1.7c-0.8-0.8-1.8-1.6-2.8-2.6c-0.5-0.5-1-1-1.5-1.5
			c-0.4-0.6-0.8-1.2-1-1.9c-0.2-0.3-0.2-0.7-0.3-1.1c-0.1-0.4-0.1-0.7-0.2-1.1c0-0.4-0.1-0.7,0-1.1c0-0.4,0-0.7,0.1-1.1
			c0.1-0.7,0.2-1.3,0.4-2c0.2-0.6,0.4-1.2,0.6-1.7c0.8-2.1,1.7-3.3,1.7-3.3L44.9,49.8z"/>
	</g>
	<path fill="none" stroke="#D52328" stroke-width="4.113923e-002" stroke-miterlimit="10" d="M45.1,49.1c0,0-5.6,9.1,1.3,16.3"/>
	<path fill="#D62228" d="M73.7,63.9c-1.3,0.7-2.6,0.9-3.9,0.7s-1.8-0.5-2.3-0.5c-0.5,0-1.7,0-1.7,0s0.8,1,1.4,1.8
		c0.7,0.9,2.1,1.6,4.1,1.5c2.2-0.2,2.9-1,3.4-1.5c0.5-0.6,1.4-2.3,1.4-2.3S74.9,63.3,73.7,63.9z M67.3,64.9l-0.1,0.3L67.1,65
		l-0.2,0.1l0-0.3l-0.1-0.1l-0.2-0.2v-0.1h0.2H67l0.1,0.1l-0.1,0.2l0.2-0.2V64.9z M70.3,65.3C70.3,65.3,70.3,65.3,70.3,65.3
		c0,0.1,0,0.1,0,0.2c0,0,0,0.1,0,0.1c0,0,0,0,0,0c0,0,0,0,0,0c0,0,0,0,0,0c0,0,0,0,0,0c0,0,0,0,0,0s0,0,0,0c0,0,0,0,0,0c0,0,0,0,0,0
		c0,0,0,0,0-0.1c0,0,0-0.1,0-0.1C70.3,65.4,70.3,65.4,70.3,65.3C70.3,65.4,70.3,65.3,70.3,65.3C70.3,65.3,70.3,65.2,70.3,65.3
		C70.3,65.2,70.3,65.3,70.3,65.3z M67.5,65.4C67.5,65.5,67.5,65.5,67.5,65.4C67.5,65.5,67.5,65.5,67.5,65.4
		C67.5,65.4,67.5,65.4,67.5,65.4c0-0.1,0-0.2,0.1-0.2c0,0,0-0.1,0.1-0.1c0,0,0.1-0.1,0.1-0.1c0,0,0.1-0.1,0.1-0.1
		c0-0.1,0.1-0.1,0.1-0.1s0,0-0.1,0.1c0,0,0,0.1-0.1,0.1c0,0,0,0.1-0.1,0.1c0,0,0,0,0,0.1c0,0,0,0,0,0.1
		C67.6,65.3,67.6,65.3,67.5,65.4C67.6,65.4,67.6,65.4,67.5,65.4z M68.4,65.7l-0.3,0.2l0.1-0.2l-0.3,0.1l0.1-0.5l-0.3,0.3l0.2-0.4
		l0.5-0.3L68,65.5l0.6-0.3l-0.1,0.3L69,65l-0.4,0.7L68.4,65.7z M68.9,66.4v-0.5c0,0-0.1,0-0.2,0.3c-0.1,0.3,0-0.5,0.2-0.8l0.3-0.3
		l-0.3,0.6l0.5-0.5L69,66.1L68.9,66.4z M70.4,66l-0.1,0.1L70,66.3v-0.2l-0.3,0.3l0-0.3l-0.2,0.2l0-0.3l-0.3,0.3l0.2-0.5l0.3-0.2v0.1
		l0.3-0.3l-0.2,0.3l0.3-0.1l0.1,0.2c0,0,0.2,0.1,0.3-0.2c0.1-0.3,0.1-0.3,0.1-0.3L70.4,66z M72.6,65.3
		C72.6,65.3,72.6,65.3,72.6,65.3C72.7,65.3,72.7,65.3,72.6,65.3c0-0.1,0-0.1,0-0.1c0,0,0,0,0,0c0,0,0,0,0,0s0,0,0,0c0,0,0,0,0,0
		C72.7,65.2,72.7,65.2,72.6,65.3C72.7,65.3,72.7,65.3,72.6,65.3C72.7,65.3,72.7,65.3,72.6,65.3C72.7,65.3,72.7,65.4,72.6,65.3
		C72.7,65.4,72.7,65.4,72.6,65.3C72.7,65.4,72.7,65.4,72.6,65.3c0,0.1,0,0.1,0,0.1S72.7,65.4,72.6,65.3
		C72.7,65.4,72.7,65.4,72.6,65.3C72.7,65.4,72.6,65.3,72.6,65.3C72.6,65.3,72.6,65.3,72.6,65.3z M71.1,66.9
		C71.1,66.9,71.1,66.9,71.1,66.9c0-0.1,0-0.2,0-0.2c0,0,0-0.1,0-0.1c0,0,0-0.1,0-0.1c0-0.1,0-0.2,0-0.3c0-0.1,0-0.2,0-0.3
		c0-0.1,0-0.2,0-0.3c0-0.1,0-0.2,0-0.2c0,0,0-0.1,0-0.1s0,0,0,0.1c0,0,0,0.1,0,0.2c0,0.2,0,0.4,0,0.6c0,0.1,0,0.2,0,0.3
		c0,0.1,0,0.1,0,0.1c0,0,0,0.1,0,0.1C71.1,66.7,71.1,66.8,71.1,66.9C71.1,66.9,71.1,66.9,71.1,66.9C71.1,67,71.1,67,71.1,66.9
		C71.1,67,71.1,67,71.1,66.9z M72.5,65.8l-0.1,0.1l-0.2-0.1c0,0-0.1,0-0.1,0.2c0,0.1-0.2,0-0.2,0l-0.1,0.3L71.6,66
		c0,0-0.1,0.1-0.1,0.4c0,0.2-0.2-0.3-0.2-0.3l0,0.3c0,0-0.2,0-0.2-0.8l0.2-0.2l0.1,0.2l0.2-0.2c0,0,0.1,0.1,0.1,0.2
		c0,0.1,0.1,0.4,0.1,0.4v-0.5l0.1,0.2l0.1-0.2l0.1-0.2l0.1,0.3l0.1-0.3l0.2,0.2h0.1l0.3,0.5L72.5,65.8z M72.9,65.9
		C72.9,65.9,72.9,65.9,72.9,65.9C72.8,65.9,72.8,65.8,72.9,65.9C72.8,65.8,72.8,65.8,72.9,65.9c-0.1-0.1-0.1-0.2-0.2-0.2
		c0,0,0-0.1-0.1-0.2c0,0,0-0.1,0-0.1c0,0,0-0.1,0-0.1c0,0,0,0,0-0.1c0,0,0,0,0-0.1c0,0,0-0.1-0.1-0.1c0,0,0,0,0,0s0,0,0,0
		c0,0,0,0,0.1,0.1c0,0,0,0,0,0.1c0,0,0,0,0,0.1c0,0,0,0.1,0,0.1c0,0,0,0.1,0,0.1c0,0,0,0.1,0,0.1c0,0,0,0.1,0,0.1c0,0,0,0.1,0.1,0.1
		C72.8,65.8,72.8,65.8,72.9,65.9C72.8,65.8,72.9,65.8,72.9,65.9C72.9,65.9,72.9,65.9,72.9,65.9C72.9,65.9,72.9,65.9,72.9,65.9z"/>
	<g>
		<path fill="#D52328" d="M70.5,60.3c0,0-0.1,0.2-0.2,0.4c0,0.1-0.1,0.3-0.2,0.4c0,0.1-0.1,0.2-0.1,0.2c0,0.1,0,0.2,0.1,0.2
			c0.3,0.2,0.7,0.2,0.9,0c0.3-0.1,0.2-0.4,0.2-0.4c0,0,0,0.2-0.2,0.4c-0.2,0.1-0.6,0.2-1,0c-0.1-0.1-0.1-0.2-0.1-0.3
			c0-0.1,0-0.2,0.1-0.3c0.1-0.2,0.1-0.3,0.2-0.4C70.4,60.4,70.5,60.3,70.5,60.3z"/>
	</g>
	<g>
		<path fill="#D52328" d="M72.2,48.7c0,0-0.1,0.1-0.2,0.4c-0.1,0.1-0.1,0.3-0.1,0.4c0,0.2,0,0.3-0.1,0.5c0,0.2,0,0.4,0,0.5
			c0,0.2,0,0.3,0,0.5c0,0.3,0.1,0.5,0.1,0.5s0-0.2-0.1-0.5c0-0.1-0.1-0.3-0.1-0.5c0-0.2,0-0.4,0-0.5c0-0.2,0-0.4,0.1-0.5
			c0-0.2,0.1-0.3,0.2-0.4C72.1,48.8,72.2,48.7,72.2,48.7z"/>
	</g>
	<g>
		<path fill="#D52328" d="M44.7,27.1c0,0-0.3,2.5-0.7,6.3c-0.1,0.5-0.1,1-0.2,1.5c-0.1,0.5,0,1.1-0.3,1.6c-0.5,1-1.3,1.9-2,2.8
			c-1.6,1.8-3.3,3.7-5.1,5.5c-3.6,3.6-7.3,7.2-10.1,9.8c-2.8,2.6-4.7,4.3-4.7,4.3s1.8-1.8,4.6-4.4c2.8-2.6,6.4-6.2,10-9.8
			c1.8-1.8,3.6-3.7,5.1-5.5c0.8-0.9,1.5-1.8,2-2.7c0.2-0.5,0.2-1,0.3-1.5c0.1-0.5,0.1-1,0.2-1.5C44.3,29.6,44.7,27.1,44.7,27.1z"/>
	</g>
	<path fill="#D62228" d="M48.6,37.4c0,0,0.1,6.1-8.3,16S28.6,70.5,28.6,70.5l-2.2,4.6c0,0,9.2-14.3,12-17.9
		C41.2,53.7,49.2,44,49.2,44S49.2,38.9,48.6,37.4z"/>
	<g>
		<path fill="#D52328" d="M79.2,76.2c0,0,0.6-0.8,1.5-2c0.9-1.2,2.2-2.7,3.5-4.1c0.6-0.7,1.4-1.4,2-2.1c0.6-0.7,1.3-1.2,1.9-1.7
			c0.6-0.5,1.1-0.8,1.5-1C89.8,65.1,90,65,90,65s-0.2,0.1-0.6,0.4c-0.3,0.3-0.9,0.6-1.4,1.1c-0.5,0.5-1.2,1-1.9,1.7
			c-0.6,0.7-1.3,1.3-2,2.1c-1.3,1.4-2.6,2.9-3.5,4.1C79.8,75.4,79.2,76.2,79.2,76.2z"/>
	</g>
	<g>
		<path fill="#D52328" d="M87.7,71.6c0,0,0.6-1.7,1.5-4.2c1-2.5,2.3-5.9,3.8-9.1c0.8-1.6,1.6-3.2,2.4-4.7c0.4-0.8,0.8-1.5,1.2-2.1
			c0.4-0.7,0.8-1.3,1.1-1.9c0.3-0.6,0.7-1.1,1-1.5c0.3-0.5,0.6-0.8,0.8-1.1c0.5-0.6,0.8-1,0.8-1s-0.3,0.4-0.7,1
			c-0.2,0.3-0.5,0.7-0.8,1.2c-0.3,0.5-0.7,1-1,1.5c-0.3,0.6-0.7,1.2-1.1,1.9c-0.4,0.7-0.8,1.4-1.2,2.1c-0.8,1.5-1.6,3.1-2.3,4.8
			c-1.5,3.3-2.9,6.6-3.9,9.1C88.4,69.9,87.7,71.6,87.7,71.6z"/>
	</g>
	<g>
		<path fill="#D52328" d="M89.3,27.1c0,0,0.6,0.4,1.6,0.9c0.3,0.1,0.5,0.2,0.8,0.4c0.3,0.1,0.6,0.2,1,0.3c0.3,0,0.7,0.1,1.1,0
			c0.4,0,0.7,0,1.1-0.1c3-0.2,5.9-0.7,5.9-0.7s-3,0.5-5.9,0.7c-0.4,0-0.7,0-1.1,0.1c-0.4,0-0.7,0-1.1-0.1c-0.3-0.1-0.7-0.2-1-0.3
			c-0.3-0.1-0.6-0.2-0.8-0.4C90,27.5,89.3,27.1,89.3,27.1z"/>
	</g>
	<g>
		<path fill="#D52328" d="M88.8,36.8c0,0,0.2,0.1,0.5,0.3c0.3,0.2,0.7,0.5,1.3,0.7c0.3,0.1,0.6,0.3,0.9,0.4c0.3,0.1,0.7,0.2,1.1,0.4
			c0.4,0.1,0.8,0.2,1.1,0.3c0.4,0.1,0.8,0.2,1.2,0.2c0.8,0.1,1.6,0.3,2.4,0.4c0.4,0.1,0.7,0.2,1.1,0.2c0.4,0.1,0.7,0.2,1,0.3
			c0.3,0.1,0.5,0.2,0.8,0.4c0.2,0.1,0.4,0.3,0.5,0.4c0.1,0.1,0.2,0.2,0.3,0.3c0.1,0.1,0.1,0.1,0.1,0.1s0-0.1-0.1-0.1
			c0-0.1-0.2-0.2-0.3-0.3c-0.2-0.1-0.3-0.2-0.5-0.3c-0.2-0.1-0.5-0.2-0.8-0.3c-0.3-0.1-0.6-0.2-1-0.3c-0.3-0.1-0.7-0.2-1.1-0.2
			c-0.8-0.1-1.6-0.2-2.4-0.3c-0.4-0.1-0.8-0.1-1.2-0.2c-0.4-0.1-0.8-0.2-1.2-0.3c-0.4-0.1-0.7-0.3-1.1-0.4c-0.3-0.1-0.6-0.3-0.9-0.4
			c-0.6-0.3-1-0.6-1.3-0.8C88.9,37,88.8,36.8,88.8,36.8z"/>
	</g>
	<g>
		<path fill="#D52328" d="M93.3,39c0,0-0.1,0-0.3,0.1c-0.2,0-0.5,0.1-0.9,0.2c-0.2,0-0.4,0.1-0.6,0.1c-0.2,0.1-0.4,0-0.7,0
			c-0.5,0-0.9-0.1-1.4-0.1c-0.2,0-0.5,0-0.7,0c-0.2,0-0.4,0.1-0.7,0.1c-0.4,0.1-0.8,0.3-1.2,0.4c-0.7,0.3-1.1,0.5-1.1,0.5
			s0.4-0.2,1.1-0.5c0.3-0.1,0.7-0.3,1.2-0.4c0.2-0.1,0.4-0.1,0.7-0.1c0.2,0,0.5,0,0.7,0c0.5,0,1,0.1,1.4,0.2c0.2,0,0.4,0,0.6,0
			c0.2,0,0.4-0.1,0.6-0.1C92.8,39.1,93.3,39,93.3,39z"/>
	</g>
	<g>
		<path fill="#D52328" d="M64.1,71.2c0,0,0.5,1.2,0.9,2.5c0.2,0.6,0.3,1.3,0.3,1.8c0,0.2,0,0.5-0.1,0.6c0,0.1-0.1,0.2-0.1,0.2
			s0-0.1,0.1-0.2c0-0.1,0.1-0.3,0.1-0.6c0-0.5-0.1-1.1-0.3-1.8C64.6,72.4,64.1,71.2,64.1,71.2z"/>
	</g>
	<g>
		<path fill="#D52328" d="M54.3,74.2c0,0-1.7,0-4.3,0.2c-1.3,0.1-2.8,0.2-4.4,0.3c-0.8,0.1-1.6,0.2-2.5,0.3
			c-0.8,0.1-1.7,0.2-2.5,0.4c-0.8,0.2-1.7,0.4-2.5,0.5c-0.8,0.1-1.6,0.4-2.4,0.4c-0.4,0-0.8,0-1.2,0.1c-0.4,0-0.8,0-1.1,0
			c-0.7,0-1.4-0.1-2.1-0.2c-0.6-0.1-1.2-0.2-1.7-0.3c-0.5-0.1-1-0.2-1.3-0.3c-0.7-0.2-1.1-0.3-1.1-0.3s0.4,0.1,1.1,0.3
			c0.4,0.1,0.8,0.2,1.3,0.3c0.5,0.1,1.1,0.2,1.7,0.3c0.6,0.1,1.3,0.2,2.1,0.2c0.4,0,0.7,0,1.1,0c0.4,0,0.8-0.1,1.2-0.1
			c0.8,0,1.6-0.2,2.4-0.4c0.8-0.2,1.7-0.4,2.5-0.5c0.8-0.1,1.7-0.2,2.5-0.3c0.8-0.1,1.7-0.2,2.5-0.2c1.6-0.1,3.1-0.2,4.4-0.3
			C52.6,74.2,54.3,74.2,54.3,74.2z"/>
	</g>
</g>
<path fill="none" stroke="#D62228" stroke-width="0.7702" stroke-miterlimit="10" d="M90.7,96.5c0.7,3.3-2.9,7.4-6.7,8.3
	c-3.3,0.7-8.1-0.4-9.5-3.8l-2.9-12.7c-1-4.4,2.8-8.5,6.6-9.3c4.4-1,8.7,1.9,9.4,5.3L90.7,96.5z"/>
<rect x="79" y="78.5" transform="matrix(0.976 -0.2178 0.2178 0.976 -16.4453 19.317)" fill="#D62228" width="0.8" height="11.6"/>
<path fill="#D62228" d="M80.3,88c-0.5,0.1-1.1-0.2-1.2-0.8l-0.7-3.2c-0.1-0.5,0.2-1.1,0.8-1.2s1.1,0.2,1.2,0.8l0.7,3.2
	C81.1,87.4,80.8,87.9,80.3,88z M79.3,83.6c-0.1,0-0.2,0.2-0.2,0.3l0.7,3.2c0,0.1,0.2,0.2,0.3,0.2c0.1,0,0.2-0.2,0.2-0.3l-0.7-3.2
	C79.5,83.7,79.4,83.6,79.3,83.6z"/>
</svg>
