<?xml version="1.0" encoding="utf-8"?>
<!-- Generator: Adobe Illustrator 18.1.1, SVG Export Plug-In . SVG Version: 6.00 Build 0)  -->
<svg version="1.1" id="Слой_1" xmlns="http://www.w3.org/2000/svg" xmlns:xlink="http://www.w3.org/1999/xlink" x="0px" y="0px"
	 viewBox="0 0 120 120" enable-background="new 0 0 120 120" xml:space="preserve">
<path fill="none" stroke="#D62228" stroke-width="0.6707" stroke-miterlimit="10" d="M11,55.2c0-1.1,0-2.2,0-3.4
	c0.7-1.7,1.1-3.5,2.1-5.1c1.3-2.1,3.2-3.5,5.9-3.1c2.3,0.4,2.9-0.1,3-2.5c0.1-4.2,0.2-8.5,0.3-12.7c0-2.2,0-4.4,0-6.9
	c7,0,13.6,0,20.2,0c1.5,0,1.7,1.1,1.4,2.3c-0.6,2.5,0.3,4.4,2,6c3.9,3.4,11.2,3.1,14.7-0.7c2.1-2.3,2.5-5.1,0.6-7.5
	c-3.5-4.3-0.8-8.5,3-10.1c1-0.4,2-0.7,3-1.1c1.1,0,2.2,0,3.4,0c1.1,0.4,2.1,0.7,3.1,1.1c3.1,1.4,4.6,4,4.1,6.9
	c-0.4,2.2,0.1,2.8,2.4,2.8c5.7,0,11.4,0,17.1-0.1c0.6,0,1.2,0,1.8,0c0.1,0.4,0.1,0.7,0.1,0.9c-0.2,6.4-0.3,12.8-0.5,19.1
	c0,1.7-0.7,2.2-2.4,1.9c-2.3-0.5-4.2,0.4-5.7,2.1c-3.3,3.6-3.7,10.3-0.8,14.2c2.2,3.1,5.5,3.7,8.4,1.3c3.7-3,7.5-1.6,9.4,2.5
	c0.5,1,0.8,2.1,1.2,3.1c0,1.1,0,2.2,0,3.4c-0.7,1.7-1.1,3.5-2.1,5.1c-1.3,2.1-3.2,3.5-5.9,3.1c-2.3-0.3-2.9,0.1-3,2.5
	c-0.1,4.2-0.2,8.4-0.3,12.6c0,2.3,0,4.5,0,7c-7,0-13.6,0-20.2,0c-1.4,0-1.7-1.1-1.4-2.3c0.6-2.5-0.3-4.5-2.2-6.1
	c-3.9-3.3-10.9-2.9-14.5,0.7c-2.2,2.3-2.6,5.2-0.7,7.6c3.4,4.2,1,8.3-2.9,10.1c-1,0.5-2.1,0.8-3.1,1.2c-1.1,0-2.2,0-3.4,0
	c-1.1-0.4-2.1-0.7-3.1-1.1c-3-1.3-4.6-3.9-4.1-6.7c0.4-2.5,0-3-2.6-3c-5.7,0-11.3,0-17,0.1c-0.6,0-1.2,0-1.8,0
	c-0.1-0.4-0.1-0.7-0.1-0.9c0.2-6.4,0.3-12.8,0.5-19.1c0-1.7,0.7-2.2,2.4-1.9c2.3,0.5,4.2-0.4,5.7-2.1c3.1-3.4,3.6-9.6,1.2-13.7
	c-2.2-3.6-5.6-4.3-8.9-1.7c-3.5,2.6-6.9,1.9-8.9-2C11.8,57.8,11.5,56.5,11,55.2z"/>
<g>
	<defs>
		<path id="SVGID_3_" d="M11,55.2c0-1.1,0-2.2,0-3.4c0.7-1.7,1.1-3.5,2.1-5.1c1.3-2.1,3.2-3.5,5.9-3.1c2.3,0.4,2.9-0.1,3-2.5
			c0.1-4.2,0.2-8.5,0.3-12.7c0-2.2,0-4.4,0-6.9c7,0,13.6,0,20.2,0c1.5,0,1.7,1.1,1.4,2.3c-0.6,2.5,0.3,4.4,2,6
			c3.9,3.4,11.2,3.1,14.7-0.7c2.1-2.3,2.5-5.1,0.6-7.5c-3.5-4.3-0.8-8.5,3-10.1c1-0.4,2-0.7,3-1.1c1.1,0,2.2,0,3.4,0
			c1.1,0.4,2.1,0.7,3.1,1.1c3.1,1.4,4.6,4,4.1,6.9c-0.4,2.2,0.1,2.8,2.4,2.8c5.7,0,11.4,0,17.1-0.1c0.6,0,1.2,0,1.8,0
			c0.1,0.4,0.1,0.7,0.1,0.9c-0.2,6.4-0.3,12.8-0.5,19.1c0,1.7-0.7,2.2-2.4,1.9c-2.3-0.5-4.2,0.4-5.7,2.1c-3.3,3.6-3.7,10.3-0.8,14.2
			c2.2,3.1,5.5,3.7,8.4,1.3c3.7-3,7.5-1.6,9.4,2.5c0.5,1,0.8,2.1,1.2,3.1c0,1.1,0,2.2,0,3.4c-0.7,1.7-1.1,3.5-2.1,5.1
			c-1.3,2.1-3.2,3.5-5.9,3.1c-2.3-0.3-2.9,0.1-3,2.5c-0.1,4.2-0.2,8.4-0.3,12.6c0,2.3,0,4.5,0,7c-7,0-13.6,0-20.2,0
			c-1.4,0-1.7-1.1-1.4-2.3c0.6-2.5-0.3-4.5-2.2-6.1c-3.9-3.3-10.9-2.9-14.5,0.7c-2.2,2.3-2.6,5.2-0.7,7.6c3.4,4.2,1,8.3-2.9,10.1
			c-1,0.5-2.1,0.8-3.1,1.2c-1.1,0-2.2,0-3.4,0c-1.1-0.4-2.1-0.7-3.1-1.1c-3-1.3-4.6-3.9-4.1-6.7c0.4-2.5,0-3-2.6-3
			c-5.7,0-11.3,0-17,0.1c-0.6,0-1.2,0-1.8,0c-0.1-0.4-0.1-0.7-0.1-0.9c0.2-6.4,0.3-12.8,0.5-19.1c0-1.7,0.7-2.2,2.4-1.9
			c2.3,0.5,4.2-0.4,5.7-2.1c3.1-3.4,3.6-9.6,1.2-13.7c-2.2-3.6-5.6-4.3-8.9-1.7c-3.5,2.6-6.9,1.9-8.9-2C11.8,57.8,11.5,56.5,11,55.2
			z"/>
	</defs>
	<clipPath id="SVGID_2_">
		<use xlink:href="#SVGID_3_"  overflow="visible"/>
	</clipPath>
	<path clip-path="url(#SVGID_2_)" fill="none" stroke="#ED1C24" stroke-width="0.1086" stroke-miterlimit="10" d="M78.8,48.9
		c0,0,1.3,6.2,1.6,7.9c0.3,1.7-0.2,6-0.5,7.5s-0.4,4.1-0.5,4.9c-0.1,0.8-0.3,3.9-2.5,6.7c-2.1,2.7-4.7,5.2-4.9,5.6s-2.8,4.3-7.1,4.7
		s-6.5-0.9-7.4-1.7s-6-5.6-6.8-6.3c-1-0.7-3.8-3.5-4.4-5.2c-0.5-1.7-0.6-3-1.4-5.2c-0.8-2.2-1.5-4.6-1.5-4.6"/>
	<path clip-path="url(#SVGID_2_)" fill="#D62228" d="M68.5,74c-1.3-0.7-2.3-1.2-3.3-1.2c-1,0-2,0.8-2.3,0.8c-0.3,0-0.7-0.2-0.9-0.3
		c-0.4-0.1-0.8-0.3-1.5-0.2c-0.4,0.1-1.2,0.6-1.2,0.6s-1.8,1.2-2.2,1.7c-0.3,0.4-0.8,0.6-0.8,0.6s1.3,0.1,1.7,0
		c0.3,0,0.5-0.1,1.4-0.2c0.8-0.2,1.6-0.6,1.6-0.6s0.4,0,1.1-0.1c0.5-0.1,0.7-0.3,0.7-0.3s0.2,0,0.3,0c0.1,0,0.3-0.1,0.3-0.1
		s0.5,0.1,1,0.1c0.5,0,0.8-0.1,1.2-0.1s0.6,0.2,1,0.3c0.4,0.1,0.8,0.1,0.8,0.1s0.7,0.1,1.4,0.2c0.7,0.1,1.3-0.4,1.3-0.4
		S69.8,74.8,68.5,74z M59.2,75.7C59.2,75.6,59.2,75.6,59.2,75.7c-0.1-0.1-0.1-0.1-0.2-0.2c0,0,0,0,0-0.1c0,0,0,0,0-0.1
		c0,0,0-0.1,0-0.1c0,0,0,0,0,0c0,0,0,0,0,0c0,0,0,0,0,0s0,0,0,0c0,0,0,0,0,0c0,0,0,0,0,0c0,0,0,0,0,0c0,0,0,0,0,0.1
		c0,0,0,0.1,0.1,0.1c0,0,0,0,0,0.1c0,0,0,0,0,0.1C59.2,75.6,59.3,75.6,59.2,75.7C59.3,75.7,59.3,75.7,59.2,75.7
		C59.3,75.7,59.3,75.7,59.2,75.7z M62.7,74.8c0,0,0,0.1,0,0.1c0,0,0,0,0,0s0,0,0,0C62.7,74.8,62.7,74.8,62.7,74.8
		c0-0.1-0.1-0.2-0.1-0.3c0,0,0-0.1,0-0.1c0,0,0-0.1,0-0.1c0,0,0-0.1,0-0.1c0,0,0,0,0-0.1c0,0,0,0,0-0.1c0,0,0,0,0,0c0,0,0,0,0,0
		s0,0,0,0c0,0,0,0,0,0c0,0,0,0,0,0.1c0,0,0,0.1,0,0.2c0,0.1,0,0.1,0,0.2c0,0.1,0,0.1,0,0.2C62.7,74.7,62.7,74.7,62.7,74.8z
		 M63.4,74.2c0,0.1,0,0.3,0,0.4c0,0,0,0.1,0,0.1c0,0,0,0,0,0s0,0,0,0c0,0,0-0.1,0-0.1C63.4,74.4,63.4,74.3,63.4,74.2
		c-0.1-0.1,0-0.3,0-0.4c0,0,0,0,0-0.1c0,0,0,0,0-0.1c0,0,0,0,0,0s0,0,0,0c0,0,0,0,0,0.1c0,0,0,0,0,0.1c0,0,0,0.1,0,0.2
		C63.4,74.1,63.4,74.1,63.4,74.2z M67.4,74.7C67.4,74.8,67.4,74.8,67.4,74.7c-0.1,0.1-0.1,0.1-0.1,0.1c0,0,0,0,0,0
		c0,0-0.1,0.1-0.1,0.1c0,0-0.1,0-0.1,0.1c-0.1,0-0.1,0.1-0.1,0.1s0,0,0.1-0.1c0,0,0.1-0.1,0.1-0.1c0,0,0.1-0.1,0.1-0.1
		c0,0,0.1-0.1,0.1-0.1C67.4,74.8,67.4,74.7,67.4,74.7c0-0.1,0-0.1,0-0.1S67.5,74.7,67.4,74.7z"/>
	<g clip-path="url(#SVGID_2_)">
		<path fill="#ED1C24" d="M63.4,75.7c0,0,0,0,0.1,0c0.1,0,0.2,0,0.3,0c0.2,0,0.6,0,0.9-0.1c0.2,0,0.3-0.1,0.5-0.1
			c0.1,0,0.1-0.1,0.2-0.1c0.1,0,0.1-0.1,0.1-0.1c0.1-0.1,0.1-0.2,0.1-0.3c0-0.1,0-0.1,0-0.1s0,0,0,0.1c0,0.1,0,0.2-0.1,0.3
			c0,0.1-0.1,0.1-0.1,0.2c-0.1,0-0.1,0.1-0.2,0.1c-0.1,0-0.3,0.1-0.5,0.1c-0.3,0-0.7,0.1-0.9,0.1c-0.1,0-0.2,0-0.3,0
			C63.4,75.7,63.4,75.7,63.4,75.7z"/>
	</g>
	<g clip-path="url(#SVGID_2_)">
		<path fill="#ED1C24" d="M60.1,75.9l0.8-0.2c0.1,0,0.1,0,0.2,0.1c0,0.1,0.1,0.1,0.1,0.1c0.1,0,0.3,0,0.4,0c0.5,0,1.1-0.1,1.6-0.1
			l0,0l0.1-0.4l-0.1,0.4l0,0l0,0c-0.5,0-1.1,0.1-1.6,0.1c-0.1,0-0.3,0-0.4,0c-0.1-0.1-0.1-0.3-0.3-0.2L60.1,75.9z"/>
	</g>
	<g clip-path="url(#SVGID_2_)">
		<path fill="#ED1C24" d="M65.6,75.2c0,0,0,0.1,0.1,0.2c0,0.1,0.1,0,0.2,0c0.1,0,0.2,0,0.2,0c0.3,0,0.7-0.1,0.7-0.1s-0.3,0-0.7,0.1
			c-0.1,0-0.2,0-0.2,0c0,0-0.1,0-0.1,0c0,0-0.1,0-0.1,0C65.6,75.3,65.6,75.2,65.6,75.2L65.6,75.2z"/>
	</g>
	<g clip-path="url(#SVGID_2_)">
		<path fill="#ED1C24" d="M66,65.6c0,0,0.2,0.3,0.4,0.7c0.3,0.5,0.7,1,0.9,1.7c0.1,0.3,0,0.7-0.2,1c-0.2,0.3-0.4,0.5-0.6,0.6
			c-0.4,0.3-0.7,0.5-0.7,0.5s0.3-0.2,0.7-0.5c0.2-0.2,0.4-0.4,0.6-0.6c0.2-0.3,0.3-0.6,0.2-0.9c-0.2-0.7-0.6-1.2-0.9-1.7
			C66.2,65.9,66,65.6,66,65.6z"/>
	</g>
	<g clip-path="url(#SVGID_2_)">
		<path fill="#ED1C24" d="M58.4,67.7c0,0-0.1,0.2-0.2,0.6c-0.1,0.2-0.1,0.4-0.1,0.7c0,0.1,0,0.2,0,0.4c0,0.1,0,0.3,0.1,0.4
			c0.1,0.2,0.3,0.4,0.5,0.5c0.2,0.1,0.4,0.2,0.6,0.2c0.4,0.1,0.6,0.1,0.6,0.1s-0.3,0-0.7-0.1c-0.2,0-0.4-0.1-0.6-0.2
			c-0.2-0.1-0.4-0.3-0.5-0.5c-0.1-0.1,0-0.3-0.1-0.4c0-0.1,0-0.3,0-0.4c0-0.2,0.1-0.5,0.2-0.7C58.3,67.9,58.4,67.7,58.4,67.7z"/>
	</g>
	<g clip-path="url(#SVGID_2_)">
		<path fill="#ED1C24" d="M59.2,70c0,0,0.6-0.3,1.2-0.5c0.2,0,0.4-0.1,0.5,0.1c0.1,0.1,0.2,0.2,0.3,0.3c0.2,0.2,0.3,0.3,0.3,0.3
			s-0.1-0.1-0.3-0.2c-0.1-0.1-0.2-0.2-0.3-0.3c-0.1-0.1-0.3-0.1-0.4,0C59.8,69.7,59.2,70,59.2,70z"/>
	</g>
	<g clip-path="url(#SVGID_2_)">
		<path fill="#ED1C24" d="M62.1,70.6c0,0,0.3,0.1,0.7,0c0.4-0.1,0.9-0.4,1.3-0.8c0.2-0.2,0.4-0.4,0.6-0.6c0.2-0.2,0.5-0.3,0.7-0.3
			c0.4,0,0.7,0.1,0.7,0.1c0,0-0.3-0.1-0.7,0c-0.2,0-0.5,0.1-0.6,0.3c-0.2,0.2-0.4,0.4-0.6,0.6c-0.4,0.4-0.9,0.8-1.3,0.8
			C62.4,70.7,62.1,70.6,62.1,70.6z"/>
	</g>
	<path clip-path="url(#SVGID_2_)" fill="#D62228" d="M64.7,69.2c0,0,0.5-0.2,0.8-0.2c0.1,0,0.5,0,0.5-0.1
		C66.1,68.8,65,68.6,64.7,69.2z"/>
	<path clip-path="url(#SVGID_2_)" fill="#D62228" d="M61.1,69.8c0,0-0.2-0.3-0.4-0.3c-0.1,0-0.4,0-0.4,0L61.1,69.8z"/>
	<g clip-path="url(#SVGID_2_)">
		<path fill="#ED1C24" d="M60.1,81.4c0,0,0.5-0.1,1.2-0.2c0.7-0.1,1.8-0.3,2.8-0.4c0.5,0,1-0.1,1.5-0.1c0.5,0,0.9,0,1.3,0
			c0.8,0.1,1.3,0.1,1.3,0.1s-0.5,0-1.3-0.1c-0.4,0-0.8,0-1.3,0c-0.5,0-1,0.1-1.5,0.1c-1,0.1-2,0.2-2.8,0.3
			C60.6,81.3,60.1,81.4,60.1,81.4z"/>
	</g>
	<g clip-path="url(#SVGID_2_)">
		<path fill="#ED1C24" d="M67.9,55.9c0,0-0.1,0.1-0.3,0.3c-0.2,0.2-0.5,0.4-0.7,0.6c-0.1,0.1-0.3,0.2-0.4,0.3
			c-0.1,0.1-0.3,0.2-0.3,0.3C66,57.7,66,57.9,66,57.9c0,0,0-0.2,0.1-0.4c0-0.1,0.2-0.2,0.3-0.3c0.1-0.1,0.3-0.2,0.4-0.3
			c0.3-0.2,0.5-0.4,0.7-0.6C67.7,56,67.8,55.9,67.9,55.9L67.9,55.9z"/>
	</g>
	<g clip-path="url(#SVGID_2_)">
		<path fill="#ED1C24" d="M66.2,58c0,0,0.1-0.1,0.2-0.3c0.1-0.1,0.2-0.2,0.3-0.3c0.1-0.1,0.3-0.2,0.5-0.3c0.4-0.2,0.8-0.2,1.3-0.1
			c0.5,0.1,1,0.1,1.5,0.2c0.5,0,1,0,1.5-0.1c0.2-0.1,0.4-0.2,0.7-0.2c0.2-0.1,0.4-0.1,0.6-0.3c0.3-0.2,0.6-0.4,0.8-0.5
			c0.2-0.1,0.3-0.2,0.3-0.2s-0.3,0.4-1,0.8c-0.2,0.1-0.4,0.2-0.6,0.3c-0.2,0.1-0.4,0.2-0.7,0.3c-0.5,0.1-1,0.2-1.5,0.2
			c-0.5,0-1-0.1-1.5-0.2c-0.5-0.1-0.9-0.1-1.3,0.1c-0.4,0.1-0.6,0.3-0.8,0.5C66.3,57.9,66.2,58,66.2,58z"/>
	</g>
	<g clip-path="url(#SVGID_2_)">
		<path fill="#ED1C24" d="M73.2,55.8c0,0-0.1,0-0.2,0.1c-0.1,0.1-0.2,0.2-0.4,0.3c-0.2,0.1-0.4,0.2-0.7,0.4
			c-0.1,0.1-0.2,0.1-0.4,0.2L71.2,57c-0.3,0.1-0.6,0.1-0.9,0.2c-0.3,0-0.5,0-0.8,0c-0.4,0-0.7-0.1-0.7-0.1s0.3,0,0.7,0
			c0.2,0,0.5,0,0.7,0c0.3,0,0.6-0.1,0.8-0.2l0.4-0.1c0.1-0.1,0.3-0.1,0.4-0.2c0.2-0.1,0.5-0.2,0.7-0.3C73,56,73.2,55.8,73.2,55.8z"
			/>
	</g>
	<path clip-path="url(#SVGID_2_)" fill="none" stroke="#ED1C24" stroke-width="5.428250e-002" stroke-miterlimit="10" d="M67,56.9
		c0,0,0.2,0,0.3,0.2"/>
	<path clip-path="url(#SVGID_2_)" fill="#D62228" d="M75.5,51.4c-0.9-0.4-1.7-0.4-2.6-0.5c0,0-0.1,0-0.1,0c-0.2,0.1-0.4,0.1-0.5,0.2
		c-0.1,0-0.3,0-0.4,0.1c0,0-0.1,0.1-0.1,0.1c-0.2,0.1-0.4,0.1-0.5,0.2c-0.4,0.1-0.7,0.3-1.2,0.4c0,0-0.1,0-0.1,0
		c0,0.1-0.1,0.1-0.2,0.1c-0.1,0-0.2,0-0.2,0.1c-0.1,0.1-0.1,0.1-0.2,0.1c-0.1,0-0.2,0-0.2,0.1c-0.1,0.1-0.1,0.1-0.2,0.1c0,0,0,0,0,0
		c0,0,0,0,0,0.1c-0.1,0-0.1,0-0.2,0c-0.1,0.1-0.3,0.1-0.4,0.2c-0.1,0.1-0.2,0.1-0.3,0.1c-0.2,0-0.4,0.1-0.5,0.2
		c-0.1,0.1-0.2,0.2-0.4,0.1c0,0-0.1,0-0.1,0c-0.2,0.1-0.4,0.2-0.6,0.2c-0.1,0.2-0.3,0.2-0.5,0.2c0,0.1-0.1,0.1-0.1,0.2
		c0,0.1,0,0.1,0,0.1c0,0,0,0.1,0,0.1c-0.1,0-0.2,0.1-0.3,0.1c0,0.1,0,0.2-0.1,0.2c0.2-0.1,0.3-0.1,0.5-0.2c0,0.2-0.2,0.2-0.3,0.2
		c0.1,0,0.2,0,0.2,0c0,0,0,0,0,0l-0.4,0.2c0,0,0,0,0,0c0,0,0.1,0,0.1,0c0,0,0.1,0,0.1-0.1c0,0,0,0,0,0c-0.1,0.1-0.1,0.2-0.2,0.2
		c0.2-0.1,0.5-0.2,0.7-0.3c0,0-0.1,0.1-0.1,0.1c0.2,0,0.2-0.3,0.5-0.3c0,0,0,0-0.1,0c0,0,0.1,0,0.1-0.1c0,0.1,0.1,0.1,0.1,0.2
		c0,0,0,0,0,0c0,0,0-0.1,0-0.1c0.1,0,0.1,0,0.2,0c0,0,0,0.1-0.1,0.1c0.2,0,0.3-0.1,0.5-0.1c0,0,0.1,0,0.1,0c0,0,0,0,0,0
		c0.1-0.1,0.1-0.1,0.2,0c0,0,0.1,0,0.1,0c0,0,0,0,0,0c0,0,0,0,0.1,0c0.1,0,0.1,0,0.1,0c0.1-0.1,0.2-0.1,0.4-0.2
		c0.1-0.1,0.2-0.1,0.4-0.2c0.1,0,0.2,0,0.3-0.1c0,0,0,0,0,0c0.1,0,0.1-0.1,0-0.2c0.1,0,2.3-0.6,2.4-0.6c0.4-0.1,1.3-0.5,2.5-0.7
		c0.9-0.1,1.5-0.2,1.7-0.1c0.1,0.1,0.8,0.3,1,0.2C76.8,52.2,75.9,51.6,75.5,51.4z M68,54c0.2-0.1,0.3-0.2,0.5-0.2
		C68.3,53.9,68.1,53.9,68,54z"/>
	<path clip-path="url(#SVGID_2_)" fill="#D62228" d="M75.5,55.6C75.5,55.5,75.5,55.5,75.5,55.6c0.1-0.1,0.1-0.2,0.1-0.2
		c0-0.1,0.1-0.1,0.1-0.2c0-0.1,0.1-0.1,0.1-0.2c0.2-0.3,0.4-0.5,0.3-0.9c-0.1,0.2-0.2,0.4-0.3,0.6c-0.1,0.2-0.3,0.3-0.4,0.5
		c-0.2,0.1-0.4,0.2-0.6,0.3l0,0c0.3-0.5,0.8-0.8,0.7-1.4c-0.1,0.1-0.1,0.3-0.2,0.4c0,0.1-0.1,0.2-0.3,0.3c0,0-0.1,0-0.1,0.1
		c-0.1,0.3-0.3,0.4-0.5,0.5c0-0.2,0.2-0.2,0.2-0.2c0.1-0.2,0.2-0.3,0.2-0.4c-0.3,0.2-0.5,0.5-0.9,0.6c0.2-0.2,0.4-0.4,0.6-0.6
		c0.2-0.2,0.3-0.5,0.3-0.8c-0.1,0.3-0.3,0.5-0.4,0.8l-0.1,0c0-0.1,0-0.1,0.1-0.2c-0.1,0.1-0.2,0.2-0.3,0.3c0,0,0-0.1,0-0.1l0,0
		c0,0.1-0.1,0.1-0.2,0.2c0.1-0.3,0.2-0.5,0.3-0.8c0.1-0.3,0.1-0.7,0-0.8c0,0.2-0.1,0.4-0.1,0.6c0,0,0,0,0,0c0-0.1,0-0.2,0-0.4
		c-0.2,0.4-0.1,0.8-0.4,1c-0.1-0.1-0.1-0.1,0-0.2c0.1-0.1,0.1-0.1,0.2-0.2c-0.1,0-0.2,0-0.3,0c0,0.1,0.1,0.2-0.1,0.3
		c0-0.1,0.1-0.1,0.1-0.2c0,0,0,0,0,0c-0.1,0-0.1,0.1-0.2,0.1c0.2-0.5,0.2-0.9,0.1-1c0,0.2,0,0.5-0.1,0.7c0,0,0,0,0,0
		c0-0.1,0-0.2-0.1-0.2c0-0.1-0.1-0.1-0.1-0.2c0,0,0,0,0,0c0.1,0.2,0,0.4-0.3,0.6C72.9,54,73,54,73.1,53.9c-0.2,0.1-0.1,0-0.2-0.1
		c0,0.1,0,0.2-0.1,0.3c0,0-0.1,0.1-0.1,0.1c0,0-0.1-0.1-0.1-0.1c0-0.1-0.1-0.2-0.2-0.1c0.1-0.2,0.1-0.3,0.2-0.5c0,0,0,0,0,0
		l-0.3,0.4c0,0,0,0,0,0c0-0.2,0-0.3,0-0.5c0,0,0,0,0,0c-0.1,0.2-0.1,0.4-0.2,0.6c-0.1-0.1-0.1-0.2-0.2-0.2c-0.1,0-0.2,0.1-0.3,0.1
		c0-0.2,0-0.3-0.1-0.5c-0.1,0.1,0,0.3-0.2,0.4c0-0.1,0-0.1-0.1-0.2c0,0-0.1,0.1-0.1,0.1c0,0,0,0,0,0l0.1-0.2l0,0
		c0,0.1-0.1,0.1-0.1,0.2c-0.1,0-0.1-0.1-0.2-0.1c0-0.1,0-0.2,0-0.2c0,0,0,0,0,0c0,0.1-0.1,0.2-0.1,0.3c0,0-0.1,0-0.1,0
		c0,0-0.1,0-0.2,0.1c0-0.1,0-0.2,0-0.3c-0.1,0.1-0.1,0.1-0.1,0.1c0,0-0.1,0-0.1-0.1c0,0.1-0.1,0.1-0.1,0.2c-0.1,0.1-0.1-0.1-0.2-0.1
		c0,0,0,0.1-0.1,0.1l0,0c0,0,0-0.1,0.1-0.2c-0.2,0.1-0.2,0.1-0.3,0c-0.1,0.1-0.3,0.1-0.4,0.2c0,0.2,0,0.3,0,0.5c0,0,0,0,0,0
		c0,0.1,0,0.2,0,0.3c0,0,0,0,0,0c0,0-0.1-0.1-0.1-0.1c0,0,0,0,0-0.1c0,0,0,0,0,0c0-0.2,0-0.3,0-0.5c0,0,0,0,0,0c0,0,0,0.1-0.1,0.1
		c-0.1,0-0.2,0-0.3,0c0,0,0,0,0,0c0,0.1,0,0.1,0,0.2c0,0,0,0.1,0,0.1c0,0,0,0,0,0c0,0.1,0,0.1,0,0.2c-0.1-0.1-0.2-0.1-0.1-0.2
		c0,0,0,0,0,0c0-0.1,0-0.1,0-0.2c0,0,0-0.1,0-0.1c0,0,0,0-0.1,0c0,0,0,0,0,0c0,0.1,0,0.2,0,0.2c0,0,0,0,0,0c0,0.2,0,0.3,0,0.4
		c-0.1,0-0.2-0.1-0.2-0.2c0,0,0,0,0,0c0,0-0.1-0.1-0.1-0.1c0-0.1,0-0.1,0-0.2c0,0,0,0,0,0c0,0,0,0,0,0c0,0.1,0,0.2-0.1,0.2l0,0
		c0,0.1,0,0.2,0.1,0.3c-0.2,0-0.3,0.1-0.4,0.3c-0.1,0.2-0.3,0.3-0.4,0.5c0,0,0,0,0,0c0,0.1,0,0.1,0,0.2c0,0-0.1,0-0.1,0
		c0,0.1,0.1,0.1,0.2,0.2c-0.1,0-0.1,0-0.2,0c-0.1,0.1-0.1,0.2-0.2,0.3c-0.1,0.1-0.2,0.3-0.3,0.4c-0.1,0.1-0.1,0.2-0.3,0.1
		c-0.1,0.1-0.1,0.2-0.1,0.4c0.2,0,0.2-0.1,0.2-0.3c0.1,0,0.2,0,0.3-0.1c0,0,0.1,0,0.1-0.1c0.1-0.2,0.2-0.4,0.3-0.6
		c0.1,0,0.1,0,0.2,0c0,0.1,0,0.1,0.2,0c0.3-0.1,0.3-0.2,0.3-0.4c0.1,0,0.1,0.1,0.2,0.1c0.1,0,0.1,0.1,0.2,0.1c0,0,0.1-0.1,0.1-0.1
		c0,0,0-0.1,0-0.1c0,0,0,0,0,0c0,0.1,0.1,0.3,0.1,0.4c0.2,0.5,0.5,0.9,1.1,1.1c0.2,0.1,0.2,0.1,0.3-0.1c-0.1,0-0.2,0-0.3,0
		c-0.1,0-0.2,0-0.1-0.2c0-0.1,0.1-0.2,0.1-0.3c0.1,0,0.2,0.1,0.3,0.1c0.2-0.2,0.3-0.1,0.4,0.1c0.1-0.1,0.1-0.1,0.2-0.1l0,0
		c0,0.1,0.1,0.1,0.1,0.2c0,0.1,0,0.1,0,0.2c0,0,0,0-0.1,0c0-0.1-0.1-0.1-0.1-0.2c0,0-0.1,0.1-0.1,0.1c0-0.1-0.1-0.1-0.1-0.2
		c0,0.1,0,0.2-0.1,0.3c0,0.1-0.1,0.2-0.1,0.3c0.3,0.1,0.8-0.1,1-0.2c0.7-0.5,0.6-1.2,0.6-1.2c0.3,0.1,0.6,0.2,0.7,0.5
		c0.1,0.2,0.1,0.2,0.2,0.2c0,0.2-0.1,0.4-0.1,0.6c0.1,0,0.2,0,0.2,0c0,0.3,0.3,0.2,0.4,0.3c-0.1,0.1-0.1,0.1-0.2,0
		c-0.3-0.2-0.4-0.2-0.7,0c0.1,0,0.1,0,0.2,0c0,0,0,0,0,0.1c-0.1,0-0.1,0-0.2,0c-0.1,0-0.2,0-0.2,0.1c-0.3-0.1-0.3,0-0.3,0.1
		c-0.3,0-0.6,0-0.8,0.1c0.3,0.1,0.4,0.3,0.4,0.6c0,0,0,0,0,0c0-0.1,0-0.3,0-0.4l0,0c0,0,0.1,0.1,0.1,0.1c0,0,0,0,0,0
		c0,0,0-0.1,0-0.1c0.1,0,0.3,0,0.3,0.1c0.1,0.1,0.1,0.3,0.2,0.4c0,0,0,0,0,0c0,0,0-0.1,0.1-0.1c0,0,0.1,0.1,0.1,0.1
		c0-0.1-0.1-0.2-0.2-0.2c0,0-0.1-0.1-0.1-0.2c0.1,0,0.1,0.2,0.3,0.2c-0.1-0.2-0.2-0.3-0.3-0.4c0,0,0,0,0,0l0.3,0.3c0,0,0,0,0,0
		c0-0.1-0.1-0.1-0.1-0.2l0,0c0,0,0.1,0.1,0.1,0.1c0,0,0,0,0,0c-0.1-0.1-0.2-0.2-0.3-0.3c0.4-0.1,0.8,0.1,1.1,0.3c0,0,0,0,0,0
		c-0.1-0.1-0.2-0.2-0.3-0.3l0,0c0.1,0,0.1,0.1,0.2,0.1c0-0.3,0.2,0,0.2-0.1c0.1-0.1,0.1-0.2,0.2-0.2c0,0,0-0.1,0-0.1
		c0,0,0-0.1,0-0.1c0,0,0.1,0,0.1,0c0.1,0,0.1,0,0.2,0c0-0.1,0-0.2-0.1-0.3c0.1,0,0.1,0.1,0.2,0.1c0,0,0,0,0,0
		c-0.1,0-0.2-0.1-0.2-0.1c0.1-0.1,0.1-0.1,0.2-0.1c0.1,0,0.2,0,0.3,0.1c0.1,0,0.3,0.1,0.4-0.1c-0.1,0-0.2,0-0.3,0
		c0.1-0.3,0.4-0.2,0.6-0.3c-0.1,0-0.1,0-0.2,0c0.2-0.2,0.5-0.2,0.7-0.4c-0.2,0-0.2,0.2-0.4,0.1c0.1-0.1,0.1-0.1,0.2-0.2
		C75.6,55.6,75.6,55.6,75.5,55.6c0,0.1-0.1,0.2-0.2,0.2C75.3,55.7,75.4,55.6,75.5,55.6z M68,55.8C68,55.8,68,55.8,68,55.8
		c0-0.1,0-0.1,0-0.2c0,0,0.1,0.1,0.1,0.1C68.1,55.7,68.1,55.8,68,55.8z M68.3,55.5c0-0.1,0-0.1,0.1-0.1c0,0.1,0.1,0.2,0.1,0.3
		C68.4,55.7,68.4,55.6,68.3,55.5z M69.4,56C69.4,56,69.4,56,69.4,56c-0.1,0.1-0.1,0.2-0.3,0.2C69.1,55.9,69.3,56.1,69.4,56z
		 M69.5,56.8L69.5,56.8c0-0.1,0-0.1,0-0.2c0,0,0.1,0,0.1,0l0,0C69.6,56.7,69.5,56.7,69.5,56.8z M69.5,56.5c-0.2-0.1-0.3-0.1-0.3-0.3
		c0.1,0,0.2,0.1,0.3,0.1c0,0,0,0,0,0c0,0,0-0.1,0-0.1c0.1,0,0.1,0,0.1,0c0,0,0,0,0,0C69.6,56.3,69.5,56.4,69.5,56.5z M70.4,55.9
		c-0.1,0-0.1,0-0.1-0.1c0-0.1-0.1-0.2-0.1-0.2c0,0,0,0-0.1,0c-0.1,0.1-0.1,0.2-0.2,0.3c-0.2,0-0.3-0.3-0.2-0.5
		c0.1-0.1,0.2-0.1,0.3-0.1c0,0,0,0,0,0c0.1,0,0.1,0,0.2,0c0,0,0,0,0,0c0,0.1,0.1,0.1,0.1,0.2c0-0.1,0-0.1,0-0.1
		c0.2,0.1,0.3,0.2,0.3,0.4C70.6,55.8,70.5,55.8,70.4,55.9z M70.9,56.5c-0.1,0-0.1-0.1-0.2-0.2C70.8,56.4,70.9,56.4,70.9,56.5
		C71,56.5,71,56.5,70.9,56.5C71,56.5,71,56.5,70.9,56.5z M73,54.2c0.1-0.1,0.1-0.3,0.2-0.4C73.3,54,73.3,54.2,73,54.2z M74.6,55.9
		c0.2-0.1,0.4-0.2,0.6-0.2c0,0,0,0,0,0C75,55.8,74.8,56,74.6,55.9z M74.9,55.6c0.2-0.1,0.3-0.1,0.4-0.2c0,0,0,0,0,0
		C75.2,55.5,75.1,55.6,74.9,55.6z"/>
	<path clip-path="url(#SVGID_2_)" fill="#D62228" d="M69.4,58c-0.1-0.2-0.1-0.4-0.2-0.5c0,0,0,0,0,0c0,0.1,0.1,0.1,0.1,0.2
		c0,0,0,0,0,0c0-0.1,0-0.2,0-0.2c0.1,0,0.2,0,0.3,0c0.1,0,0.1,0.1,0,0.2C69.6,57.7,69.5,57.8,69.4,58z"/>
	<path clip-path="url(#SVGID_2_)" fill="#D62228" d="M70.4,58c-0.1,0-0.1-0.1-0.2-0.1c0-0.1-0.1-0.2-0.2-0.3c0,0,0,0,0,0
		c0,0,0,0,0.1,0.1c0-0.1,0-0.1,0-0.2c0.1,0,0.1,0,0.2,0c0,0.1,0,0.1,0.1,0.2c0.1-0.1,0.1-0.1,0.1-0.2c0,0,0,0,0,0c0,0.1,0,0.2,0,0.3
		C70.4,57.7,70.4,57.7,70.4,58z"/>
	<path clip-path="url(#SVGID_2_)" fill="#D62228" d="M70.8,57.5c0.1,0.1,0.2,0.1,0.3,0.2c0,0,0,0,0,0c0,0-0.1,0-0.1-0.1c0,0,0,0,0,0
		c0,0.1,0.1,0.2,0.1,0.3c0,0,0,0,0,0C70.9,57.9,70.8,57.7,70.8,57.5C70.7,57.6,70.7,57.5,70.8,57.5z"/>
	<path clip-path="url(#SVGID_2_)" fill="#D62228" d="M68.3,57.5c0.1-0.1,0.2-0.2,0.4-0.2c0.1,0,0.1,0,0.1,0.1
		C68.6,57.4,68.5,57.5,68.3,57.5C68.3,57.5,68.3,57.5,68.3,57.5z"/>
	<path clip-path="url(#SVGID_2_)" fill="#D62228" d="M69.1,57.3c0,0.1,0,0.2-0.1,0.4c0,0,0,0,0,0C69,57.6,68.9,57.5,69.1,57.3z"/>
	<path clip-path="url(#SVGID_2_)" fill="#D62228" d="M68.8,57.7c0-0.1,0.1-0.2,0.1-0.2c0,0,0,0,0,0C68.8,57.5,68.8,57.6,68.8,57.7
		C68.8,57.7,68.8,57.7,68.8,57.7z"/>
	<g clip-path="url(#SVGID_2_)">
		<path fill="#ED1C24" d="M65.4,57.7c0,0,0.1-0.2,0.3-0.6c0.2-0.3,0.5-0.7,0.9-1.1c0.2-0.2,0.4-0.3,0.6-0.5c0.2-0.2,0.4-0.3,0.5-0.4
			c0.3-0.2,0.5-0.3,0.5-0.3l0.1,0.2c0,0-0.2,0.1-0.6,0.3c-0.2,0.1-0.4,0.2-0.5,0.4c-0.2,0.1-0.4,0.3-0.6,0.5c-0.4,0.3-0.7,0.7-0.9,1
			C65.5,57.4,65.4,57.7,65.4,57.7z"/>
	</g>
	<path clip-path="url(#SVGID_2_)" fill="#D62228" d="M71.4,35.5c0.3,0.4,3.6,6.7-1.1,13.6c-4.7,6.8-11.5,9.5-11.5,9.5
		s5.5-4.7,8.3-11.1c2.7-6.4,2-7.8,2-7.8s0,12.2-10.7,18.4S47,61.5,47,61.5s-4.1,2.8-8.7,2c-4.7-0.8,2.8,0.8,5.3-2.8
		c2.5-3.6,1.8-9.2,1.6-13.6c-0.3-4.4,0.1,11.1-2.4,13.2c-2.6,2.1-3,4.5-1,5.3s-14.5-3.5,2.9-26.5s-6.8,12.5-9.1,11.1
		c0,0-2-2.4-0.8-6.4c1.2-3.9,0.7-1.1-1.6-4c-2.3-2.8-2.7-5.5-1.2-9.3c1.5-3.7,3.8-4.7,3.8-4.7s-0.8,1.1,1.7-1.8
		c2.7-3.2,4.2-5.7,9.5-7.6c4.6-1.6,10.1,0,11.2,0c0.9,0-3.5-1.7-3.5-1.7s10.8-0.3,12.5,0.1c4,1.1,5.3,1.7,6.2,2.3
		c2.9,2,4,3.2,5.4,4.4c3.3,2.8,3.8,5.7,3.8,5.7s-1.1,1.9,1.2,4.6c2.3,2.8,3.6,2.9,3.6,2.9s0.4,2.8-1,4.1s0.3,1.9-2.7,3.5
		c-2,1.1-1.1,4.3-1.1,4.3l-1,1l0.3,1c0,0,1.2,0.8,2.4,2.6c1.1,1.8,1.2,5.6,0.2,8.5c-1,2.9-3.2,7.9-1.8,8.8c1.4,0.9,1.9-2.1,1.9-2.1
		s-0.1,5.3-2.8,1s3.1-5.6,0.8-10.7s-2.9-7.6-2.9-7.6s-0.3,0.8-2.7-2.7C74.4,43.3,71.4,35.5,71.4,35.5z"/>
	<path clip-path="url(#SVGID_2_)" fill="#D62228" d="M79.8,64.8c0,0,0.7,15,2.5,16.6c0.5,0.4,0,0.7-0.2,0.9
		c-0.3,0.4-0.7,0.9-0.7,0.9s-2.9-1.9-3.5-4.9c-0.7-3-0.7-3-0.7-3s1.2-0.9,1.9-4.8C79.5,69.2,79.6,67,79.8,64.8z"/>
	<g clip-path="url(#SVGID_2_)">
		<path fill="#ED1C24" d="M80.2,62.7c0,0,0.2,0,0.5-0.1c0.2-0.1,0.3-0.2,0.5-0.3c0.1-0.2,0.3-0.3,0.4-0.5c0.1-0.2,0.2-0.4,0.3-0.6
			c0-0.2,0.1-0.4,0.1-0.6C82,60.2,82,60,82,60s0,0.2,0,0.6c0,0.2-0.1,0.4-0.1,0.6c-0.1,0.2-0.1,0.4-0.3,0.6
			c-0.1,0.2-0.3,0.4-0.4,0.5c-0.2,0.2-0.3,0.3-0.5,0.3C80.4,62.8,80.2,62.7,80.2,62.7z"/>
	</g>
	<path clip-path="url(#SVGID_2_)" fill="#D62228" d="M30,54.6c0,0-1.2,5.5-2.5,9.3c-1.8,5.1,2.1,10.9,6.6,16c4.6,5.1,3.3,5.3,5,6.9
		c0.7,0.7,3.1,3.1,3.1,3.1l3.5,0.4c0,0,0.9-0.6-7.2-10.9c-7.7-9.8-7-12.1-6.9-15.9C31.6,59.5,30,54.6,30,54.6z"/>
	<path clip-path="url(#SVGID_2_)" fill="#D62228" d="M46.8,89.2c0,0,5.8-0.2-3.3-8.6S31.8,70.6,32,66.9c0.2-3.7-0.7-11.1-1.1-12.8
		c-0.3-1.4,4.5-3.9,4.5-3.9s0.4,12.8,4.5,15.1c3.1,1.7,2.5,0.2,2.5,0.2s-0.2-0.3-1.3-0.9s-0.3-0.7-0.3-0.7l2.8-0.5
		c0,0,1.2,3.5,1.7,4.9c0.5,1.5,0.7,4,1.2,5.1c0.5,1.1,2.1,2.7,2.1,2.7s4.1,13.5,2.3,14.2s-4.2,0.3-5.1,0S46.8,89.2,46.8,89.2z"/>
	<path clip-path="url(#SVGID_2_)" fill="#D62228" d="M34.4,72.5c0,0,10.3,13.5,9.9,15.5c-0.4,2,2.6,1.5,2.6,1.5S45.8,81,34.4,72.5z"
		/>
	<path clip-path="url(#SVGID_2_)" fill="#D52328" d="M51.3,92.2c0,0,0.5-1.9,0-4.6"/>
	<g clip-path="url(#SVGID_2_)">
		<path fill="#D52328" d="M30.2,55.2c0,0-0.4,0.4-1.1,1.3c-0.7,0.8-1.7,2.1-2.6,3.7c-1,1.6-2,3.5-2.7,5.8c-0.7,2.2-1,4.8-0.2,7.2
			c0.4,1.2,0.9,2.3,1.6,3.4c0.6,1.1,1.3,2,2.1,2.9c1.5,1.8,3.2,3.2,4.7,4.3c1.5,1.1,2.9,1.9,3.9,2.3c1,0.5,1.6,0.7,1.6,0.7
			s-0.6-0.2-1.6-0.7c-1-0.5-2.3-1.2-3.9-2.3c-1.5-1.1-3.2-2.5-4.7-4.3c-0.8-0.9-1.5-1.9-2.1-2.9c-0.6-1.1-1.2-2.2-1.6-3.4
			c-0.8-2.4-0.5-5,0.2-7.3c0.7-2.3,1.7-4.2,2.7-5.8c1-1.6,1.9-2.8,2.6-3.7C29.6,55.5,30,55,30,55L30.2,55.2z"/>
	</g>
	<g clip-path="url(#SVGID_2_)">
		<path fill="#D52328" d="M28.7,57.4c0,0-0.3,0.4-0.7,1.1c-0.2,0.4-0.5,0.8-0.7,1.4c-0.3,0.5-0.5,1.1-0.8,1.8
			c-0.3,0.7-0.5,1.4-0.8,2.2c-0.2,0.8-0.4,1.7-0.5,2.6c-0.1,0.4-0.1,0.9-0.1,1.4l0,0.7l0,0.7l0,0.7c0,0.2,0.1,0.5,0.1,0.7
			c0.1,0.5,0.2,1,0.4,1.4c0.3,0.9,0.8,1.8,1.4,2.6c0.3,0.4,0.6,0.7,0.9,1.1c0.3,0.4,0.7,0.6,1,1c1.3,1.2,2.6,2.4,3.7,3.4
			c0.6,0.5,1.1,0.9,1.5,1.3c0.5,0.4,0.8,0.7,1.2,1c0.3,0.3,0.6,0.5,0.8,0.6c0.2,0.1,0.3,0.2,0.3,0.2s-0.1-0.1-0.3-0.2
			c-0.2-0.1-0.4-0.3-0.8-0.6c-0.3-0.3-0.7-0.6-1.2-1c-0.5-0.4-1-0.8-1.5-1.3c-1.1-1-2.3-2.1-3.7-3.4c-0.3-0.3-0.7-0.6-1-1
			c-0.3-0.4-0.6-0.7-1-1.1c-0.5-0.8-1.1-1.6-1.4-2.6c-0.2-0.4-0.3-0.9-0.4-1.4c0-0.2-0.1-0.5-0.1-0.7l-0.1-0.7l-0.1-0.7l0-0.7
			c0-0.5,0-0.9,0.1-1.4c0.1-0.9,0.3-1.8,0.5-2.6c0.2-0.8,0.5-1.6,0.8-2.2c0.3-0.7,0.5-1.3,0.8-1.8c0.3-0.5,0.5-1,0.7-1.4
			c0.4-0.7,0.7-1.2,0.7-1.2L28.7,57.4z"/>
	</g>
	<path clip-path="url(#SVGID_2_)" fill="none" stroke="#D52328" stroke-width="5.428250e-002" stroke-miterlimit="10" d="M28.9,56.5
		c0,0-7.4,12.1,1.7,21.5"/>
	<path clip-path="url(#SVGID_2_)" fill="#D62228" d="M66.6,76c-1.7,0.9-3.4,1.1-5.1,0.9c-1.7-0.2-2.4-0.6-3-0.7c-0.6,0-2.2,0-2.2,0
		s1,1.3,1.8,2.3c0.9,1.2,2.7,2.1,5.5,1.9c2.9-0.2,3.9-1.3,4.4-2c0.6-0.7,1.9-3.1,1.9-3.1S68.3,75.2,66.6,76z M58.2,77.3L58,77.7
		l-0.1-0.2l-0.2,0.2l-0.1-0.4l-0.2-0.1l-0.2-0.2v-0.1h0.2h0.3l0.2,0.1l-0.1,0.3l0.3-0.3V77.3z M62.2,77.8c0,0,0,0.1,0,0.1
		c0,0,0,0.1,0,0.1c0,0,0,0.1,0,0.1c0,0,0,0,0,0.1c0,0,0,0,0,0.1c0,0,0,0,0,0c0,0,0,0,0,0c0,0,0,0,0,0s0,0,0,0c0,0,0,0,0,0
		c0,0,0,0,0,0c0,0,0-0.1,0-0.1c0,0,0-0.1,0-0.1c0,0,0-0.1,0-0.1C62.2,77.9,62.2,77.9,62.2,77.8C62.1,77.8,62.1,77.7,62.2,77.8
		C62.1,77.7,62.2,77.8,62.2,77.8z M58.5,78C58.5,78.1,58.5,78.1,58.5,78C58.5,78.1,58.5,78.1,58.5,78c0,0,0-0.1,0-0.1
		c0,0,0-0.1,0.1-0.1c0-0.1,0.1-0.1,0.1-0.2c0,0,0.1-0.1,0.1-0.1c0,0,0.1-0.1,0.1-0.1c0.1-0.1,0.1-0.1,0.1-0.1s0,0.1-0.1,0.1
		c0,0-0.1,0.1-0.1,0.1c0,0-0.1,0.1-0.1,0.1c0,0,0,0.1,0,0.1c0,0,0,0,0,0.1C58.6,77.8,58.6,77.9,58.5,78C58.6,78,58.6,78,58.5,78z
		 M59.7,78.3l-0.4,0.3l0.1-0.3l-0.4,0.2l0.1-0.7l-0.4,0.4l0.3-0.5l0.6-0.4l-0.3,0.7l0.8-0.4L59.9,78l0.6-0.5L60,78.4L59.7,78.3z
		 M60.3,79.3v-0.6c0,0-0.2,0.1-0.3,0.4c-0.1,0.4,0-0.6,0.3-1.1l0.4-0.4l-0.4,0.8l0.6-0.6l-0.5,1.1L60.3,79.3z M62.3,78.8L62.2,79
		l-0.5,0.2v-0.3l-0.4,0.4l0-0.4l-0.2,0.3l0-0.4l-0.4,0.4l0.2-0.7l0.4-0.2v0.1l0.4-0.3l-0.2,0.3l0.4-0.1l0.1,0.3c0,0,0.3,0.1,0.3-0.3
		s0.2-0.4,0.2-0.4L62.3,78.8z M65.3,77.8C65.3,77.8,65.3,77.8,65.3,77.8C65.3,77.8,65.3,77.8,65.3,77.8c0-0.1,0-0.1,0.1-0.2
		c0,0,0,0,0.1-0.1c0,0,0.1,0,0.1,0s0,0,0,0.1c0,0,0,0,0,0.1C65.4,77.7,65.4,77.7,65.3,77.8C65.3,77.8,65.3,77.8,65.3,77.8
		C65.3,77.9,65.3,77.9,65.3,77.8C65.3,77.9,65.3,77.9,65.3,77.8c0,0.1,0,0.1,0,0.1c0,0,0,0,0,0c0,0,0,0,0,0s0,0,0,0
		C65.3,78,65.3,77.9,65.3,77.8C65.3,77.9,65.3,77.9,65.3,77.8C65.3,77.9,65.3,77.9,65.3,77.8z M63.2,80c0,0,0-0.1,0-0.1
		c0,0,0-0.1,0-0.1c0-0.1,0-0.1,0-0.2c0-0.1,0-0.1,0-0.2c0-0.1,0-0.3,0-0.4c0-0.1,0-0.3,0-0.4c0-0.1,0-0.3,0-0.4c0-0.1,0-0.2,0-0.3
		c0-0.1,0-0.1,0-0.1s0,0,0,0.1c0,0.1,0,0.2,0,0.3c0,0.2,0,0.5,0.1,0.8c0,0.1,0,0.3,0,0.4c0,0.1,0,0.1,0,0.2c0,0.1,0,0.1,0,0.2
		c0,0.1,0,0.1,0,0.1C63.2,79.9,63.2,79.9,63.2,80C63.2,80,63.2,80.1,63.2,80C63.2,80.1,63.2,80,63.2,80z M65,78.5l-0.1,0.1l-0.3-0.1
		c0,0-0.1,0.1-0.1,0.2c0,0.1-0.3,0-0.3,0l-0.1,0.3l-0.3-0.4c0,0-0.2,0.2-0.1,0.5s-0.3-0.4-0.3-0.4l0,0.4c0,0-0.2,0-0.3-1.1l0.2-0.2
		l0.1,0.3l0.2-0.2c0,0,0.1,0.1,0.1,0.2c0,0.2,0.1,0.5,0.1,0.5v-0.7l0.1,0.3l0.2-0.3l0.2-0.3l0.1,0.4l0.1-0.4L65,78h0.1l0.4,0.6
		L65,78.5z M65.6,78.6C65.6,78.6,65.6,78.6,65.6,78.6C65.5,78.6,65.5,78.6,65.6,78.6c-0.1-0.1-0.1-0.1-0.1-0.1c0,0-0.1-0.1-0.1-0.2
		c0-0.1-0.1-0.1-0.1-0.2c0,0,0-0.1,0-0.1c0,0,0-0.1,0-0.1c0,0,0-0.1,0-0.1c0,0,0-0.1,0-0.1c0,0-0.1-0.1-0.1-0.1c0,0,0,0,0,0s0,0,0,0
		c0,0,0.1,0.1,0.1,0.1c0,0,0,0,0.1,0.1c0,0,0,0.1,0,0.1c0,0,0,0.1,0,0.1c0,0,0,0.1,0,0.1c0,0,0,0.1,0,0.1c0,0,0,0.1,0,0.1
		c0,0.1,0.1,0.1,0.1,0.2C65.5,78.5,65.5,78.5,65.6,78.6C65.5,78.5,65.6,78.6,65.6,78.6C65.6,78.6,65.6,78.6,65.6,78.6
		C65.6,78.6,65.6,78.6,65.6,78.6z"/>
	<g clip-path="url(#SVGID_2_)">
		<path fill="#ED1C24" d="M62.5,71.2c0,0-0.1,0.2-0.2,0.6c-0.1,0.2-0.1,0.4-0.2,0.6c0,0.1-0.1,0.2-0.1,0.3c0,0.1,0,0.2,0.1,0.3
			c0.2,0.1,0.4,0.2,0.6,0.2c0.2,0,0.4-0.1,0.6-0.2c0.2-0.1,0.2-0.2,0.3-0.3c0-0.1,0-0.2,0-0.2s0,0.1,0,0.2c0,0.1-0.1,0.2-0.3,0.3
			c-0.1,0.1-0.4,0.2-0.6,0.2c-0.2,0-0.5,0-0.7-0.2c-0.1-0.1-0.2-0.2-0.1-0.3c0-0.1,0-0.2,0.1-0.3c0.1-0.2,0.2-0.4,0.2-0.6
			C62.4,71.4,62.5,71.2,62.5,71.2z"/>
	</g>
	<g clip-path="url(#SVGID_2_)">
		<path fill="#ED1C24" d="M64.7,55.9c0,0-0.2,0.2-0.3,0.5c-0.1,0.2-0.1,0.4-0.2,0.6c-0.1,0.2-0.1,0.5-0.1,0.7c0,0.2,0,0.5,0,0.7
			c0,0.2,0,0.4,0.1,0.6c0.1,0.4,0.1,0.6,0.1,0.6s0-0.2-0.1-0.6c0-0.2-0.1-0.4-0.1-0.6c0-0.2,0-0.5,0-0.7c0-0.2,0-0.5,0.1-0.7
			c0-0.2,0.1-0.4,0.2-0.6C64.6,56.1,64.7,55.9,64.7,55.9z"/>
	</g>
	<g clip-path="url(#SVGID_2_)">
		<path fill="#D52328" d="M28.4,27.4c0,0-0.4,3.3-0.9,8.4c-0.1,0.6-0.1,1.3-0.2,2c0,0.3-0.1,0.7-0.1,1c0,0.3-0.1,0.7-0.3,1
			c-0.7,1.3-1.7,2.5-2.7,3.7c-2.1,2.4-4.4,4.8-6.7,7.3c-4.7,4.8-9.6,9.4-13.3,12.9c-3.7,3.5-6.2,5.7-6.2,5.7S0.4,67,4,63.6
			c3.6-3.5,8.5-8.2,13.2-13c2.4-2.4,4.7-4.8,6.8-7.2c1-1.2,2-2.4,2.7-3.6c0.2-0.3,0.2-0.7,0.3-1c0-0.3,0.1-0.7,0.1-1
			c0.1-0.7,0.2-1.3,0.2-2C27.9,30.7,28.4,27.4,28.4,27.4z"/>
	</g>
	<path clip-path="url(#SVGID_2_)" fill="#D62228" d="M33.5,41.1c0,0,0.1,8.1-10.9,21.1S7.1,84.7,7.1,84.7l-2.9,6.1
		c0,0,12.2-18.9,15.9-23.6c3.7-4.7,14.3-17.5,14.3-17.5S34.4,43,33.5,41.1z"/>
	<g clip-path="url(#SVGID_2_)">
		<path fill="#D52328" d="M73.9,92.2c0,0,0.8-1.1,2-2.6c1.2-1.5,2.9-3.5,4.6-5.5c0.9-1,1.8-1.9,2.7-2.7c0.9-0.8,1.7-1.6,2.5-2.2
			c0.4-0.3,0.7-0.6,1.1-0.8c0.3-0.2,0.6-0.4,0.8-0.6c0.5-0.3,0.8-0.5,0.8-0.5s-0.3,0.2-0.7,0.5c-0.2,0.1-0.5,0.4-0.8,0.6
			c-0.3,0.2-0.7,0.5-1,0.8c-0.7,0.6-1.6,1.4-2.4,2.2c-0.9,0.9-1.8,1.8-2.6,2.8c-1.8,1.9-3.4,3.9-4.6,5.4
			C74.7,91.2,73.9,92.2,73.9,92.2z"/>
	</g>
	<g clip-path="url(#SVGID_2_)">
		<path fill="#D52328" d="M85.2,86.2c0,0,0.7-2.3,2-5.6c1.3-3.3,3.1-7.7,5-12.1c1-2.2,2.1-4.3,3.1-6.3c0.5-1,1.1-1.9,1.6-2.8
			c0.5-0.9,1-1.7,1.5-2.5c0.4-0.8,1-1.4,1.4-2c0.4-0.6,0.8-1.1,1.1-1.5c0.6-0.8,1-1.3,1-1.3s-0.4,0.5-1,1.3
			c-0.3,0.4-0.7,0.9-1.1,1.5c-0.4,0.6-0.9,1.3-1.3,2c-0.4,0.8-1,1.6-1.5,2.5c-0.5,0.9-1,1.8-1.5,2.8c-1,2-2.1,4.1-3.1,6.3
			c-2,4.3-3.9,8.7-5.2,12C86,84,85.2,86.2,85.2,86.2z"/>
	</g>
	<g clip-path="url(#SVGID_2_)">
		<path fill="#D52328" d="M87.3,27.4c0,0,0.8,0.6,2.1,1.2c0.7,0.3,1.5,0.7,2.4,0.8c0.9,0.1,1.9,0,2.9,0c2-0.1,3.9-0.4,5.4-0.6
			c1.5-0.2,2.4-0.3,2.4-0.3s-1,0.1-2.4,0.4c-1.5,0.2-3.4,0.5-5.4,0.6c-1,0.1-2,0.1-2.9,0c-0.9-0.2-1.7-0.5-2.4-0.9
			C88.1,28,87.3,27.4,87.3,27.4z"/>
	</g>
	<g clip-path="url(#SVGID_2_)">
		<path fill="#D52328" d="M86.5,40.3c0,0,0.2,0.2,0.6,0.4c0.4,0.3,1,0.6,1.7,1c0.4,0.2,0.8,0.3,1.2,0.5c0.4,0.2,0.9,0.3,1.4,0.5
			c0.5,0.2,1,0.3,1.5,0.4c0.5,0.1,1.1,0.2,1.6,0.3c1.1,0.2,2.1,0.3,3.2,0.5c0.5,0.1,1,0.2,1.4,0.3c0.5,0.1,0.9,0.3,1.3,0.4
			c0.4,0.1,0.7,0.3,1,0.5c0.3,0.1,0.5,0.4,0.7,0.5c0.2,0.2,0.3,0.3,0.4,0.4c0.1,0.1,0.1,0.2,0.1,0.2s0-0.1-0.1-0.2
			c-0.1-0.1-0.2-0.2-0.4-0.4c-0.2-0.1-0.4-0.3-0.7-0.5c-0.3-0.1-0.6-0.3-1-0.4c-0.4-0.1-0.8-0.3-1.3-0.4c-0.5-0.1-0.9-0.2-1.4-0.3
			c-1-0.1-2.1-0.3-3.2-0.5c-0.5-0.1-1.1-0.2-1.6-0.3c-0.5-0.1-1-0.2-1.5-0.4c-0.5-0.2-0.9-0.3-1.4-0.5c-0.4-0.2-0.8-0.4-1.2-0.5
			c-0.7-0.4-1.3-0.7-1.7-1C86.7,40.4,86.5,40.3,86.5,40.3z"/>
	</g>
	<g clip-path="url(#SVGID_2_)">
		<path fill="#D52328" d="M92.5,43.2c0,0-0.2,0-0.4,0.1c-0.3,0.1-0.7,0.2-1.1,0.2c-0.2,0-0.5,0.1-0.8,0.1c-0.3,0.1-0.6,0-0.9,0
			c-0.6,0-1.2-0.2-1.9-0.2c-0.3-0.1-0.6,0-0.9,0c-0.3,0-0.6,0.1-0.9,0.2C85,43.8,84.5,44,84,44.1c-0.9,0.3-1.5,0.6-1.5,0.6
			s0.6-0.3,1.4-0.7c0.4-0.2,1-0.4,1.5-0.6c0.3-0.1,0.6-0.2,0.9-0.2c0.3,0,0.6,0,1,0c0.6,0.1,1.3,0.2,1.9,0.2c0.3,0,0.6,0.1,0.8,0
			c0.3,0,0.5-0.1,0.8-0.1c0.5,0,0.9-0.1,1.1-0.2C92.3,43.2,92.5,43.2,92.5,43.2z"/>
	</g>
	<g clip-path="url(#SVGID_2_)">
		<path fill="#D52328" d="M53.9,85.6c0,0,0.7,1.6,1.2,3.3c0.2,0.8,0.4,1.7,0.4,2.4c0,0.2,0,0.3,0,0.4c0,0.1,0,0.2-0.1,0.3
			c-0.1,0.2-0.1,0.3-0.1,0.3s0-0.1,0.1-0.3c0-0.1,0-0.2,0.1-0.3c0-0.1,0-0.3,0-0.4c0-0.7-0.2-1.5-0.4-2.3
			C54.6,87.2,53.9,85.6,53.9,85.6z"/>
	</g>
	<g clip-path="url(#SVGID_2_)">
		<path fill="#D52328" d="M41.1,89.6c0,0-2.3,0-5.6,0.2c-1.7,0.1-3.7,0.2-5.8,0.4c-1.1,0.1-2.1,0.2-3.3,0.3
			c-1.1,0.1-2.2,0.3-3.3,0.5c-1.1,0.2-2.2,0.5-3.3,0.7c-1.1,0.2-2.2,0.5-3.2,0.5c-0.5,0-1.1,0.1-1.6,0.1c-0.5,0-1,0-1.5-0.1
			c-1,0-1.9-0.1-2.7-0.2c-0.8-0.1-1.6-0.3-2.3-0.4c-0.7-0.1-1.3-0.3-1.7-0.4c-1-0.2-1.5-0.4-1.5-0.4s0.5,0.2,1.5,0.4
			c0.5,0.1,1.1,0.2,1.7,0.4c0.7,0.1,1.4,0.3,2.3,0.3c0.8,0.1,1.8,0.2,2.7,0.2c0.5,0,1,0,1.5,0c0.5,0,1-0.1,1.6-0.1
			c1.1,0,2.1-0.3,3.2-0.5c1.1-0.2,2.2-0.5,3.3-0.7c1.1-0.2,2.2-0.3,3.3-0.5c1.1-0.1,2.2-0.2,3.3-0.3c2.1-0.2,4.1-0.3,5.8-0.3
			C38.8,89.6,41.1,89.6,41.1,89.6z"/>
	</g>
</g>
</svg>
