<?xml version="1.0" encoding="utf-8"?>
<!-- Generator: Adobe Illustrator 18.1.1, SVG Export Plug-In . SVG Version: 6.00 Build 0)  -->
<svg version="1.1" id="Слой_1" xmlns="http://www.w3.org/2000/svg" xmlns:xlink="http://www.w3.org/1999/xlink" x="0px" y="0px"
	 viewBox="0 0 120 120" enable-background="new 0 0 120 120" xml:space="preserve">
<path fill="none" stroke="#000000" stroke-width="0.5" stroke-miterlimit="10" d="M10.7,93.6c0,0-0.3-1.9,0.8-3.4s1.6-2.4,1.6-2.4
	s-0.1-1,0.3-1.7s1.6-1.5,1.6-1.5l1.8-0.3v-0.6c0,0-1.3-1.6-1.3-2.9c0-1.3,1.3-3.3,1.3-3.3s0-3.6,0.3-6.4s0-3.6,0-3.6
	s0.6-0.8,0.7-1.2c0.1-0.4,0-0.9,0-0.9l-0.4-1.9c0,0-0.3-9.4-0.4-10.8c-0.2-1.4-0.4-2.4-0.4-2.4L16.3,45l0.3-0.7c0,0-0.8-1.3-1.2-2.3
	c-0.3-1-0.6-4.7-0.6-4.7s-1-2.5-1.2-4.1c-0.2-1.6-0.6-3.4-0.6-3.4l0.1-2.8c0,0,0.1-0.8,1.1-0.6c1,0.3,3.1,0.8,3.1,0.8l5.3,1.5
	c0,0,5.8,2.9,9.6,3.2c3.9,0.3,5.3,1,5.3,1s0.8,0.8,1.7,1c0.9,0.1,3,0,3,0l0.8,0.6c0,0,1.5-0.5,2.1,0c0.6,0.5,1.5,0.7,1.5,0.7
	l1.5-0.3c0,0,3.9,0.1,5.1,0.1s2.6-0.3,2.6-0.3s1.3,0.4,1.9,0.5c0.6,0.1,2,0.1,2,0.1l0.8,0.6l1.3-0.5l3-0.4h2.6c0,0,1.3,0.6,1.8,0.6
	s1.9-0.8,1.9-0.8l2.2-0.1c0,0,1.6-0.4,2.3-0.7c0.7-0.3,5.5,0,5.5,0s1.7-0.7,2.4-1c0.7-0.3,3.3-0.6,3.3-0.6l2.8-0.2l3.7-1.3l3.4-0.8
	l1.6-0.4l1.2-0.1l1.3,0.1c0,0,0.6-1.3,2-1.3c1.3,0,1.8-0.5,1.8-0.5l2-0.2c0,0,1-0.1,1,0.5s-0.3,2.4-0.3,2.4s0,2.6-0.8,3.5
	c-0.8,0.9-1,1.8-1,1.8s-0.4,1.6-0.4,2.3c0,0.7-2.5,10.5-2.8,11.8c-0.3,1.3-2.2,3.6-2.2,3.6s1,1.7,1,3S101,67.7,101,67.7
	s0.1,0.7,0.3,1c0.1,0.3-0.1,2.3-0.1,2.3s0.7,1.3,0.6,1.7c-0.1,0.3-0.8,2.4-0.8,2.4s1.9,2.8,2.1,4.5c0.2,1.7-0.1,3.6-0.1,3.6l-0.4,1
	l-0.1,1.1c0,0,3.1,0.5,4.3,2.9c1.2,2.4,1.8,4.2,1.8,4.2l-0.5,1.1c0,0-7.4,0.2-8.6,0c-1.2-0.2-7.5-2.6-10.5-2.9
	c-3-0.3-4.2-1.6-4.2-1.6s-0.6,0.4-1.9,0.2s-7.5-2-8.7-2.1c-1.2-0.1-2.4,0.1-3.6,0.3c-1.2,0.1-11.3-0.6-12.8-0.1
	c-1.5,0.4-7.2,0.8-9.2,0.6c-2-0.2-4.2-0.3-7.3,0.6c-3.1,1-2.3,0-4.9,0.9c-2.6,0.9-4,0.7-4,0.7s-9.4,2.5-12,2.8
	c-2.6,0.3-4.4,0.7-4.4,0.7h-3.3C12.7,93.7,11.8,94.5,10.7,93.6z"/>
<g>
	<path d="M17.3,84.1c0,0,0.1,0,0.3-0.1c0.1,0,0.2-0.1,0.3-0.2c0.1-0.1,0.2-0.1,0.2-0.2c0,0,0-0.1,0-0.1c0,0,0-0.1,0-0.2
		c0-0.1-0.1-0.2-0.1-0.3c-0.1-0.2-0.2-0.3-0.2-0.3s0.1,0.1,0.3,0.2c0.1,0.1,0.1,0.2,0.2,0.3c0,0.1,0.1,0.1,0.1,0.2
		c0,0.1,0,0.2,0,0.2c0,0.2-0.2,0.3-0.2,0.4c-0.1,0.1-0.2,0.2-0.3,0.3c-0.2,0.1-0.3,0.2-0.3,0.2L17.3,84.1z"/>
</g>
<g>
	<path d="M98.4,93c0,0,0.5,0.2,1.3,0.2c0.2,0,0.4,0,0.6-0.1c0.2-0.1,0.5-0.1,0.7-0.2c0.5-0.2,1-0.5,1.5-0.7c2-1,4.1-2,4.1-2
		s-2,1.1-4,2.2c-0.5,0.3-1,0.6-1.5,0.8c-0.2,0.1-0.5,0.2-0.7,0.3c-0.2,0.1-0.5,0.1-0.7,0.1c-0.4,0-0.8,0-1.1-0.1
		c-0.3,0-0.4-0.1-0.4-0.1L98.4,93z"/>
</g>
<g>
	<path d="M100.4,51.1C100.4,51.1,100.4,51.1,100.4,51.1c0-0.1,0.1-0.2,0-0.3c0-0.1,0-0.1-0.1-0.2c0-0.1-0.1-0.1-0.1-0.2
		c-0.1-0.1-0.3-0.2-0.4-0.4c-0.2-0.1-0.3-0.2-0.5-0.3c-0.2-0.1-0.3-0.1-0.5-0.2c-0.3-0.1-0.5-0.2-0.5-0.2s0.2,0,0.5,0.1
		c0.1,0,0.3,0.1,0.5,0.1c0.2,0.1,0.4,0.2,0.6,0.2c0.2,0.1,0.4,0.2,0.5,0.3c0.1,0.1,0.1,0.2,0.2,0.2c0.1,0.1,0.1,0.2,0.1,0.2
		c0.1,0.2,0.1,0.3,0.1,0.5c0,0.1,0,0.2,0,0.2L100.4,51.1z"/>
</g>
<g>
	<path fill="none" stroke="#000000" stroke-width="8.436812e-002" stroke-miterlimit="10" d="M79.5,52.6c0,0,1,4.8,1.3,6.2
		s-0.2,4.6-0.4,5.8c-0.2,1.2-0.3,3.2-0.4,3.8c-0.1,0.6-0.3,3.1-1.9,5.2c-1.7,2.1-3.6,4-3.8,4.3c-0.2,0.3-2.2,3.3-5.5,3.7
		c-3.3,0.3-5.1-0.7-5.8-1.3s-4.6-4.4-5.3-4.9c-0.8-0.6-3-2.7-3.4-4c-0.4-1.3-0.4-2.3-1.1-4.1c-0.6-1.7-1.2-3.5-1.2-3.5"/>
	<path d="M71.5,72.1c-1-0.5-1.8-0.9-2.6-0.9s-1.6,0.6-1.8,0.6c-0.2,0-0.5-0.1-0.7-0.2c-0.3-0.1-0.6-0.2-1.1-0.1c-0.3,0-1,0.5-1,0.5
		s-1.4,1-1.7,1.3c-0.2,0.3-0.6,0.5-0.6,0.5s1,0,1.4,0c0.2,0,0.4,0,1.1-0.2c0.6-0.1,1.2-0.4,1.2-0.4s0.3,0,0.8-0.1
		c0.4-0.1,0.6-0.2,0.6-0.2s0.1,0,0.2,0c0.1,0,0.2-0.1,0.2-0.1s0.4,0.1,0.8,0c0.4,0,0.6-0.1,0.9-0.1c0.3,0,0.5,0.1,0.8,0.2
		c0.3,0.1,0.7,0.1,0.7,0.1s0.6,0.1,1.1,0.1c0.5,0,1-0.3,1-0.3S72.5,72.7,71.5,72.1z M64.4,73.4C64.4,73.4,64.3,73.4,64.4,73.4
		c-0.1-0.1-0.1-0.1-0.1-0.1c0,0,0,0,0,0c0,0,0,0,0,0c0,0,0-0.1,0-0.1c0,0,0,0,0,0c0,0,0,0,0,0c0,0,0,0,0,0s0,0,0,0c0,0,0,0,0,0
		c0,0,0,0,0,0c0,0,0,0,0,0c0,0,0,0,0,0c0,0,0,0.1,0,0.1c0,0,0,0,0,0C64.3,73.3,64.3,73.3,64.4,73.4C64.4,73.3,64.4,73.4,64.4,73.4
		C64.4,73.4,64.4,73.5,64.4,73.4C64.4,73.5,64.4,73.4,64.4,73.4z M67.1,72.7C67.1,72.7,67.1,72.8,67.1,72.7c0,0.1,0,0.1,0,0.1
		S67,72.8,67.1,72.7C67,72.8,67,72.7,67.1,72.7c0-0.1,0-0.2-0.1-0.3c0,0,0,0,0-0.1c0,0,0,0,0-0.1c0,0,0,0,0-0.1c0,0,0,0,0-0.1
		c0,0,0,0,0,0c0,0,0,0,0,0c0,0,0,0,0,0s0,0,0,0c0,0,0,0,0,0c0,0,0,0,0,0c0,0,0,0.1,0,0.1c0,0,0,0.1,0,0.1c0,0,0,0.1,0,0.1
		C67.1,72.6,67.1,72.7,67.1,72.7z M67.6,72.3c0,0.1,0,0.2,0,0.3c0,0,0,0.1,0,0.1c0,0,0,0,0,0s0,0,0,0c0,0,0-0.1,0-0.1
		C67.6,72.5,67.6,72.4,67.6,72.3c0-0.1,0-0.2,0-0.3c0,0,0,0,0-0.1c0,0,0,0,0,0c0,0,0,0,0,0s0,0,0,0c0,0,0,0,0,0c0,0,0,0,0,0.1
		c0,0,0,0.1,0,0.1C67.6,72.2,67.6,72.2,67.6,72.3z M70.7,72.7C70.7,72.7,70.7,72.7,70.7,72.7c-0.1,0.1-0.1,0.1-0.1,0.1c0,0,0,0,0,0
		c0,0-0.1,0-0.1,0.1c0,0-0.1,0-0.1,0.1c0,0-0.1,0-0.1,0s0,0,0.1-0.1c0,0,0,0,0.1-0.1c0,0,0,0,0.1-0.1C70.6,72.8,70.6,72.7,70.7,72.7
		C70.7,72.7,70.7,72.7,70.7,72.7C70.7,72.6,70.8,72.6,70.7,72.7C70.8,72.6,70.8,72.6,70.7,72.7z"/>
	<g>
		<path d="M67.6,73.5c0,0,0.1,0,0.3,0c0.2,0,0.4,0,0.7-0.1c0.1,0,0.2-0.1,0.4-0.1c0.1-0.1,0.2-0.1,0.2-0.2c0.1-0.1,0.1-0.1,0.1-0.2
			c0-0.1,0-0.1,0-0.1s0,0,0,0.1c0,0.1,0,0.1-0.1,0.2c-0.1,0.1-0.1,0.2-0.2,0.2c-0.1,0-0.2,0.1-0.4,0.1c-0.3,0-0.5,0.1-0.7,0
			C67.7,73.5,67.6,73.4,67.6,73.5z"/>
	</g>
	<g>
		<path d="M65,73.6l0.6-0.1c0.1,0,0.1,0,0.1,0.1c0,0.1,0.1,0.1,0.1,0.1c0.1,0,0.2,0,0.3,0c0.4,0,0.8-0.1,1.2-0.1l0,0l0.1-0.3
			l-0.1,0.3l0,0l0,0c-0.4,0-0.8,0.1-1.2,0.1c-0.1,0-0.2,0-0.3,0c-0.1,0-0.1-0.2-0.2-0.2L65,73.6z"/>
	</g>
	<g>
		<path d="M69.3,73.1c0,0,0,0.1,0,0.1c0,0,0.1,0,0.1,0c0.1,0,0.1,0,0.2,0c0.3,0,0.5,0,0.5,0s-0.3,0-0.5,0.1c-0.1,0-0.1,0-0.2,0
			l-0.1,0c0,0-0.1,0-0.1,0C69.3,73.1,69.3,73.1,69.3,73.1L69.3,73.1z"/>
	</g>
	<g>
		<path d="M69.6,65.6c0,0,0.1,0.2,0.3,0.6c0.2,0.3,0.5,0.8,0.7,1.3c0,0.1,0.1,0.3,0,0.4c0,0.1-0.1,0.3-0.2,0.4
			c-0.1,0.2-0.3,0.4-0.5,0.5c-0.3,0.2-0.6,0.4-0.6,0.4s0.2-0.1,0.5-0.4c0.2-0.1,0.3-0.3,0.5-0.5c0.1-0.1,0.1-0.2,0.2-0.3
			c0.1-0.1,0-0.3,0-0.4c-0.1-0.5-0.5-1-0.7-1.3C69.8,65.8,69.6,65.6,69.6,65.6z"/>
	</g>
	<g>
		<path d="M63.7,67.2c0,0-0.1,0.2-0.2,0.5c0,0.1-0.1,0.3-0.1,0.5c0,0.2,0,0.4,0.1,0.6c0.1,0.2,0.2,0.3,0.4,0.4
			c0.2,0.1,0.3,0.2,0.5,0.2c0.3,0.1,0.5,0.1,0.5,0.1s-0.2,0-0.5-0.1c-0.1,0-0.3-0.1-0.5-0.2c-0.2-0.1-0.3-0.2-0.4-0.4
			c-0.1-0.2-0.1-0.4,0-0.6c0-0.2,0.1-0.4,0.1-0.5C63.6,67.4,63.7,67.2,63.7,67.2z"/>
	</g>
	<g>
		<path d="M64.3,69c0,0,0.5-0.2,1-0.4c0.1,0,0.3,0,0.4,0c0.1,0.1,0.2,0.1,0.3,0.2c0.1,0.1,0.2,0.2,0.2,0.2S66,69,65.9,68.9
			c-0.1-0.1-0.2-0.1-0.3-0.2c-0.1-0.1-0.2-0.1-0.3,0C64.8,68.8,64.3,69,64.3,69z"/>
	</g>
	<g>
		<path d="M66.6,69.5c0,0,0.2,0,0.6,0c0.3-0.1,0.7-0.3,1-0.7c0.2-0.2,0.3-0.3,0.4-0.5c0.1-0.2,0.4-0.2,0.5-0.2c0.3,0,0.6,0.1,0.6,0
			c0,0-0.2,0-0.6,0c-0.2,0-0.4,0.1-0.5,0.2c-0.1,0.1-0.3,0.3-0.5,0.5c-0.3,0.3-0.7,0.6-1,0.6C66.9,69.5,66.6,69.5,66.6,69.5z"/>
	</g>
	<path d="M68.6,68.4c0,0,0.4-0.1,0.6-0.2c0.1,0,0.4,0,0.4-0.1C69.7,68.1,68.8,67.9,68.6,68.4z"/>
	<path d="M65.8,68.9c0,0-0.2-0.2-0.3-0.2c-0.1,0-0.3,0-0.3,0L65.8,68.9z"/>
	<g>
		<path d="M65.1,77.9c0,0,0.4-0.1,1-0.2c0.3,0,0.6-0.1,1-0.2c0.4,0,0.8-0.1,1.2-0.1c0.4,0,0.8-0.1,1.2-0.1c0.4,0,0.7,0,1,0
			c0.6,0,1,0,1,0s-0.4,0-1,0c-0.3,0-0.6,0-1,0c-0.4,0-0.8,0.1-1.2,0.1c-0.4,0-0.8,0.1-1.2,0.1c-0.4,0.1-0.7,0.1-1,0.1
			C65.4,77.8,65.1,77.9,65.1,77.9z"/>
	</g>
	<g>
		<path d="M71.1,58.1c0,0-0.4,0.4-0.8,0.7c-0.1,0.1-0.2,0.2-0.3,0.2c-0.1,0.1-0.2,0.2-0.2,0.3c-0.1,0.2-0.1,0.3-0.1,0.3
			c0,0,0-0.1,0.1-0.3c0-0.1,0.1-0.2,0.2-0.3c0.1-0.1,0.2-0.2,0.3-0.3C70.6,58.4,71,58,71.1,58.1L71.1,58.1z"/>
	</g>
	<g>
		<path d="M69.8,59.7c0,0,0.1-0.1,0.2-0.2c0.1-0.1,0.3-0.3,0.6-0.4c0.3-0.1,0.7-0.1,1-0.1c0.4,0,0.8,0.1,1.2,0.1
			c0.4,0,0.8,0,1.2-0.1c0.2,0,0.3-0.1,0.5-0.2c0.2-0.1,0.3-0.1,0.4-0.2c0.3-0.2,0.5-0.3,0.6-0.4c0.1-0.1,0.2-0.2,0.2-0.2
			s-0.3,0.3-0.8,0.6c-0.1,0.1-0.3,0.1-0.4,0.2c-0.2,0.1-0.3,0.2-0.5,0.2c-0.4,0.1-0.8,0.1-1.2,0.1c-0.8,0-1.6-0.3-2.2-0.1
			c-0.3,0.1-0.5,0.3-0.6,0.4C69.8,59.6,69.8,59.7,69.8,59.7z"/>
	</g>
	<g>
		<path d="M75.2,58c0,0-0.2,0.2-0.5,0.3c-0.1,0.1-0.3,0.2-0.5,0.3c-0.1,0.1-0.2,0.1-0.3,0.2l-0.3,0.1C73.4,58.9,73.2,59,73,59
			c-0.2,0-0.4,0-0.6,0c-0.3,0-0.6-0.1-0.6-0.1s0.2,0,0.6,0c0.2,0,0.4,0,0.6,0c0.2,0,0.4-0.1,0.6-0.2l0.3-0.1
			c0.1-0.1,0.2-0.1,0.3-0.2c0.2-0.1,0.4-0.2,0.5-0.3C75.1,58.1,75.2,58,75.2,58z"/>
	</g>
	<path fill="none" stroke="#000000" stroke-width="4.218406e-002" stroke-miterlimit="10" d="M70.4,58.8c0,0,0.2,0,0.2,0.1"/>
	<path d="M77,54.5c-0.7-0.3-1.3-0.3-2-0.4c0,0-0.1,0-0.1,0c-0.1,0-0.3,0.1-0.4,0.1c-0.1,0-0.2,0-0.3,0.1c0,0-0.1,0-0.1,0.1
		c-0.1,0.1-0.3,0.1-0.4,0.1c-0.3,0.1-0.6,0.3-0.9,0.3c0,0,0,0,0,0c0,0.1-0.1,0.1-0.2,0.1c-0.1,0-0.1,0-0.2,0.1
		c0,0.1-0.1,0.1-0.2,0.1c-0.1,0-0.1,0-0.2,0c-0.1,0.1-0.1,0.1-0.2,0.1c0,0,0,0,0,0c0,0,0,0,0,0c-0.1,0-0.1,0-0.1,0
		c-0.1,0-0.2,0.1-0.3,0.1c-0.1,0-0.1,0.1-0.2,0.1c-0.1,0-0.3,0-0.4,0.1c-0.1,0.1-0.2,0.1-0.3,0.1c0,0-0.1,0-0.1,0
		c-0.1,0.1-0.3,0.2-0.4,0.2c-0.1,0.2-0.3,0.1-0.4,0.2c0,0.1-0.1,0.1-0.1,0.1c0,0,0,0.1,0,0.1c0,0,0,0.1,0,0.1c-0.1,0-0.1,0-0.2,0.1
		c0,0.1,0,0.1,0,0.2c0.1-0.1,0.2-0.1,0.4-0.2c0,0.1-0.1,0.1-0.2,0.2c0.1,0,0.1,0,0.2,0c0,0,0,0,0,0l-0.3,0.2c0,0,0,0,0,0
		c0,0,0,0,0.1,0c0,0,0.1,0,0.1,0c0,0,0,0,0,0c0,0.1-0.1,0.1-0.1,0.2c0.2-0.1,0.4-0.1,0.5-0.2c0,0,0,0.1-0.1,0.1
		c0.2,0,0.2-0.3,0.4-0.2c0,0,0,0-0.1,0c0,0,0.1,0,0.1-0.1c0,0.1,0,0.1,0.1,0.2c0,0,0,0,0,0c0,0,0-0.1,0-0.1c0.1,0,0.1,0,0.1,0
		c0,0,0,0.1,0,0.1c0.1,0,0.3,0,0.4-0.1c0,0,0.1,0,0.1,0c0,0,0,0,0,0c0,0,0.1,0,0.1,0c0,0,0.1,0,0.1,0c0,0,0,0,0,0c0,0,0,0,0,0
		c0,0,0.1,0,0.1,0c0.1-0.1,0.2-0.1,0.3-0.1c0.1,0,0.2-0.1,0.3-0.1c0.1,0,0.2,0,0.3,0c0,0,0,0,0,0c0,0,0.1-0.1,0-0.2
		c0.1,0,1.8-0.5,1.8-0.5c0.3-0.1,1-0.4,1.9-0.5c0.7-0.1,1.2-0.1,1.3-0.1c0.1,0,0.6,0.3,0.8,0.2C78,55.2,77.3,54.7,77,54.5z
		 M71.1,56.6c0.2-0.1,0.3-0.1,0.4-0.1C71.4,56.5,71.3,56.5,71.1,56.6z"/>
	<path d="M77,57.8C77,57.8,77,57.7,77,57.8c0.1-0.1,0.1-0.1,0.1-0.2c0,0,0.1-0.1,0.1-0.1c0,0,0-0.1,0.1-0.1c0.2-0.2,0.3-0.4,0.3-0.7
		c-0.1,0.2-0.1,0.3-0.2,0.5c-0.1,0.1-0.2,0.3-0.3,0.4c-0.1,0.1-0.3,0.2-0.4,0.3l0,0c0.2-0.4,0.6-0.6,0.6-1.1
		C77,56.7,77,56.8,77,56.9c0,0.1-0.1,0.2-0.2,0.2c0,0,0,0,0,0c0,0.2-0.3,0.3-0.4,0.4c0-0.2,0.1-0.2,0.2-0.2c0.1-0.1,0.1-0.2,0.2-0.3
		c-0.2,0.1-0.4,0.4-0.7,0.4c0.2-0.2,0.3-0.3,0.5-0.5c0.1-0.2,0.2-0.4,0.2-0.6c-0.1,0.2-0.2,0.4-0.3,0.6l-0.1,0c0,0,0-0.1,0-0.2
		c-0.1,0.1-0.2,0.2-0.3,0.2c0,0,0-0.1,0-0.1l0,0c0,0.1-0.1,0.1-0.1,0.2c0.1-0.2,0.1-0.4,0.2-0.6c0.1-0.2,0.1-0.5,0-0.6
		c0,0.2,0,0.3-0.1,0.5c0,0,0,0,0,0c0-0.1,0-0.2,0-0.3c-0.1,0.3-0.1,0.6-0.3,0.8c-0.1,0-0.1-0.1,0-0.1c0-0.1,0.1-0.1,0.1-0.2
		c-0.1,0-0.2,0-0.2,0c0,0,0,0.1-0.1,0.2c0-0.1,0-0.1,0.1-0.1c0,0,0,0,0,0c-0.1,0-0.1,0.1-0.2,0.1c0.1-0.4,0.1-0.7,0-0.8
		c0,0.2,0,0.4-0.1,0.5c0,0,0,0,0,0c0-0.1,0-0.1,0-0.2c0-0.1,0-0.1-0.1-0.2c0,0,0,0,0,0c0.1,0.2,0,0.3-0.2,0.4c0-0.1,0-0.1,0.1-0.2
		c-0.1,0.1-0.1,0-0.1-0.1c0,0.1,0,0.2-0.1,0.2c0,0-0.1,0.1-0.1,0.1c0,0,0-0.1-0.1-0.1c0-0.1,0-0.1-0.1-0.1c0.1-0.1,0.1-0.3,0.2-0.4
		c0,0,0,0,0,0l-0.2,0.3c0,0,0,0,0,0c0-0.1,0-0.3,0-0.4c0,0,0,0,0,0c0,0.1-0.1,0.3-0.2,0.5c-0.1-0.1-0.1-0.1-0.1-0.2
		c0,0-0.1,0.1-0.2,0.1c0-0.1,0-0.2,0-0.4c-0.1,0.1,0,0.2-0.1,0.3c0,0,0-0.1,0-0.1c0,0-0.1,0.1-0.1,0.1c0,0,0,0,0,0l0-0.1l0,0
		c0,0,0,0.1-0.1,0.1c0,0-0.1,0-0.1-0.1c0-0.1,0-0.1,0-0.2c0,0,0,0,0,0c0,0.1-0.1,0.1-0.1,0.2c0,0-0.1,0-0.1,0c0,0-0.1,0-0.1,0.1
		c0-0.1,0-0.1,0-0.2c0,0-0.1,0.1-0.1,0.1c0,0,0,0-0.1-0.1c0,0.1-0.1,0.1-0.1,0.2c-0.1,0.1-0.1-0.1-0.1-0.1c0,0,0,0.1-0.1,0.1l0,0
		c0,0,0-0.1,0-0.1c-0.1,0.1-0.2,0.1-0.2,0c-0.1,0.1-0.2,0-0.3,0.1c0,0.1,0,0.3,0,0.4c0,0,0,0,0,0c0,0.1,0,0.1,0,0.2c0,0,0,0,0,0
		c0,0,0-0.1-0.1-0.1c0,0,0,0,0-0.1c0,0,0,0,0,0c0-0.1,0-0.2,0-0.4c0,0,0,0,0,0c0,0,0,0.1-0.1,0.1c-0.1,0-0.1,0-0.2,0c0,0,0,0,0,0
		c0,0,0,0.1,0,0.1c0,0,0,0.1,0,0.1c0,0,0,0,0,0c0,0.1,0,0.1,0,0.2c-0.1-0.1-0.1-0.1-0.1-0.2c0,0,0,0,0,0c0,0,0-0.1,0-0.1
		c0,0,0,0,0-0.1c0,0,0,0-0.1,0c0,0,0,0,0,0c0,0.1,0,0.1,0,0.2c0,0,0,0,0,0c0,0.1,0,0.2,0,0.3c-0.1,0-0.1-0.1-0.2-0.2c0,0,0,0,0,0
		c0,0,0,0,0-0.1c0-0.1,0-0.1,0-0.2c0,0,0,0,0,0c0,0,0,0,0,0c0,0.1,0,0.1-0.1,0.2l0,0c0,0.1,0,0.2,0.1,0.2c-0.2,0-0.2,0.1-0.3,0.2
		c-0.1,0.1-0.2,0.2-0.3,0.4c0,0,0,0,0,0c0,0,0,0.1,0,0.1c0,0-0.1,0-0.1,0c0,0.1,0.1,0.1,0.1,0.2c-0.1,0-0.1,0-0.1,0
		c0,0.1-0.1,0.2-0.1,0.2c-0.1,0.1-0.2,0.2-0.2,0.3c-0.1,0.1-0.1,0.1-0.2,0.1c0,0.1-0.1,0.2-0.1,0.3c0.1,0,0.2-0.1,0.2-0.2
		c0.1,0,0.2,0,0.3,0c0,0,0.1,0,0.1,0c0.1-0.2,0.1-0.3,0.2-0.5c0.1,0,0.1,0,0.2,0c0,0,0,0,0.1,0c0.2-0.1,0.2-0.2,0.2-0.3
		c0,0,0.1,0.1,0.1,0.1c0,0,0.1,0,0.2,0c0,0,0-0.1,0.1-0.1c0,0,0-0.1,0-0.1c0,0,0,0,0,0c0,0.1,0.1,0.2,0.1,0.3
		c0.1,0.4,0.4,0.7,0.8,0.9c0.1,0,0.2,0,0.2-0.1c-0.1,0-0.2,0-0.2,0c-0.1,0-0.1,0-0.1-0.1c0-0.1,0.1-0.2,0.1-0.3
		c0.1,0,0.1,0.1,0.2,0.1c0.2-0.1,0.2-0.1,0.3,0.1c0.1,0,0.1-0.1,0.2-0.1c0,0,0,0,0,0c0,0.1,0,0.1,0.1,0.2c0,0,0,0.1,0,0.1
		c0,0,0,0,0,0c0-0.1-0.1-0.1-0.1-0.2c0,0-0.1,0-0.1,0.1c0,0-0.1-0.1-0.1-0.1c0,0.1,0,0.2-0.1,0.2c0,0.1-0.1,0.1-0.1,0.2
		c0.2,0,0.6-0.1,0.8-0.2c0.5-0.4,0.4-0.9,0.5-0.9c0.2,0.1,0.4,0.1,0.5,0.4c0.1,0.1,0.1,0.1,0.2,0.1c0,0.2-0.1,0.3-0.1,0.5
		c0.1,0,0.1,0,0.2,0c0,0.2,0.2,0.2,0.3,0.2c0,0.1-0.1,0.1-0.2,0c-0.2-0.2-0.3-0.2-0.5,0c0.1,0,0.1,0,0.2,0c0,0,0,0,0,0
		c-0.1,0-0.1,0-0.2,0c-0.1,0-0.1,0-0.1,0.1c-0.2,0-0.2,0-0.2,0.1c-0.2,0-0.4,0-0.6,0.1c0.2,0.1,0.3,0.2,0.3,0.5c0,0,0,0,0,0
		c0-0.1,0-0.2,0-0.3l0,0c0,0,0.1,0.1,0.1,0.1c0,0,0,0,0,0c0,0,0-0.1,0-0.1c0.1,0,0.2,0,0.3,0.1c0.1,0.1,0.1,0.2,0.2,0.3c0,0,0,0,0,0
		c0,0,0,0,0-0.1c0,0,0.1,0,0.1,0.1c0-0.1,0-0.1-0.1-0.2c0,0,0-0.1-0.1-0.2c0.1,0,0.1,0.2,0.2,0.1c-0.1-0.1-0.1-0.2-0.2-0.3
		c0,0,0,0,0,0l0.2,0.2c0,0,0,0,0,0c0,0-0.1-0.1-0.1-0.1l0,0c0,0,0.1,0.1,0.1,0.1c0,0,0,0,0,0c-0.1-0.1-0.1-0.2-0.2-0.2
		c0.3-0.1,0.6,0.1,0.9,0.2c0,0,0,0,0,0c-0.1-0.1-0.2-0.2-0.3-0.2l0,0c0.1,0,0.1,0.1,0.2,0.1c0-0.3,0.1,0,0.2,0
		c0-0.1,0.1-0.1,0.1-0.2c0,0,0-0.1,0-0.1c0,0,0,0,0-0.1c0,0,0.1,0,0.1,0c0,0,0.1,0,0.1,0c0-0.1,0-0.2-0.1-0.3c0.1,0,0.1,0,0.1,0.1
		c0,0,0,0,0,0c-0.1,0-0.1-0.1-0.2-0.1c0.1,0,0.1-0.1,0.2-0.1c0.1,0,0.2,0,0.3,0c0.1,0,0.2,0,0.3,0c-0.1,0-0.2,0-0.2,0
		c0.1-0.2,0.3-0.2,0.5-0.3c-0.1,0-0.1,0-0.2,0c0.2-0.1,0.4-0.1,0.6-0.3c-0.1,0-0.2,0.1-0.3,0.1C77,57.9,77,57.9,77,57.8
		C77.1,57.8,77,57.8,77,57.8c0,0.1-0.1,0.1-0.2,0.2C76.8,57.9,76.9,57.8,77,57.8z M71.2,58C71.2,58,71.2,58,71.2,58
		c0-0.1,0-0.1,0-0.2c0,0,0.1,0.1,0.1,0.1C71.2,57.9,71.2,58,71.2,58z M71.4,57.7C71.4,57.7,71.5,57.7,71.4,57.7
		c0.1,0,0.1,0.1,0.1,0.1C71.5,57.9,71.5,57.8,71.4,57.7z M72.2,58.1C72.2,58.1,72.3,58.1,72.2,58.1c0,0.1-0.1,0.1-0.2,0.2
		C72,58.1,72.2,58.2,72.2,58.1z M72.3,58.7L72.3,58.7c0-0.1,0-0.1,0-0.1c0,0,0.1,0,0.1,0L72.3,58.7C72.4,58.6,72.4,58.7,72.3,58.7z
		 M72.3,58.5c-0.2,0-0.2-0.1-0.2-0.2c0.1,0,0.1,0.1,0.2,0.1c0,0,0,0,0,0c0,0,0-0.1,0-0.1c0,0,0.1,0,0.1,0c0,0,0,0,0,0
		C72.4,58.3,72.4,58.4,72.3,58.5z M73,58c-0.1,0-0.1,0-0.1,0c0-0.1,0-0.1-0.1-0.2c0,0,0,0-0.1,0c0,0.1-0.1,0.1-0.1,0.2
		c-0.1,0-0.3-0.3-0.2-0.4c0-0.1,0.2-0.1,0.2-0.1c0,0,0,0,0,0c0,0,0.1,0,0.1,0c0,0,0,0,0,0c0,0,0.1,0.1,0.1,0.1c0-0.1,0-0.1,0-0.1
		c0.1,0,0.2,0.2,0.2,0.3C73.2,57.9,73.1,58,73,58z M73.5,58.5c-0.1,0-0.1-0.1-0.2-0.1C73.4,58.4,73.4,58.5,73.5,58.5
		C73.5,58.5,73.5,58.5,73.5,58.5C73.5,58.5,73.5,58.5,73.5,58.5z M75.1,56.8c0.1-0.1,0.1-0.2,0.2-0.3C75.3,56.6,75.3,56.7,75.1,56.8
		z M76.3,58c0.2-0.1,0.3-0.1,0.5-0.2c0,0,0,0,0,0C76.6,58,76.5,58.1,76.3,58z M76.6,57.8c0.1,0,0.2-0.1,0.3-0.1c0,0,0,0,0,0
		C76.8,57.8,76.7,57.8,76.6,57.8z"/>
	<path d="M72.2,59.6c0-0.2-0.1-0.3-0.1-0.4c0,0,0,0,0,0c0,0,0,0.1,0.1,0.1c0,0,0,0,0,0c0,0,0-0.1,0-0.1c0.1,0,0.1,0,0.2,0
		c0.1,0,0.1,0.1,0,0.1C72.4,59.4,72.3,59.5,72.2,59.6z"/>
	<path d="M73,59.7c-0.1,0-0.1-0.1-0.2-0.1c0-0.1-0.1-0.2-0.1-0.3c0,0,0,0,0,0c0,0,0,0,0.1,0.1c0-0.1,0-0.1,0-0.1c0.1,0,0.1,0,0.1,0
		c0,0.1,0,0.1,0.1,0.2c0-0.1,0.1-0.1,0.1-0.2c0,0,0,0,0,0c0,0.1,0,0.1,0,0.2C73,59.4,73,59.4,73,59.7z"/>
	<path d="M73.3,59.3c0.1,0.1,0.2,0.1,0.3,0.2c0,0,0,0,0,0c0,0,0,0-0.1-0.1c0,0,0,0,0,0c0,0.1,0.1,0.1,0.1,0.2c0,0,0,0,0,0
		C73.5,59.6,73.4,59.5,73.3,59.3C73.3,59.3,73.3,59.3,73.3,59.3z"/>
	<path d="M71.4,59.3c0.1-0.1,0.2-0.1,0.3-0.2c0.1,0,0.1,0,0.1,0C71.7,59.2,71.6,59.3,71.4,59.3C71.4,59.3,71.4,59.3,71.4,59.3z"/>
	<path d="M72,59.2c0,0.1,0,0.2,0,0.3c0,0,0,0,0,0C71.9,59.4,71.9,59.3,72,59.2z"/>
	<path d="M71.8,59.4c0-0.1,0-0.1,0.1-0.2c0,0,0,0,0,0C71.8,59.3,71.8,59.4,71.8,59.4C71.8,59.4,71.8,59.4,71.8,59.4z"/>
	<g>
		<path d="M69.2,59.4c0,0,0.1-0.2,0.2-0.4c0.2-0.2,0.4-0.6,0.7-0.8c0.3-0.3,0.6-0.5,0.9-0.7c0.3-0.2,0.4-0.3,0.4-0.3l0.1,0.1
			c0,0-0.2,0.1-0.4,0.2c-0.3,0.1-0.6,0.4-0.9,0.6c-0.3,0.3-0.5,0.6-0.7,0.8C69.3,59.2,69.2,59.4,69.2,59.4z"/>
	</g>
	<path d="M73.8,42.2c0.3,0.3,2.8,5.2-0.9,10.5c-3.7,5.3-9,7.4-9,7.4s4.3-3.6,6.4-8.6c2.1-5,1.6-6.1,1.6-6.1s0,9.5-8.3,14.3
		s-8.8,2.7-8.8,2.7s-3.2,2.2-6.8,1.6s2.2,0.6,4.1-2.2c1.9-2.8,1.4-7.1,1.2-10.5c-0.2-3.4,0.1,8.6-1.9,10.3c-2,1.6-2.4,3.5-0.8,4.2
		S39.4,62.9,52.9,45s-5.3,9.7-7.1,8.6c0,0-1.5-1.9-0.6-4.9c0.9-3,0.5-0.9-1.3-3.1c-1.8-2.2-2.1-4.3-0.9-7.2s1.4-2.5,1.4-2.5
		s3.2-1.2,6.2-0.9c2.7,0.3,3.9-0.9,8.8,0.5c0.3,0.1,0.9,0.2,1.8,0.2c0.7,0,1-0.5,3.3-0.7c2-0.2,4,0.4,5.3,0.5
		c0.8,0.1,0.1-0.5,0.9-0.5c1.7-0.1,4.3-1.1,5.7-1.1c3.1,0,6,1.9,6,1.9s-0.8,1.5,1,3.6c1.8,2.2,2.8,2.2,2.8,2.2s0.3,2.2-0.8,3.2
		c-1.1,1.1,0.2,1.5-2.1,2.7c-1.5,0.8-0.9,3.3-0.9,3.3l-0.8,0.8l0.2,0.8c0,0,1,0.6,1.9,2c0.9,1.4,0.9,4.4,0.1,6.6
		c-0.8,2.2-2.5,6.2-1.4,6.8s1.5-1.7,1.5-1.7s-0.1,4.1-2.2,0.8c-2.1-3.3,2.4-4.4,0.6-8.3C80.5,54.9,80,53,80,53s-0.2,0.6-2.1-2.1
		C76.1,48.2,73.8,42.2,73.8,42.2z"/>
	<path d="M80.4,65c0,0,0.5,11.7,2,12.9c0.4,0.3,0,0.5-0.2,0.7c-0.2,0.3-0.5,0.7-0.5,0.7s-2.2-1.5-2.7-3.8c-0.5-2.3-0.5-2.3-0.5-2.3
		s0.9-0.7,1.5-3.7C80.1,68.4,80.2,66.6,80.4,65z"/>
	<g>
		<path d="M80.6,63.4c0,0,0.2,0,0.4-0.1c0.2-0.1,0.5-0.4,0.7-0.7c0.2-0.3,0.3-0.7,0.3-0.9c0-0.3,0.1-0.4,0.1-0.4s0,0.2,0,0.4
			c0,0.1,0,0.3-0.1,0.5c-0.1,0.2-0.1,0.3-0.2,0.5c-0.2,0.3-0.5,0.6-0.7,0.7C80.8,63.4,80.6,63.4,80.6,63.4z"/>
	</g>
	<path d="M41.6,57c0,0-0.9,4.3-2,7.2c-1.4,4,1.6,8.4,5.1,12.4c3.5,4,2.6,4.1,3.9,5.3c0.6,0.5,2.4,2.4,2.4,2.4l2.7,0.3
		c0,0,0.7-0.5-5.6-8.5c-6-7.6-5.4-9.4-5.4-12.4S41.6,57,41.6,57z"/>
	<path d="M54.7,83.9c0,0,4.5-0.2-2.5-6.7c-7-6.5-9.1-7.8-9-10.6c0.1-2.9-0.5-8.6-0.8-9.9c-0.2-1.1,3.5-3,3.5-3s0.3,9.9,3.5,11.8
		c2.4,1.3,2,0.1,2,0.1s-0.2-0.2-1-0.7c-0.8-0.5-0.3-0.6-0.3-0.6l2.1-0.4c0,0,1,2.7,1.3,3.8c0.4,1.2,0.5,3.1,1,4
		c0.4,0.8,1.6,2.1,1.6,2.1s3.2,10.5,1.8,11.1s-3.3,0.2-4,0C53.1,84.6,54.7,83.9,54.7,83.9z"/>
	<path d="M45,70.9c0,0,8,10.5,7.7,12c-0.3,1.6,2,1.2,2,1.2S53.9,77.6,45,70.9z"/>
	<path d="M58.2,86.3c0,0,0.4-1.5,0-3.5"/>
	<g>
		<path d="M41.8,57.5c0,0-0.3,0.3-0.9,1c-0.5,0.7-1.3,1.6-2.1,2.8c-0.8,1.2-1.6,2.7-2.1,4.5c-0.5,1.7-0.7,3.7-0.2,5.6
			c0.3,0.9,0.7,1.8,1.2,2.6c0.5,0.8,1,1.6,1.6,2.3c0.3,0.3,0.6,0.7,0.9,1c0.3,0.3,0.6,0.6,0.9,0.9c0.6,0.6,1.2,1,1.8,1.5
			c1.2,0.9,2.2,1.4,3,1.8c0.8,0.4,1.2,0.6,1.2,0.6s-0.5-0.2-1.2-0.5c-0.8-0.4-1.8-1-3-1.8c-0.6-0.4-1.2-0.9-1.8-1.5
			c-0.3-0.3-0.6-0.6-0.9-0.9c-0.3-0.3-0.6-0.6-0.9-1c-0.6-0.7-1.2-1.4-1.7-2.3c-0.5-0.8-1-1.7-1.2-2.6c-0.6-1.9-0.4-3.9,0.1-5.6
			c0.5-1.8,1.3-3.3,2.1-4.5c1.5-2.5,2.9-3.9,2.9-3.9L41.8,57.5z"/>
	</g>
	<g>
		<path d="M40.6,59.2c0,0-0.9,1.2-1.7,3.4c-0.2,0.5-0.4,1.1-0.6,1.7c-0.2,0.6-0.3,1.3-0.4,2c-0.1,0.3-0.1,0.7-0.1,1.1
			c0,0.4,0,0.7,0,1.1c0,0.4,0,0.7,0.1,1.1c0.1,0.4,0.1,0.7,0.3,1.1c0.2,0.7,0.6,1.4,1,2c0.5,0.6,1,1.1,1.5,1.6c1,1,2,1.9,2.8,2.7
			c0.9,0.7,1.6,1.4,2.1,1.8c0.3,0.2,0.5,0.4,0.6,0.5c0.2,0.1,0.2,0.1,0.2,0.1s-0.1-0.1-0.2-0.1c-0.1-0.1-0.3-0.3-0.6-0.5
			c-0.5-0.4-1.2-1-2.1-1.8c-0.8-0.8-1.8-1.7-2.9-2.6c-0.5-0.5-1-1-1.5-1.6c-0.4-0.6-0.8-1.3-1.1-2c-0.2-0.3-0.2-0.7-0.3-1.1
			c-0.1-0.4-0.1-0.7-0.2-1.1c0-0.4-0.1-0.7,0-1.1c0-0.4,0-0.7,0.1-1.1c0.1-0.7,0.3-1.4,0.4-2c0.2-0.6,0.4-1.2,0.6-1.7
			c0.8-2.1,1.7-3.4,1.7-3.4L40.6,59.2z"/>
	</g>
	<path fill="none" stroke="#000000" stroke-width="4.218406e-002" stroke-miterlimit="10" d="M40.8,58.5c0,0-5.8,9.4,1.3,16.7"/>
	<path d="M70.1,73.7c-1.3,0.7-2.6,0.9-4,0.7c-1.3-0.1-1.9-0.5-2.4-0.5c-0.5,0-1.7,0-1.7,0s0.8,1,1.4,1.8c0.7,0.9,2.1,1.6,4.2,1.5
		c2.2-0.2,3-1,3.4-1.6c0.5-0.6,1.4-2.4,1.4-2.4S71.4,73,70.1,73.7z M63.6,74.7L63.4,75l-0.1-0.2l-0.2,0.1l0-0.3L63,74.5l-0.2-0.2
		v-0.1H63h0.2l0.1,0.1l-0.1,0.2l0.2-0.2V74.7z M66.7,75.1C66.7,75.1,66.7,75.1,66.7,75.1c0,0.1,0,0.1,0,0.2c0,0,0,0.1,0,0.1
		c0,0,0,0,0,0c0,0,0,0,0,0c0,0,0,0,0,0c0,0,0,0,0,0c0,0,0,0,0,0s0,0,0,0c0,0,0,0,0,0c0,0,0,0,0,0c0,0,0-0.1,0-0.1c0,0,0-0.1,0-0.1
		C66.7,75.2,66.7,75.2,66.7,75.1C66.6,75.1,66.6,75.1,66.7,75.1C66.6,75,66.6,75,66.7,75.1C66.6,75,66.6,75,66.7,75.1z M63.8,75.2
		C63.8,75.3,63.8,75.3,63.8,75.2C63.8,75.3,63.8,75.3,63.8,75.2C63.8,75.2,63.8,75.2,63.8,75.2c0-0.1,0-0.2,0.1-0.2
		c0,0,0-0.1,0.1-0.1c0,0,0.1-0.1,0.1-0.1c0,0,0.1-0.1,0.1-0.1c0-0.1,0.1-0.1,0.1-0.1s0,0-0.1,0.1c0,0,0,0.1-0.1,0.1
		c0,0,0,0.1-0.1,0.1c0,0,0,0,0,0.1c0,0,0,0,0,0.1C63.9,75.1,63.9,75.1,63.8,75.2C63.9,75.2,63.8,75.2,63.8,75.2z M64.7,75.5
		l-0.3,0.2l0.1-0.2l-0.3,0.1l0.1-0.5l-0.3,0.3l0.2-0.4l0.5-0.3l-0.3,0.6l0.6-0.3l-0.1,0.3l0.5-0.4l-0.4,0.7L64.7,75.5z M65.2,76.2
		v-0.5c0,0-0.1,0-0.2,0.3c-0.1,0.3,0-0.5,0.2-0.9l0.3-0.3l-0.3,0.6l0.5-0.5l-0.4,0.8L65.2,76.2z M66.8,75.8L66.7,76l-0.4,0.2v-0.2
		L66,76.2l0-0.3l-0.2,0.2l0-0.3l-0.3,0.3l0.2-0.5l0.3-0.2v0.1l0.3-0.3l-0.2,0.3l0.3-0.1l0.1,0.2c0,0,0.2,0.1,0.3-0.2
		c0.1-0.3,0.1-0.3,0.1-0.3L66.8,75.8z M69.1,75.1C69.1,75.1,69.1,75.1,69.1,75.1C69.1,75.1,69.1,75,69.1,75.1c0-0.1,0-0.1,0-0.1
		c0,0,0,0,0,0c0,0,0.1,0,0.1,0s0,0,0,0c0,0,0,0,0,0C69.1,75,69.1,75,69.1,75.1C69.1,75.1,69.1,75.1,69.1,75.1
		C69.1,75.1,69.1,75.1,69.1,75.1C69.1,75.1,69.1,75.1,69.1,75.1C69.1,75.2,69.1,75.2,69.1,75.1c0,0.1,0,0.1,0,0.1c0,0,0,0,0,0
		s0,0,0,0C69.1,75.2,69.1,75.2,69.1,75.1C69.1,75.1,69.1,75.1,69.1,75.1C69.1,75.1,69.1,75.1,69.1,75.1z M67.4,76.7
		C67.4,76.7,67.4,76.7,67.4,76.7c0-0.1,0-0.2,0-0.2c0,0,0-0.1,0-0.1c0,0,0-0.1,0-0.2c0-0.1,0-0.2,0-0.3c0-0.1,0-0.2,0-0.3
		c0-0.1,0-0.2,0-0.3c0-0.1,0-0.2,0-0.2c0,0,0-0.1,0-0.1s0,0,0,0.1c0,0,0,0.1,0,0.2c0,0.2,0,0.4,0,0.6c0,0.1,0,0.2,0,0.3
		c0,0.1,0,0.1,0,0.2c0,0,0,0.1,0,0.1C67.4,76.6,67.4,76.6,67.4,76.7C67.4,76.7,67.5,76.7,67.4,76.7C67.5,76.8,67.5,76.8,67.4,76.7
		C67.5,76.8,67.5,76.8,67.4,76.7z M68.9,75.6l-0.1,0.1l-0.2-0.1c0,0-0.1,0-0.1,0.2s-0.2,0-0.2,0l-0.1,0.3L68,75.8
		c0,0-0.1,0.1-0.1,0.4c0,0.2-0.2-0.3-0.2-0.3l0,0.3c0,0-0.2,0-0.2-0.8l0.2-0.2l0.1,0.2l0.2-0.2c0,0,0.1,0.1,0.1,0.2
		c0,0.1,0.1,0.4,0.1,0.4v-0.6l0.1,0.2l0.1-0.2l0.2-0.2l0.1,0.3l0.1-0.3l0.2,0.2h0.1l0.3,0.5L68.9,75.6z M69.3,75.7
		C69.3,75.7,69.3,75.7,69.3,75.7C69.3,75.7,69.3,75.6,69.3,75.7C69.2,75.6,69.2,75.6,69.3,75.7c-0.1-0.1-0.2-0.2-0.2-0.2
		c0,0,0-0.1-0.1-0.2c0,0,0-0.1,0-0.1c0,0,0-0.1,0-0.1c0,0,0-0.1,0-0.1c0,0,0,0,0-0.1c0,0,0-0.1-0.1-0.1c0,0,0,0,0,0s0,0,0,0
		c0,0,0,0,0.1,0.1c0,0,0,0,0,0.1c0,0,0,0,0,0.1c0,0,0,0.1,0,0.1c0,0,0,0.1,0,0.1c0,0,0,0.1,0,0.1c0,0,0,0.1,0,0.1c0,0,0,0.1,0.1,0.1
		C69.2,75.6,69.2,75.6,69.3,75.7C69.3,75.6,69.3,75.7,69.3,75.7C69.3,75.7,69.3,75.7,69.3,75.7C69.3,75.7,69.3,75.7,69.3,75.7z"/>
	<g>
		<path d="M66.9,69.9c0,0-0.1,0.2-0.2,0.4c0,0.1-0.1,0.3-0.2,0.4c0,0.1-0.1,0.2-0.1,0.3c0,0.1,0,0.2,0.1,0.2c0.3,0.2,0.7,0.2,0.9,0
			c0.3-0.1,0.2-0.4,0.2-0.4c0,0,0.1,0.2-0.2,0.4c-0.2,0.2-0.7,0.2-1,0c-0.1-0.1-0.1-0.2-0.1-0.3c0-0.1,0-0.2,0.1-0.3
			c0.1-0.2,0.1-0.3,0.2-0.4C66.8,70.1,66.9,69.9,66.9,69.9z"/>
	</g>
	<g>
		<path d="M68.6,58c0,0-0.1,0.1-0.2,0.4c-0.1,0.1-0.1,0.3-0.1,0.5c-0.1,0.2,0,0.4-0.1,0.5c0,0.2,0,0.4,0,0.5c0,0.2,0,0.3,0,0.5
			c0,0.3,0.1,0.5,0.1,0.5s0-0.2-0.1-0.5c0-0.1-0.1-0.3-0.1-0.5c0-0.2,0-0.4,0-0.6c0-0.2,0-0.4,0.1-0.5c0-0.2,0.1-0.3,0.2-0.5
			C68.5,58.2,68.6,58,68.6,58z"/>
	</g>
	<g>
		<path d="M40.4,35.9c0,0-0.3,2.6-0.7,6.5c-0.1,0.5-0.1,1-0.2,1.5c-0.1,0.5,0,1.1-0.3,1.6c-0.5,1-1.3,1.9-2.1,2.9
			c-1.6,1.9-3.4,3.8-5.2,5.6c-3.7,3.7-7.5,7.3-10.3,10c-2.9,2.7-4.8,4.4-4.8,4.4s1.9-1.8,4.7-4.5c2.8-2.7,6.6-6.4,10.3-10.1
			c1.8-1.9,3.7-3.7,5.3-5.6c0.8-0.9,1.6-1.8,2.1-2.8c0.3-0.5,0.2-1.1,0.3-1.6c0.1-0.5,0.1-1,0.2-1.5C40,38.5,40.4,35.9,40.4,35.9z"
			/>
	</g>
	<path d="M44.4,46.5c0,0,0.1,6.3-8.5,16.4s-12,17.5-12,17.5l-2.3,4.7c0,0,9.4-14.7,12.3-18.3C36.8,63.2,45,53.2,45,53.2
		S45,48,44.4,46.5z"/>
	<g>
		<path d="M75.8,86.3c0,0,0.6-0.8,1.5-2c0.9-1.2,2.2-2.7,3.6-4.2c0.7-0.8,1.4-1.4,2.1-2.1c0.7-0.7,1.4-1.2,1.9-1.7
			c0.6-0.5,1.1-0.8,1.5-1.1c0.4-0.2,0.6-0.4,0.6-0.4s-0.2,0.1-0.6,0.4c-0.3,0.3-0.9,0.6-1.5,1.1c-0.6,0.5-1.2,1.1-1.9,1.7
			c-0.6,0.7-1.4,1.4-2,2.1c-1.4,1.5-2.7,3-3.6,4.2C76.4,85.5,75.8,86.3,75.8,86.3z"/>
	</g>
	<g>
		<path d="M84.5,81.6c0,0,0.6-1.8,1.6-4.3c1-2.6,2.4-6,3.9-9.4c0.8-1.7,1.6-3.3,2.4-4.9c0.4-0.8,0.8-1.5,1.2-2.2
			c0.4-0.7,0.8-1.3,1.2-1.9c0.3-0.6,0.7-1.1,1.1-1.6c0.3-0.5,0.6-0.9,0.9-1.2c0.5-0.6,0.8-1,0.8-1s-0.3,0.4-0.8,1
			c-0.3,0.3-0.5,0.7-0.8,1.2c-0.3,0.5-0.7,1-1,1.6c-0.3,0.6-0.8,1.2-1.1,1.9c-0.4,0.7-0.8,1.4-1.2,2.2c-0.8,1.5-1.6,3.2-2.4,4.9
			c-1.6,3.3-3,6.8-4,9.3C85.2,79.9,84.5,81.6,84.5,81.6z"/>
	</g>
	<g>
		<path d="M86.2,35.9c0,0,0.6,0.4,1.7,1c0.3,0.1,0.5,0.3,0.9,0.4c0.3,0.1,0.6,0.2,1,0.3c0.4,0,0.7,0.1,1.1,0c0.4,0,0.8,0,1.1-0.1
			c3.1-0.2,6.1-0.7,6.1-0.7s-3,0.5-6.1,0.8c-0.4,0-0.8,0-1.1,0.1c-0.4,0-0.7,0-1.1-0.1c-0.4-0.1-0.7-0.2-1-0.3
			c-0.3-0.1-0.6-0.2-0.9-0.4C86.8,36.4,86.2,35.9,86.2,35.9z"/>
	</g>
	<g>
		<path d="M85.6,45.9c0,0,0.2,0.1,0.5,0.3c0.3,0.2,0.8,0.5,1.3,0.8c0.3,0.1,0.6,0.3,0.9,0.4c0.3,0.1,0.7,0.2,1.1,0.4
			c0.4,0.1,0.8,0.2,1.2,0.3c0.4,0.1,0.8,0.2,1.2,0.2c0.8,0.1,1.7,0.3,2.5,0.4c0.4,0.1,0.8,0.2,1.1,0.3c0.4,0.1,0.7,0.2,1,0.3
			c0.3,0.1,0.6,0.2,0.8,0.4c0.2,0.1,0.4,0.3,0.6,0.4c0.1,0.1,0.2,0.2,0.3,0.3c0.1,0.1,0.1,0.1,0.1,0.1s0-0.1-0.1-0.1
			c0-0.1-0.2-0.2-0.3-0.3c-0.2-0.1-0.3-0.2-0.6-0.4c-0.2-0.1-0.5-0.3-0.8-0.3c-0.3-0.1-0.6-0.2-1-0.3c-0.4-0.1-0.7-0.2-1.1-0.2
			c-0.8-0.1-1.6-0.2-2.5-0.4c-0.4-0.1-0.8-0.1-1.2-0.2c-0.4-0.1-0.8-0.2-1.2-0.3c-0.4-0.1-0.7-0.3-1.1-0.4c-0.3-0.2-0.6-0.3-0.9-0.4
			c-0.6-0.3-1-0.6-1.3-0.8C85.7,46,85.6,45.9,85.6,45.9z"/>
	</g>
	<g>
		<path d="M90.2,48.2c0,0-0.1,0-0.3,0.1c-0.2,0-0.5,0.1-0.9,0.2c-0.2,0-0.4,0.1-0.6,0.1c-0.2,0.1-0.4,0-0.7,0c-0.5,0-1-0.1-1.5-0.1
			c-0.2,0-0.5,0-0.7,0c-0.2,0-0.5,0.1-0.7,0.1c-0.5,0.1-0.8,0.3-1.2,0.4c-0.7,0.3-1.1,0.5-1.1,0.5s0.4-0.2,1.1-0.6
			c0.3-0.1,0.7-0.3,1.2-0.4c0.2-0.1,0.5-0.2,0.7-0.1c0.2,0,0.5,0,0.8,0c0.5,0,1,0.2,1.4,0.2c0.2,0,0.5,0.1,0.7,0
			c0.2,0,0.4-0.1,0.6-0.1C89.7,48.3,90.2,48.2,90.2,48.2z"/>
	</g>
	<g>
		<path d="M60.2,81.1c0,0,0.5,1.2,0.9,2.5c0.2,0.7,0.3,1.3,0.3,1.8c0,0.3,0,0.5-0.1,0.6c0,0.1-0.1,0.2-0.1,0.2s0-0.1,0.1-0.2
			c0-0.1,0.1-0.4,0.1-0.6c0-0.5-0.1-1.2-0.3-1.8C60.8,82.3,60.2,81.1,60.2,81.1z"/>
	</g>
	<g>
		<path d="M50.3,84.2c0,0-1.8,0-4.4,0.2c-1.3,0.1-2.9,0.2-4.5,0.3c-0.8,0.1-1.7,0.2-2.5,0.3c-0.9,0.1-1.7,0.2-2.6,0.4
			c-0.9,0.2-1.7,0.4-2.6,0.5c-0.9,0.1-1.7,0.4-2.5,0.4c-0.4,0-0.8,0-1.2,0.1c-0.4,0-0.8,0-1.2,0c-0.8,0-1.5-0.1-2.1-0.2
			c-0.7-0.1-1.2-0.2-1.8-0.3c-0.5-0.1-1-0.2-1.4-0.3c-0.7-0.2-1.2-0.3-1.2-0.3s0.4,0.1,1.2,0.3c0.4,0.1,0.8,0.2,1.4,0.3
			c0.5,0.1,1.1,0.2,1.8,0.3c0.7,0.1,1.4,0.2,2.1,0.2c0.4,0,0.8,0,1.2,0c0.4,0,0.8-0.1,1.2-0.1c0.8,0,1.7-0.2,2.5-0.4
			c0.8-0.2,1.7-0.4,2.6-0.5c0.9-0.1,1.7-0.3,2.6-0.4c0.9-0.1,1.7-0.2,2.5-0.2c1.6-0.1,3.2-0.2,4.5-0.3
			C48.5,84.2,50.3,84.2,50.3,84.2z"/>
	</g>
</g>
</svg>
