<?xml version="1.0" encoding="utf-8"?>
<!-- Generator: Adobe Illustrator 18.1.1, SVG Export Plug-In . SVG Version: 6.00 Build 0)  -->
<svg version="1.1" id="Слой_1" xmlns="http://www.w3.org/2000/svg" xmlns:xlink="http://www.w3.org/1999/xlink" x="0px" y="0px"
	 viewBox="0 0 120 120" enable-background="new 0 0 120 120" xml:space="preserve">
<path fill="none" stroke="#D62228" stroke-width="0.5" stroke-miterlimit="5" d="M10.7,93.6c0,0-0.3-1.9,0.8-3.4s1.6-2.4,1.6-2.4
	s-0.1-1,0.3-1.7s1.6-1.5,1.6-1.5l1.8-0.3v-0.6c0,0-1.3-1.6-1.3-2.9c0-1.3,1.3-3.3,1.3-3.3s0-3.6,0.3-6.4s0-3.6,0-3.6
	s0.6-0.8,0.7-1.2c0.1-0.4,0-0.9,0-0.9l-0.4-1.9c0,0-0.3-9.4-0.4-10.8c-0.2-1.4-0.4-2.4-0.4-2.4L16.3,45l0.3-0.7c0,0-0.8-1.3-1.2-2.3
	c-0.3-1-0.6-4.7-0.6-4.7s-1-2.5-1.2-4.1c-0.2-1.6-0.6-3.4-0.6-3.4l0.1-2.8c0,0,0.1-0.8,1.1-0.6c1,0.3,3.1,0.8,3.1,0.8l5.3,1.5
	c0,0,5.8,2.9,9.6,3.2c3.9,0.3,5.3,1,5.3,1s0.8,0.8,1.7,1c0.9,0.1,3,0,3,0l0.8,0.6c0,0,1.5-0.5,2.1,0c0.6,0.5,1.5,0.7,1.5,0.7
	l1.5-0.3c0,0,3.9,0.1,5.1,0.1s2.6-0.3,2.6-0.3s1.3,0.4,1.9,0.5c0.6,0.1,2,0.1,2,0.1l0.8,0.6l1.3-0.5l3-0.4h2.6c0,0,1.3,0.6,1.8,0.6
	s1.9-0.8,1.9-0.8l2.2-0.1c0,0,1.6-0.4,2.3-0.7c0.7-0.3,5.5,0,5.5,0s1.7-0.7,2.4-1c0.7-0.3,3.3-0.6,3.3-0.6l2.8-0.2l3.7-1.3l3.4-0.8
	l1.6-0.4l1.2-0.1l1.3,0.1c0,0,0.6-1.3,2-1.3c1.3,0,1.8-0.5,1.8-0.5l2-0.2c0,0,1-0.1,1,0.5s-0.3,2.4-0.3,2.4s0,2.6-0.8,3.5
	c-0.8,0.9-1,1.8-1,1.8s-0.4,1.6-0.4,2.3c0,0.7-2.5,10.5-2.8,11.8c-0.3,1.3-2.2,3.6-2.2,3.6s1,1.7,1,3S101,67.7,101,67.7
	s0.1,0.7,0.3,1c0.1,0.3-0.1,2.3-0.1,2.3s0.7,1.3,0.6,1.7c-0.1,0.3-0.8,2.4-0.8,2.4s1.9,2.8,2.1,4.5c0.2,1.7-0.1,3.6-0.1,3.6l-0.4,1
	l-0.1,1.1c0,0,3.1,0.5,4.3,2.9c1.2,2.4,1.8,4.2,1.8,4.2l-0.5,1.1c0,0-7.4,0.2-8.6,0c-1.2-0.2-7.5-2.6-10.5-2.9
	c-3-0.3-4.2-1.6-4.2-1.6s-0.6,0.4-1.9,0.2s-7.5-2-8.7-2.1c-1.2-0.1-2.4,0.1-3.6,0.3c-1.2,0.1-11.3-0.6-12.8-0.1
	c-1.5,0.4-7.2,0.8-9.2,0.6c-2-0.2-4.2-0.3-7.3,0.6c-3.1,1-2.3,0-4.9,0.9c-2.6,0.9-4,0.7-4,0.7s-9.4,2.5-12,2.8
	c-2.6,0.3-4.4,0.7-4.4,0.7h-3.3C12.7,93.7,11.8,94.5,10.7,93.6z"/>
<g>
	<path fill="#D52328" d="M17.3,84.1c0,0,0.1,0,0.3-0.1c0.1,0,0.2-0.1,0.3-0.2c0.1-0.1,0.2-0.1,0.2-0.2c0,0,0-0.1,0-0.1
		c0,0,0-0.1,0-0.2c0-0.1-0.1-0.2-0.1-0.3c-0.1-0.2-0.2-0.3-0.2-0.3s0.1,0.1,0.3,0.2c0.1,0.1,0.1,0.2,0.2,0.3c0,0.1,0.1,0.1,0.1,0.2
		c0,0.1,0,0.2,0,0.2c0,0.2-0.2,0.3-0.2,0.4c-0.1,0.1-0.2,0.2-0.3,0.3c-0.2,0.1-0.3,0.2-0.3,0.2L17.3,84.1z"/>
</g>
<g>
	<path fill="#D52328" d="M98.4,93c0,0,0.5,0.2,1.3,0.2c0.2,0,0.4,0,0.6-0.1c0.2-0.1,0.5-0.1,0.7-0.2c0.5-0.2,1-0.5,1.5-0.7
		c2-1,4.1-2,4.1-2s-2,1.1-4,2.2c-0.5,0.3-1,0.6-1.5,0.8c-0.2,0.1-0.5,0.2-0.7,0.3c-0.2,0.1-0.5,0.1-0.7,0.1c-0.4,0-0.8,0-1.1-0.1
		c-0.3,0-0.4-0.1-0.4-0.1L98.4,93z"/>
</g>
<g>
	<path fill="#D52328" d="M100.4,51.1C100.4,51.1,100.4,51.1,100.4,51.1c0-0.1,0.1-0.2,0-0.3c0-0.1,0-0.1-0.1-0.2
		c0-0.1-0.1-0.1-0.1-0.2c-0.1-0.1-0.3-0.2-0.4-0.4c-0.2-0.1-0.3-0.2-0.5-0.3c-0.2-0.1-0.3-0.1-0.5-0.2c-0.3-0.1-0.5-0.2-0.5-0.2
		s0.2,0,0.5,0.1c0.1,0,0.3,0.1,0.5,0.1c0.2,0.1,0.4,0.2,0.6,0.2c0.2,0.1,0.4,0.2,0.5,0.3c0.1,0.1,0.1,0.2,0.2,0.2
		c0.1,0.1,0.1,0.2,0.1,0.2c0.1,0.2,0.1,0.3,0.1,0.5c0,0.1,0,0.2,0,0.2L100.4,51.1z"/>
</g>
<g>
	<path fill="#D62228" d="M73.8,42.2c0.3,0.3,2.8,5.2-0.9,10.5c-3.7,5.3-9,7.4-9,7.4s4.3-3.6,6.4-8.6c2.1-5,1.6-6.1,1.6-6.1
		s0,9.5-8.3,14.3s-8.8,2.7-8.8,2.7s-3.2,2.2-6.8,1.6s2.2,0.6,4.1-2.2c1.9-2.8,1.4-7.1,1.2-10.5c-0.2-3.4,0.1,8.6-1.9,10.3
		c-2,1.6-2.4,3.5-0.8,4.2S39.4,62.9,52.9,45s-5.3,9.7-7.1,8.6c0,0-1.5-1.9-0.6-4.9c0.9-3,0.5-0.9-1.3-3.1c-1.8-2.2-2.1-4.3-0.9-7.2
		s1.4-2.5,1.4-2.5s3.2-1.2,6.2-0.9c2.7,0.3,3.9-0.9,8.8,0.5c0.3,0.1,0.9,0.2,1.8,0.2c0.7,0,1-0.5,3.3-0.7c2-0.2,4,0.4,5.3,0.5
		c0.8,0.1,0.1-0.5,0.9-0.5c1.7-0.1,4.3-1.1,5.7-1.1c3.1,0,6,1.9,6,1.9s-0.8,1.5,1,3.6c1.8,2.2,2.8,2.2,2.8,2.2s0.3,2.2-0.8,3.2
		c-1.1,1.1,0.2,1.5-2.1,2.7c-1.5,0.8-0.9,3.3-0.9,3.3l-0.8,0.8l0.2,0.8c0,0,1,0.6,1.9,2c0.9,1.4,0.9,4.4,0.1,6.6
		c-0.8,2.2-2.5,6.2-1.4,6.8s1.5-1.7,1.5-1.7s-0.1,4.1-2.2,0.8c-2.1-3.3,2.4-4.4,0.6-8.3C80.5,54.9,80,53,80,53s-0.2,0.6-2.1-2.1
		C76.1,48.2,73.8,42.2,73.8,42.2z"/>
</g>
<path fill="none" stroke="#D52328" stroke-width="8.433782e-002" stroke-miterlimit="10" d="M79.5,52.5c0,0,1,4.8,1.3,6.2
	s-0.2,4.6-0.4,5.8c-0.2,1.2-0.3,3.2-0.4,3.8s-0.3,3.1-1.9,5.2s-3.6,4-3.8,4.3c-0.2,0.3-2.2,3.3-5.5,3.7c-3.3,0.3-5.1-0.7-5.8-1.3
	c-0.7-0.6-4.6-4.4-5.3-4.9c-0.8-0.6-3-2.7-3.4-4c-0.4-1.3-0.4-2.3-1.1-4.1s-1.2-3.5-1.2-3.5"/>
<path fill="#D62228" d="M71.5,72c-1-0.5-1.8-0.9-2.6-0.9c-0.8,0-1.6,0.6-1.8,0.6c-0.2,0-0.5-0.1-0.7-0.2c-0.3-0.1-0.6-0.2-1.1-0.1
	c-0.3,0-1,0.5-1,0.5s-1.4,1-1.7,1.3c-0.2,0.3-0.6,0.5-0.6,0.5s1,0,1.4,0c0.2,0,0.4,0,1.1-0.2c0.6-0.1,1.2-0.4,1.2-0.4s0.3,0,0.8-0.1
	c0.4-0.1,0.6-0.2,0.6-0.2s0.1,0,0.2,0c0.1,0,0.2-0.1,0.2-0.1s0.4,0.1,0.8,0c0.4,0,0.6-0.1,0.9-0.1c0.3,0,0.5,0.1,0.8,0.2
	c0.3,0.1,0.7,0.1,0.7,0.1s0.6,0.1,1.1,0.1c0.5,0,1-0.3,1-0.3S72.5,72.5,71.5,72z M64.4,73.3C64.3,73.2,64.3,73.2,64.4,73.3
	c-0.1-0.1-0.1-0.1-0.1-0.1c0,0,0,0,0,0c0,0,0,0,0,0c0,0,0-0.1,0-0.1c0,0,0,0,0,0c0,0,0,0,0,0c0,0,0,0,0,0s0,0,0,0c0,0,0,0,0,0
	c0,0,0,0,0,0c0,0,0,0,0,0c0,0,0,0,0,0c0,0,0,0.1,0,0.1c0,0,0,0,0,0C64.3,73.1,64.3,73.2,64.4,73.3C64.3,73.2,64.4,73.2,64.4,73.3
	C64.4,73.3,64.4,73.3,64.4,73.3C64.4,73.3,64.4,73.3,64.4,73.3z M67,72.6C67,72.6,67,72.6,67,72.6c0,0.1,0,0.1,0,0.1
	S67,72.7,67,72.6C67,72.6,67,72.6,67,72.6c0-0.1,0-0.2-0.1-0.3c0,0,0,0,0-0.1c0,0,0,0,0-0.1c0,0,0,0,0-0.1c0,0,0,0,0-0.1
	c0,0,0,0,0,0c0,0,0,0,0,0c0,0,0,0,0,0s0,0,0,0c0,0,0,0,0,0c0,0,0,0,0,0c0,0,0,0.1,0,0.1c0,0,0,0.1,0,0.1c0,0,0,0.1,0,0.1
	C67,72.5,67,72.5,67,72.6z M67.6,72.1c0,0.1,0,0.2,0,0.3c0,0,0,0.1,0,0.1c0,0,0,0,0,0s0,0,0,0c0,0,0-0.1,0-0.1
	C67.6,72.3,67.6,72.2,67.6,72.1c0-0.1,0-0.2,0-0.3c0,0,0,0,0-0.1c0,0,0,0,0,0c0,0,0,0,0,0s0,0,0,0c0,0,0,0,0,0c0,0,0,0,0,0.1
	c0,0,0,0.1,0,0.1C67.6,72,67.6,72.1,67.6,72.1z M70.7,72.5C70.7,72.5,70.7,72.6,70.7,72.5c-0.1,0.1-0.1,0.1-0.1,0.1c0,0,0,0,0,0
	c0,0-0.1,0-0.1,0.1c0,0-0.1,0-0.1,0.1c0,0-0.1,0-0.1,0s0,0,0.1-0.1c0,0,0,0,0.1-0.1c0,0,0,0,0.1-0.1C70.6,72.6,70.6,72.6,70.7,72.5
	C70.7,72.6,70.7,72.5,70.7,72.5C70.7,72.5,70.8,72.4,70.7,72.5C70.8,72.4,70.7,72.5,70.7,72.5z"/>
<g>
	<path fill="#D52328" d="M67.6,73.3c0,0,0.1,0,0.3,0c0.2,0,0.4,0,0.7-0.1c0.1,0,0.2-0.1,0.4-0.1c0.1-0.1,0.2-0.1,0.2-0.2
		c0.1-0.1,0.1-0.1,0.1-0.2c0-0.1,0-0.1,0-0.1s0,0,0,0.1c0,0.1,0,0.1-0.1,0.2c-0.1,0.1-0.1,0.2-0.2,0.2c-0.1,0-0.2,0.1-0.4,0.1
		c-0.3,0-0.5,0.1-0.7,0C67.7,73.3,67.6,73.3,67.6,73.3z"/>
</g>
<g>
	<path fill="#D52328" d="M65,73.4l0.6-0.1c0.1,0,0.1,0,0.1,0.1c0,0.1,0.1,0.1,0.1,0.1c0.1,0,0.2,0,0.3,0c0.4,0,0.8-0.1,1.2-0.1l0,0
		l0.1-0.3l-0.1,0.3l0,0l0,0c-0.4,0-0.8,0.1-1.2,0.1c-0.1,0-0.2,0-0.3,0c-0.1,0-0.1-0.2-0.2-0.2L65,73.4z"/>
</g>
<g>
	<path fill="#D52328" d="M69.3,72.9c0,0,0,0.1,0,0.1c0,0,0.1,0,0.1,0c0.1,0,0.1,0,0.2,0c0.3,0,0.5,0,0.5,0s-0.3,0-0.5,0.1
		c-0.1,0-0.1,0-0.2,0l-0.1,0c0,0-0.1,0-0.1,0C69.3,73,69.3,72.9,69.3,72.9L69.3,72.9z"/>
</g>
<g>
	<path fill="#D52328" d="M69.6,65.4c0,0,0.1,0.2,0.3,0.6c0.2,0.3,0.5,0.8,0.7,1.3c0,0.1,0.1,0.3,0,0.4c0,0.1-0.1,0.3-0.2,0.4
		c-0.1,0.2-0.3,0.4-0.5,0.5c-0.3,0.2-0.6,0.4-0.6,0.4s0.2-0.1,0.5-0.4c0.2-0.1,0.3-0.3,0.5-0.5c0.1-0.1,0.1-0.2,0.2-0.3
		c0.1-0.1,0-0.3,0-0.4c-0.1-0.5-0.5-1-0.7-1.3C69.7,65.7,69.6,65.4,69.6,65.4z"/>
</g>
<g>
	<path fill="#D52328" d="M63.7,67.1c0,0-0.1,0.2-0.2,0.5c0,0.1-0.1,0.3-0.1,0.5c0,0.2,0,0.4,0.1,0.6c0.1,0.2,0.2,0.3,0.4,0.4
		c0.2,0.1,0.3,0.2,0.5,0.2c0.3,0.1,0.5,0.1,0.5,0.1s-0.2,0-0.5-0.1c-0.1,0-0.3-0.1-0.5-0.2c-0.2-0.1-0.3-0.2-0.4-0.4
		c-0.1-0.2-0.1-0.4,0-0.6c0-0.2,0.1-0.4,0.1-0.5C63.6,67.2,63.7,67.1,63.7,67.1z"/>
</g>
<g>
	<path fill="#D52328" d="M64.3,68.9c0,0,0.5-0.2,1-0.4c0.1,0,0.3,0,0.4,0c0.1,0.1,0.2,0.1,0.3,0.2c0.1,0.1,0.2,0.2,0.2,0.2
		s-0.1-0.1-0.3-0.2c-0.1-0.1-0.2-0.1-0.3-0.2c-0.1-0.1-0.2-0.1-0.3,0C64.8,68.6,64.3,68.9,64.3,68.9z"/>
</g>
<g>
	<path fill="#D52328" d="M66.6,69.3c0,0,0.2,0,0.6,0c0.3-0.1,0.7-0.3,1-0.7c0.2-0.2,0.3-0.3,0.4-0.5c0.1-0.2,0.4-0.2,0.5-0.2
		c0.3,0,0.6,0.1,0.6,0c0,0-0.2,0-0.6,0c-0.2,0-0.4,0.1-0.5,0.2c-0.1,0.1-0.3,0.3-0.5,0.5c-0.3,0.3-0.7,0.6-1,0.6
		C66.8,69.4,66.6,69.3,66.6,69.3z"/>
</g>
<path fill="#D52328" d="M68.6,68.2c0,0,0.4-0.1,0.6-0.2c0.1,0,0.4,0,0.4-0.1C69.7,67.9,68.8,67.8,68.6,68.2z"/>
<path fill="#D52328" d="M65.8,68.7c0,0-0.2-0.2-0.3-0.2s-0.3,0-0.3,0L65.8,68.7z"/>
<g>
	<path fill="#D52328" d="M65,77.7c0,0,0.4-0.1,1-0.2c0.3,0,0.6-0.1,1-0.2c0.4,0,0.8-0.1,1.2-0.1c0.4,0,0.8-0.1,1.2-0.1
		c0.4,0,0.7,0,1,0c0.6,0,1,0,1,0s-0.4,0-1,0c-0.3,0-0.6,0-1,0c-0.4,0-0.8,0.1-1.2,0.1c-0.4,0-0.8,0.1-1.2,0.1
		c-0.4,0.1-0.7,0.1-1,0.1C65.4,77.6,65,77.7,65,77.7z"/>
</g>
<g>
	<path fill="#D52328" d="M71.1,57.9c0,0-0.4,0.4-0.8,0.7c-0.1,0.1-0.2,0.2-0.3,0.2c-0.1,0.1-0.2,0.2-0.2,0.3
		c-0.1,0.2-0.1,0.3-0.1,0.3c0,0,0-0.1,0.1-0.3c0-0.1,0.1-0.2,0.2-0.3c0.1-0.1,0.2-0.2,0.3-0.3C70.6,58.3,71,57.9,71.1,57.9
		L71.1,57.9z"/>
</g>
<g>
	<path fill="#D52328" d="M69.7,59.5c0,0,0.1-0.1,0.2-0.2c0.1-0.1,0.3-0.3,0.6-0.4c0.3-0.1,0.7-0.1,1-0.1c0.4,0,0.8,0.1,1.2,0.1
		c0.4,0,0.8,0,1.2-0.1c0.2,0,0.3-0.1,0.5-0.2c0.2-0.1,0.3-0.1,0.4-0.2c0.3-0.2,0.5-0.3,0.6-0.4c0.1-0.1,0.2-0.2,0.2-0.2
		s-0.3,0.3-0.8,0.6c-0.1,0.1-0.3,0.1-0.4,0.2c-0.2,0.1-0.3,0.2-0.5,0.2c-0.4,0.1-0.8,0.1-1.2,0.1c-0.8,0-1.6-0.3-2.2-0.1
		c-0.3,0.1-0.5,0.3-0.6,0.4C69.8,59.4,69.7,59.5,69.7,59.5z"/>
</g>
<g>
	<path fill="#D52328" d="M75.2,57.8c0,0-0.2,0.2-0.5,0.3c-0.1,0.1-0.3,0.2-0.5,0.3c-0.1,0.1-0.2,0.1-0.3,0.2l-0.3,0.1
		c-0.2,0.1-0.4,0.1-0.7,0.1c-0.2,0-0.4,0-0.6,0c-0.3,0-0.6-0.1-0.6-0.1s0.2,0,0.6,0c0.2,0,0.4,0,0.6,0c0.2,0,0.4-0.1,0.6-0.2
		l0.3-0.1c0.1-0.1,0.2-0.1,0.3-0.2c0.2-0.1,0.4-0.2,0.5-0.3C75.1,58,75.2,57.8,75.2,57.8z"/>
</g>
<path fill="none" stroke="#D52328" stroke-width="4.216891e-002" stroke-miterlimit="10" d="M70.4,58.7c0,0,0.2,0,0.2,0.1"/>
<path fill="#D62228" d="M77,54.4C76.3,54,75.7,54,75,54c0,0-0.1,0-0.1,0c-0.1,0-0.3,0.1-0.4,0.1c-0.1,0-0.2,0-0.3,0.1
	c0,0-0.1,0-0.1,0.1c-0.1,0.1-0.3,0.1-0.4,0.1c-0.3,0.1-0.6,0.3-0.9,0.3c0,0,0,0,0,0c0,0.1-0.1,0.1-0.2,0.1c-0.1,0-0.1,0-0.2,0.1
	c0,0.1-0.1,0.1-0.2,0.1c-0.1,0-0.1,0-0.2,0C72,55,71.9,55.1,71.8,55c0,0,0,0,0,0c0,0,0,0,0,0c-0.1,0-0.1,0-0.1,0
	c-0.1,0-0.2,0.1-0.3,0.1c-0.1,0-0.1,0.1-0.2,0.1c-0.1,0-0.3,0-0.4,0.1c-0.1,0.1-0.2,0.1-0.3,0.1c0,0-0.1,0-0.1,0
	c-0.1,0.1-0.3,0.2-0.4,0.2c-0.1,0.2-0.3,0.1-0.4,0.2c0,0.1-0.1,0.1-0.1,0.1c0,0,0,0.1,0,0.1c0,0,0,0.1,0,0.1c-0.1,0-0.1,0-0.2,0.1
	c0,0.1,0,0.1,0,0.2c0.1-0.1,0.2-0.1,0.4-0.2c0,0.1-0.1,0.1-0.2,0.2c0.1,0,0.1,0,0.2,0c0,0,0,0,0,0l-0.3,0.2c0,0,0,0,0,0
	c0,0,0,0,0.1,0c0,0,0.1,0,0.1,0c0,0,0,0,0,0c0,0.1-0.1,0.1-0.1,0.2c0.2-0.1,0.4-0.1,0.5-0.2c0,0,0,0.1-0.1,0.1
	c0.2,0,0.2-0.3,0.4-0.2c0,0,0,0-0.1,0c0,0,0.1,0,0.1-0.1c0,0.1,0,0.1,0.1,0.2c0,0,0,0,0,0c0,0,0-0.1,0-0.1c0.1,0,0.1,0,0.1,0
	c0,0,0,0.1,0,0.1c0.1,0,0.3,0,0.4-0.1c0,0,0.1,0,0.1,0c0,0,0,0,0,0c0,0,0.1,0,0.1,0c0,0,0.1,0,0.1,0c0,0,0,0,0,0c0,0,0,0,0,0
	c0,0,0.1,0,0.1,0c0.1-0.1,0.2-0.1,0.3-0.1c0.1,0,0.2-0.1,0.3-0.1c0.1,0,0.2,0,0.3,0c0,0,0,0,0,0c0,0,0.1-0.1,0-0.2
	c0.1,0,1.8-0.5,1.8-0.5c0.3-0.1,1-0.4,1.9-0.5c0.7-0.1,1.2-0.1,1.3-0.1c0.1,0,0.6,0.3,0.8,0.2C78,55,77.3,54.6,77,54.4z M71.1,56.4
	c0.2-0.1,0.3-0.1,0.4-0.1C71.4,56.3,71.3,56.4,71.1,56.4z"/>
<path fill="#D62228" d="M77,57.6C77,57.6,77,57.6,77,57.6c0.1-0.1,0.1-0.1,0.1-0.2c0,0,0.1-0.1,0.1-0.1c0,0,0-0.1,0.1-0.1
	c0.2-0.2,0.3-0.4,0.3-0.7c-0.1,0.2-0.1,0.3-0.2,0.5c-0.1,0.1-0.2,0.3-0.3,0.4c-0.1,0.1-0.3,0.2-0.4,0.3l0,0c0.2-0.4,0.6-0.6,0.6-1.1
	c-0.1,0.1-0.1,0.2-0.1,0.3c0,0.1-0.1,0.2-0.2,0.2c0,0,0,0,0,0c0,0.2-0.3,0.3-0.4,0.4c0-0.2,0.1-0.2,0.2-0.2c0.1-0.1,0.1-0.2,0.2-0.3
	c-0.2,0.1-0.4,0.4-0.7,0.4c0.2-0.2,0.3-0.3,0.5-0.5c0.1-0.2,0.2-0.4,0.2-0.6c-0.1,0.2-0.2,0.4-0.3,0.6l-0.1,0c0,0,0-0.1,0-0.2
	c-0.1,0.1-0.2,0.2-0.3,0.2c0,0,0-0.1,0-0.1l0,0c0,0.1-0.1,0.1-0.1,0.2c0.1-0.2,0.1-0.4,0.2-0.6c0.1-0.2,0.1-0.5,0-0.6
	c0,0.2,0,0.3-0.1,0.5c0,0,0,0,0,0c0-0.1,0-0.2,0-0.3c-0.1,0.3-0.1,0.6-0.3,0.8c-0.1,0-0.1-0.1,0-0.1c0-0.1,0.1-0.1,0.1-0.2
	c-0.1,0-0.2,0-0.2,0c0,0,0,0.1-0.1,0.2c0-0.1,0-0.1,0.1-0.1c0,0,0,0,0,0c-0.1,0-0.1,0.1-0.2,0.1c0.1-0.4,0.1-0.7,0-0.8
	c0,0.2,0,0.4-0.1,0.5c0,0,0,0,0,0c0-0.1,0-0.1,0-0.2c0-0.1,0-0.1-0.1-0.2c0,0,0,0,0,0c0.1,0.2,0,0.3-0.2,0.4c0-0.1,0-0.1,0.1-0.2
	c-0.1,0.1-0.1,0-0.1-0.1c0,0.1,0,0.2-0.1,0.2c0,0-0.1,0.1-0.1,0.1c0,0,0-0.1-0.1-0.1c0-0.1,0-0.1-0.1-0.1c0.1-0.1,0.1-0.3,0.2-0.4
	c0,0,0,0,0,0l-0.2,0.3c0,0,0,0,0,0c0-0.1,0-0.3,0-0.4c0,0,0,0,0,0c0,0.1-0.1,0.3-0.2,0.5c-0.1-0.1-0.1-0.1-0.1-0.2
	c0,0-0.1,0.1-0.2,0.1c0-0.1,0-0.2,0-0.4c-0.1,0.1,0,0.2-0.1,0.3c0,0,0-0.1,0-0.1c0,0-0.1,0.1-0.1,0.1c0,0,0,0,0,0l0-0.1l0,0
	c0,0,0,0.1-0.1,0.1c0,0-0.1,0-0.1-0.1c0,0,0-0.1,0-0.2c0,0,0,0,0,0c0,0.1-0.1,0.1-0.1,0.2c0,0-0.1,0-0.1,0c0,0-0.1,0-0.1,0.1
	c0-0.1,0-0.1,0-0.2c0,0-0.1,0.1-0.1,0.1c0,0,0,0-0.1-0.1c0,0.1-0.1,0.1-0.1,0.2c-0.1,0.1-0.1-0.1-0.1-0.1c0,0,0,0.1-0.1,0.1l0,0
	c0,0,0-0.1,0-0.1c-0.1,0.1-0.2,0.1-0.2,0c-0.1,0.1-0.2,0-0.3,0.1c0,0.1,0,0.3,0,0.4c0,0,0,0,0,0c0,0.1,0,0.1,0,0.2c0,0,0,0,0,0
	c0,0,0-0.1-0.1-0.1c0,0,0,0,0-0.1c0,0,0,0,0,0c0-0.1,0-0.2,0-0.4c0,0,0,0,0,0c0,0,0,0.1-0.1,0.1c-0.1,0-0.1,0-0.2,0c0,0,0,0,0,0
	c0,0,0,0.1,0,0.1c0,0,0,0.1,0,0.1c0,0,0,0,0,0c0,0.1,0,0.1,0,0.2c-0.1-0.1-0.1-0.1-0.1-0.2c0,0,0,0,0,0c0,0,0-0.1,0-0.1
	c0,0,0,0,0-0.1c0,0,0,0-0.1,0c0,0,0,0,0,0c0,0.1,0,0.1,0,0.2c0,0,0,0,0,0c0,0.1,0,0.2,0,0.3c-0.1,0-0.1-0.1-0.2-0.2c0,0,0,0,0,0
	c0,0,0,0,0-0.1c0-0.1,0-0.1,0-0.2c0,0,0,0,0,0c0,0,0,0,0,0c0,0.1,0,0.1-0.1,0.2l0,0c0,0.1,0,0.2,0.1,0.2c-0.2,0-0.2,0.1-0.3,0.2
	c-0.1,0.1-0.2,0.2-0.3,0.4c0,0,0,0,0,0c0,0,0,0.1,0,0.1c0,0-0.1,0-0.1,0c0,0.1,0.1,0.1,0.1,0.2c-0.1,0-0.1,0-0.1,0
	c0,0.1-0.1,0.2-0.1,0.2c-0.1,0.1-0.2,0.2-0.2,0.3c-0.1,0.1-0.1,0.1-0.2,0.1c0,0.1-0.1,0.2-0.1,0.3c0.1,0,0.2-0.1,0.2-0.2
	c0.1,0,0.2,0,0.3,0c0,0,0.1,0,0.1,0c0.1-0.2,0.1-0.3,0.2-0.5c0.1,0,0.1,0,0.2,0c0,0,0,0,0.1,0c0.2-0.1,0.2-0.2,0.2-0.3
	c0,0,0.1,0.1,0.1,0.1c0,0,0.1,0,0.2,0c0,0,0-0.1,0.1-0.1c0,0,0-0.1,0-0.1c0,0,0,0,0,0c0,0.1,0.1,0.2,0.1,0.3
	c0.1,0.4,0.4,0.7,0.8,0.9c0.1,0,0.2,0,0.2-0.1c-0.1,0-0.2,0-0.2,0c-0.1,0-0.1,0-0.1-0.1c0-0.1,0.1-0.2,0.1-0.3
	c0.1,0,0.1,0.1,0.2,0.1c0.2-0.1,0.2-0.1,0.3,0.1c0.1,0,0.1-0.1,0.2-0.1l0,0c0,0.1,0,0.1,0.1,0.2c0,0,0,0.1,0,0.1c0,0,0,0,0,0
	c0-0.1-0.1-0.1-0.1-0.2c0,0-0.1,0-0.1,0.1c0,0-0.1-0.1-0.1-0.1c0,0.1,0,0.2-0.1,0.2c0,0.1-0.1,0.1-0.1,0.2c0.2,0,0.6-0.1,0.8-0.2
	c0.5-0.4,0.4-0.9,0.5-0.9c0.2,0.1,0.4,0.1,0.5,0.4c0.1,0.1,0.1,0.1,0.2,0.1c0,0.2-0.1,0.3-0.1,0.5c0.1,0,0.1,0,0.2,0
	c0,0.2,0.2,0.2,0.3,0.2c0,0.1-0.1,0.1-0.2,0c-0.2-0.2-0.3-0.2-0.5,0c0.1,0,0.1,0,0.2,0c0,0,0,0,0,0c-0.1,0-0.1,0-0.2,0
	c-0.1,0-0.1,0-0.1,0.1c-0.2,0-0.2,0-0.2,0.1c-0.2,0-0.4,0-0.6,0.1c0.2,0.1,0.3,0.2,0.3,0.5c0,0,0,0,0,0c0-0.1,0-0.2,0-0.3l0,0
	c0,0,0.1,0.1,0.1,0.1c0,0,0,0,0,0c0,0,0-0.1,0-0.1c0.1,0,0.2,0,0.3,0.1c0.1,0.1,0.1,0.2,0.2,0.3c0,0,0,0,0,0c0,0,0,0,0-0.1
	c0,0,0.1,0,0.1,0.1c0-0.1,0-0.1-0.1-0.2c0,0,0-0.1-0.1-0.2c0.1,0,0.1,0.2,0.2,0.1c-0.1-0.1-0.1-0.2-0.2-0.3c0,0,0,0,0,0l0.2,0.2
	c0,0,0,0,0,0c0,0-0.1-0.1-0.1-0.1l0,0c0,0,0.1,0.1,0.1,0.1c0,0,0,0,0,0c-0.1-0.1-0.1-0.2-0.2-0.2c0.3-0.1,0.6,0.1,0.9,0.2
	c0,0,0,0,0,0c-0.1-0.1-0.2-0.2-0.3-0.2l0,0c0.1,0,0.1,0.1,0.2,0.1c0-0.3,0.1,0,0.2,0c0-0.1,0.1-0.1,0.1-0.2c0,0,0-0.1,0-0.1
	c0,0,0,0,0-0.1c0,0,0.1,0,0.1,0c0,0,0.1,0,0.1,0c0-0.1,0-0.2-0.1-0.3c0.1,0,0.1,0,0.1,0.1c0,0,0,0,0,0c-0.1,0-0.1-0.1-0.2-0.1
	c0.1,0,0.1-0.1,0.2-0.1c0.1,0,0.2,0,0.3,0c0.1,0,0.2,0,0.3,0c-0.1,0-0.2,0-0.2,0c0.1-0.2,0.3-0.2,0.5-0.3c-0.1,0-0.1,0-0.2,0
	c0.2-0.1,0.4-0.1,0.6-0.3c-0.1,0-0.2,0.1-0.3,0.1C76.9,57.8,77,57.7,77,57.6C77,57.7,77,57.7,77,57.6c0,0.1-0.1,0.1-0.2,0.2
	C76.8,57.7,76.9,57.7,77,57.6z M71.2,57.9C71.2,57.9,71.2,57.8,71.2,57.9c0-0.1,0-0.1,0-0.2c0,0,0.1,0.1,0.1,0.1
	C71.2,57.8,71.2,57.8,71.2,57.9z M71.4,57.6C71.4,57.5,71.4,57.5,71.4,57.6c0.1,0,0.1,0.1,0.1,0.1C71.5,57.7,71.4,57.7,71.4,57.6z
	 M72.2,57.9C72.2,58,72.2,58,72.2,57.9c0,0.1-0.1,0.1-0.2,0.2C72,57.9,72.2,58,72.2,57.9z M72.3,58.6L72.3,58.6c0-0.1,0-0.1,0-0.1
	c0,0,0.1,0,0.1,0L72.3,58.6C72.4,58.5,72.4,58.5,72.3,58.6z M72.3,58.4c-0.2,0-0.2-0.1-0.2-0.2c0.1,0,0.1,0.1,0.2,0.1c0,0,0,0,0,0
	c0,0,0-0.1,0-0.1c0,0,0.1,0,0.1,0c0,0,0,0,0,0C72.4,58.2,72.4,58.3,72.3,58.4z M73,57.9c-0.1,0-0.1,0-0.1,0c0-0.1,0-0.1-0.1-0.2
	c0,0,0,0-0.1,0c0,0.1-0.1,0.1-0.1,0.2c-0.1,0-0.3-0.3-0.2-0.4c0-0.1,0.2-0.1,0.2-0.1c0,0,0,0,0,0c0,0,0.1,0,0.1,0c0,0,0,0,0,0
	c0,0,0.1,0.1,0.1,0.1c0-0.1,0-0.1,0-0.1c0.1,0,0.2,0.2,0.2,0.3C73.2,57.8,73.1,57.9,73,57.9z M73.4,58.4c-0.1,0-0.1-0.1-0.2-0.1
	C73.4,58.3,73.4,58.3,73.4,58.4C73.5,58.3,73.5,58.4,73.4,58.4C73.5,58.4,73.5,58.4,73.4,58.4z M75.1,56.6c0.1-0.1,0.1-0.2,0.2-0.3
	C75.3,56.5,75.2,56.5,75.1,56.6z M76.2,57.9c0.2-0.1,0.3-0.1,0.5-0.2c0,0,0,0,0,0C76.6,57.8,76.5,57.9,76.2,57.9z M76.5,57.7
	c0.1,0,0.2-0.1,0.3-0.1c0,0,0,0,0,0C76.8,57.6,76.7,57.7,76.5,57.7z"/>
<path fill="#D52328" d="M72.2,59.5c0-0.2-0.1-0.3-0.1-0.4c0,0,0,0,0,0c0,0,0,0.1,0.1,0.1c0,0,0,0,0,0c0,0,0-0.1,0-0.1
	c0.1,0,0.1,0,0.2,0c0.1,0,0.1,0.1,0,0.1C72.4,59.3,72.3,59.4,72.2,59.5z"/>
<path fill="#D52328" d="M73,59.5c-0.1,0-0.1-0.1-0.2-0.1c0-0.1-0.1-0.2-0.1-0.3c0,0,0,0,0,0c0,0,0,0,0.1,0.1c0-0.1,0-0.1,0-0.1
	c0.1,0,0.1,0,0.1,0c0,0.1,0,0.1,0.1,0.2c0-0.1,0.1-0.1,0.1-0.2c0,0,0,0,0,0c0,0.1,0,0.1,0,0.2C73,59.3,73,59.3,73,59.5z"/>
<path fill="#D52328" d="M73.3,59.2c0.1,0.1,0.2,0.1,0.3,0.2c0,0,0,0,0,0c0,0,0,0-0.1-0.1c0,0,0,0,0,0c0,0.1,0.1,0.1,0.1,0.2
	c0,0,0,0,0,0C73.4,59.4,73.3,59.3,73.3,59.2C73.3,59.2,73.3,59.2,73.3,59.2z"/>
<path fill="#D52328" d="M71.4,59.1c0.1-0.1,0.2-0.1,0.3-0.2c0.1,0,0.1,0,0.1,0C71.7,59.1,71.5,59.1,71.4,59.1
	C71.4,59.1,71.4,59.1,71.4,59.1z"/>
<path fill="#D52328" d="M72,59c0,0.1,0,0.2,0,0.3c0,0,0,0,0,0C71.9,59.2,71.9,59.1,72,59z"/>
<path fill="#D52328" d="M71.7,59.3c0-0.1,0-0.1,0.1-0.2c0,0,0,0,0,0C71.8,59.2,71.8,59.2,71.7,59.3C71.8,59.3,71.7,59.3,71.7,59.3z"
	/>
<g>
	<path fill="#D52328" d="M69.2,59.3c0,0,0.1-0.2,0.2-0.4c0.2-0.2,0.4-0.6,0.7-0.8c0.3-0.3,0.6-0.5,0.9-0.7c0.3-0.2,0.4-0.3,0.4-0.3
		l0.1,0.1c0,0-0.2,0.1-0.4,0.2c-0.3,0.1-0.6,0.4-0.9,0.6c-0.3,0.3-0.5,0.6-0.7,0.8C69.2,59.1,69.2,59.3,69.2,59.3z"/>
</g>
<path fill="#D62228" d="M80.3,64.8c0,0,0.5,11.7,2,12.9c0.4,0.3,0,0.5-0.2,0.7c-0.2,0.3-0.5,0.7-0.5,0.7s-2.2-1.5-2.7-3.8
	c-0.5-2.3-0.5-2.3-0.5-2.3s0.9-0.7,1.5-3.7C80.1,68.2,80.2,66.5,80.3,64.8z"/>
<g>
	<path fill="#D52328" d="M80.6,63.2c0,0,0.2,0,0.4-0.1c0.2-0.1,0.5-0.4,0.7-0.7c0.2-0.3,0.3-0.7,0.3-0.9c0-0.3,0.1-0.4,0.1-0.4
		s0,0.2,0,0.4c0,0.1,0,0.3-0.1,0.5c-0.1,0.2-0.1,0.3-0.2,0.5c-0.2,0.3-0.5,0.6-0.7,0.7C80.8,63.3,80.6,63.2,80.6,63.2z"/>
</g>
<path fill="#D62228" d="M41.6,56.9c0,0-0.9,4.3-2,7.2c-1.4,4,1.6,8.4,5.1,12.4c3.5,4,2.6,4.1,3.9,5.3c0.6,0.5,2.4,2.4,2.4,2.4
	l2.7,0.3c0,0,0.7-0.5-5.6-8.5c-6-7.6-5.4-9.4-5.4-12.4C42.9,60.7,41.6,56.9,41.6,56.9z"/>
<path fill="#D62228" d="M54.7,83.8c0,0,4.5-0.2-2.5-6.7c-7-6.5-9.1-7.8-9-10.6c0.1-2.9-0.5-8.6-0.8-9.9c-0.2-1.1,3.5-3,3.5-3
	s0.3,9.9,3.5,11.8c2.4,1.3,2,0.1,2,0.1s-0.2-0.2-1-0.7c-0.8-0.5-0.3-0.6-0.3-0.6l2.1-0.4c0,0,1,2.7,1.3,3.8s0.5,3.1,1,4
	c0.4,0.8,1.6,2.1,1.6,2.1s3.2,10.5,1.8,11.1c-1.4,0.6-3.3,0.2-4,0C53.1,84.5,54.7,83.8,54.7,83.8z"/>
<path fill="#D62228" d="M45,70.8c0,0,8,10.5,7.7,12c-0.3,1.6,2,1.2,2,1.2S53.9,77.4,45,70.8z"/>
<path fill="#D62228" d="M58.2,86.1c0,0,0.4-1.5,0-3.5"/>
<g>
	<path fill="#D52328" d="M41.8,57.3c0,0-0.3,0.3-0.9,1c-0.5,0.7-1.3,1.6-2.1,2.8c-0.8,1.2-1.6,2.7-2.1,4.5c-0.5,1.7-0.7,3.7-0.2,5.6
		c0.3,0.9,0.7,1.8,1.2,2.6c0.5,0.8,1,1.6,1.6,2.3c0.3,0.3,0.6,0.7,0.9,1c0.3,0.3,0.6,0.6,0.9,0.9c0.6,0.6,1.2,1,1.8,1.5
		c1.2,0.9,2.2,1.4,3,1.8c0.8,0.4,1.2,0.6,1.2,0.6s-0.5-0.2-1.2-0.5c-0.8-0.4-1.8-1-3-1.8c-0.6-0.4-1.2-0.9-1.8-1.5
		c-0.3-0.3-0.6-0.6-0.9-0.9c-0.3-0.3-0.6-0.6-0.9-1c-0.6-0.7-1.2-1.4-1.7-2.3c-0.5-0.8-1-1.7-1.2-2.6c-0.6-1.9-0.4-3.9,0.1-5.6
		c0.5-1.8,1.3-3.3,2.1-4.5c1.5-2.5,2.9-3.9,2.9-3.9L41.8,57.3z"/>
</g>
<g>
	<path fill="#D52328" d="M40.6,59.1c0,0-0.9,1.2-1.7,3.4c-0.2,0.5-0.4,1.1-0.6,1.7c-0.2,0.6-0.3,1.3-0.4,2c-0.1,0.3-0.1,0.7-0.1,1.1
		c0,0.4,0,0.7,0,1.1c0,0.4,0,0.7,0.1,1.1c0.1,0.4,0.1,0.7,0.3,1.1c0.2,0.7,0.6,1.4,1,2c0.5,0.6,1,1.1,1.5,1.6c1,1,2,1.9,2.8,2.7
		c0.9,0.7,1.6,1.4,2.1,1.8c0.3,0.2,0.5,0.4,0.6,0.5c0.1,0.1,0.2,0.1,0.2,0.1s-0.1-0.1-0.2-0.1c-0.1-0.1-0.3-0.3-0.6-0.5
		c-0.5-0.4-1.2-1-2.1-1.8c-0.8-0.8-1.8-1.7-2.9-2.6c-0.5-0.5-1-1-1.5-1.6c-0.4-0.6-0.8-1.3-1.1-2c-0.2-0.3-0.2-0.7-0.3-1.1
		c-0.1-0.4-0.1-0.7-0.2-1.1c0-0.4-0.1-0.7,0-1.1c0-0.4,0-0.7,0.1-1.1c0.1-0.7,0.3-1.4,0.4-2c0.2-0.6,0.4-1.2,0.6-1.7
		c0.8-2.1,1.7-3.4,1.7-3.4L40.6,59.1z"/>
</g>
<path fill="none" stroke="#D52328" stroke-width="4.216891e-002" stroke-miterlimit="10" d="M40.8,58.4c0,0-5.8,9.4,1.3,16.7"/>
<path fill="#D62228" d="M70.1,73.5c-1.3,0.7-2.6,0.9-4,0.7c-1.3-0.1-1.9-0.5-2.4-0.5c-0.5,0-1.7,0-1.7,0s0.8,1,1.4,1.8
	c0.7,0.9,2.1,1.6,4.2,1.5c2.2-0.2,3-1,3.4-1.6c0.5-0.6,1.4-2.4,1.4-2.4S71.4,72.9,70.1,73.5z M63.5,74.5l-0.1,0.3l-0.1-0.2l-0.2,0.1
	l0-0.3L63,74.4l-0.2-0.2v-0.1H63h0.2l0.1,0.1l-0.1,0.2l0.2-0.2V74.5z M66.6,74.9C66.7,75,66.7,75,66.6,74.9c0,0.1,0,0.1,0,0.2
	c0,0,0,0.1,0,0.1c0,0,0,0,0,0c0,0,0,0,0,0c0,0,0,0,0,0c0,0,0,0,0,0c0,0,0,0,0,0s0,0,0,0c0,0,0,0,0,0c0,0,0,0,0,0c0,0,0-0.1,0-0.1
	c0,0,0-0.1,0-0.1C66.6,75.1,66.6,75.1,66.6,74.9C66.6,75,66.6,75,66.6,74.9C66.6,74.9,66.6,74.9,66.6,74.9
	C66.6,74.9,66.6,74.9,66.6,74.9z M63.8,75.1C63.8,75.1,63.8,75.1,63.8,75.1C63.8,75.1,63.8,75.1,63.8,75.1
	C63.8,75.1,63.8,75,63.8,75.1c0-0.1,0-0.2,0.1-0.2c0,0,0-0.1,0.1-0.1c0,0,0.1-0.1,0.1-0.1c0,0,0.1-0.1,0.1-0.1
	c0-0.1,0.1-0.1,0.1-0.1s0,0-0.1,0.1c0,0,0,0.1-0.1,0.1c0,0,0,0.1-0.1,0.1c0,0,0,0,0,0.1c0,0,0,0,0,0.1C63.9,74.9,63.9,75,63.8,75.1
	C63.8,75,63.8,75.1,63.8,75.1z M64.7,75.3l-0.3,0.2l0.1-0.2l-0.3,0.1l0.1-0.5l-0.3,0.3l0.2-0.4l0.5-0.3l-0.3,0.6l0.6-0.3l-0.1,0.3
	l0.5-0.4l-0.4,0.7L64.7,75.3z M65.2,76.1v-0.5c0,0-0.1,0-0.2,0.3c-0.1,0.3,0-0.5,0.2-0.9l0.3-0.3l-0.3,0.6l0.5-0.5l-0.4,0.8
	L65.2,76.1z M66.8,75.7l-0.1,0.1L66.3,76v-0.2L66,76.1l0-0.3L65.8,76l0-0.3L65.5,76l0.2-0.5l0.3-0.2v0.1l0.3-0.3l-0.2,0.3l0.3-0.1
	l0.1,0.2c0,0,0.2,0.1,0.3-0.2c0.1-0.3,0.1-0.3,0.1-0.3L66.8,75.7z M69,74.9C69,74.9,69,74.9,69,74.9C69.1,74.9,69.1,74.9,69,74.9
	c0-0.1,0-0.1,0-0.1c0,0,0,0,0,0c0,0,0.1,0,0.1,0s0,0,0,0c0,0,0,0,0,0C69.1,74.9,69.1,74.9,69,74.9C69.1,74.9,69.1,74.9,69,74.9
	C69.1,75,69.1,75,69,74.9C69.1,75,69.1,75,69,74.9C69.1,75,69.1,75,69,74.9c0,0.1,0,0.1,0,0.1c0,0,0,0,0,0s0,0,0,0
	C69.1,75,69.1,75,69,74.9C69,75,69,75,69,74.9C69,75,69,75,69,74.9z M67.4,76.6C67.4,76.6,67.4,76.5,67.4,76.6c0-0.1,0-0.2,0-0.2
	c0,0,0-0.1,0-0.1c0,0,0-0.1,0-0.2c0-0.1,0-0.2,0-0.3c0-0.1,0-0.2,0-0.3c0-0.1,0-0.2,0-0.3c0-0.1,0-0.2,0-0.2c0,0,0-0.1,0-0.1
	s0,0,0,0.1c0,0,0,0.1,0,0.2c0,0.2,0,0.4,0,0.6c0,0.1,0,0.2,0,0.3c0,0.1,0,0.1,0,0.2c0,0,0,0.1,0,0.1C67.4,76.4,67.4,76.5,67.4,76.6
	C67.4,76.5,67.4,76.6,67.4,76.6C67.4,76.6,67.5,76.7,67.4,76.6C67.5,76.7,67.4,76.6,67.4,76.6z M68.8,75.5l-0.1,0.1l-0.2-0.1
	c0,0-0.1,0-0.1,0.2c0,0.1-0.2,0-0.2,0L68.2,76l-0.2-0.3c0,0-0.1,0.1-0.1,0.4c0,0.2-0.2-0.3-0.2-0.3l0,0.3c0,0-0.2,0-0.2-0.8l0.2-0.2
	l0.1,0.2l0.2-0.2c0,0,0.1,0.1,0.1,0.2c0,0.1,0.1,0.4,0.1,0.4v-0.6l0.1,0.2l0.1-0.2l0.2-0.2l0.1,0.3l0.1-0.3l0.2,0.2h0.1l0.3,0.5
	L68.8,75.5z M69.3,75.5C69.3,75.5,69.3,75.5,69.3,75.5C69.2,75.5,69.2,75.5,69.3,75.5C69.2,75.5,69.2,75.5,69.3,75.5
	c-0.1-0.1-0.2-0.2-0.2-0.2c0,0,0-0.1-0.1-0.2c0,0,0-0.1,0-0.1c0,0,0-0.1,0-0.1c0,0,0-0.1,0-0.1c0,0,0,0,0-0.1c0,0,0-0.1-0.1-0.1
	c0,0,0,0,0,0s0,0,0,0c0,0,0,0,0.1,0.1c0,0,0,0,0,0.1c0,0,0,0,0,0.1c0,0,0,0.1,0,0.1c0,0,0,0.1,0,0.1c0,0,0,0.1,0,0.1
	c0,0,0,0.1,0,0.1c0,0,0,0.1,0.1,0.1C69.2,75.4,69.2,75.5,69.3,75.5C69.2,75.5,69.3,75.5,69.3,75.5C69.3,75.5,69.3,75.5,69.3,75.5
	C69.3,75.5,69.3,75.5,69.3,75.5z"/>
<g>
	<path fill="#D52328" d="M66.9,69.8c0,0-0.1,0.2-0.2,0.4c0,0.1-0.1,0.3-0.2,0.4c0,0.1-0.1,0.2-0.1,0.3c0,0.1,0,0.2,0.1,0.2
		c0.3,0.2,0.7,0.2,0.9,0c0.3-0.1,0.2-0.4,0.2-0.4c0,0,0.1,0.2-0.2,0.4c-0.2,0.2-0.7,0.2-1,0c-0.1-0.1-0.1-0.2-0.1-0.3
		c0-0.1,0-0.2,0.1-0.3c0.1-0.2,0.1-0.3,0.2-0.4C66.8,70,66.9,69.8,66.9,69.8z"/>
</g>
<g>
	<path fill="#D52328" d="M68.6,57.9c0,0-0.1,0.1-0.2,0.4c-0.1,0.1-0.1,0.3-0.1,0.5c-0.1,0.2,0,0.4-0.1,0.5c0,0.2,0,0.4,0,0.5
		c0,0.2,0,0.3,0,0.5c0,0.3,0.1,0.5,0.1,0.5s0-0.2-0.1-0.5c0-0.1-0.1-0.3-0.1-0.5c0-0.2,0-0.4,0-0.6c0-0.2,0-0.4,0.1-0.5
		c0-0.2,0.1-0.3,0.2-0.5C68.5,58,68.6,57.9,68.6,57.9z"/>
</g>
<g>
	<path fill="#D52328" d="M40.4,35.8c0,0-0.3,2.6-0.7,6.5c-0.1,0.5-0.1,1-0.2,1.5c-0.1,0.5,0,1.1-0.3,1.6c-0.5,1-1.3,1.9-2.1,2.9
		c-1.6,1.9-3.4,3.8-5.2,5.6c-3.7,3.7-7.5,7.3-10.3,10c-2.9,2.7-4.8,4.4-4.8,4.4s1.9-1.8,4.7-4.5c2.8-2.7,6.6-6.3,10.3-10.1
		c1.8-1.9,3.6-3.7,5.3-5.6c0.8-0.9,1.6-1.8,2.1-2.8c0.3-0.5,0.2-1.1,0.3-1.6c0.1-0.5,0.1-1,0.2-1.5C40,38.4,40.4,35.8,40.4,35.8z"/>
</g>
<path fill="#D62228" d="M44.3,46.4c0,0,0.1,6.3-8.5,16.4s-12,17.5-12,17.5L21.6,85c0,0,9.4-14.7,12.3-18.3
	C36.8,63.1,45,53.1,45,53.1S45,47.8,44.3,46.4z"/>
<g>
	<path fill="#D52328" d="M75.7,86.1c0,0,0.6-0.8,1.5-2c0.9-1.2,2.2-2.7,3.6-4.2c0.7-0.8,1.4-1.4,2.1-2.1c0.7-0.7,1.4-1.2,1.9-1.7
		c0.6-0.5,1.1-0.8,1.5-1.1c0.4-0.2,0.6-0.4,0.6-0.4s-0.2,0.1-0.6,0.4c-0.3,0.3-0.9,0.6-1.5,1.1c-0.6,0.5-1.2,1.1-1.9,1.7
		c-0.6,0.7-1.4,1.4-2,2.1c-1.4,1.5-2.7,3-3.6,4.2C76.3,85.3,75.7,86.1,75.7,86.1z"/>
</g>
<g>
	<path fill="#D52328" d="M84.5,81.4c0,0,0.6-1.8,1.6-4.3c1-2.6,2.4-6,3.9-9.4c0.8-1.7,1.6-3.3,2.4-4.9c0.4-0.8,0.8-1.5,1.2-2.2
		c0.4-0.7,0.8-1.3,1.2-1.9c0.3-0.6,0.7-1.1,1.1-1.6c0.3-0.5,0.6-0.9,0.9-1.2c0.5-0.6,0.8-1,0.8-1s-0.3,0.4-0.8,1
		c-0.3,0.3-0.5,0.7-0.8,1.2c-0.3,0.5-0.7,1-1,1.6c-0.3,0.6-0.8,1.2-1.1,1.9c-0.4,0.7-0.8,1.4-1.2,2.2c-0.8,1.5-1.6,3.2-2.4,4.9
		c-1.6,3.3-3,6.8-4,9.3C85.2,79.7,84.5,81.4,84.5,81.4z"/>
</g>
<g>
	<path fill="#D52328" d="M86.2,35.8c0,0,0.6,0.4,1.7,1c0.3,0.1,0.5,0.3,0.9,0.4c0.3,0.1,0.6,0.2,1,0.3c0.4,0,0.7,0.1,1.1,0
		c0.4,0,0.8,0,1.1-0.1c3.1-0.2,6.1-0.7,6.1-0.7s-3,0.5-6.1,0.7c-0.4,0-0.8,0-1.1,0.1c-0.4,0-0.7,0-1.1-0.1c-0.4-0.1-0.7-0.2-1-0.3
		c-0.3-0.1-0.6-0.2-0.9-0.4C86.8,36.2,86.2,35.8,86.2,35.8z"/>
</g>
<g>
	<path fill="#D52328" d="M85.5,45.8c0,0,0.2,0.1,0.5,0.3c0.3,0.2,0.8,0.5,1.3,0.8c0.3,0.1,0.6,0.3,0.9,0.4c0.3,0.1,0.7,0.2,1.1,0.4
		c0.4,0.1,0.8,0.2,1.2,0.3c0.4,0.1,0.8,0.2,1.2,0.2c0.8,0.1,1.7,0.3,2.5,0.4c0.4,0.1,0.8,0.2,1.1,0.3c0.4,0.1,0.7,0.2,1,0.3
		c0.3,0.1,0.6,0.2,0.8,0.4c0.2,0.1,0.4,0.3,0.6,0.4c0.1,0.1,0.2,0.2,0.3,0.3c0.1,0.1,0.1,0.1,0.1,0.1s0-0.1-0.1-0.1
		c0-0.1-0.2-0.2-0.3-0.3c-0.2-0.1-0.3-0.2-0.6-0.4c-0.2-0.1-0.5-0.3-0.8-0.3c-0.3-0.1-0.6-0.2-1-0.3c-0.4-0.1-0.7-0.2-1.1-0.2
		c-0.8-0.1-1.6-0.2-2.5-0.4c-0.4-0.1-0.8-0.1-1.2-0.2c-0.4-0.1-0.8-0.2-1.2-0.3c-0.4-0.1-0.7-0.3-1.1-0.4c-0.3-0.2-0.6-0.3-0.9-0.4
		c-0.6-0.3-1-0.6-1.3-0.8C85.7,45.9,85.5,45.8,85.5,45.8z"/>
</g>
<g>
	<path fill="#D52328" d="M90.2,48c0,0-0.1,0-0.3,0.1c-0.2,0-0.5,0.1-0.9,0.2c-0.2,0-0.4,0.1-0.6,0.1c-0.2,0.1-0.4,0-0.7,0
		c-0.5,0-1-0.1-1.5-0.1c-0.2,0-0.5,0-0.7,0c-0.2,0-0.5,0.1-0.7,0.1c-0.5,0.1-0.8,0.3-1.2,0.4c-0.7,0.3-1.1,0.5-1.1,0.5
		s0.4-0.2,1.1-0.6c0.3-0.1,0.7-0.3,1.2-0.4c0.2-0.1,0.5-0.2,0.7-0.1c0.2,0,0.5,0,0.8,0c0.5,0,1,0.2,1.4,0.2c0.2,0,0.5,0.1,0.7,0
		c0.2,0,0.4-0.1,0.6-0.1C89.7,48.1,90.2,48,90.2,48z"/>
</g>
<g>
	<path fill="#D52328" d="M60.2,80.9c0,0,0.5,1.2,0.9,2.5c0.2,0.7,0.3,1.3,0.3,1.8c0,0.3,0,0.5-0.1,0.6c0,0.1-0.1,0.2-0.1,0.2
		s0-0.1,0.1-0.2c0-0.1,0.1-0.4,0.1-0.6c0-0.5-0.1-1.2-0.3-1.8C60.8,82.2,60.2,80.9,60.2,80.9z"/>
</g>
<g>
	<path fill="#D52328" d="M50.3,84.1c0,0-1.8,0-4.4,0.2c-1.3,0.1-2.8,0.2-4.5,0.3c-0.8,0.1-1.7,0.2-2.5,0.3c-0.9,0.1-1.7,0.2-2.6,0.4
		c-0.9,0.2-1.7,0.4-2.6,0.5c-0.9,0.1-1.7,0.4-2.5,0.4c-0.4,0-0.8,0-1.2,0.1c-0.4,0-0.8,0-1.2,0c-0.8,0-1.5-0.1-2.1-0.2
		c-0.7-0.1-1.2-0.2-1.8-0.3c-0.5-0.1-1-0.2-1.4-0.3c-0.7-0.2-1.2-0.3-1.2-0.3s0.4,0.1,1.2,0.3c0.4,0.1,0.8,0.2,1.4,0.3
		c0.5,0.1,1.1,0.2,1.8,0.3c0.7,0.1,1.4,0.2,2.1,0.2c0.4,0,0.8,0,1.2,0c0.4,0,0.8-0.1,1.2-0.1c0.8,0,1.7-0.2,2.5-0.4
		c0.8-0.2,1.7-0.4,2.6-0.5c0.9-0.1,1.7-0.3,2.6-0.4c0.9-0.1,1.7-0.2,2.5-0.2c1.6-0.1,3.2-0.2,4.5-0.3C48.5,84.1,50.3,84.1,50.3,84.1
		z"/>
</g>
</svg>
