<?xml version="1.0" encoding="utf-8"?>
<!-- Generator: Adobe Illustrator 18.1.1, SVG Export Plug-In . SVG Version: 6.00 Build 0)  -->
<svg version="1.1" id="Слой_1" xmlns="http://www.w3.org/2000/svg" xmlns:xlink="http://www.w3.org/1999/xlink" x="0px" y="0px"
	 viewBox="0 0 120 120" enable-background="new 0 0 120 120" xml:space="preserve">
<rect x="24.2" y="18.5" fill="none" stroke="#D72128" stroke-width="0.5" stroke-miterlimit="10" width="71.6" height="93.6"/>
<line fill="none" stroke="#D72128" stroke-width="0.25" stroke-miterlimit="10" x1="34.1" y1="18.5" x2="60" y2="11.4"/>
<line fill="none" stroke="#D72128" stroke-width="0.25" stroke-miterlimit="10" x1="85.3" y1="18.5" x2="60" y2="11.4"/>
<circle fill="#D72128" cx="60" cy="11.4" r="0.7"/>
<text transform="matrix(1 0 0 1 31.4577 102.5947)" fill="#D62228" font-family="'Code-Pro-Black'" font-size="14.1884">POSTER</text>
<path fill="none" stroke="#ED1C24" stroke-width="7.406911e-002" stroke-miterlimit="10" d="M78.8,49.8c0,0,0.9,4.2,1.1,5.4
	c0.2,1.2-0.1,4.1-0.3,5.1c-0.2,1-0.2,2.8-0.3,3.3c-0.1,0.5-0.2,2.7-1.7,4.5c-1.5,1.9-3.2,3.5-3.4,3.8c-0.2,0.3-1.9,2.9-4.8,3.2
	c-2.9,0.3-4.4-0.6-5.1-1.2c-0.6-0.5-4.1-3.8-4.6-4.3c-0.7-0.5-2.6-2.4-3-3.5s-0.4-2-0.9-3.6c-0.5-1.5-1-3.1-1-3.1"/>
<path fill="#D62228" d="M71.8,66.9c-0.9-0.5-1.6-0.8-2.2-0.8c-0.7,0-1.4,0.5-1.6,0.5s-0.5-0.1-0.6-0.2c-0.3-0.1-0.6-0.2-1-0.1
	c-0.3,0-0.8,0.4-0.8,0.4s-1.2,0.8-1.5,1.2c-0.2,0.3-0.6,0.4-0.6,0.4s0.9,0,1.2,0c0.2,0,0.4,0,0.9-0.2c0.6-0.1,1.1-0.4,1.1-0.4
	s0.3,0,0.7-0.1c0.4-0.1,0.5-0.2,0.5-0.2s0.1,0,0.2,0c0,0,0.2-0.1,0.2-0.1s0.4,0,0.7,0c0.4,0,0.6-0.1,0.8-0.1s0.4,0.1,0.7,0.2
	c0.2,0.1,0.6,0.1,0.6,0.1s0.5,0.1,0.9,0.1c0.4,0,0.9-0.2,0.9-0.2S72.7,67.4,71.8,66.9z M65.5,68C65.5,68,65.5,68,65.5,68
	c-0.1-0.1-0.1-0.1-0.1-0.1c0,0,0,0,0,0c0,0,0,0,0,0c0,0,0-0.1,0-0.1c0,0,0,0,0,0c0,0,0,0,0,0c0,0,0,0,0,0s0,0,0,0c0,0,0,0,0,0
	c0,0,0,0,0,0c0,0,0,0,0,0c0,0,0,0,0,0c0,0,0,0.1,0,0.1c0,0,0,0,0,0C65.5,67.9,65.5,67.9,65.5,68C65.5,68,65.5,68,65.5,68
	C65.5,68,65.6,68.1,65.5,68C65.6,68.1,65.5,68.1,65.5,68z M67.9,67.4C67.9,67.4,67.9,67.5,67.9,67.4c0,0.1,0,0.1,0,0.1
	S67.8,67.5,67.9,67.4C67.8,67.5,67.8,67.4,67.9,67.4c0-0.1,0-0.1,0-0.2c0,0,0,0,0-0.1c0,0,0,0,0-0.1c0,0,0,0,0-0.1c0,0,0,0,0,0
	c0,0,0,0,0,0c0,0,0,0,0,0c0,0,0,0,0,0s0,0,0,0c0,0,0,0,0,0c0,0,0,0,0,0c0,0,0,0.1,0,0.1c0,0,0,0.1,0,0.1c0,0,0,0.1,0,0.1
	C67.9,67.3,67.9,67.4,67.9,67.4z M68.3,67c0,0.1,0,0.2,0,0.2c0,0,0,0.1,0,0.1c0,0,0,0,0,0s0,0,0,0c0,0,0,0,0-0.1
	C68.3,67.2,68.3,67.1,68.3,67c0-0.1,0-0.2,0-0.2c0,0,0,0,0,0c0,0,0,0,0,0c0,0,0,0,0,0s0,0,0,0c0,0,0,0,0,0c0,0,0,0,0,0
	c0,0,0,0.1,0,0.1C68.3,66.9,68.3,67,68.3,67z M71.1,67.4C71.1,67.4,71.1,67.4,71.1,67.4C71,67.5,71,67.5,71.1,67.4
	C71,67.5,71,67.5,71,67.5c0,0,0,0-0.1,0.1c0,0,0,0-0.1,0c0,0-0.1,0-0.1,0s0,0,0.1-0.1c0,0,0,0,0.1-0.1c0,0,0,0,0.1-0.1
	C71,67.5,71,67.5,71.1,67.4C71,67.4,71.1,67.4,71.1,67.4C71.1,67.3,71.1,67.3,71.1,67.4C71.1,67.3,71.1,67.3,71.1,67.4z"/>
<g>
	<path fill="#ED1C24" d="M68.3,68.1c0,0,0.1,0,0.3,0c0.2,0,0.4,0,0.6-0.1c0.1,0,0.2-0.1,0.3-0.1c0.1-0.1,0.2-0.1,0.2-0.2
		c0.1-0.1,0.1-0.1,0.1-0.2c0,0,0-0.1,0-0.1s0,0,0,0.1c0,0.1,0,0.1-0.1,0.2c0,0.1-0.1,0.1-0.2,0.2c-0.1,0-0.2,0.1-0.3,0.1
		c-0.2,0-0.5,0-0.6,0C68.4,68.1,68.3,68.1,68.3,68.1z"/>
</g>
<g>
	<path fill="#ED1C24" d="M66.1,68.2l0.5-0.1c0,0,0.1,0,0.1,0.1c0,0,0,0.1,0.1,0.1c0.1,0,0.2,0,0.3,0c0.4,0,0.7,0,1.1-0.1l0,0
		l0.1-0.3l-0.1,0.3l0,0l0,0c-0.4,0-0.7,0.1-1.1,0.1c-0.1,0-0.2,0-0.3,0c-0.1,0-0.1-0.2-0.2-0.2L66.1,68.2z"/>
</g>
<g>
	<path fill="#ED1C24" d="M69.9,67.7c0,0,0,0.1,0,0.1c0,0,0.1,0,0.1,0c0.1,0,0.1,0,0.2,0c0.2,0,0.5,0,0.5,0s-0.2,0-0.5,0.1
		c-0.1,0-0.1,0-0.2,0c-0.1,0-0.1,0-0.2,0C69.8,67.8,69.8,67.7,69.9,67.7L69.9,67.7z"/>
</g>
<g>
	<path fill="#ED1C24" d="M70.1,61.2c0,0,0.1,0.2,0.3,0.5c0.2,0.3,0.5,0.7,0.6,1.1c0,0.1,0.1,0.2,0,0.4c0,0.1-0.1,0.2-0.1,0.3
		c-0.1,0.2-0.3,0.3-0.4,0.4c-0.3,0.2-0.5,0.3-0.5,0.3s0.2-0.1,0.5-0.3c0.1-0.1,0.3-0.2,0.4-0.4c0.1-0.1,0.1-0.2,0.1-0.3
		c0.1-0.1,0-0.2,0-0.3c-0.1-0.4-0.4-0.8-0.6-1.2C70.2,61.4,70.1,61.2,70.1,61.2z"/>
</g>
<g>
	<path fill="#ED1C24" d="M64.9,62.6c0,0-0.1,0.2-0.1,0.4c-0.1,0.3-0.2,0.6,0,1c0.1,0.2,0.2,0.3,0.3,0.4c0.1,0.1,0.3,0.1,0.4,0.2
		c0.3,0.1,0.4,0.1,0.4,0.1s-0.2,0-0.4-0.1c-0.1,0-0.3-0.1-0.4-0.2c-0.2-0.1-0.3-0.2-0.4-0.4c-0.1-0.4,0-0.7,0.1-1
		C64.9,62.8,64.9,62.6,64.9,62.6z"/>
</g>
<g>
	<path fill="#ED1C24" d="M65.5,64.2c0,0,0.4-0.2,0.8-0.3c0.1,0,0.2,0,0.3,0c0.1,0.1,0.2,0.1,0.2,0.2c0.1,0.1,0.2,0.2,0.2,0.2
		s-0.1-0.1-0.2-0.2c-0.1,0-0.1-0.1-0.2-0.2c-0.1-0.1-0.2,0-0.3,0C65.9,64,65.5,64.2,65.5,64.2z"/>
</g>
<g>
	<path fill="#ED1C24" d="M67.5,64.6c0,0,0.2,0,0.5,0c0.3-0.1,0.6-0.3,0.9-0.6c0.1-0.1,0.3-0.3,0.4-0.4c0.1-0.1,0.3-0.2,0.5-0.2
		c0.3,0,0.5,0.1,0.5,0c0,0-0.2,0-0.5,0c-0.1,0-0.3,0.1-0.4,0.2c-0.1,0.1-0.3,0.3-0.4,0.4c-0.3,0.3-0.6,0.5-0.9,0.6
		C67.7,64.6,67.5,64.6,67.5,64.6z"/>
</g>
<path fill="#D62228" d="M69.2,63.6c0,0,0.4-0.1,0.6-0.1c0.1,0,0.4,0,0.4,0C70.2,63.3,69.4,63.2,69.2,63.6z"/>
<path fill="#D62228" d="M66.7,64.1c0,0-0.2-0.2-0.2-0.2c-0.1,0-0.3,0-0.3,0L66.7,64.1z"/>
<g>
	<path fill="#ED1C24" d="M66.1,72c0,0,0.3-0.1,0.8-0.2c0.5-0.1,1.2-0.2,1.9-0.2c0.3,0,0.7-0.1,1-0.1c0.3,0,0.6,0,0.9,0
		c0.5,0,0.9,0,0.9,0s-0.3,0-0.9,0c-0.3,0-0.6,0-0.9,0c-0.3,0-0.7,0-1,0.1c-0.7,0-1.4,0.1-1.9,0.2C66.4,71.9,66.1,72,66.1,72z"/>
</g>
<g>
	<path fill="#ED1C24" d="M71.4,54.6c0,0-0.4,0.3-0.7,0.6c-0.1,0.1-0.2,0.2-0.3,0.2c-0.1,0.1-0.2,0.1-0.2,0.2
		c-0.1,0.2-0.1,0.3-0.1,0.3c0,0,0-0.1,0.1-0.3c0-0.1,0.1-0.2,0.2-0.2c0.1-0.1,0.2-0.2,0.3-0.2C71,54.8,71.3,54.5,71.4,54.6
		L71.4,54.6z"/>
</g>
<g>
	<path fill="#ED1C24" d="M70.2,56c0,0,0.1-0.1,0.2-0.2c0.1-0.1,0.1-0.1,0.2-0.2c0.1,0,0.2-0.1,0.3-0.2c0.1,0,0.3-0.1,0.4-0.1
		c0.2,0,0.3,0,0.5,0c0.3,0,0.7,0.1,1,0.1c0.4,0,0.7,0,1-0.1c0.2,0,0.3-0.1,0.4-0.2c0.1-0.1,0.3-0.1,0.4-0.2c0.2-0.1,0.4-0.2,0.5-0.3
		c0.1-0.1,0.2-0.2,0.2-0.2s-0.2,0.3-0.7,0.5c-0.1,0.1-0.3,0.1-0.4,0.2c-0.1,0.1-0.3,0.1-0.5,0.2c-0.3,0.1-0.7,0.1-1,0.1
		c-0.4,0-0.7-0.1-1-0.1c-0.2,0-0.3,0-0.5,0c-0.1,0-0.3,0.1-0.4,0.1c-0.1,0-0.2,0.1-0.3,0.2c-0.1,0-0.2,0.1-0.2,0.2
		C70.3,55.9,70.2,56,70.2,56z"/>
</g>
<g>
	<path fill="#ED1C24" d="M75,54.5c0,0-0.1,0.2-0.4,0.3c-0.1,0.1-0.3,0.2-0.4,0.3c-0.1,0-0.2,0.1-0.3,0.1l-0.3,0.1
		c-0.2,0-0.4,0.1-0.6,0.1c-0.2,0-0.4,0-0.5,0c-0.3,0-0.5-0.1-0.5-0.1s0.2,0,0.5,0c0.1,0,0.3,0,0.5,0c0.2,0,0.4-0.1,0.6-0.1l0.3-0.1
		c0.1,0,0.2-0.1,0.3-0.1c0.2-0.1,0.3-0.2,0.5-0.2C74.9,54.6,75,54.5,75,54.5z"/>
</g>
<path fill="none" stroke="#ED1C24" stroke-width="3.703456e-002" stroke-miterlimit="10" d="M70.8,55.2c0,0,0.1,0,0.2,0.1"/>
<path fill="#D62228" d="M76.6,51.4c-0.6-0.3-1.2-0.3-1.7-0.3c0,0-0.1,0-0.1,0c-0.1,0-0.2,0.1-0.4,0.1c-0.1,0-0.2,0-0.3,0
	c0,0-0.1,0-0.1,0.1c-0.1,0-0.2,0.1-0.4,0.1c-0.3,0.1-0.5,0.2-0.8,0.2c0,0,0,0,0,0c0,0.1-0.1,0.1-0.2,0.1c-0.1,0-0.1,0-0.1,0.1
	c0,0.1-0.1,0.1-0.2,0.1c0,0-0.1,0-0.1,0c0,0.1-0.1,0.1-0.2,0.1c0,0,0,0,0,0c0,0,0,0,0,0c0,0-0.1,0-0.1,0c-0.1,0-0.2,0.1-0.3,0.1
	c-0.1,0-0.1,0.1-0.2,0.1c-0.1,0-0.2,0-0.3,0.1c-0.1,0.1-0.2,0.1-0.3,0.1c0,0,0,0-0.1,0c-0.1,0.1-0.3,0.1-0.4,0.1
	c-0.1,0.1-0.2,0.1-0.3,0.1c0,0-0.1,0.1-0.1,0.1c0,0,0,0.1,0,0.1c0,0,0,0,0,0.1c-0.1,0-0.1,0-0.2,0.1c0,0.1,0,0.1,0,0.2
	c0.1,0,0.2-0.1,0.3-0.1c0,0.1-0.1,0.1-0.2,0.1c0.1,0,0.1,0,0.2,0c0,0,0,0,0,0l-0.3,0.1c0,0,0,0,0,0c0,0,0,0,0.1,0c0,0,0.1,0,0.1,0
	c0,0,0,0,0,0c0,0.1-0.1,0.1-0.1,0.1c0.2-0.1,0.3-0.1,0.5-0.2c0,0,0,0.1-0.1,0.1c0.2,0,0.2-0.2,0.3-0.2c0,0,0,0,0,0c0,0,0.1,0,0.1,0
	c0,0.1,0,0.1,0.1,0.1c0,0,0,0,0,0c0,0,0-0.1,0-0.1c0,0,0.1,0,0.1,0c0,0,0,0,0,0.1c0.1,0,0.2,0,0.3-0.1c0,0,0.1,0,0.1,0c0,0,0,0,0,0
	c0,0,0.1,0,0.1,0c0,0,0.1,0,0.1,0c0,0,0,0,0,0c0,0,0,0,0,0c0,0,0.1,0,0.1,0c0.1-0.1,0.2-0.1,0.2-0.1c0.1,0,0.2-0.1,0.2-0.1
	c0.1,0,0.2,0,0.2,0c0,0,0,0,0,0c0,0,0.1-0.1,0-0.1c0.1,0,1.6-0.4,1.6-0.4c0.3-0.1,0.9-0.4,1.7-0.5c0.6-0.1,1-0.1,1.1-0.1
	c0.1,0,0.5,0.2,0.7,0.1C77.5,52,76.9,51.6,76.6,51.4z M71.4,53.2c0.1-0.1,0.2-0.1,0.3-0.1C71.7,53.2,71.6,53.2,71.4,53.2z"/>
<path fill="#D62228" d="M76.6,54.3C76.6,54.3,76.6,54.3,76.6,54.3c0.1-0.1,0.1-0.1,0.1-0.2c0,0,0.1-0.1,0.1-0.1c0,0,0-0.1,0.1-0.1
	c0.1-0.2,0.3-0.4,0.2-0.6c-0.1,0.1-0.1,0.3-0.2,0.4c-0.1,0.1-0.2,0.2-0.3,0.3c-0.1,0.1-0.3,0.2-0.4,0.2l0,0c0.2-0.3,0.5-0.5,0.5-1
	c0,0.1-0.1,0.2-0.1,0.3c0,0.1-0.1,0.2-0.2,0.2c0,0,0,0,0,0c0,0.2-0.2,0.3-0.4,0.4c0-0.1,0.1-0.1,0.2-0.2c0.1-0.1,0.1-0.2,0.2-0.3
	c-0.2,0.1-0.3,0.3-0.6,0.4c0.1-0.1,0.3-0.3,0.4-0.4c0.1-0.2,0.2-0.3,0.2-0.5c-0.1,0.2-0.2,0.4-0.3,0.5l0,0c0,0,0-0.1,0-0.2
	c-0.1,0.1-0.2,0.1-0.2,0.2c0,0,0,0,0-0.1l0,0c0,0-0.1,0.1-0.1,0.2c0.1-0.2,0.1-0.4,0.2-0.5c0.1-0.2,0.1-0.5,0-0.5
	c0,0.1,0,0.3-0.1,0.4c0,0,0,0,0,0c0-0.1,0-0.2,0-0.3c-0.1,0.2-0.1,0.5-0.3,0.7c-0.1,0-0.1-0.1,0-0.1c0,0,0.1-0.1,0.1-0.1
	c-0.1,0-0.1,0-0.2,0c0,0,0,0.1-0.1,0.2c0-0.1,0-0.1,0-0.1c0,0,0,0,0,0c0,0-0.1,0.1-0.1,0.1c0.1-0.4,0.1-0.6,0-0.7c0,0.2,0,0.3,0,0.5
	c0,0,0,0,0,0c0-0.1,0-0.1,0-0.2c0-0.1,0-0.1-0.1-0.2c0,0,0,0,0,0c0,0.1,0,0.3-0.2,0.4c0-0.1,0-0.1,0.1-0.2c-0.1,0.1-0.1,0-0.1-0.1
	c0,0.1,0,0.1-0.1,0.2c0,0,0,0-0.1,0.1c0,0,0,0-0.1-0.1c0-0.1,0-0.1-0.1-0.1c0.1-0.1,0.1-0.2,0.2-0.3c0,0,0,0,0,0l-0.2,0.3
	c0,0,0,0,0,0c0-0.1,0-0.2,0-0.4c0,0,0,0,0,0c0,0.1-0.1,0.2-0.1,0.4c-0.1-0.1-0.1-0.1-0.1-0.2c0,0-0.1,0-0.2,0.1c0-0.1,0-0.2,0-0.3
	c-0.1,0.1,0,0.2-0.1,0.3c0,0,0-0.1,0-0.1c0,0-0.1,0.1-0.1,0.1c0,0,0,0,0,0l0-0.1l0,0c0,0,0,0.1-0.1,0.1c0,0-0.1,0-0.1-0.1
	c0,0,0-0.1,0-0.2c0,0,0,0,0,0c0,0.1-0.1,0.1-0.1,0.2c0,0-0.1,0-0.1,0c0,0-0.1,0-0.1,0c0-0.1,0-0.1,0-0.2c0,0-0.1,0.1-0.1,0.1
	c0,0,0,0-0.1-0.1c0,0-0.1,0.1-0.1,0.1C73,53.1,73,53,72.9,53c0,0,0,0,0,0.1l0,0c0,0,0-0.1,0-0.1c-0.1,0.1-0.1,0.1-0.2,0
	c-0.1,0.1-0.2,0-0.3,0.1c0,0.1,0,0.2,0,0.4c0,0,0,0,0,0c0,0.1,0,0.1,0,0.2c0,0,0,0,0,0c0,0,0,0,0-0.1c0,0,0,0,0,0c0,0,0,0,0,0
	c0-0.1,0-0.2,0-0.3c0,0,0,0,0,0c0,0,0,0.1-0.1,0.1c-0.1,0-0.1,0-0.2,0c0,0,0,0,0,0c0,0,0,0.1,0,0.1c0,0,0,0.1,0,0.1c0,0,0,0,0,0
	c0,0,0,0.1,0,0.2c-0.1,0-0.1-0.1-0.1-0.1c0,0,0,0,0,0c0,0,0-0.1,0-0.1c0,0,0,0,0-0.1c0,0,0,0,0,0c0,0,0,0,0,0c0,0.1,0,0.1,0,0.2
	c0,0,0,0,0,0c0,0.1,0,0.2,0,0.3c-0.1,0-0.1-0.1-0.1-0.2c0,0,0,0,0,0c0,0,0,0,0-0.1c0,0,0-0.1,0-0.1c0,0,0,0,0,0c0,0,0,0,0,0
	c0,0.1,0,0.1-0.1,0.2l0,0c0,0.1,0,0.1,0.1,0.2c-0.2,0-0.2,0.1-0.3,0.2c-0.1,0.1-0.2,0.2-0.3,0.3c0,0,0,0,0,0c0,0,0,0.1,0,0.1
	c0,0-0.1,0-0.1,0c0,0.1,0.1,0.1,0.1,0.1c0,0-0.1,0-0.1,0c0,0.1-0.1,0.1-0.1,0.2c-0.1,0.1-0.1,0.2-0.2,0.3c0,0.1-0.1,0.1-0.2,0.1
	c0,0.1-0.1,0.2-0.1,0.2c0.1,0,0.2-0.1,0.2-0.2c0.1,0,0.1,0,0.2,0c0,0,0.1,0,0.1,0c0.1-0.1,0.1-0.3,0.2-0.4c0.1,0,0.1,0,0.2,0
	c0,0,0,0,0.1,0c0.2-0.1,0.2-0.2,0.2-0.3c0,0,0.1,0.1,0.1,0.1c0,0,0.1,0,0.1,0c0,0,0-0.1,0.1-0.1c0,0,0,0,0-0.1c0,0,0,0,0,0
	c0,0.1,0.1,0.2,0.1,0.3c0.1,0.4,0.3,0.6,0.7,0.8c0.1,0,0.1,0,0.2-0.1c-0.1,0-0.1,0-0.2,0c-0.1,0-0.1,0-0.1-0.1c0-0.1,0-0.1,0.1-0.2
	c0.1,0,0.1,0.1,0.2,0.1c0.1-0.1,0.2-0.1,0.3,0c0,0,0.1-0.1,0.1-0.1c0,0,0,0,0,0c0,0,0,0.1,0.1,0.1c0,0,0,0.1,0,0.1c0,0,0,0,0,0
	c0,0-0.1-0.1-0.1-0.1c0,0,0,0-0.1,0.1c0,0-0.1-0.1-0.1-0.1c0,0.1,0,0.1-0.1,0.2c0,0.1-0.1,0.1-0.1,0.2c0.2,0,0.5,0,0.7-0.2
	c0.5-0.3,0.4-0.8,0.4-0.8c0.2,0.1,0.4,0.1,0.5,0.3c0.1,0.1,0.1,0.1,0.1,0.1c0,0.1-0.1,0.3-0.1,0.4c0.1,0,0.1,0,0.2,0
	c0,0.2,0.2,0.1,0.2,0.2c0,0.1-0.1,0.1-0.1,0c-0.2-0.2-0.3-0.2-0.5,0c0,0,0.1,0,0.1,0c0,0,0,0,0,0c0,0-0.1,0-0.1,0
	c-0.1,0-0.1,0-0.1,0.1c-0.2,0-0.2,0-0.2,0.1c-0.2,0-0.4,0-0.6,0c0.2,0.1,0.3,0.2,0.3,0.4c0,0,0,0,0,0c0-0.1,0-0.2,0-0.3l0,0
	c0,0,0,0.1,0.1,0.1c0,0,0,0,0,0c0,0,0-0.1,0-0.1c0.1,0,0.2,0,0.2,0.1c0.1,0.1,0.1,0.2,0.1,0.3c0,0,0,0,0,0c0,0,0,0,0-0.1
	c0,0,0,0,0.1,0.1c0-0.1,0-0.1-0.1-0.1c0,0,0-0.1-0.1-0.2c0.1,0,0.1,0.2,0.2,0.1c-0.1-0.1-0.1-0.2-0.2-0.3c0,0,0,0,0,0l0.2,0.2
	c0,0,0,0,0,0c0,0-0.1-0.1-0.1-0.1l0,0c0,0,0.1,0,0.1,0.1c0,0,0,0,0,0c-0.1-0.1-0.1-0.1-0.2-0.2c0.3-0.1,0.5,0.1,0.8,0.2c0,0,0,0,0,0
	c-0.1-0.1-0.1-0.1-0.2-0.2l0,0c0.1,0,0.1,0,0.2,0.1c0-0.2,0.1,0,0.2,0c0-0.1,0.1-0.1,0.1-0.2c0,0,0-0.1,0-0.1c0,0,0,0,0-0.1
	c0,0,0.1,0,0.1,0c0,0,0.1,0,0.1,0c0-0.1,0-0.1,0-0.2c0.1,0,0.1,0,0.1,0.1c0,0,0,0,0,0c-0.1,0-0.1-0.1-0.2-0.1c0,0,0.1-0.1,0.2-0.1
	c0.1,0,0.2,0,0.2,0c0.1,0,0.2,0,0.3,0c-0.1,0-0.1,0-0.2,0c0.1-0.2,0.3-0.1,0.4-0.2c0,0-0.1,0-0.2,0c0.2-0.1,0.4-0.1,0.5-0.3
	c-0.1,0-0.2,0.1-0.3,0.1C76.6,54.4,76.6,54.4,76.6,54.3C76.6,54.3,76.6,54.3,76.6,54.3c0,0.1-0.1,0.1-0.1,0.2
	C76.4,54.4,76.5,54.4,76.6,54.3z M71.5,54.5C71.5,54.5,71.5,54.5,71.5,54.5c0-0.1,0-0.1,0-0.2c0,0,0.1,0,0.1,0.1
	C71.5,54.4,71.5,54.5,71.5,54.5z M71.7,54.3C71.7,54.2,71.7,54.2,71.7,54.3c0.1,0,0.1,0,0.1,0.1C71.8,54.4,71.7,54.4,71.7,54.3z
	 M72.4,54.6C72.4,54.6,72.4,54.6,72.4,54.6c0,0.1-0.1,0.1-0.2,0.2C72.2,54.6,72.4,54.6,72.4,54.6z M72.5,55.1L72.5,55.1
	c0,0,0-0.1,0-0.1c0,0,0.1,0,0.1,0L72.5,55.1C72.5,55.1,72.5,55.1,72.5,55.1z M72.5,55c-0.1,0-0.2-0.1-0.2-0.2c0.1,0,0.1,0.1,0.2,0.1
	c0,0,0,0,0,0c0,0,0-0.1,0-0.1c0,0,0.1,0,0.1,0c0,0,0,0,0,0C72.6,54.8,72.5,54.9,72.5,55z M73.1,54.5c0,0-0.1,0-0.1,0
	c0-0.1,0-0.1-0.1-0.2c0,0,0,0,0,0c0,0.1-0.1,0.1-0.1,0.2c-0.1,0-0.2-0.2-0.2-0.3c0,0,0.1-0.1,0.2-0.1c0,0,0,0,0,0c0,0,0.1,0,0.1,0
	c0,0,0,0,0,0c0,0,0.1,0.1,0.1,0.1c0,0,0-0.1,0-0.1c0.1,0,0.2,0.1,0.2,0.3C73.2,54.4,73.2,54.5,73.1,54.5z M73.5,55
	c0,0-0.1-0.1-0.1-0.1C73.4,54.9,73.5,54.9,73.5,55C73.5,54.9,73.5,55,73.5,55C73.5,55,73.5,55,73.5,55z M74.9,53.4
	c0-0.1,0.1-0.2,0.2-0.3C75.1,53.3,75.1,53.4,74.9,53.4z M75.9,54.5c0.1-0.1,0.3-0.1,0.4-0.2c0,0,0,0,0,0
	C76.2,54.5,76.1,54.6,75.9,54.5z M76.2,54.3c0.1,0,0.2-0.1,0.3-0.1c0,0,0,0,0,0C76.4,54.3,76.3,54.4,76.2,54.3z"/>
<path fill="#D62228" d="M72.4,55.9c0-0.1-0.1-0.3-0.1-0.4c0,0,0,0,0,0c0,0,0,0.1,0.1,0.1c0,0,0,0,0,0c0,0,0-0.1,0-0.1
	c0.1,0,0.1,0,0.2,0c0.1,0,0.1,0.1,0,0.1C72.6,55.8,72.5,55.9,72.4,55.9z"/>
<path fill="#D62228" d="M73.1,56c0,0-0.1,0-0.1-0.1c0-0.1-0.1-0.2-0.1-0.2c0,0,0,0,0,0c0,0,0,0,0.1,0c0,0,0-0.1,0-0.1
	c0,0,0.1,0,0.1,0c0,0.1,0,0.1,0,0.1c0-0.1,0.1-0.1,0.1-0.1c0,0,0,0,0,0c0,0.1,0,0.1,0,0.2C73.1,55.8,73.1,55.8,73.1,56z"/>
<path fill="#D62228" d="M73.4,55.6c0.1,0,0.2,0.1,0.2,0.1c0,0,0,0,0,0c0,0,0,0-0.1,0c0,0,0,0,0,0c0,0.1,0.1,0.1,0.1,0.2c0,0,0,0,0,0
	C73.5,55.9,73.4,55.8,73.4,55.6C73.3,55.7,73.3,55.7,73.4,55.6z"/>
<path fill="#D62228" d="M71.7,55.6c0.1-0.1,0.2-0.1,0.2-0.1c0.1,0,0.1,0,0.1,0C71.9,55.6,71.8,55.6,71.7,55.6
	C71.7,55.6,71.7,55.6,71.7,55.6z"/>
<path fill="#D62228" d="M72.2,55.5c0,0.1,0,0.2,0,0.2c0,0,0,0,0,0C72.1,55.7,72.1,55.6,72.2,55.5z"/>
<path fill="#D62228" d="M72,55.8c0-0.1,0-0.1,0.1-0.2c0,0,0,0,0,0C72,55.7,72,55.7,72,55.8C72,55.8,72,55.8,72,55.8z"/>
<g>
	<path fill="#ED1C24" d="M69.7,55.7c0,0,0.1-0.2,0.2-0.4c0.1-0.1,0.1-0.3,0.3-0.4c0.1-0.1,0.2-0.2,0.3-0.4c0.2-0.3,0.6-0.4,0.8-0.6
		c0.2-0.2,0.4-0.3,0.4-0.3l0.1,0.1c0,0-0.1,0.1-0.4,0.2c-0.2,0.2-0.5,0.3-0.8,0.5c-0.1,0.1-0.2,0.2-0.4,0.4
		c-0.1,0.1-0.2,0.2-0.3,0.4C69.8,55.6,69.7,55.7,69.7,55.7z"/>
</g>
<path fill="#D62228" d="M73.8,40.6c0.2,0.3,2.5,4.6-0.8,9.3s-7.9,6.5-7.9,6.5s3.8-3.2,5.6-7.6c1.9-4.4,1.4-5.3,1.4-5.3
	s0,8.3-7.3,12.5c-7.3,4.2-7.7,2.3-7.7,2.3s-2.8,1.9-6,1.4c-3.2-0.6,1.9,0.6,3.6-1.9c1.7-2.5,1.3-6.3,1.1-9.3c-0.2-3,0.1,7.6-1.7,9
	c-1.7,1.4-2.1,3-0.7,3.6c1.4,0.6-9.9-2.4,2-18.1s-4.6,8.6-6.2,7.6c0,0-1.3-1.7-0.5-4.3c0.8-2.7,0.4-0.8-1.1-2.7s-1.8-3.8-0.8-6.3
	c1-2.6,2.6-3.2,2.6-3.2s-0.5,0.8,1.2-1.2c1.9-2.2,2.8-3.9,6.5-5.2c3.1-1.1,6.9,0,7.6,0c0.6,0-2.4-1.1-2.4-1.1s7.4-0.2,8.5,0.1
	c2.7,0.7,3.6,1.2,4.2,1.6c2,1.3,2.7,2.2,3.7,3c2.3,1.9,2.6,3.9,2.6,3.9s-0.7,1.3,0.9,3.2c1.6,1.9,2.4,2,2.4,2s0.3,1.9-0.7,2.8
	c-0.9,0.9,0.2,1.3-1.9,2.4c-1.3,0.7-0.8,2.9-0.8,2.9l-0.7,0.7l0.2,0.7c0,0,0.9,0.5,1.6,1.7c0.8,1.2,0.8,3.8,0.1,5.8s-2.2,5.4-1.3,6
	c0.9,0.6,1.3-1.5,1.3-1.5s-0.1,3.6-1.9,0.7s2.1-3.8,0.6-7.3s-2-5.2-2-5.2s-0.2,0.5-1.8-1.8C75.8,45.9,73.8,40.6,73.8,40.6z"/>
<path fill="#D62228" d="M79.5,60.6c0,0,0.5,10.3,1.7,11.4c0.3,0.3,0,0.5-0.1,0.6c-0.2,0.3-0.5,0.6-0.5,0.6s-1.9-1.3-2.4-3.3
	c-0.5-2-0.5-2-0.5-2s0.8-0.6,1.3-3.2C79.3,63.6,79.4,62.1,79.5,60.6z"/>
<g>
	<path fill="#ED1C24" d="M79.8,59.2c0,0,0.2,0,0.4-0.1c0.2-0.1,0.4-0.3,0.6-0.6c0.2-0.3,0.2-0.6,0.3-0.8c0-0.2,0-0.4,0-0.4
		s0,0.2,0,0.4c0,0.2-0.1,0.6-0.2,0.8c-0.2,0.3-0.4,0.5-0.6,0.6C79.9,59.3,79.8,59.2,79.8,59.2z"/>
</g>
<path fill="#D62228" d="M45.5,53.6c0,0-0.8,3.8-1.7,6.3c-1.2,3.5,1.4,7.4,4.5,10.9c3.1,3.5,2.3,3.6,3.4,4.7c0.5,0.5,2.1,2.1,2.1,2.1
	l2.4,0.2c0,0,0.6-0.4-4.9-7.5c-5.3-6.7-4.8-8.2-4.7-10.9C46.6,57,45.5,53.6,45.5,53.6z"/>
<path fill="#D62228" d="M57,77.3c0,0,3.9-0.1-2.2-5.9s-8-6.8-7.9-9.3c0.1-2.5-0.5-7.6-0.7-8.7c-0.2-1,3-2.6,3-2.6s0.2,8.7,3.1,10.3
	c2.1,1.2,1.7,0.1,1.7,0.1s-0.1-0.2-0.9-0.6S52.9,60,52.9,60l1.9-0.4c0,0,0.8,2.4,1.2,3.4s0.5,2.7,0.8,3.5c0.3,0.7,1.4,1.8,1.4,1.8
	s2.8,9.2,1.6,9.7c-1.2,0.5-2.9,0.2-3.5,0C55.6,77.9,57,77.3,57,77.3z"/>
<path fill="#D62228" d="M48.5,65.9c0,0,7,9.2,6.8,10.6c-0.3,1.4,1.8,1.1,1.8,1.1S56.3,71.7,48.5,65.9z"/>
<path fill="#D52328" d="M60.1,79.3c0,0,0.3-1.3,0-3.1"/>
<g>
	<path fill="#D52328" d="M45.7,54c0,0-0.3,0.3-0.8,0.9c-0.5,0.6-1.1,1.4-1.8,2.5c-0.7,1.1-1.4,2.4-1.8,3.9c-0.5,1.5-0.6,3.3-0.2,4.9
		c0.2,0.8,0.7,1.6,1.1,2.3c0.4,0.7,0.9,1.4,1.4,2c0.5,0.6,1.1,1.2,1.6,1.6c0.5,0.5,1.1,0.9,1.6,1.3c2.1,1.5,3.7,2.1,3.7,2.1
		s-1.6-0.6-3.7-2.1c-0.5-0.4-1.1-0.8-1.6-1.3c-0.5-0.5-1.1-1-1.6-1.6c-0.5-0.6-1-1.3-1.5-2c-0.4-0.7-0.8-1.5-1.1-2.3
		c-0.5-1.6-0.3-3.4,0.1-5c0.5-1.5,1.2-2.9,1.8-4c1.4-2.2,2.6-3.4,2.6-3.4L45.7,54z"/>
</g>
<g>
	<path fill="#D52328" d="M44.7,55.6c0,0-0.8,1.1-1.5,2.9c-0.2,0.5-0.4,1-0.5,1.5c-0.1,0.6-0.3,1.1-0.4,1.8c-0.1,0.3-0.1,0.6-0.1,0.9
		c0,0.3,0,0.6,0,1c0,0.3,0,0.7,0.1,1c0.1,0.3,0.1,0.7,0.3,1c0.2,0.6,0.6,1.2,0.9,1.7c0.4,0.5,0.8,1,1.3,1.4c0.9,0.9,1.8,1.6,2.5,2.3
		c0.8,0.7,1.4,1.2,1.8,1.6c0.2,0.2,0.4,0.3,0.5,0.4c0.1,0.1,0.2,0.1,0.2,0.1s-0.1,0-0.2-0.1c-0.1-0.1-0.3-0.2-0.5-0.4
		c-0.5-0.4-1.1-0.9-1.8-1.6c-0.7-0.7-1.6-1.5-2.5-2.3c-0.5-0.4-0.9-0.9-1.3-1.4c-0.4-0.5-0.7-1.1-0.9-1.8c-0.1-0.3-0.2-0.6-0.3-1
		c-0.1-0.3-0.1-0.7-0.1-1c0-0.3,0-0.7,0-1c0-0.3,0-0.6,0.1-1c0.1-0.6,0.2-1.2,0.4-1.8c0.2-0.6,0.3-1.1,0.5-1.5c0.7-1.9,1.5-3,1.5-3
		L44.7,55.6z"/>
</g>
<path fill="none" stroke="#D52328" stroke-width="3.703456e-002" stroke-miterlimit="10" d="M44.8,54.9c0,0-5.1,8.2,1.2,14.7"/>
<path fill="#D62228" d="M70.5,68.3c-1.1,0.6-2.3,0.8-3.5,0.6c-1.2-0.1-1.6-0.4-2.1-0.4s-1.5,0-1.5,0s0.7,0.9,1.3,1.6
	c0.6,0.8,1.9,1.4,3.7,1.3c1.9-0.1,2.6-0.9,3-1.4c0.4-0.5,1.3-2.1,1.3-2.1S71.7,67.7,70.5,68.3z M64.8,69.1l-0.1,0.2l-0.1-0.2
	l-0.1,0.1l0-0.2L64.3,69l-0.2-0.2v-0.1h0.2h0.2l0.1,0.1l0,0.2l0.2-0.2V69.1z M67.5,69.5C67.5,69.5,67.5,69.5,67.5,69.5
	c0,0.1,0,0.1,0,0.2c0,0,0,0.1,0,0.1c0,0,0,0,0,0c0,0,0,0,0,0c0,0,0,0,0,0c0,0,0,0,0,0c0,0,0,0,0,0s0,0,0,0c0,0,0,0,0,0c0,0,0,0,0,0
	c0,0,0,0,0-0.1c0,0,0-0.1,0-0.1C67.5,69.6,67.5,69.6,67.5,69.5C67.5,69.6,67.5,69.5,67.5,69.5C67.5,69.5,67.5,69.4,67.5,69.5
	C67.5,69.4,67.5,69.5,67.5,69.5z M65,69.6C65,69.7,65,69.7,65,69.6C65,69.7,65,69.7,65,69.6C65,69.6,65,69.6,65,69.6
	c0-0.1,0-0.1,0.1-0.2c0,0,0-0.1,0.1-0.1c0,0,0-0.1,0.1-0.1c0,0,0-0.1,0.1-0.1c0,0,0.1-0.1,0.1-0.1s0,0-0.1,0.1c0,0,0,0.1-0.1,0.1
	c0,0,0,0.1-0.1,0.1c0,0,0,0,0,0.1c0,0,0,0,0,0C65.1,69.5,65.1,69.5,65,69.6C65,69.6,65,69.6,65,69.6z M65.8,69.8L65.5,70l0.1-0.2
	L65.3,70l0.1-0.4l-0.3,0.3l0.2-0.4l0.4-0.2l-0.2,0.5l0.5-0.3l-0.1,0.2l0.4-0.4L66,69.9L65.8,69.8z M66.3,70.5v-0.4
	c0,0-0.1,0-0.2,0.3s0-0.4,0.2-0.8l0.3-0.3l-0.3,0.6l0.4-0.4l-0.4,0.7L66.3,70.5z M67.6,70.2l-0.1,0.1l-0.4,0.1v-0.2l-0.2,0.3l0-0.3
	l-0.2,0.2l0-0.2l-0.3,0.3l0.1-0.5l0.3-0.1v0.1l0.3-0.2l-0.2,0.2l0.2-0.1l0,0.2c0,0,0.2,0.1,0.2-0.2s0.1-0.3,0.1-0.3L67.6,70.2z
	 M69.6,69.5C69.6,69.5,69.6,69.5,69.6,69.5C69.6,69.5,69.6,69.5,69.6,69.5c0-0.1,0-0.1,0-0.1c0,0,0,0,0,0c0,0,0,0,0,0s0,0,0,0
	c0,0,0,0,0,0C69.7,69.4,69.7,69.4,69.6,69.5C69.7,69.5,69.7,69.5,69.6,69.5C69.6,69.5,69.6,69.5,69.6,69.5
	C69.6,69.6,69.6,69.6,69.6,69.5C69.6,69.6,69.6,69.6,69.6,69.5C69.6,69.6,69.6,69.6,69.6,69.5c0,0.1,0,0.1,0,0.1
	S69.6,69.6,69.6,69.5C69.6,69.6,69.6,69.6,69.6,69.5C69.6,69.6,69.6,69.6,69.6,69.5C69.6,69.5,69.6,69.5,69.6,69.5z M68.2,71
	C68.2,70.9,68.2,70.9,68.2,71c0-0.1,0-0.1,0-0.2c0,0,0-0.1,0-0.1c0,0,0-0.1,0-0.1c0-0.1,0-0.2,0-0.3c0-0.1,0-0.2,0-0.3
	c0-0.1,0-0.2,0-0.3c0-0.1,0-0.1,0-0.2c0,0,0-0.1,0-0.1s0,0,0,0.1c0,0,0,0.1,0,0.2c0,0.1,0,0.3,0,0.5c0,0.1,0,0.2,0,0.3
	c0,0,0,0.1,0,0.1c0,0,0,0.1,0,0.1C68.2,70.8,68.2,70.8,68.2,71C68.2,70.9,68.2,70.9,68.2,71C68.2,71,68.2,71,68.2,71
	C68.2,71,68.2,71,68.2,71z M69.4,70l-0.1,0.1L69.2,70c0,0-0.1,0-0.1,0.1s-0.2,0-0.2,0l-0.1,0.2l-0.2-0.2c0,0-0.1,0.1-0.1,0.3
	c0,0.2-0.2-0.3-0.2-0.3l0,0.3c0,0-0.1,0-0.2-0.7l0.2-0.2l0.1,0.2l0.2-0.2c0,0,0.1,0.1,0.1,0.2c0,0.1,0.1,0.3,0.1,0.3v-0.5l0.1,0.2
	l0.1-0.2l0.1-0.2l0.1,0.3l0-0.3l0.2,0.2h0.1l0.3,0.4L69.4,70z M69.8,70C69.8,70,69.8,70,69.8,70C69.8,70,69.8,70,69.8,70
	C69.8,70,69.8,70,69.8,70c-0.1-0.1-0.1-0.2-0.2-0.2c0,0,0-0.1-0.1-0.1c0,0,0,0,0-0.1c0,0,0,0,0-0.1c0,0,0,0,0-0.1c0,0,0,0,0-0.1
	c0,0,0-0.1-0.1-0.1c0,0,0,0,0,0s0,0,0,0c0,0,0,0,0.1,0.1c0,0,0,0,0,0.1c0,0,0,0,0,0.1c0,0,0,0,0,0.1c0,0,0,0,0,0.1c0,0,0,0,0,0.1
	c0,0,0,0,0,0.1C69.7,69.9,69.7,69.9,69.8,70C69.8,70,69.8,70,69.8,70C69.8,70,69.8,70,69.8,70C69.8,70,69.8,70,69.8,70
	C69.8,70,69.8,70,69.8,70z"/>
<g>
	<path fill="#ED1C24" d="M67.7,65c0,0-0.1,0.2-0.1,0.4c0,0.1-0.1,0.2-0.1,0.4c-0.1,0.1-0.1,0.3,0,0.4c0.3,0.2,0.6,0.1,0.8,0
		c0.2-0.1,0.2-0.3,0.2-0.3c0,0,0,0.2-0.2,0.3c-0.2,0.1-0.6,0.2-0.9,0c-0.1-0.1-0.1-0.3,0-0.5c0.1-0.1,0.1-0.3,0.2-0.4
		C67.6,65.1,67.7,65,67.7,65z"/>
</g>
<g>
	<path fill="#ED1C24" d="M69.2,54.5c0,0-0.1,0.1-0.2,0.3c0,0.1-0.1,0.2-0.1,0.4c0,0.1,0,0.3-0.1,0.5c0,0.2,0,0.3,0,0.5
		c0,0.2,0,0.3,0,0.4c0,0.2,0.1,0.4,0.1,0.4s0-0.2-0.1-0.4c0-0.1-0.1-0.3-0.1-0.4c0-0.2,0-0.3,0-0.5c0-0.2,0-0.3,0.1-0.5
		c0-0.2,0.1-0.3,0.1-0.4C69.1,54.7,69.2,54.5,69.2,54.5z"/>
</g>
<g>
	<path fill="#D52328" d="M44.4,35.1c0,0-0.3,2.3-0.6,5.7c0,0.4-0.1,0.9-0.2,1.3c-0.1,0.5,0,1-0.3,1.4c-0.5,0.9-1.2,1.7-1.8,2.5
		c-1.4,1.6-3,3.3-4.6,4.9c-3.2,3.3-6.6,6.4-9.1,8.8c-2.5,2.3-4.2,3.9-4.2,3.9s1.7-1.6,4.2-4c2.5-2.4,5.8-5.6,9-8.9
		c1.6-1.6,3.2-3.3,4.6-4.9c0.7-0.8,1.4-1.6,1.8-2.5c0.2-0.4,0.2-0.9,0.3-1.4c0.1-0.5,0.1-0.9,0.2-1.3C44.1,37.4,44.4,35.1,44.4,35.1
		z"/>
</g>
<path fill="#D62228" d="M47.9,44.4c0,0,0.1,5.5-7.5,14.4S30,74.2,30,74.2l-2,4.2c0,0,8.3-12.9,10.8-16.1c2.5-3.2,9.8-12,9.8-12
	S48.5,45.7,47.9,44.4z"/>
<g>
	<path fill="#D52328" d="M75.5,79.3c0,0,0.5-0.7,1.3-1.8c0.8-1,1.9-2.4,3.1-3.7c0.6-0.7,1.2-1.3,1.8-1.9c0.6-0.6,1.2-1.1,1.7-1.5
		c0.5-0.4,1-0.7,1.3-0.9c0.3-0.2,0.5-0.3,0.5-0.3s-0.2,0.1-0.5,0.4c-0.3,0.2-0.8,0.5-1.3,1C83,71,82.4,71.5,81.8,72
		c-0.6,0.6-1.2,1.2-1.8,1.9c-1.2,1.3-2.3,2.6-3.2,3.7C76,78.6,75.5,79.3,75.5,79.3z"/>
</g>
<g>
	<path fill="#D52328" d="M83.2,75.2c0,0,0.5-1.5,1.4-3.8c0.9-2.3,2.1-5.3,3.4-8.2c0.7-1.5,1.4-2.9,2.1-4.3c0.3-0.7,0.7-1.3,1.1-1.9
		c0.3-0.6,0.7-1.2,1-1.7c0.3-0.5,0.6-1,0.9-1.4c0.3-0.4,0.5-0.8,0.8-1c0.4-0.6,0.7-0.9,0.7-0.9s-0.2,0.3-0.7,0.9
		c-0.2,0.3-0.5,0.6-0.7,1c-0.3,0.4-0.6,0.9-0.9,1.4c-0.3,0.5-0.7,1.1-1,1.7c-0.3,0.6-0.7,1.2-1,1.9c-0.7,1.3-1.4,2.8-2.1,4.3
		c-1.4,2.9-2.6,5.9-3.5,8.2C83.8,73.7,83.2,75.2,83.2,75.2z"/>
</g>
<g>
	<path fill="#D52328" d="M84.6,35.1c0,0,0.1,0.1,0.4,0.2c0.3,0.1,0.6,0.4,1.1,0.6c0.2,0.1,0.5,0.2,0.7,0.3c0.3,0.1,0.6,0.2,0.9,0.3
		c0.3,0,0.6,0.1,1,0c0.3,0,0.7,0,1-0.1c2.7-0.2,5.3-0.6,5.3-0.6s-2.7,0.4-5.3,0.7c-0.3,0-0.7,0-1,0c-0.3,0-0.7,0-1,0
		c-0.3-0.1-0.6-0.2-0.9-0.3c-0.3-0.1-0.5-0.2-0.7-0.3c-0.5-0.2-0.8-0.4-1.1-0.6C84.8,35.2,84.6,35.1,84.6,35.1z"/>
</g>
<g>
	<path fill="#D52328" d="M84.1,43.9c0,0,0.1,0.1,0.4,0.3c0.3,0.2,0.7,0.4,1.2,0.7c0.3,0.1,0.5,0.2,0.8,0.4c0.3,0.1,0.6,0.2,0.9,0.3
		c0.3,0.1,0.7,0.2,1,0.3c0.4,0.1,0.7,0.1,1.1,0.2c0.7,0.1,1.5,0.2,2.2,0.3c0.3,0.1,0.7,0.2,1,0.2c0.3,0.1,0.6,0.2,0.9,0.3
		c0.3,0.1,0.5,0.2,0.7,0.3c0.2,0.1,0.4,0.2,0.5,0.3c0.1,0.1,0.2,0.2,0.2,0.3c0,0.1,0.1,0.1,0.1,0.1s0,0-0.1-0.1
		c0-0.1-0.1-0.2-0.3-0.3c-0.1-0.1-0.3-0.2-0.5-0.3c-0.2-0.1-0.4-0.2-0.7-0.3c-0.3-0.1-0.5-0.2-0.9-0.3c-0.3-0.1-0.6-0.2-1-0.2
		c-0.7-0.1-1.4-0.2-2.2-0.3c-0.4-0.1-0.7-0.1-1.1-0.2c-0.4-0.1-0.7-0.2-1-0.3c-0.3-0.1-0.6-0.2-0.9-0.3c-0.3-0.1-0.6-0.3-0.8-0.4
		C84.7,44.4,84.1,43.9,84.1,43.9z"/>
</g>
<g>
	<path fill="#D52328" d="M88.2,45.9c0,0-0.1,0-0.3,0.1c-0.2,0-0.4,0.1-0.8,0.2c-0.2,0-0.3,0.1-0.5,0.1c-0.2,0-0.4,0-0.6,0
		c-0.4,0-0.8-0.1-1.3-0.1c-0.2,0-0.4,0-0.6,0c-0.2,0-0.4,0.1-0.6,0.1c-0.4,0.1-0.7,0.3-1.1,0.4c-0.6,0.2-1,0.4-1,0.4s0.4-0.2,1-0.5
		c0.3-0.1,0.7-0.3,1.1-0.4c0.2-0.1,0.4-0.1,0.6-0.1c0.2,0,0.4,0,0.7,0c0.4,0,0.9,0.1,1.3,0.2c0.2,0,0.4,0,0.6,0c0.2,0,0.4,0,0.5-0.1
		C87.7,45.9,88.2,45.9,88.2,45.9z"/>
</g>
<g>
	<path fill="#D52328" d="M61.9,74.8c0,0,0.5,1.1,0.8,2.2c0.2,0.6,0.3,1.2,0.3,1.6c0,0.5-0.1,0.7-0.1,0.7s0.1-0.3,0.1-0.7
		c0-0.4-0.1-1-0.3-1.6C62.3,75.9,61.9,74.8,61.9,74.8z"/>
</g>
<g>
	<path fill="#D52328" d="M53.1,77.5c0,0-1.5,0-3.9,0.1c-1.2,0.1-2.5,0.1-3.9,0.3c-0.7,0.1-1.5,0.1-2.2,0.2c-0.8,0.1-1.5,0.2-2.3,0.3
		c-0.8,0.1-1.5,0.3-2.3,0.5c-0.7,0.1-1.5,0.3-2.2,0.3c-0.4,0-0.7,0-1.1,0.1c-0.3,0-0.7,0-1,0c-0.7,0-1.3-0.1-1.9-0.2
		c-0.6-0.1-1.1-0.2-1.6-0.2c-0.5-0.1-0.9-0.2-1.2-0.3c-0.7-0.2-1-0.3-1-0.3s0.4,0.1,1,0.3c0.3,0.1,0.7,0.2,1.2,0.2
		c0.5,0.1,1,0.2,1.6,0.2c0.6,0.1,1.2,0.1,1.9,0.1c0.3,0,0.7,0,1,0c0.3,0,0.7,0,1.1-0.1c0.7,0,1.5-0.2,2.2-0.3
		c0.7-0.1,1.5-0.3,2.3-0.5c0.8-0.1,1.5-0.2,2.3-0.3c0.8-0.1,1.5-0.1,2.2-0.2c1.4-0.1,2.8-0.2,3.9-0.2C51.6,77.5,53.1,77.5,53.1,77.5
		z"/>
</g>
</svg>
