<?xml version="1.0" encoding="utf-8"?>
<!-- Generator: Adobe Illustrator 18.1.1, SVG Export Plug-In . SVG Version: 6.00 Build 0)  -->
<svg version="1.1" id="Слой_1" xmlns="http://www.w3.org/2000/svg" xmlns:xlink="http://www.w3.org/1999/xlink" x="0px" y="0px"
	 viewBox="0 0 120 120" enable-background="new 0 0 120 120" xml:space="preserve">
<path fill="none" stroke="#000000" stroke-width="0.2032" stroke-miterlimit="10" d="M35,35.3V14.2c0-2.2,1.9-3.9,4.2-3.9h58.5
	c2.3,0,4.2,1.8,4.2,3.9v90.6c0,2.2-1.9,3.9-4.2,3.9H56"/>
<path d="M80.5,108.8h17.4c2.6,0.1,4.3-2.4,4.3-3.9V14.2c0-1.6-1.9-4.1-4.3-3.9H80.5V108.8z"/>
<rect x="57.3" y="10.3" width="21.8" height="98.5"/>
<path fill="none" stroke="#000000" stroke-width="0.8662" stroke-miterlimit="10" d="M55.5,107.8c0,2.3-2,4.2-4.4,4.2H23.2
	c-2.4,0-4.4-1.9-4.4-4.2V40.1c0-2.3,2-4.2,4.4-4.2h27.9c2.4,0,4.4,1.9,4.4,4.2V107.8z"/>
<path d="M38.5,10.3c-2.4-0.2-4.3,2.4-4.3,3.9v21.6h16.9c2.4,0,4.4,1.9,4.4,4.2v67.7c0,0.3-0.1,0.7-0.1,1h0.5V10.3H38.5z"/>
<path fill="none" stroke="#000000" stroke-width="0.4242" stroke-miterlimit="10" d="M33.7,41.8c0,1.4-1.1,2.5-2.5,2.5h-6.6
	c-1.4,0-2.5-1.1-2.5-2.5l0,0c0-1.4,1.1-2.5,2.5-2.5h6.6C32.5,39.3,33.7,40.4,33.7,41.8L33.7,41.8z"/>
<g>
	<path d="M39.5,56.2c-1,0.6-0.9,2,0.2,2.6c-0.2,0.5-0.4,1-0.9,1.4c-0.3,0.3-0.6,0.3-0.9,0.2c-0.2-0.1-0.4-0.2-0.6-0.2
		c-0.3,0-0.6,0.1-0.8,0.2c-0.4,0.1-0.7,0.1-1-0.2c-0.9-1-1.3-2.1-1-3.4c0.1-0.6,0.5-1.1,1.2-1.3c0.3-0.1,0.6,0,0.9,0.1
		c0.3,0.2,0.7,0.1,1,0c0.6-0.3,1.2-0.2,1.7,0.2c0,0,0.1,0.1,0.1,0.1C39.4,56.1,39.4,56.1,39.5,56.2z"/>
	<path d="M38.3,54c0.1,0.7-0.5,1.4-1.1,1.5c-0.1,0-0.2,0-0.2-0.1C36.9,54.7,37.6,54,38.3,54z"/>
</g>
<circle fill="none" stroke="#000000" stroke-width="0.135" stroke-miterlimit="10" cx="37.2" cy="57.6" r="4.9"/>
<g>
	<path fill="none" stroke="#000000" stroke-width="3.782444e-002" stroke-miterlimit="10" d="M47.2,89.1c0,0,0.5,2.2,0.6,2.8
		s-0.1,2.1-0.2,2.6c-0.1,0.5-0.1,1.4-0.2,1.7c-0.1,0.3-0.1,1.4-0.9,2.3s-1.6,1.8-1.7,1.9c-0.1,0.1-1,1.5-2.5,1.6s-2.3-0.3-2.6-0.6
		s-2.1-2-2.4-2.2c-0.3-0.3-1.3-1.2-1.5-1.8c-0.2-0.6-0.2-1-0.5-1.8c-0.3-0.8-0.5-1.6-0.5-1.6"/>
	<path d="M43.6,97.9c-0.4-0.2-0.8-0.4-1.1-0.4c-0.3,0-0.7,0.3-0.8,0.3c-0.1,0-0.2-0.1-0.3-0.1c-0.1,0-0.3-0.1-0.5-0.1
		c-0.1,0-0.4,0.2-0.4,0.2s-0.6,0.4-0.8,0.6c-0.1,0.1-0.3,0.2-0.3,0.2s0.4,0,0.6,0c0.1,0,0.2,0,0.5-0.1c0.3-0.1,0.5-0.2,0.5-0.2
		s0.2,0,0.4,0c0.2,0,0.2-0.1,0.2-0.1s0.1,0,0.1,0c0,0,0.1,0,0.1,0s0.2,0,0.3,0c0.2,0,0.3,0,0.4,0s0.2,0.1,0.3,0.1c0.1,0,0.3,0,0.3,0
		s0.3,0,0.5,0.1c0.2,0,0.4-0.1,0.4-0.1S44.1,98.1,43.6,97.9z M40.4,98.4C40.4,98.4,40.4,98.4,40.4,98.4
		C40.4,98.4,40.4,98.4,40.4,98.4C40.3,98.4,40.3,98.4,40.4,98.4c-0.1-0.1-0.1-0.1-0.1-0.1c0,0,0,0,0,0c0,0,0,0,0,0c0,0,0,0,0,0
		c0,0,0,0,0,0s0,0,0,0c0,0,0,0,0,0c0,0,0,0,0,0c0,0,0,0,0,0c0,0,0,0,0,0C40.3,98.3,40.4,98.4,40.4,98.4
		C40.4,98.4,40.4,98.4,40.4,98.4C40.4,98.4,40.4,98.4,40.4,98.4C40.4,98.4,40.4,98.4,40.4,98.4C40.4,98.4,40.4,98.5,40.4,98.4
		C40.4,98.5,40.4,98.5,40.4,98.4z M41.6,98.1C41.6,98.1,41.6,98.2,41.6,98.1C41.6,98.2,41.6,98.2,41.6,98.1
		C41.6,98.2,41.6,98.2,41.6,98.1C41.6,98.2,41.6,98.1,41.6,98.1c0,0,0-0.1,0-0.1c0,0,0,0,0,0c0,0,0,0,0,0c0,0,0,0,0,0c0,0,0,0,0,0
		c0,0,0,0,0,0c0,0,0,0,0,0c0,0,0,0,0,0s0,0,0,0c0,0,0,0,0,0c0,0,0,0,0,0c0,0,0,0,0,0.1c0,0,0,0,0,0.1C41.6,98,41.6,98.1,41.6,98.1
		C41.6,98.1,41.6,98.1,41.6,98.1z M41.9,97.9c0,0,0,0.1,0,0.1c0,0,0,0,0,0c0,0,0,0,0,0s0,0,0,0c0,0,0,0,0,0
		C41.8,98,41.8,98,41.9,97.9c0,0,0-0.1,0-0.1c0,0,0,0,0,0c0,0,0,0,0,0c0,0,0,0,0,0s0,0,0,0c0,0,0,0,0,0c0,0,0,0,0,0
		C41.9,97.8,41.9,97.8,41.9,97.9C41.9,97.9,41.9,97.9,41.9,97.9z M43.3,98.1C43.3,98.1,43.2,98.1,43.3,98.1
		C43.2,98.2,43.2,98.2,43.3,98.1C43.2,98.2,43.2,98.2,43.3,98.1C43.2,98.2,43.2,98.2,43.3,98.1c-0.1,0.1-0.1,0.1-0.1,0.1
		c0,0,0,0,0,0s0,0,0,0C43.1,98.2,43.1,98.2,43.3,98.1C43.2,98.2,43.2,98.2,43.3,98.1C43.2,98.2,43.2,98.1,43.3,98.1
		C43.2,98.1,43.2,98.1,43.3,98.1C43.3,98.1,43.3,98.1,43.3,98.1C43.3,98.1,43.3,98.1,43.3,98.1z"/>
	<g>
		<path d="M41.8,98.5c0,0,0.1,0,0.1,0c0.1,0,0.2,0,0.3,0c0.1,0,0.2-0.1,0.3-0.1c0.1-0.1,0-0.1,0-0.1c0,0,0,0.1,0,0.1
			c0,0.1-0.2,0.1-0.3,0.2c-0.1,0-0.2,0-0.3,0C41.9,98.5,41.8,98.5,41.8,98.5z"/>
	</g>
	<g>
		<path d="M40.7,98.5l0.3-0.1c0.1,0,0.1,0.1,0.1,0.1c0,0,0.1,0,0.1,0l0.6,0l0,0l0-0.2l0,0.2l0,0l-0.6,0c0,0-0.1,0-0.1,0
			c0,0,0-0.1-0.1-0.1L40.7,98.5z"/>
	</g>
	<g>
		<path d="M42.6,98.3C42.6,98.3,42.6,98.3,42.6,98.3c0,0.1,0.1,0.1,0.2,0.1c0.1,0,0.2,0,0.2,0s-0.1,0-0.2,0
			C42.7,98.4,42.7,98.4,42.6,98.3C42.6,98.3,42.6,98.3,42.6,98.3L42.6,98.3z"/>
	</g>
	<g>
		<path d="M42.8,94.9c0,0,0.1,0.1,0.2,0.3c0.1,0.2,0.2,0.4,0.3,0.6c0,0.1,0,0.3-0.1,0.3c-0.1,0.1-0.1,0.2-0.2,0.2
			c-0.1,0.1-0.2,0.2-0.2,0.2s0.1-0.1,0.2-0.2c0.1-0.1,0.2-0.1,0.2-0.2c0.1-0.1,0.1-0.2,0.1-0.3c-0.1-0.2-0.2-0.4-0.3-0.6
			C42.8,95,42.8,94.9,42.8,94.9z"/>
	</g>
	<g>
		<path d="M40.1,95.7c0,0,0,0.1-0.1,0.2c0,0.1-0.1,0.3,0,0.5c0,0.1,0.1,0.1,0.2,0.2c0.1,0,0.2,0.1,0.2,0.1c0.1,0,0.2,0,0.2,0
			s-0.1,0-0.2,0c-0.1,0-0.1,0-0.2-0.1c-0.1-0.1-0.2-0.1-0.2-0.2c-0.1-0.2,0-0.4,0-0.5C40.1,95.7,40.1,95.7,40.1,95.7z"/>
	</g>
	<g>
		<path d="M40.4,96.5c0,0,0.2-0.1,0.4-0.2c0.1,0,0.1,0,0.2,0c0,0,0.1,0.1,0.1,0.1c0.1,0.1,0.1,0.1,0.1,0.1s0,0-0.1-0.1
			c0,0-0.1-0.1-0.1-0.1c0,0-0.1,0-0.2,0C40.6,96.4,40.4,96.5,40.4,96.5z"/>
	</g>
	<g>
		<path d="M41.4,96.7c0,0,0.1,0,0.3,0c0.1,0,0.3-0.1,0.5-0.3c0.1-0.1,0.1-0.2,0.2-0.2c0.1-0.1,0.2-0.1,0.2-0.1c0.2,0,0.3,0,0.3,0
			c0,0-0.1,0-0.3,0c-0.2,0-0.3,0.2-0.4,0.3c-0.1,0.1-0.3,0.3-0.5,0.3C41.5,96.7,41.4,96.7,41.4,96.7z"/>
	</g>
	<path d="M42.3,96.2c0,0,0.2-0.1,0.3-0.1c0,0,0.2,0,0.2,0C42.8,96,42.4,96,42.3,96.2z"/>
	<path d="M41,96.4c0,0-0.1-0.1-0.1-0.1c0,0-0.1,0-0.1,0L41,96.4z"/>
	<g>
		<path d="M40.7,100.4c0,0,0.2,0,0.4-0.1c0.3,0,0.6-0.1,1-0.1c0.2,0,0.4,0,0.5,0c0.2,0,0.3,0,0.5,0c0.3,0,0.4,0,0.4,0s-0.2,0-0.4,0
			c-0.1,0-0.3,0-0.5,0c-0.2,0-0.3,0-0.5,0C41.4,100.3,40.7,100.4,40.7,100.4z"/>
	</g>
	<g>
		<path d="M43.4,91.6c0,0-0.2,0.2-0.4,0.3c-0.1,0.1-0.2,0.1-0.2,0.2c0,0.1,0,0.1,0,0.1s0-0.1,0-0.1c0-0.1,0.1-0.2,0.2-0.2
			C43.2,91.7,43.4,91.5,43.4,91.6L43.4,91.6z"/>
	</g>
	<g>
		<path d="M42.8,92.3c0,0,0.1-0.2,0.4-0.3c0.1-0.1,0.3-0.1,0.5,0c0.2,0,0.4,0,0.5,0c0.2,0,0.4,0,0.5,0c0.2-0.1,0.3-0.1,0.4-0.2
			c0.2-0.1,0.4-0.3,0.4-0.3s-0.1,0.1-0.4,0.3C45,91.9,44.9,92,44.7,92c-0.2,0-0.3,0.1-0.5,0.1c-0.2,0-0.4,0-0.5-0.1
			c-0.2,0-0.3,0-0.5,0C42.9,92.1,42.8,92.3,42.8,92.3z"/>
	</g>
	<g>
		<path d="M45.3,91.5c0,0-0.1,0.1-0.2,0.2c-0.1,0.1-0.3,0.2-0.5,0.3c-0.1,0-0.2,0.1-0.3,0.1c-0.1,0-0.2,0-0.3,0c-0.2,0-0.3,0-0.3,0
			s0.1,0,0.3,0c0.1,0,0.2,0,0.3,0c0.1,0,0.2,0,0.3-0.1c0.2,0,0.4-0.2,0.5-0.2C45.2,91.6,45.3,91.5,45.3,91.5z"/>
	</g>
	<path fill="none" stroke="#000000" stroke-width="1.891222e-002" stroke-miterlimit="10" d="M43.1,91.9
		C43.1,91.9,43.2,91.9,43.1,91.9"/>
	<path d="M46.1,90c-0.3-0.2-0.6-0.2-0.9-0.2c0,0,0,0,0,0c-0.1,0-0.1,0-0.2,0.1c0,0-0.1,0-0.1,0c0,0,0,0,0,0c-0.1,0-0.1,0-0.2,0.1
		c-0.1,0.1-0.3,0.1-0.4,0.1c0,0,0,0,0,0c0,0,0,0-0.1,0c0,0-0.1,0-0.1,0c0,0,0,0-0.1,0c0,0-0.1,0-0.1,0c0,0,0,0-0.1,0c0,0,0,0,0,0
		c0,0,0,0,0,0c0,0,0,0-0.1,0c0,0-0.1,0-0.1,0.1c0,0-0.1,0-0.1,0c-0.1,0-0.1,0-0.2,0.1c0,0-0.1,0.1-0.1,0c0,0,0,0,0,0
		c-0.1,0.1-0.1,0.1-0.2,0.1c0,0.1-0.1,0.1-0.2,0.1c0,0,0,0,0,0.1c0,0,0,0,0,0.1c0,0,0,0,0,0c0,0-0.1,0-0.1,0c0,0,0,0.1,0,0.1
		c0.1,0,0.1,0,0.2-0.1c0,0.1-0.1,0.1-0.1,0.1c0,0,0.1,0,0.1,0c0,0,0,0,0,0L42.6,91c0,0,0,0,0,0c0,0,0,0,0,0c0,0,0,0,0,0c0,0,0,0,0,0
		c0,0,0,0.1-0.1,0.1c0.1,0,0.2-0.1,0.2-0.1c0,0,0,0,0,0c0.1,0,0.1-0.1,0.2-0.1c0,0,0,0,0,0c0,0,0,0,0,0c0,0,0,0,0,0.1c0,0,0,0,0,0
		c0,0,0,0,0-0.1c0,0,0,0,0.1,0c0,0,0,0,0,0c0.1,0,0.1,0,0.2,0c0,0,0,0,0.1,0c0,0,0,0,0,0c0,0,0,0,0.1,0c0,0,0,0,0,0c0,0,0,0,0,0
		c0,0,0,0,0,0c0,0,0,0,0,0c0,0,0.1,0,0.1-0.1c0,0,0.1,0,0.1-0.1c0,0,0.1,0,0.1,0c0,0,0,0,0,0c0,0,0,0,0-0.1c0,0,0.8-0.2,0.8-0.2
		c0.2,0,0.5-0.2,0.9-0.2c0.3,0,0.5-0.1,0.6,0c0,0,0.3,0.1,0.4,0.1C46.5,90.3,46.2,90.1,46.1,90z M43.4,90.9c0.1-0.1,0.1-0.1,0.2-0.1
		C43.6,90.8,43.5,90.9,43.4,90.9z"/>
	<path d="M46.1,91.4C46.1,91.4,46.1,91.4,46.1,91.4C46.1,91.4,46.1,91.4,46.1,91.4c0.1-0.1,0.1-0.1,0.1-0.1c0,0,0,0,0-0.1
		c0.1-0.1,0.1-0.2,0.1-0.3c0,0.1-0.1,0.1-0.1,0.2c0,0.1-0.1,0.1-0.2,0.2c-0.1,0-0.1,0.1-0.2,0.1l0,0c0.1-0.2,0.3-0.3,0.3-0.5
		c0,0.1,0,0.1-0.1,0.2c0,0,0,0.1-0.1,0.1c0,0,0,0,0,0c0,0.1-0.1,0.1-0.2,0.2c0-0.1,0.1-0.1,0.1-0.1c0-0.1,0.1-0.1,0.1-0.1
		c-0.1,0.1-0.2,0.2-0.3,0.2c0.1-0.1,0.1-0.1,0.2-0.2c0.1-0.1,0.1-0.2,0.1-0.3c0,0.1-0.1,0.2-0.1,0.3l0,0c0,0,0,0,0-0.1
		c0,0-0.1,0.1-0.1,0.1c0,0,0,0,0,0l0,0c0,0,0,0-0.1,0.1c0-0.1,0.1-0.2,0.1-0.3c0-0.1,0-0.2,0-0.3c0,0.1,0,0.1,0,0.2c0,0,0,0,0,0
		c0,0,0-0.1,0-0.1c-0.1,0.1,0,0.3-0.1,0.4c0,0,0,0,0-0.1c0,0,0,0,0.1-0.1c0,0-0.1,0-0.1,0c0,0,0,0.1,0,0.1c0,0,0,0,0-0.1
		c0,0,0,0,0,0c0,0,0,0-0.1,0c0.1-0.2,0.1-0.3,0-0.4c0,0.1,0,0.2,0,0.2c0,0,0,0,0,0c0,0,0-0.1,0-0.1c0,0,0-0.1,0-0.1c0,0,0,0,0,0
		c0,0.1,0,0.1-0.1,0.2c0,0,0-0.1,0-0.1c-0.1,0,0,0-0.1,0c0,0,0,0.1,0,0.1c0,0,0,0,0,0c0,0,0,0,0,0c0,0,0-0.1-0.1,0
		c0-0.1,0.1-0.1,0.1-0.2c0,0,0,0,0,0L45,90.8c0,0,0,0,0,0c0-0.1,0-0.1,0-0.2c0,0,0,0,0,0c0,0.1,0,0.1-0.1,0.2c0,0,0-0.1-0.1-0.1
		c0,0-0.1,0-0.1,0c0-0.1,0-0.1,0-0.2c0,0,0,0.1-0.1,0.1c0,0,0,0,0-0.1c0,0,0,0,0,0c0,0,0,0,0,0l0-0.1l0,0c0,0,0,0,0,0.1
		c0,0,0,0-0.1,0c0,0,0-0.1,0-0.1c0,0,0,0,0,0c0,0,0,0.1,0,0.1c0,0,0,0,0,0c0,0,0,0-0.1,0c0,0,0-0.1,0-0.1c0,0,0,0,0,0.1c0,0,0,0,0,0
		c0,0,0,0.1,0,0.1c0,0,0,0-0.1,0c0,0,0,0,0,0l0,0c0,0,0,0,0-0.1c-0.1,0-0.1,0-0.1,0c0,0-0.1,0-0.1,0.1c0,0.1,0,0.1,0,0.2
		c0,0,0,0,0,0c0,0,0,0.1,0,0.1c0,0,0,0,0,0c0,0,0,0,0,0c0,0,0,0,0,0c0,0,0,0,0,0c0-0.1,0-0.1,0-0.2c0,0,0,0,0,0c0,0,0,0,0,0
		c0,0-0.1,0-0.1,0c0,0,0,0,0,0c0,0,0,0,0,0.1c0,0,0,0,0,0.1c0,0,0,0,0,0c0,0,0,0,0,0.1c0,0-0.1-0.1-0.1-0.1c0,0,0,0,0,0
		c0,0,0,0,0-0.1c0,0,0,0,0,0c0,0,0,0,0,0c0,0,0,0,0,0c0,0,0,0.1,0,0.1c0,0,0,0,0,0c0,0.1,0,0.1,0,0.1c-0.1,0-0.1,0-0.1-0.1
		c0,0,0,0,0,0c0,0,0,0,0,0c0,0,0-0.1,0-0.1c0,0,0,0,0,0c0,0,0,0,0,0c0,0,0,0.1,0,0.1l0,0c0,0,0,0.1,0,0.1c-0.1,0-0.1,0.1-0.2,0.1
		c0,0.1-0.1,0.1-0.1,0.2c0,0,0,0,0,0c0,0,0,0,0,0.1c0,0,0,0,0,0c0,0.1,0,0,0.1,0.1c0,0-0.1,0-0.1,0c0,0,0,0.1-0.1,0.1
		c0,0-0.1,0.1-0.1,0.1c0,0,0,0.1-0.1,0c0,0,0,0.1-0.1,0.1c0.1,0,0.1,0,0.1-0.1c0,0,0.1,0,0.1,0c0,0,0,0,0,0c0-0.1,0.1-0.1,0.1-0.2
		c0,0,0.1,0,0.1,0c0,0,0,0,0.1,0c0.1,0,0.1-0.1,0.1-0.2c0,0,0,0,0.1,0c0,0,0,0,0.1,0c0,0,0,0,0-0.1c0,0,0,0,0,0c0,0,0,0,0,0
		c0,0.1,0,0.1,0,0.2c0.1,0.2,0.2,0.3,0.4,0.4c0.1,0,0.1,0,0.1-0.1c0,0-0.1,0-0.1,0c0,0-0.1,0,0-0.1c0,0,0-0.1,0-0.1c0,0,0.1,0,0.1,0
		c0.1-0.1,0.1-0.1,0.1,0c0,0,0,0,0.1-0.1l0,0c0,0,0,0,0,0.1c0,0,0,0,0,0.1c0,0,0,0,0,0c0,0,0,0,0-0.1c0,0,0,0,0,0c0,0,0,0,0-0.1
		c0,0,0,0.1,0,0.1c0,0,0,0.1,0,0.1c0.1,0,0.3,0,0.4-0.1c0.2-0.2,0.2-0.4,0.2-0.4c0.1,0,0.2,0.1,0.2,0.2c0,0.1,0,0.1,0.1,0.1
		c0,0.1,0,0.1,0,0.2c0,0,0.1,0,0.1,0c0,0.1,0.1,0.1,0.1,0.1c0,0,0,0-0.1,0c-0.1-0.1-0.1-0.1-0.2,0c0,0,0,0,0.1,0c0,0,0,0,0,0
		c0,0,0,0-0.1,0c0,0-0.1,0-0.1,0c-0.1,0-0.1,0-0.1,0c-0.1,0-0.2,0-0.3,0c0.1,0.1,0.2,0.1,0.2,0.2c0,0,0,0,0,0c0-0.1,0-0.1,0-0.2l0,0
		c0,0,0,0,0,0.1c0,0,0,0,0,0c0,0,0,0,0,0c0,0,0.1,0,0.1,0c0,0,0,0.1,0.1,0.2c0,0,0,0,0,0c0,0,0,0,0,0c0,0,0,0,0,0c0,0,0-0.1-0.1-0.1
		c0,0,0,0,0-0.1c0,0,0,0.1,0.1,0.1c0-0.1-0.1-0.1-0.1-0.2c0,0,0,0,0,0l0.1,0.1c0,0,0,0,0,0c0,0,0,0,0-0.1l0,0c0,0,0,0,0,0
		c0,0,0,0,0,0c0,0-0.1-0.1-0.1-0.1c0.2,0,0.3,0,0.4,0.1c0,0,0,0,0,0c0,0-0.1-0.1-0.1-0.1l0,0c0,0,0.1,0,0.1,0c0-0.1,0.1,0,0.1,0
		c0,0,0-0.1,0.1-0.1c0,0,0,0,0,0c0,0,0,0,0,0c0,0,0,0,0,0c0,0,0,0,0.1,0c0,0,0-0.1,0-0.1c0,0,0,0,0.1,0c0,0,0,0,0,0c0,0-0.1,0-0.1,0
		c0,0,0.1,0,0.1,0c0,0,0.1,0,0.1,0c0,0,0.1,0,0.1,0c0,0-0.1,0-0.1,0c0-0.1,0.1-0.1,0.2-0.1c0,0,0,0-0.1,0c0.1-0.1,0.2-0.1,0.3-0.1
		C46.1,91.5,46.1,91.5,46.1,91.4C46,91.5,46.1,91.5,46.1,91.4C46.1,91.5,46.1,91.4,46.1,91.4C46.1,91.5,46,91.5,46.1,91.4
		C46,91.5,46,91.5,46.1,91.4z M43.5,91.5C43.5,91.5,43.5,91.5,43.5,91.5C43.5,91.5,43.5,91.5,43.5,91.5
		C43.5,91.5,43.5,91.5,43.5,91.5C43.5,91.5,43.5,91.5,43.5,91.5z M43.6,91.4C43.6,91.4,43.6,91.4,43.6,91.4
		C43.6,91.4,43.6,91.4,43.6,91.4C43.6,91.5,43.6,91.5,43.6,91.4z M43.9,91.6C43.9,91.6,43.9,91.6,43.9,91.6
		C43.9,91.6,43.9,91.6,43.9,91.6C43.8,91.6,43.9,91.6,43.9,91.6z M44,91.8L44,91.8C44,91.8,44,91.8,44,91.8C44,91.8,44,91.8,44,91.8
		L44,91.8C44,91.8,44,91.8,44,91.8z M44,91.8C43.9,91.7,43.9,91.7,44,91.8C43.9,91.7,43.9,91.7,44,91.8C44,91.7,44,91.7,44,91.8
		c0-0.1,0-0.1,0-0.1c0,0,0,0,0,0c0,0,0,0,0,0C44,91.7,44,91.7,44,91.8z M44.3,91.5C44.3,91.6,44.2,91.6,44.3,91.5
		c-0.1,0-0.1-0.1-0.1-0.1c0,0,0,0,0,0c0,0,0,0.1-0.1,0.1c-0.1,0-0.1-0.1-0.1-0.2c0,0,0.1,0,0.1,0c0,0,0,0,0,0c0,0,0,0,0.1,0
		c0,0,0,0,0,0c0,0,0,0,0,0.1c0,0,0,0,0-0.1C44.3,91.4,44.4,91.4,44.3,91.5C44.4,91.5,44.3,91.5,44.3,91.5z M44.5,91.8
		C44.5,91.8,44.4,91.7,44.5,91.8C44.4,91.7,44.5,91.7,44.5,91.8C44.5,91.7,44.5,91.8,44.5,91.8C44.5,91.8,44.5,91.8,44.5,91.8z
		 M45.2,91c0,0,0.1-0.1,0.1-0.1C45.3,90.9,45.3,90.9,45.2,91z M45.7,91.5c0.1,0,0.1-0.1,0.2-0.1c0,0,0,0,0,0
		C45.9,91.5,45.8,91.6,45.7,91.5z M45.9,91.4c0.1,0,0.1,0,0.1-0.1c0,0,0,0,0,0C46,91.4,45.9,91.5,45.9,91.4z"/>
	<path d="M43.9,92.3c0-0.1,0-0.1-0.1-0.2c0,0,0,0,0,0c0,0,0,0,0,0.1c0,0,0,0,0,0c0,0,0-0.1,0-0.1c0,0,0.1,0,0.1,0c0,0,0,0,0,0.1
		C44,92.2,44,92.2,43.9,92.3z"/>
	<path d="M44.3,92.3C44.3,92.3,44.2,92.3,44.3,92.3c-0.1-0.1-0.1-0.1-0.1-0.2c0,0,0,0,0,0c0,0,0,0,0,0c0,0,0,0,0-0.1c0,0,0,0,0.1,0
		c0,0,0,0,0,0.1c0,0,0-0.1,0-0.1c0,0,0,0,0,0c0,0,0,0.1,0,0.1C44.3,92.2,44.3,92.2,44.3,92.3z"/>
	<path d="M44.4,92.1c0,0,0.1,0.1,0.1,0.1c0,0,0,0,0,0C44.5,92.2,44.5,92.2,44.4,92.1C44.5,92.2,44.5,92.2,44.4,92.1
		c0.1,0.1,0.1,0.1,0.1,0.2c0,0,0,0,0,0C44.5,92.2,44.4,92.2,44.4,92.1C44.4,92.1,44.4,92.1,44.4,92.1z"/>
	<path d="M43.6,92.1c0,0,0.1-0.1,0.1-0.1c0,0,0,0,0,0C43.7,92.1,43.6,92.1,43.6,92.1C43.6,92.1,43.6,92.1,43.6,92.1z"/>
	<path d="M43.8,92.1c0,0,0,0.1,0,0.1c0,0,0,0,0,0C43.8,92.1,43.8,92.1,43.8,92.1z"/>
	<path d="M43.7,92.2C43.7,92.1,43.7,92.1,43.7,92.2C43.7,92.1,43.8,92.1,43.7,92.2C43.7,92.1,43.7,92.1,43.7,92.2
		C43.7,92.2,43.7,92.2,43.7,92.2z"/>
	<g>
		<path d="M42.6,92.2c0,0,0-0.1,0.1-0.2c0.1-0.1,0.2-0.2,0.3-0.4c0.1-0.1,0.3-0.2,0.4-0.3c0.1-0.1,0.2-0.1,0.2-0.1l0,0.1
			c0,0-0.1,0-0.2,0.1c-0.1,0.1-0.3,0.1-0.4,0.3c-0.1,0.1-0.3,0.2-0.3,0.4C42.6,92.1,42.6,92.2,42.6,92.2z"/>
	</g>
	<path d="M44.6,84.4c0.1,0.2,1.3,2.3-0.4,4.7c-1.7,2.4-4,3.3-4,3.3s1.9-1.6,2.9-3.9s0.7-2.7,0.7-2.7s0,4.2-3.7,6.4s-4,1.2-4,1.2
		s-1.4,1-3,0.7c-1.6-0.3,1,0.3,1.8-1c0.9-1.3,0.6-3.2,0.5-4.7c-0.1-1.5,0,3.9-0.9,4.6s-1.1,1.6-0.4,1.9s-5.1-1.2,1-9.2
		s-2.4,4.4-3.2,3.9c0,0-0.7-0.9-0.3-2.2C32.2,86,32,87,31.3,86s-0.9-1.9-0.4-3.2c0.5-1.3,1.3-1.6,1.3-1.6s-0.3,0.4,0.6-0.6
		c1-1.1,1.5-2,3.3-2.6c1.6-0.6,3.5,0,3.9,0c0.3,0-1.2-0.6-1.2-0.6s3.8-0.1,4.4,0c1.4,0.4,1.9,0.6,2.2,0.8c1,0.7,1.4,1.1,1.9,1.5
		c1.2,1,1.3,2,1.3,2s-0.4,0.7,0.4,1.6s1.2,1,1.2,1s0.1,1-0.3,1.4c-0.5,0.5,0.1,0.7-0.9,1.2c-0.7,0.4-0.4,1.5-0.4,1.5l-0.4,0.4
		l0.1,0.4c0,0,0.4,0.3,0.8,0.9c0.4,0.6,0.4,2,0.1,3c-0.4,1-1.1,2.8-0.6,3.1c0.5,0.3,0.7-0.7,0.7-0.7s0,1.9-1,0.4
		c-0.9-1.5,1.1-2,0.3-3.7c-0.8-1.8-1-2.7-1-2.7s-0.1,0.3-0.9-0.9C45.7,87.2,44.6,84.4,44.6,84.4z"/>
	<path d="M47.6,94.6c0,0,0.2,5.2,0.9,5.8c0.2,0.1,0,0.2-0.1,0.3c-0.1,0.1-0.2,0.3-0.2,0.3s-1-0.7-1.2-1.7c-0.2-1-0.2-1-0.2-1
		s0.4-0.3,0.7-1.7C47.4,96.2,47.5,95.4,47.6,94.6z"/>
	<g>
		<path d="M47.7,93.9c0,0,0.1,0,0.2,0c0,0,0.1-0.1,0.2-0.1c0-0.1,0.1-0.1,0.1-0.2c0.1-0.1,0.1-0.1,0.1-0.2c0-0.1,0-0.1,0.1-0.2
			c0-0.1,0-0.2,0-0.2s0,0.1,0,0.2c0,0.1,0,0.1,0,0.2c0,0.1,0,0.2-0.1,0.2c0,0.1-0.1,0.1-0.1,0.2c-0.1,0.1-0.1,0.1-0.2,0.1
			C47.8,93.9,47.7,93.9,47.7,93.9z"/>
	</g>
	<path d="M30.2,91.1c0,0-0.4,1.9-0.9,3.2c-0.6,1.8,0.7,3.8,2.3,5.6s1.2,1.8,1.7,2.4c0.3,0.2,1.1,1.1,1.1,1.1l1.2,0.1
		c0,0,0.3-0.2-2.5-3.8c-2.7-3.4-2.4-4.2-2.4-5.5C30.8,92.8,30.2,91.1,30.2,91.1z"/>
	<path d="M36.1,103.2c0,0,2-0.1-1.1-3c-3.1-2.9-4.1-3.5-4-4.7c0.1-1.3-0.2-3.9-0.4-4.5c-0.1-0.5,1.6-1.3,1.6-1.3s0.1,4.5,1.6,5.3
		c1.1,0.6,0.9,0.1,0.9,0.1s-0.1-0.1-0.5-0.3c-0.4-0.2-0.1-0.3-0.1-0.3l1-0.2c0,0,0.4,1.2,0.6,1.7c0.2,0.5,0.2,1.4,0.4,1.8
		c0.2,0.4,0.7,0.9,0.7,0.9s1.4,4.7,0.8,5c-0.6,0.3-1.5,0.1-1.8,0C35.4,103.5,36.1,103.2,36.1,103.2z"/>
	<path d="M31.7,97.3c0,0,3.6,4.7,3.5,5.4c-0.1,0.7,0.9,0.5,0.9,0.5S35.7,100.3,31.7,97.3z"/>
	<path d="M37.6,104.2c0,0,0.2-0.7,0-1.6"/>
	<g>
		<path d="M30.3,91.3c0,0-0.6,0.6-1.3,1.7c-0.3,0.6-0.7,1.2-0.9,2c-0.2,0.8-0.3,1.7-0.1,2.5c0.1,0.4,0.3,0.8,0.5,1.2
			c0.2,0.4,0.5,0.7,0.7,1c0.5,0.6,1.1,1.1,1.6,1.5c1.1,0.8,1.9,1.1,1.9,1.1s-0.8-0.3-1.9-1.1c-0.5-0.4-1.1-0.9-1.7-1.5
			c-0.3-0.3-0.5-0.7-0.7-1c-0.2-0.4-0.4-0.8-0.6-1.2c-0.3-0.8-0.2-1.8,0.1-2.5c0.2-0.8,0.6-1.5,0.9-2C29.6,91.9,30.2,91.2,30.3,91.3
			L30.3,91.3z"/>
	</g>
	<g>
		<path d="M29.8,92.1c0,0-0.4,0.6-0.8,1.5c-0.2,0.5-0.4,1-0.5,1.7c0,0.3-0.1,0.6,0,1c0,0.3,0.1,0.7,0.2,1c0.1,0.3,0.3,0.6,0.5,0.9
			c0.2,0.3,0.4,0.5,0.7,0.7c0.5,0.4,0.9,0.8,1.3,1.2c0.4,0.3,0.7,0.6,0.9,0.8c0.2,0.2,0.4,0.3,0.4,0.3s-0.1-0.1-0.4-0.3
			c-0.2-0.2-0.5-0.5-0.9-0.8c-0.4-0.3-0.8-0.7-1.3-1.2c-0.2-0.2-0.5-0.5-0.7-0.7c-0.2-0.3-0.4-0.6-0.5-0.9c-0.1-0.3-0.2-0.7-0.2-1
			c0-0.3,0-0.7,0-1c0.1-0.6,0.3-1.2,0.5-1.7C29.3,92.6,29.7,92,29.8,92.1L29.8,92.1z"/>
	</g>
	<path fill="none" stroke="#000000" stroke-width="1.891222e-002" stroke-miterlimit="10" d="M29.8,91.8c0,0-2.6,4.2,0.6,7.5"/>
	<path d="M43,98.6c-0.6,0.3-1.2,0.4-1.8,0.3c-0.6-0.1-0.8-0.2-1.1-0.2c-0.2,0-0.8,0-0.8,0s0.4,0.4,0.6,0.8c0.3,0.4,0.9,0.7,1.9,0.7
		c1-0.1,1.3-0.5,1.5-0.7c0.2-0.3,0.6-1.1,0.6-1.1S43.6,98.3,43,98.6z M40,99L40,99.1L40,99l-0.2,0.1l0-0.1l-0.1,0l-0.1-0.1v0h0.1
		h0.1l0.1,0l0,0.1l0.1-0.1V99z M41.4,99.2C41.4,99.2,41.4,99.2,41.4,99.2C41.4,99.2,41.4,99.3,41.4,99.2c0,0.1,0,0.1,0,0.1
		c0,0,0,0,0,0c0,0,0,0,0,0c0,0,0,0,0,0c0,0,0,0,0,0c0,0,0,0,0,0s0,0,0,0c0,0,0,0,0,0c0,0,0,0,0,0c0,0,0,0,0,0
		C41.4,99.3,41.4,99.3,41.4,99.2C41.4,99.3,41.4,99.2,41.4,99.2C41.4,99.2,41.4,99.2,41.4,99.2C41.4,99.2,41.4,99.2,41.4,99.2
		C41.4,99.2,41.4,99.2,41.4,99.2z M40.2,99.3C40.2,99.3,40.2,99.3,40.2,99.3C40.2,99.3,40.2,99.3,40.2,99.3
		C40.2,99.3,40.2,99.2,40.2,99.3C40.2,99.2,40.2,99.2,40.2,99.3c0-0.1,0-0.1,0.1-0.1c0,0,0,0,0-0.1c0,0,0,0,0,0c0,0,0,0,0,0s0,0,0,0
		c0,0,0,0,0,0c0,0,0,0,0,0.1c0,0,0,0,0,0C40.2,99.2,40.2,99.2,40.2,99.3C40.2,99.2,40.2,99.2,40.2,99.3
		C40.2,99.2,40.2,99.3,40.2,99.3z M40.6,99.4l-0.1,0.1l0-0.1l-0.2,0.1l0-0.2l-0.1,0.1l0.1-0.2l0.2-0.1l-0.1,0.3l0.3-0.2l0,0.1
		l0.2-0.2l-0.2,0.3L40.6,99.4z M40.8,99.7v-0.2C40.8,99.5,40.7,99.5,40.8,99.7c-0.1,0.1-0.1-0.3,0-0.5l0.1-0.1l-0.1,0.3l0.2-0.2
		l-0.2,0.4L40.8,99.7z M41.5,99.5L41.5,99.5l-0.2,0.1v-0.1l-0.1,0.1l0-0.1l-0.1,0.1l0-0.1l-0.1,0.1l0.1-0.2l0.1-0.1v0l0.1-0.1
		l-0.1,0.1l0.1,0l0,0.1c0,0,0.1,0.1,0.1-0.1c0-0.1,0.1-0.1,0.1-0.1L41.5,99.5z M42.5,99.2C42.5,99.2,42.5,99.2,42.5,99.2
		C42.5,99.2,42.5,99.2,42.5,99.2C42.5,99.2,42.5,99.1,42.5,99.2C42.5,99.1,42.5,99.1,42.5,99.2C42.6,99.1,42.6,99.1,42.5,99.2
		C42.6,99.1,42.6,99.1,42.5,99.2C42.5,99.1,42.5,99.1,42.5,99.2C42.5,99.2,42.5,99.2,42.5,99.2C42.5,99.2,42.5,99.2,42.5,99.2
		C42.5,99.2,42.5,99.2,42.5,99.2C42.5,99.2,42.5,99.2,42.5,99.2C42.5,99.2,42.5,99.2,42.5,99.2C42.5,99.2,42.5,99.2,42.5,99.2
		C42.5,99.2,42.5,99.2,42.5,99.2C42.5,99.2,42.5,99.2,42.5,99.2C42.5,99.2,42.5,99.2,42.5,99.2C42.5,99.2,42.5,99.2,42.5,99.2
		C42.5,99.2,42.5,99.2,42.5,99.2z M41.8,99.9C41.8,99.9,41.8,99.9,41.8,99.9C41.8,99.9,41.8,99.9,41.8,99.9c0-0.1,0-0.1,0-0.2
		c0,0,0,0,0-0.1c0,0,0-0.1,0-0.1c0-0.1,0-0.1,0-0.1c0,0,0-0.1,0-0.1c0,0,0-0.1,0-0.1c0,0,0,0,0,0s0,0,0,0c0,0,0,0.1,0,0.1
		c0,0.1,0,0.2,0,0.3c0,0.1,0,0.1,0,0.1c0,0,0,0,0,0.1C41.8,99.8,41.8,99.8,41.8,99.9C41.8,99.9,41.8,99.9,41.8,99.9
		C41.8,99.9,41.8,99.9,41.8,99.9C41.8,100,41.8,100,41.8,99.9C41.8,100,41.8,100,41.8,99.9z M42.4,99.4L42.4,99.4l-0.1,0
		c0,0,0,0,0,0.1c0,0.1-0.1,0-0.1,0l0,0.1L42,99.5c0,0-0.1,0.1,0,0.2c0,0.1-0.1-0.1-0.1-0.1l0,0.1c0,0-0.1,0-0.1-0.4l0.1-0.1l0,0.1
		l0.1-0.1c0,0,0,0,0.1,0.1c0,0.1,0.1,0.2,0.1,0.2v-0.3l0,0.1l0.1-0.1l0.1-0.1l0,0.1l0-0.2l0.1,0.1h0l0.1,0.2L42.4,99.4z M42.6,99.5
		C42.6,99.5,42.6,99.5,42.6,99.5C42.6,99.4,42.6,99.4,42.6,99.5C42.6,99.4,42.6,99.4,42.6,99.5c-0.1-0.1-0.1-0.1-0.1-0.1
		c0,0,0,0,0-0.1c0,0,0,0,0,0c0,0,0,0,0,0c0,0,0,0,0,0c0,0,0,0,0,0c0,0,0,0,0,0c0,0,0,0,0,0s0,0,0,0c0,0,0,0,0,0c0,0,0,0,0,0
		c0,0,0,0,0,0c0,0,0,0,0,0c0,0,0,0,0,0c0,0,0,0,0,0c0,0,0,0,0,0C42.6,99.4,42.6,99.4,42.6,99.5C42.6,99.4,42.6,99.4,42.6,99.5
		C42.6,99.4,42.6,99.4,42.6,99.5C42.6,99.5,42.6,99.5,42.6,99.5C42.6,99.5,42.6,99.5,42.6,99.5z"/>
	<g>
		<path d="M41.5,96.9c0,0,0,0.1-0.1,0.2c0,0.1,0,0.1-0.1,0.2c0,0,0,0.1,0,0.1c0,0,0,0.1,0,0.1c0.1,0.1,0.3,0.1,0.4,0
			c0.1-0.1,0.1-0.2,0.1-0.2c0,0,0,0.1-0.1,0.2c-0.1,0.1-0.3,0.1-0.4,0c0,0-0.1-0.1,0-0.1c0,0,0-0.1,0-0.1c0-0.1,0.1-0.1,0.1-0.2
			C41.5,97,41.5,96.9,41.5,96.9z"/>
	</g>
	<g>
		<path d="M42.3,91.6c0,0-0.1,0.1-0.1,0.2c-0.1,0.1-0.1,0.3-0.1,0.4c0,0.1,0,0.2,0,0.2c0,0.1,0,0.2,0,0.2c0,0.1,0,0.2,0,0.2
			s0-0.1,0-0.2c0-0.1,0-0.1,0-0.2c0-0.1,0-0.2,0-0.2c0-0.2,0-0.3,0.1-0.4C42.3,91.6,42.3,91.6,42.3,91.6z"/>
	</g>
	<g>
		<path d="M29.6,81.6c0,0-0.1,1.2-0.3,2.9c-0.1,0.4-0.1,0.9-0.2,1.4c-0.2,0.5-0.6,0.9-0.9,1.3c-0.7,0.8-1.5,1.7-2.3,2.5
			c-3.3,3.3-6.8,6.5-6.8,6.5s3.4-3.2,6.7-6.5c0.8-0.8,1.6-1.7,2.4-2.5c0.4-0.4,0.7-0.8,0.9-1.3c0.2-0.5,0.1-1,0.2-1.4
			C29.5,82.8,29.6,81.6,29.6,81.6z"/>
	</g>
	<path d="M31.4,86.4c0,0,0.1,2.8-3.8,7.4c-3.9,4.5-5.4,7.9-5.4,7.9l-1,2.1c0,0,4.2-6.6,5.5-8.2c1.3-1.6,5-6.1,5-6.1
		S31.7,87,31.4,86.4z"/>
	<g>
		<path d="M45.5,104.2c0,0,1.1-1.5,2.3-2.8c0.3-0.3,0.6-0.6,0.9-0.9c0.3-0.3,0.6-0.5,0.9-0.8c0.3-0.2,0.5-0.4,0.7-0.5
			c0.2-0.1,0.3-0.2,0.3-0.2s-0.1,0.1-0.3,0.2c-0.2,0.1-0.4,0.3-0.7,0.5c-0.2,0.2-0.6,0.5-0.9,0.8c-0.3,0.3-0.6,0.6-0.9,1
			C46.6,102.8,45.5,104.2,45.5,104.2z"/>
	</g>
	<g>
		<path d="M49.4,102.1c0,0,0.3-0.8,0.7-1.9c0.2-0.6,0.5-1.3,0.8-2c0.3-0.7,0.6-1.5,1-2.2c0.3-0.8,0.7-1.5,1.1-2.2
			c0.2-0.4,0.4-0.7,0.6-1c0.2-0.3,0.4-0.6,0.5-0.9c0.1-0.3,0.3-0.5,0.5-0.7c0.2-0.2,0.3-0.4,0.4-0.5c0.2-0.3,0.3-0.5,0.3-0.5
			s-0.1,0.2-0.3,0.5c-0.1,0.1-0.2,0.3-0.4,0.5c-0.1,0.2-0.3,0.4-0.5,0.7c-0.2,0.3-0.3,0.6-0.5,0.9c-0.2,0.3-0.4,0.6-0.5,1
			c-0.3,0.7-0.7,1.4-1.1,2.2c-0.3,0.8-0.7,1.5-1,2.2c-0.3,0.7-0.6,1.4-0.8,2C49.7,101.3,49.4,102.1,49.4,102.1z"/>
	</g>
	<g>
		<path d="M50.2,81.6c0,0,0.3,0.2,0.7,0.4c0.2,0.1,0.5,0.2,0.8,0.3c0.3,0,0.7,0,1,0c1.4-0.1,2.7-0.3,2.7-0.3s-1.4,0.2-2.7,0.3
			c-0.3,0-0.7,0-1,0c-0.3-0.1-0.6-0.2-0.8-0.3C50.5,81.8,50.2,81.6,50.2,81.6z"/>
	</g>
	<g>
		<path d="M49.9,86.1c0,0,0.1,0.1,0.2,0.2c0.1,0.1,0.3,0.2,0.6,0.3c0.3,0.1,0.6,0.2,0.9,0.3c0.2,0.1,0.4,0.1,0.5,0.1
			c0.2,0,0.4,0.1,0.6,0.1c0.4,0.1,0.7,0.1,1.1,0.2c0.2,0,0.3,0.1,0.5,0.1c0.2,0,0.3,0.1,0.4,0.1c0.1,0.1,0.3,0.1,0.4,0.1
			c0.1,0,0.2,0.1,0.2,0.2c0.1,0.1,0.2,0.2,0.2,0.2c0,0,0-0.1-0.2-0.2c-0.1,0-0.1-0.1-0.2-0.2c-0.1,0-0.2-0.1-0.4-0.1
			c-0.1,0-0.3-0.1-0.4-0.1c-0.2,0-0.3-0.1-0.5-0.1c-0.3-0.1-0.7-0.1-1.1-0.2c-0.2,0-0.4-0.1-0.6-0.1c-0.2,0-0.4-0.1-0.5-0.1
			c-0.3-0.1-0.6-0.3-0.9-0.4c-0.2-0.1-0.4-0.3-0.6-0.4C50,86.2,49.9,86.1,49.9,86.1z"/>
	</g>
	<g>
		<path d="M52,87.1c0,0-0.2,0-0.5,0.1c-0.2,0-0.4,0.1-0.6,0.1c-0.2,0-0.4-0.1-0.7-0.1c-0.2,0-0.4,0-0.6,0.1
			c-0.2,0.1-0.4,0.1-0.5,0.2c-0.3,0.1-0.5,0.2-0.5,0.2s0.2-0.1,0.5-0.2c0.2-0.1,0.3-0.1,0.5-0.2c0.2-0.1,0.4-0.1,0.7-0.1
			c0.2,0,0.4,0.1,0.6,0.1c0.2,0,0.4,0,0.6,0C51.8,87.2,52,87.1,52,87.1z"/>
	</g>
	<g>
		<path d="M38.6,101.9c0,0,0.2,0.6,0.4,1.1c0.1,0.3,0.1,0.6,0.1,0.8c0,0.1,0,0.2,0,0.3c0,0.1,0,0.1,0,0.1s0,0,0-0.1
			c0-0.1,0-0.2,0-0.3c0-0.2-0.1-0.5-0.1-0.8C38.8,102.4,38.6,101.9,38.6,101.9z"/>
	</g>
	<g>
		<path d="M34.1,103.3c0,0-0.8,0-2,0.1c-0.6,0-1.3,0.1-2,0.1c-0.4,0-0.7,0.1-1.1,0.1c-0.4,0-0.8,0.1-1.2,0.2
			c-0.4,0.1-0.8,0.1-1.2,0.2c-0.4,0.1-0.8,0.2-1.1,0.2c-0.7,0.1-1.4,0-2-0.1c-1.2-0.1-1.9-0.4-1.9-0.4s0.8,0.2,1.9,0.4
			c0.6,0.1,1.3,0.1,2,0.1c0.4,0,0.7-0.1,1.1-0.2c0.4-0.1,0.8-0.1,1.2-0.2c0.4-0.1,0.8-0.1,1.2-0.2c0.4,0,0.8-0.1,1.1-0.1
			c0.7-0.1,1.4-0.1,2-0.1C33.3,103.3,34.1,103.3,34.1,103.3z"/>
	</g>
</g>
</svg>
