<?xml version="1.0" encoding="utf-8"?>
<!-- Generator: Adobe Illustrator 18.1.1, SVG Export Plug-In . SVG Version: 6.00 Build 0)  -->
<svg version="1.1" id="Слой_1" xmlns="http://www.w3.org/2000/svg" xmlns:xlink="http://www.w3.org/1999/xlink" x="0px" y="0px"
	 viewBox="0 0 120 120" enable-background="new 0 0 120 120" xml:space="preserve">
<path fill="none" stroke="#000000" stroke-width="0.6707" stroke-miterlimit="10" d="M11,55.2c0-1.1,0-2.2,0-3.4
	c0.7-1.7,1.1-3.5,2.1-5.1c1.3-2.1,3.2-3.5,5.9-3.1c2.3,0.4,2.9-0.1,3-2.5c0.1-4.2,0.2-8.5,0.3-12.7c0-2.2,0-4.4,0-6.9
	c7,0,13.6,0,20.2,0c1.5,0,1.7,1.1,1.4,2.3c-0.6,2.5,0.3,4.4,2,6c3.9,3.4,11.2,3.1,14.7-0.7c2.1-2.3,2.5-5.1,0.6-7.5
	c-3.5-4.3-0.8-8.5,3-10.1c1-0.4,2-0.7,3-1.1c1.1,0,2.2,0,3.4,0c1.1,0.4,2.1,0.7,3.1,1.1c3.1,1.4,4.6,4,4.1,6.9
	c-0.4,2.2,0.1,2.8,2.4,2.8c5.7,0,11.4,0,17.1-0.1c0.6,0,1.2,0,1.8,0c0.1,0.4,0.1,0.7,0.1,0.9c-0.2,6.4-0.3,12.8-0.5,19.1
	c0,1.7-0.7,2.2-2.4,1.9c-2.3-0.5-4.2,0.4-5.7,2.1c-3.3,3.6-3.7,10.3-0.8,14.2c2.2,3.1,5.5,3.7,8.4,1.3c3.7-3,7.5-1.6,9.4,2.5
	c0.5,1,0.8,2.1,1.2,3.1c0,1.1,0,2.2,0,3.4c-0.7,1.7-1.1,3.5-2.1,5.1c-1.3,2.1-3.2,3.5-5.9,3.1c-2.3-0.3-2.9,0.1-3,2.5
	c-0.1,4.2-0.2,8.4-0.3,12.6c0,2.3,0,4.5,0,7c-7,0-13.6,0-20.2,0c-1.4,0-1.7-1.1-1.4-2.3c0.6-2.5-0.3-4.5-2.2-6.1
	c-3.9-3.3-10.9-2.9-14.5,0.7c-2.2,2.3-2.6,5.2-0.7,7.6c3.4,4.2,1,8.3-2.9,10.1c-1,0.5-2.1,0.8-3.1,1.2c-1.1,0-2.2,0-3.4,0
	c-1.1-0.4-2.1-0.7-3.1-1.1c-3-1.3-4.6-3.9-4.1-6.7c0.4-2.5,0-3-2.6-3c-5.7,0-11.3,0-17,0.1c-0.6,0-1.2,0-1.8,0
	c-0.1-0.4-0.1-0.7-0.1-0.9c0.2-6.4,0.3-12.8,0.5-19.1c0-1.7,0.7-2.2,2.4-1.9c2.3,0.5,4.2-0.4,5.7-2.1c3.1-3.4,3.6-9.6,1.2-13.7
	c-2.2-3.6-5.6-4.3-8.9-1.7c-3.5,2.6-6.9,1.9-8.9-2C11.8,57.8,11.5,56.5,11,55.2z"/>
<g>
	<defs>
		<path id="SVGID_1_" d="M11,55.2c0-1.1,0-2.2,0-3.4c0.7-1.7,1.1-3.5,2.1-5.1c1.3-2.1,3.2-3.5,5.9-3.1c2.3,0.4,2.9-0.1,3-2.5
			c0.1-4.2,0.2-8.5,0.3-12.7c0-2.2,0-4.4,0-6.9c7,0,13.6,0,20.2,0c1.5,0,1.7,1.1,1.4,2.3c-0.6,2.5,0.3,4.4,2,6
			c3.9,3.4,11.2,3.1,14.7-0.7c2.1-2.3,2.5-5.1,0.6-7.5c-3.5-4.3-0.8-8.5,3-10.1c1-0.4,2-0.7,3-1.1c1.1,0,2.2,0,3.4,0
			c1.1,0.4,2.1,0.7,3.1,1.1c3.1,1.4,4.6,4,4.1,6.9c-0.4,2.2,0.1,2.8,2.4,2.8c5.7,0,11.4,0,17.1-0.1c0.6,0,1.2,0,1.8,0
			c0.1,0.4,0.1,0.7,0.1,0.9c-0.2,6.4-0.3,12.8-0.5,19.1c0,1.7-0.7,2.2-2.4,1.9c-2.3-0.5-4.2,0.4-5.7,2.1c-3.3,3.6-3.7,10.3-0.8,14.2
			c2.2,3.1,5.5,3.7,8.4,1.3c3.7-3,7.5-1.6,9.4,2.5c0.5,1,0.8,2.1,1.2,3.1c0,1.1,0,2.2,0,3.4c-0.7,1.7-1.1,3.5-2.1,5.1
			c-1.3,2.1-3.2,3.5-5.9,3.1c-2.3-0.3-2.9,0.1-3,2.5c-0.1,4.2-0.2,8.4-0.3,12.6c0,2.3,0,4.5,0,7c-7,0-13.6,0-20.2,0
			c-1.4,0-1.7-1.1-1.4-2.3c0.6-2.5-0.3-4.5-2.2-6.1c-3.9-3.3-10.9-2.9-14.5,0.7c-2.2,2.3-2.6,5.2-0.7,7.6c3.4,4.2,1,8.3-2.9,10.1
			c-1,0.5-2.1,0.8-3.1,1.2c-1.1,0-2.2,0-3.4,0c-1.1-0.4-2.1-0.7-3.1-1.1c-3-1.3-4.6-3.9-4.1-6.7c0.4-2.5,0-3-2.6-3
			c-5.7,0-11.3,0-17,0.1c-0.6,0-1.2,0-1.8,0c-0.1-0.4-0.1-0.7-0.1-0.9c0.2-6.4,0.3-12.8,0.5-19.1c0-1.7,0.7-2.2,2.4-1.9
			c2.3,0.5,4.2-0.4,5.7-2.1c3.1-3.4,3.6-9.6,1.2-13.7c-2.2-3.6-5.6-4.3-8.9-1.7c-3.5,2.6-6.9,1.9-8.9-2C11.8,57.8,11.5,56.5,11,55.2
			z"/>
	</defs>
	<clipPath id="SVGID_2_">
		<use xlink:href="#SVGID_1_"  overflow="visible"/>
	</clipPath>
	<g clip-path="url(#SVGID_2_)">
		<path fill="none" stroke="#000000" stroke-width="0.1088" stroke-miterlimit="10" d="M80,49.4c0,0,1.3,6.2,1.6,7.9
			c0.3,1.7-0.2,6-0.5,7.5c-0.3,1.5-0.4,4.1-0.5,4.9c-0.1,0.8-0.3,4-2.5,6.7c-2.1,2.7-4.7,5.2-4.9,5.6c-0.3,0.4-2.8,4.3-7.1,4.7
			c-4.2,0.4-6.5-0.9-7.4-1.7c-0.9-0.8-6-5.6-6.8-6.3c-1-0.8-3.9-3.5-4.4-5.2c-0.5-1.7-0.6-3-1.4-5.3c-0.8-2.2-1.5-4.6-1.5-4.6"/>
		<path d="M69.7,74.6c-1.3-0.7-2.3-1.2-3.3-1.2c-1,0-2,0.8-2.3,0.8c-0.3,0-0.7-0.2-0.9-0.3c-0.4-0.1-0.8-0.3-1.5-0.2
			c-0.4,0.1-1.2,0.6-1.2,0.6s-1.8,1.2-2.2,1.7c-0.3,0.4-0.8,0.6-0.8,0.6s1.3,0.1,1.8,0c0.3,0,0.5-0.1,1.4-0.2
			c0.8-0.2,1.6-0.6,1.6-0.6s0.4,0,1.1-0.1c0.5-0.1,0.7-0.3,0.7-0.3s0.2,0,0.3,0c0.1,0,0.3-0.1,0.3-0.1s0.5,0.1,1,0.1
			c0.6,0,0.8-0.1,1.2-0.1s0.6,0.2,1,0.3c0.4,0.1,0.8,0.1,0.8,0.1s0.7,0.1,1.4,0.2c0.7,0.1,1.3-0.4,1.3-0.4S71,75.3,69.7,74.6z
			 M60.5,76.2C60.4,76.2,60.4,76.2,60.5,76.2c-0.1-0.1-0.1-0.1-0.2-0.2c0,0,0,0,0-0.1c0,0,0,0,0-0.1c0,0,0-0.1,0-0.1c0,0,0,0,0,0
			c0,0,0,0,0,0c0,0,0,0,0,0s0,0,0,0c0,0,0,0,0,0c0,0,0,0,0,0c0,0,0,0,0,0c0,0,0,0,0,0.1c0,0,0,0.1,0.1,0.1c0,0,0,0,0,0.1
			c0,0,0,0,0,0.1C60.4,76.2,60.5,76.2,60.5,76.2C60.5,76.3,60.6,76.3,60.5,76.2C60.6,76.3,60.5,76.3,60.5,76.2z M63.9,75.3
			c0,0,0,0.1,0,0.1c0,0,0,0,0,0s0,0,0,0C63.9,75.4,63.9,75.4,63.9,75.3c0-0.1-0.1-0.2-0.1-0.3c0,0,0-0.1,0-0.1c0,0,0-0.1,0-0.1
			c0,0,0-0.1,0-0.1c0,0,0,0,0-0.1c0,0,0,0,0-0.1c0,0,0,0,0,0c0,0,0,0,0,0s0,0,0,0c0,0,0,0,0,0c0,0,0,0,0,0.1c0,0,0,0.1,0,0.2
			c0,0.1,0,0.1,0,0.2c0,0.1,0,0.1,0,0.2C63.9,75.2,63.9,75.3,63.9,75.3z M64.7,74.7c0,0.1,0,0.3,0,0.4c0,0,0,0.1,0,0.1c0,0,0,0,0,0
			s0,0,0,0c0,0,0-0.1,0-0.1C64.6,75,64.6,74.9,64.7,74.7c-0.1-0.1,0-0.3,0-0.4c0,0,0,0,0-0.1c0,0,0,0,0-0.1c0,0,0,0,0,0s0,0,0,0
			c0,0,0,0,0,0.1c0,0,0,0,0,0.1c0,0,0,0.1,0,0.2C64.7,74.6,64.7,74.7,64.7,74.7z M68.7,75.3C68.7,75.3,68.6,75.4,68.7,75.3
			c-0.1,0.1-0.1,0.1-0.1,0.1c0,0,0,0,0,0c0,0-0.1,0.1-0.1,0.1c0,0-0.1,0-0.1,0.1c-0.1,0-0.1,0.1-0.1,0.1s0,0,0.1-0.1
			c0,0,0.1-0.1,0.1-0.1c0,0,0.1-0.1,0.1-0.1c0,0,0.1-0.1,0.1-0.1C68.6,75.3,68.6,75.3,68.7,75.3c0-0.1,0-0.1,0-0.1
			S68.7,75.2,68.7,75.3z"/>
		<g>
			<path d="M64.6,76.3c0,0,0,0,0.1,0c0.1,0,0.2,0,0.3,0c0.2,0,0.6,0,0.9-0.1c0.2,0,0.3-0.1,0.5-0.1c0.1,0,0.1-0.1,0.2-0.1
				c0.1,0,0.1-0.1,0.1-0.1c0.1-0.1,0.1-0.2,0.1-0.3c0-0.1,0-0.1,0-0.1s0,0,0,0.1c0,0.1,0,0.2-0.1,0.3c0,0.1-0.1,0.1-0.1,0.2
				c-0.1,0-0.1,0.1-0.2,0.1c-0.2,0-0.3,0.1-0.5,0.1c-0.3,0-0.7,0.1-0.9,0.1c-0.1,0-0.2,0-0.3,0C64.7,76.3,64.6,76.3,64.6,76.3z"/>
		</g>
		<g>
			<path d="M61.3,76.4l0.8-0.2c0.1,0,0.1,0,0.2,0.1c0,0.1,0.1,0.1,0.1,0.1c0.1,0,0.3,0,0.4,0c0.5,0,1.1-0.1,1.6-0.1l0,0l0.1-0.4
				l-0.1,0.4l0,0l0,0c-0.5,0-1.1,0.1-1.6,0.1c-0.1,0-0.3,0-0.4,0c-0.2-0.1-0.1-0.3-0.3-0.2L61.3,76.4z"/>
		</g>
		<g>
			<path d="M66.9,75.8c0,0,0,0.1,0.1,0.2c0,0.1,0.1,0,0.2,0c0.1,0,0.2,0,0.2,0c0.3,0,0.7-0.1,0.7-0.1s-0.3,0-0.7,0.1
				c-0.1,0-0.2,0-0.2,0c0,0-0.1,0-0.1,0c0,0-0.1,0-0.1,0C66.8,75.9,66.8,75.8,66.9,75.8L66.9,75.8z"/>
		</g>
		<g>
			<path d="M67.2,66.1c0,0,0.2,0.3,0.4,0.7c0.3,0.5,0.7,1,0.9,1.7c0.1,0.3,0,0.7-0.2,1c-0.2,0.3-0.4,0.5-0.6,0.6
				c-0.4,0.3-0.7,0.5-0.7,0.5s0.3-0.2,0.7-0.5c0.2-0.2,0.4-0.4,0.6-0.6c0.2-0.3,0.3-0.6,0.2-0.9c-0.2-0.7-0.6-1.2-0.9-1.7
				C67.4,66.4,67.2,66.1,67.2,66.1z"/>
		</g>
		<g>
			<path d="M59.6,68.2c0,0-0.1,0.2-0.2,0.6c-0.1,0.2-0.1,0.4-0.1,0.7c0,0.1,0,0.2,0,0.4c0,0.1,0,0.3,0.1,0.4
				c0.1,0.2,0.3,0.4,0.5,0.5c0.2,0.1,0.4,0.2,0.6,0.2c0.4,0.1,0.6,0.1,0.6,0.1s-0.3,0-0.7-0.1c-0.2,0-0.4-0.1-0.6-0.2
				c-0.2-0.1-0.4-0.3-0.5-0.6c-0.1-0.1,0-0.3-0.1-0.4c0-0.1,0-0.3,0-0.4c0-0.2,0.1-0.5,0.2-0.7C59.5,68.5,59.6,68.2,59.6,68.2z"/>
		</g>
		<g>
			<path d="M60.4,70.6c0,0,0.6-0.3,1.2-0.5c0.2,0,0.4-0.1,0.5,0.1c0.1,0.1,0.2,0.2,0.3,0.3c0.2,0.2,0.3,0.3,0.3,0.3
				s-0.1-0.1-0.3-0.2c-0.1-0.1-0.2-0.2-0.3-0.3c-0.1-0.1-0.3-0.1-0.4,0C61,70.3,60.4,70.6,60.4,70.6z"/>
		</g>
		<g>
			<path d="M63.4,71.2c0,0,0.3,0.1,0.7,0c0.4-0.1,0.9-0.4,1.3-0.8c0.2-0.2,0.4-0.4,0.6-0.6c0.2-0.2,0.5-0.3,0.7-0.3
				c0.4,0,0.7,0.1,0.7,0.1c0,0-0.3-0.1-0.7,0c-0.2,0-0.5,0.1-0.7,0.3c-0.2,0.2-0.4,0.4-0.6,0.6c-0.4,0.4-0.9,0.8-1.3,0.8
				C63.7,71.2,63.4,71.2,63.4,71.2z"/>
		</g>
		<path d="M66,69.7c0,0,0.5-0.2,0.8-0.2c0.1,0,0.5,0,0.5-0.1C67.4,69.3,66.2,69.2,66,69.7z"/>
		<path d="M62.3,70.4c0,0-0.2-0.3-0.4-0.3c-0.1,0-0.4,0-0.4,0L62.3,70.4z"/>
		<g>
			<path d="M61.3,82c0,0,0.5-0.1,1.2-0.2c0.8-0.1,1.8-0.3,2.8-0.4c0.5,0,1-0.1,1.5-0.1c0.5,0,0.9,0,1.3,0c0.8,0.1,1.3,0.1,1.3,0.1
				s-0.5,0-1.3-0.1c-0.4,0-0.8,0-1.3,0c-0.5,0-1,0.1-1.5,0.1c-1,0.1-2,0.2-2.8,0.3C61.8,81.9,61.3,82,61.3,82z"/>
		</g>
		<g>
			<path d="M69.1,56.5c0,0-0.1,0.1-0.3,0.3c-0.2,0.2-0.5,0.4-0.8,0.6c-0.1,0.1-0.3,0.2-0.4,0.3c-0.1,0.1-0.3,0.2-0.3,0.3
				c-0.1,0.2-0.1,0.4-0.1,0.4c0,0,0-0.2,0.1-0.4c0-0.1,0.2-0.2,0.3-0.3c0.1-0.1,0.3-0.2,0.4-0.3c0.3-0.2,0.5-0.4,0.7-0.6
				C68.9,56.5,69,56.4,69.1,56.5L69.1,56.5z"/>
		</g>
		<g>
			<path d="M67.4,58.5c0,0,0.1-0.1,0.2-0.3c0.1-0.1,0.2-0.2,0.3-0.3c0.1-0.1,0.3-0.2,0.5-0.3c0.4-0.2,0.8-0.2,1.3-0.1
				c0.5,0.1,1,0.1,1.5,0.2c0.5,0,1,0,1.5-0.1c0.2-0.1,0.4-0.2,0.7-0.2c0.2-0.1,0.4-0.1,0.6-0.3c0.3-0.2,0.6-0.4,0.8-0.5
				c0.2-0.1,0.3-0.2,0.3-0.2s-0.3,0.4-1,0.8c-0.2,0.1-0.4,0.2-0.6,0.3c-0.2,0.1-0.4,0.2-0.7,0.3c-0.5,0.1-1,0.2-1.5,0.2
				c-0.5,0-1-0.1-1.5-0.2c-0.5-0.1-0.9-0.1-1.3,0.1c-0.4,0.1-0.6,0.3-0.8,0.5C67.5,58.4,67.4,58.5,67.4,58.5z"/>
		</g>
		<g>
			<path d="M74.5,56.3c0,0-0.1,0-0.2,0.1c-0.1,0.1-0.2,0.2-0.4,0.3c-0.2,0.1-0.4,0.2-0.7,0.4c-0.1,0.1-0.2,0.1-0.4,0.2l-0.4,0.2
				c-0.3,0.1-0.6,0.1-0.9,0.2c-0.3,0-0.5,0-0.8,0c-0.4,0-0.7-0.1-0.7-0.1s0.3,0,0.7,0c0.2,0,0.5,0,0.7,0c0.3,0,0.6-0.1,0.8-0.2
				l0.4-0.1c0.1-0.1,0.3-0.1,0.4-0.2c0.2-0.1,0.5-0.2,0.7-0.4C74.3,56.5,74.5,56.3,74.5,56.3z"/>
		</g>
		<path fill="none" stroke="#000000" stroke-width="5.442434e-002" stroke-miterlimit="10" d="M68.3,57.4c0,0,0.2,0,0.3,0.2"/>
		<path d="M76.8,51.9c-0.9-0.4-1.7-0.4-2.6-0.5c0,0-0.1,0-0.1,0c-0.2,0.1-0.4,0.1-0.5,0.2c-0.1,0-0.3,0-0.4,0.1c0,0-0.1,0.1-0.1,0.1
			c-0.2,0.1-0.4,0.1-0.5,0.2c-0.4,0.1-0.7,0.3-1.2,0.4c0,0-0.1,0-0.1,0c0,0.1-0.1,0.1-0.2,0.1c-0.1,0-0.2,0-0.2,0.1
			c-0.1,0.1-0.1,0.1-0.2,0.1c-0.1,0-0.2,0-0.2,0.1c-0.1,0.1-0.1,0.1-0.2,0.1c0,0,0,0,0,0c0,0,0,0,0,0.1c-0.1,0-0.1,0-0.2,0
			c-0.1,0.1-0.3,0.1-0.4,0.2c-0.1,0.1-0.2,0.1-0.3,0.1c-0.2,0-0.4,0.1-0.5,0.2c-0.1,0.1-0.2,0.2-0.4,0.1c0,0-0.1,0-0.1,0
			c-0.2,0.1-0.4,0.2-0.6,0.2c-0.1,0.2-0.3,0.2-0.5,0.2c-0.1,0.1-0.1,0.1-0.1,0.2c0,0.1,0,0.1,0,0.1c0,0,0,0.1,0,0.1
			c-0.1,0-0.2,0.1-0.3,0.1c0,0.1,0,0.2-0.1,0.2c0.2-0.1,0.3-0.1,0.5-0.2c0,0.2-0.2,0.2-0.3,0.2c0.1,0,0.2,0,0.2,0c0,0,0,0,0,0
			l-0.4,0.2c0,0,0,0,0,0c0,0,0.1,0,0.1,0c0,0,0.1,0,0.1-0.1c0,0,0,0,0,0c-0.1,0.1-0.1,0.2-0.2,0.2c0.2-0.1,0.5-0.2,0.7-0.3
			c0,0-0.1,0.1-0.1,0.1c0.2,0,0.2-0.3,0.5-0.3c0,0,0,0-0.1,0c0,0,0.1,0,0.1-0.1c0,0.1,0.1,0.1,0.1,0.2c0,0,0,0,0,0c0,0,0-0.1,0-0.1
			c0.1,0,0.1,0,0.2,0c0,0,0,0.1-0.1,0.1c0.2,0,0.3-0.1,0.5-0.1c0,0,0.1,0,0.1,0c0,0,0,0,0,0c0.1-0.1,0.1-0.1,0.2,0c0,0,0.1,0,0.1,0
			c0,0,0,0,0,0c0,0,0,0,0.1,0c0.1,0,0.1,0,0.1,0c0.1-0.1,0.2-0.1,0.4-0.2c0.1-0.1,0.2-0.1,0.4-0.2c0.1,0,0.2,0,0.3-0.1c0,0,0,0,0,0
			c0.1-0.1,0.1-0.1,0-0.2c0.1,0,2.3-0.6,2.4-0.6c0.4-0.1,1.3-0.5,2.5-0.7c0.9-0.1,1.5-0.2,1.7-0.1c0.1,0.1,0.8,0.3,1,0.2
			C78.1,52.7,77.2,52.1,76.8,51.9z M69.2,54.5c0.2-0.1,0.3-0.2,0.5-0.2C69.5,54.4,69.4,54.4,69.2,54.5z"/>
		<path d="M76.7,56.1C76.8,56.1,76.8,56,76.7,56.1c0.1-0.1,0.1-0.2,0.1-0.2c0-0.1,0.1-0.1,0.1-0.2c0-0.1,0.1-0.1,0.1-0.2
			c0.2-0.3,0.4-0.5,0.3-0.9c-0.1,0.2-0.2,0.4-0.3,0.6c-0.1,0.2-0.3,0.3-0.4,0.5c-0.2,0.1-0.4,0.2-0.6,0.3l0,0
			c0.3-0.5,0.8-0.8,0.7-1.4c-0.1,0.1-0.1,0.3-0.2,0.5c0,0.1-0.1,0.2-0.3,0.3c0,0-0.1,0-0.1,0.1c-0.1,0.3-0.3,0.4-0.5,0.5
			c0-0.2,0.2-0.2,0.2-0.2c0.1-0.2,0.2-0.3,0.2-0.4c-0.3,0.2-0.5,0.5-0.9,0.6c0.2-0.2,0.4-0.4,0.6-0.6c0.2-0.2,0.3-0.5,0.3-0.8
			c-0.1,0.3-0.3,0.5-0.4,0.8l-0.1,0c0-0.1,0-0.1,0.1-0.2c-0.1,0.1-0.2,0.2-0.3,0.3c0,0,0-0.1,0-0.1l0,0c0,0.1-0.1,0.1-0.2,0.2
			c0.1-0.3,0.2-0.5,0.3-0.8c0.1-0.3,0.1-0.7,0-0.8c0,0.2-0.1,0.4-0.1,0.6c0,0,0,0,0,0c0-0.1,0-0.2,0-0.4c-0.2,0.4-0.1,0.8-0.4,1
			c-0.1-0.1-0.1-0.1,0-0.2c0.1-0.1,0.1-0.1,0.2-0.2c-0.1,0-0.2,0-0.3,0c0,0.1,0.1,0.2-0.1,0.3c0-0.1,0.1-0.1,0.1-0.2c0,0,0,0,0,0
			c-0.1,0-0.1,0.1-0.2,0.1c0.2-0.5,0.2-0.9,0.1-1c0,0.2,0,0.5-0.1,0.7c0,0,0,0,0,0c0-0.1,0-0.2-0.1-0.2c0-0.1-0.1-0.1-0.1-0.2
			c0,0,0,0,0,0c0.1,0.2,0,0.4-0.3,0.6c-0.1-0.1,0.1-0.2,0.1-0.3c-0.2,0.1-0.1,0-0.2-0.1c0,0.1,0,0.2-0.1,0.3c0,0-0.1,0.1-0.1,0.1
			c0,0-0.1-0.1-0.1-0.1c0-0.1-0.1-0.2-0.2-0.1c0.1-0.2,0.1-0.3,0.2-0.5c0,0,0,0,0,0l-0.3,0.5c0,0,0,0,0,0c0-0.2,0-0.3,0-0.5
			c0,0,0,0,0,0c-0.1,0.2-0.1,0.4-0.2,0.6c-0.1-0.1-0.1-0.2-0.2-0.2c-0.1,0-0.2,0.1-0.3,0.1c0-0.2,0-0.3-0.1-0.5
			c-0.1,0.1,0,0.3-0.2,0.4c0-0.1,0-0.1-0.1-0.2c0,0-0.1,0.1-0.1,0.1c0,0,0,0,0,0l0.1-0.2l0,0c0,0.1-0.1,0.1-0.1,0.2
			c-0.1,0-0.1-0.1-0.2-0.1c0-0.1,0-0.2,0-0.2c0,0,0,0,0,0c0,0.1-0.1,0.2-0.1,0.3c0,0-0.1,0-0.1,0c0,0-0.1,0-0.2,0.1
			c0-0.1,0-0.2,0-0.3C71.8,54,71.8,54,71.8,54c0,0-0.1,0-0.1-0.1c0,0.1-0.1,0.2-0.1,0.2c-0.1,0.1-0.1-0.1-0.2-0.1c0,0,0,0.1-0.1,0.1
			l0,0c0,0,0-0.1,0.1-0.2c-0.2,0.1-0.2,0.1-0.3,0c-0.1,0.1-0.3,0.1-0.4,0.2c0,0.2,0,0.3,0,0.5c0,0,0,0,0,0c0,0.1,0,0.2,0,0.3
			c0,0,0,0,0,0c0,0-0.1-0.1-0.1-0.1c0,0,0,0,0-0.1c0,0,0,0,0,0c0-0.2,0-0.3,0-0.5c0,0,0,0,0,0c0,0,0,0.1-0.1,0.1c-0.1,0-0.2,0-0.3,0
			c0,0,0,0,0,0c0,0.1,0,0.1,0,0.2c0,0.1,0,0.1,0,0.1c0,0,0,0,0,0c0,0.1,0,0.1,0,0.2c-0.1-0.1-0.2-0.1-0.1-0.2c0,0,0,0,0,0
			c0-0.1,0-0.1,0-0.2c0,0,0-0.1,0-0.1c0,0,0,0-0.1,0c0,0,0,0,0,0c0,0.1,0,0.2,0,0.2c0,0,0,0,0,0c0,0.2,0,0.3,0,0.4
			c-0.1,0-0.2-0.1-0.2-0.2c0,0,0,0,0,0c0,0-0.1-0.1-0.1-0.1c0-0.1,0-0.1,0-0.2c0,0,0,0,0,0c0,0,0,0,0,0c0,0.1,0,0.2-0.1,0.2l0,0
			c0,0.1,0,0.2,0.1,0.3c-0.2,0-0.3,0.2-0.4,0.3c-0.1,0.2-0.3,0.3-0.4,0.5c0,0,0,0,0,0c0,0.1,0,0.1,0,0.2c0,0-0.1,0-0.1,0
			c0,0.1,0.1,0.1,0.2,0.2c-0.1,0-0.1,0-0.2,0c-0.1,0.1-0.1,0.2-0.2,0.3c-0.1,0.1-0.2,0.3-0.3,0.4c-0.1,0.1-0.1,0.2-0.3,0.1
			c-0.1,0.1-0.1,0.2-0.1,0.4c0.2,0,0.2-0.1,0.2-0.3c0.1,0,0.2,0,0.3-0.1c0,0,0.1,0,0.1-0.1c0.1-0.2,0.2-0.4,0.3-0.6
			c0.1,0,0.1,0,0.2,0c0,0.1,0,0.1,0.2,0c0.3-0.1,0.3-0.2,0.3-0.4c0.1,0,0.1,0.1,0.2,0.1c0.1,0,0.1,0.1,0.2,0.1c0,0,0.1-0.1,0.1-0.1
			c0,0,0-0.1,0-0.1c0,0,0,0,0,0c0,0.2,0.1,0.3,0.1,0.5c0.2,0.5,0.5,1,1.1,1.1c0.2,0.1,0.2,0.1,0.3-0.1c-0.1,0-0.2,0-0.3,0
			c-0.1,0-0.2,0-0.1-0.2c0-0.1,0.1-0.2,0.1-0.3c0.1,0,0.2,0.1,0.3,0.1c0.2-0.2,0.3-0.1,0.4,0.1c0.1-0.1,0.1-0.1,0.2-0.1l0,0
			c0,0.1,0.1,0.1,0.1,0.2c0,0.1,0,0.1,0,0.2c0,0,0,0-0.1,0c0-0.1-0.1-0.1-0.1-0.2c0,0-0.1,0.1-0.1,0.1c0-0.1-0.1-0.1-0.1-0.2
			c0,0.1,0,0.2-0.1,0.3c0,0.1-0.1,0.2-0.1,0.3c0.3,0.1,0.8-0.1,1-0.2c0.7-0.5,0.6-1.2,0.6-1.2c0.3,0.1,0.6,0.2,0.7,0.5
			c0.1,0.2,0.1,0.2,0.2,0.2c0,0.2-0.1,0.4-0.1,0.6c0.1,0,0.2,0,0.2,0c0,0.3,0.3,0.2,0.4,0.3c-0.1,0.1-0.1,0.1-0.2,0
			c-0.3-0.2-0.4-0.2-0.7,0c0.1,0,0.1,0,0.2,0c0,0,0,0,0,0.1c-0.1,0-0.1,0-0.2,0c-0.1,0-0.2,0-0.2,0.1c-0.3-0.1-0.3,0-0.3,0.1
			c-0.3,0-0.6,0-0.8,0.1c0.3,0.1,0.4,0.3,0.4,0.6c0,0,0,0,0,0c0-0.1,0-0.3,0-0.4l0,0c0,0,0.1,0.1,0.1,0.1c0,0,0,0,0,0
			c0,0,0-0.1,0-0.1c0.1,0,0.3,0,0.3,0.1c0.1,0.1,0.1,0.3,0.2,0.4c0,0,0,0,0,0c0,0,0-0.1,0.1-0.1c0,0,0.1,0.1,0.1,0.1
			c0-0.1-0.1-0.2-0.2-0.2c0,0-0.1-0.1-0.1-0.2c0.1,0,0.1,0.2,0.3,0.2c-0.1-0.2-0.2-0.3-0.3-0.4c0,0,0,0,0,0l0.3,0.3c0,0,0,0,0,0
			c0-0.1-0.1-0.1-0.1-0.2l0,0c0,0,0.1,0.1,0.1,0.1c0,0,0,0,0,0c-0.1-0.1-0.2-0.2-0.3-0.3c0.4-0.1,0.8,0.1,1.2,0.3c0,0,0,0,0,0
			c-0.1-0.1-0.2-0.2-0.3-0.3l0,0c0.1,0,0.2,0.1,0.2,0.1c0-0.3,0.2,0,0.2-0.1c0.1-0.1,0.1-0.2,0.2-0.2c0,0,0-0.1,0-0.1
			c0,0,0-0.1,0-0.1c0,0,0.1,0,0.1,0c0.1,0,0.1,0,0.2,0c0-0.1,0-0.2-0.1-0.3c0.1,0,0.1,0.1,0.2,0.1c0,0,0,0,0,0
			c-0.1,0-0.2-0.1-0.2-0.1c0.1-0.1,0.2-0.1,0.2-0.1c0.1,0,0.2,0,0.3,0.1c0.1,0,0.3,0.1,0.4-0.1c-0.1,0-0.2,0-0.3,0
			c0.1-0.3,0.4-0.2,0.6-0.3c-0.1,0-0.1,0-0.2,0c0.2-0.2,0.5-0.2,0.8-0.4c-0.2,0-0.2,0.2-0.4,0.1c0.1-0.1,0.1-0.1,0.2-0.2
			C76.8,56.1,76.8,56.1,76.7,56.1c0,0.1-0.1,0.2-0.2,0.2C76.5,56.2,76.7,56.1,76.7,56.1z M69.3,56.4C69.3,56.4,69.3,56.4,69.3,56.4
			c0-0.1,0-0.1,0-0.2c0,0,0.1,0.1,0.1,0.1C69.3,56.3,69.3,56.3,69.3,56.4z M69.6,56c0-0.1,0-0.1,0.1-0.1c0,0.1,0.1,0.2,0.1,0.3
			C69.7,56.2,69.6,56.1,69.6,56z M70.6,56.5C70.6,56.5,70.6,56.5,70.6,56.5c-0.1,0.1-0.1,0.2-0.3,0.2C70.3,56.4,70.6,56.6,70.6,56.5
			z M70.7,57.3L70.7,57.3c0-0.1,0-0.1,0-0.2c0,0,0.1,0,0.1,0l0,0C70.8,57.2,70.8,57.2,70.7,57.3z M70.7,57c-0.2-0.1-0.3-0.1-0.3-0.3
			c0.1,0,0.2,0.1,0.3,0.1c0,0,0,0,0,0c0,0,0-0.1,0-0.1c0.1,0,0.1,0,0.1,0c0,0,0,0,0,0C70.8,56.8,70.8,56.9,70.7,57z M71.6,56.4
			c-0.1,0-0.1,0-0.1-0.1c0-0.1-0.1-0.2-0.1-0.2c0,0,0,0-0.1,0c-0.1,0.1-0.1,0.2-0.2,0.3c-0.2,0-0.3-0.3-0.2-0.5
			c0.1-0.1,0.2-0.1,0.3-0.1c0,0,0,0,0,0c0.1,0,0.1,0,0.2,0c0,0,0,0,0,0c0,0.1,0.1,0.1,0.1,0.2c0-0.1,0-0.1,0-0.1
			c0.2,0.1,0.3,0.2,0.3,0.4C71.8,56.3,71.8,56.4,71.6,56.4z M72.2,57c-0.1,0-0.1-0.1-0.2-0.2C72.1,56.9,72.2,56.9,72.2,57
			C72.3,57,72.3,57,72.2,57C72.3,57.1,72.2,57.1,72.2,57z M74.3,54.7c0.1-0.1,0.1-0.3,0.2-0.4C74.6,54.6,74.5,54.7,74.3,54.7z
			 M75.8,56.4c0.2-0.1,0.4-0.2,0.6-0.2c0,0,0,0,0,0C76.3,56.3,76.1,56.5,75.8,56.4z M76.2,56.1c0.2-0.1,0.3-0.1,0.4-0.2c0,0,0,0,0,0
			C76.5,56.1,76.4,56.2,76.2,56.1z"/>
		<path d="M70.6,58.5c-0.1-0.2-0.1-0.4-0.2-0.5c0,0,0,0,0,0c0,0.1,0.1,0.1,0.1,0.2c0,0,0,0,0,0c0-0.1,0-0.2,0-0.2c0.1,0,0.2,0,0.3,0
			c0.1,0,0.1,0.1,0,0.2C70.9,58.2,70.7,58.3,70.6,58.5z"/>
		<path d="M71.6,58.5c-0.1,0-0.1-0.1-0.2-0.1c0-0.1-0.1-0.2-0.2-0.3c0,0,0,0,0,0c0,0,0,0,0.1,0.1c0-0.1,0-0.1,0-0.2
			c0.1,0,0.1,0,0.2,0c0,0.1,0,0.1,0.1,0.2c0.1-0.1,0.1-0.1,0.1-0.2c0,0,0,0,0,0c0,0.1,0,0.2,0,0.3C71.6,58.2,71.6,58.2,71.6,58.5z"
			/>
		<path d="M72,58c0.1,0.1,0.2,0.1,0.3,0.2c0,0,0,0,0,0c0,0-0.1,0-0.1-0.1c0,0,0,0,0,0c0,0.1,0.1,0.2,0.1,0.3c0,0,0,0,0,0
			C72.2,58.4,72.1,58.2,72,58C72,58.1,72,58.1,72,58z"/>
		<path d="M69.6,58c0.1-0.1,0.2-0.2,0.4-0.2c0.1,0,0.1,0,0.1,0.1C69.9,57.9,69.7,58,69.6,58C69.6,58,69.6,58,69.6,58z"/>
		<path d="M70.3,57.9c0,0.1,0,0.3-0.1,0.4c0,0,0,0,0,0C70.2,58.1,70.2,58,70.3,57.9z"/>
		<path d="M70,58.2c0-0.1,0.1-0.2,0.1-0.2c0,0,0,0,0,0C70.1,58.1,70.1,58.1,70,58.2C70,58.2,70,58.2,70,58.2z"/>
		<g>
			<path d="M66.7,58.2c0,0,0.1-0.2,0.3-0.6c0.2-0.3,0.5-0.7,0.9-1.1c0.2-0.2,0.4-0.4,0.6-0.5c0.2-0.2,0.4-0.3,0.5-0.4
				c0.3-0.2,0.5-0.3,0.5-0.3l0.1,0.2c0,0-0.2,0.1-0.6,0.3c-0.2,0.1-0.4,0.2-0.5,0.4c-0.2,0.1-0.4,0.3-0.6,0.5
				c-0.4,0.3-0.7,0.7-0.9,1C66.8,57.9,66.7,58.2,66.7,58.2z"/>
		</g>
		<path d="M72.7,35.9c0.3,0.4,3.6,6.8-1.1,13.6S60,59.1,60,59.1s5.6-4.7,8.3-11.1s2-7.8,2-7.8s0,12.2-10.8,18.4S48.2,62,48.2,62
			s-4.1,2.8-8.8,2s2.8,0.8,5.3-2.8c2.5-3.6,1.9-9.2,1.6-13.6s0.1,11.2-2.4,13.2c-2.6,2.1-3,4.5-1,5.4c2,0.9-14.6-3.5,2.9-26.5
			s-6.8,12.6-9.1,11.2c0,0-2-2.4-0.8-6.4c1.2-3.9,0.7-1.1-1.6-4s-2.7-5.6-1.2-9.3c1.5-3.8,3.8-4.7,3.8-4.7s-0.8,1.1,1.7-1.8
			c2.8-3.2,4.2-5.8,9.5-7.6c4.6-1.6,10.1,0,11.2,0c0.9,0-3.5-1.7-3.5-1.7s10.9-0.3,12.5,0.1c4,1.1,5.3,1.7,6.2,2.3
			c2.9,2,4,3.2,5.4,4.4c3.4,2.8,3.8,5.8,3.8,5.8s-1.1,1.9,1.3,4.6c2.3,2.8,3.6,2.9,3.6,2.9s0.4,2.8-1,4.1c-1.4,1.4,0.3,1.9-2.7,3.5
			c-2,1.1-1.1,4.3-1.1,4.3l-1,1l0.3,1c0,0,1.3,0.8,2.4,2.6c1.1,1.8,1.2,5.7,0.2,8.5c-1,2.9-3.2,8-1.9,8.8c1.4,0.9,1.9-2.1,1.9-2.1
			s-0.1,5.3-2.8,1c-2.7-4.3,3.1-5.7,0.8-10.7s-2.9-7.7-2.9-7.7s-0.3,0.8-2.7-2.7C75.7,43.8,72.7,35.9,72.7,35.9z"/>
		<path d="M81.1,65.3c0,0,0.7,15.1,2.5,16.7c0.5,0.4,0,0.7-0.2,0.9c-0.3,0.4-0.7,0.9-0.7,0.9s-2.9-2-3.5-4.9s-0.7-3-0.7-3
			s1.2-0.9,1.9-4.8C80.7,69.7,80.9,67.5,81.1,65.3z"/>
		<g>
			<path d="M81.4,63.3c0,0,0.2,0,0.5-0.1c0.2-0.1,0.3-0.2,0.5-0.3c0.1-0.2,0.3-0.3,0.4-0.5c0.1-0.2,0.2-0.4,0.3-0.6
				c0-0.2,0.1-0.4,0.1-0.6c0-0.3,0.1-0.6,0.1-0.6s0,0.2,0,0.6c0,0.2-0.1,0.4-0.1,0.6c-0.1,0.2-0.1,0.4-0.3,0.6
				c-0.1,0.2-0.3,0.4-0.4,0.5c-0.2,0.2-0.3,0.3-0.5,0.3C81.7,63.3,81.4,63.3,81.4,63.3z"/>
		</g>
		<path d="M31.1,55.1c0,0-1.2,5.5-2.5,9.3c-1.8,5.1,2.1,10.9,6.6,16s3.3,5.3,5,6.9c0.7,0.7,3.2,3.2,3.2,3.2l3.5,0.4
			c0,0,0.9-0.6-7.3-11c-7.7-9.8-7-12.1-6.9-16C32.7,60,31.1,55.1,31.1,55.1z"/>
		<path d="M48,89.8c0,0,5.8-0.2-3.3-8.6S33,71.1,33.1,67.5c0.2-3.7-0.7-11.2-1.1-12.8c-0.3-1.4,4.5-3.9,4.5-3.9s0.4,12.8,4.5,15.2
			c3.1,1.7,2.5,0.2,2.5,0.2s-0.2-0.3-1.3-0.9c-1.1-0.7-0.3-0.7-0.3-0.7l2.8-0.5c0,0,1.2,3.5,1.7,5c0.5,1.5,0.7,4,1.2,5.2
			c0.5,1.1,2.1,2.7,2.1,2.7S53.8,90.3,52,91s-4.2,0.3-5.1,0C46,90.7,48,89.8,48,89.8z"/>
		<path d="M35.5,73.1c0,0,10.3,13.5,9.9,15.5c-0.4,2,2.6,1.6,2.6,1.6S47,81.6,35.5,73.1z"/>
		<path d="M52.5,92.8c0,0,0.5-1.9,0-4.6"/>
		<g>
			<path d="M31.3,55.7c0,0-0.4,0.4-1.1,1.3c-0.7,0.8-1.7,2.1-2.6,3.7c-1,1.6-2,3.5-2.7,5.8c-0.7,2.2-1,4.8-0.2,7.2
				c0.4,1.2,0.9,2.3,1.6,3.4c0.6,1.1,1.4,2,2.1,2.9c1.5,1.8,3.2,3.2,4.7,4.3c1.5,1.1,2.9,1.9,3.9,2.4c1,0.5,1.6,0.7,1.6,0.7
				s-0.6-0.2-1.6-0.7c-1-0.5-2.4-1.2-3.9-2.3c-1.5-1.1-3.2-2.5-4.8-4.3c-0.8-0.9-1.5-1.9-2.1-2.9c-0.6-1.1-1.2-2.2-1.6-3.4
				c-0.8-2.4-0.5-5,0.2-7.3c0.7-2.3,1.7-4.2,2.7-5.8c1-1.6,2-2.8,2.6-3.7c0.7-0.9,1.1-1.3,1.1-1.3L31.3,55.7z"/>
		</g>
		<g>
			<path d="M29.8,58c0,0-0.3,0.4-0.7,1.1c-0.2,0.4-0.5,0.8-0.7,1.4c-0.3,0.5-0.5,1.1-0.8,1.8c-0.3,0.7-0.5,1.4-0.8,2.2
				c-0.2,0.8-0.4,1.7-0.5,2.6c-0.1,0.4-0.1,0.9-0.1,1.4l0,0.7l0,0.7l0,0.7c0,0.2,0.1,0.5,0.1,0.7c0.1,0.5,0.2,1,0.4,1.4
				c0.3,0.9,0.8,1.8,1.4,2.6c0.3,0.4,0.6,0.7,0.9,1.1c0.3,0.4,0.7,0.6,1,1c1.3,1.3,2.6,2.4,3.7,3.4c0.6,0.5,1.1,0.9,1.5,1.3
				c0.5,0.4,0.8,0.7,1.2,1c0.3,0.3,0.6,0.5,0.8,0.6c0.2,0.1,0.3,0.2,0.3,0.2s-0.1-0.1-0.3-0.2c-0.2-0.1-0.4-0.3-0.8-0.6
				c-0.3-0.3-0.7-0.6-1.2-1c-0.5-0.4-1-0.8-1.5-1.3c-1.1-1-2.3-2.2-3.7-3.4c-0.3-0.3-0.7-0.6-1-1c-0.3-0.4-0.6-0.7-1-1.1
				c-0.5-0.8-1.1-1.6-1.4-2.6c-0.2-0.4-0.3-0.9-0.4-1.4c0-0.2-0.1-0.5-0.1-0.7l-0.1-0.7L26,69.2l0-0.7c0-0.5,0-0.9,0.1-1.4
				c0.1-0.9,0.3-1.8,0.5-2.6c0.2-0.8,0.5-1.6,0.8-2.3c0.3-0.7,0.5-1.3,0.8-1.8c0.3-0.5,0.5-1,0.7-1.4c0.4-0.7,0.7-1.2,0.7-1.2
				L29.8,58z"/>
		</g>
		<path fill="none" stroke="#000000" stroke-width="5.442434e-002" stroke-miterlimit="10" d="M30,57c0,0-7.4,12.1,1.7,21.6"/>
		<path d="M67.9,76.6c-1.7,0.9-3.4,1.1-5.1,0.9s-2.4-0.6-3-0.7c-0.6,0-2.2,0-2.2,0s1,1.3,1.9,2.3c0.9,1.2,2.7,2.1,5.5,1.9
			c2.9-0.2,3.9-1.4,4.4-2c0.6-0.7,1.9-3.1,1.9-3.1S69.5,75.7,67.9,76.6z M59.4,77.9l-0.2,0.4L59.2,78l-0.2,0.2l-0.1-0.4l-0.2-0.1
			l-0.2-0.2v-0.1h0.2H59l0.2,0.1l-0.1,0.3l0.3-0.3V77.9z M63.4,78.4c0,0,0,0.1,0,0.1c0,0,0,0.1,0,0.1c0,0,0,0.1,0,0.1c0,0,0,0,0,0.1
			c0,0,0,0,0,0.1c0,0,0,0,0,0c0,0,0,0,0,0c0,0,0,0,0,0s0,0,0,0c0,0,0,0,0,0c0,0,0,0,0,0c0,0,0-0.1,0-0.1c0,0,0-0.1,0-0.1
			c0,0,0-0.1,0-0.1C63.4,78.5,63.4,78.4,63.4,78.4C63.4,78.4,63.4,78.3,63.4,78.4C63.4,78.3,63.4,78.3,63.4,78.4z M59.8,78.6
			C59.8,78.6,59.7,78.6,59.8,78.6C59.7,78.6,59.7,78.6,59.8,78.6c0,0,0-0.1,0-0.1c0,0,0-0.1,0.1-0.1c0-0.1,0.1-0.1,0.1-0.2
			c0,0,0.1-0.1,0.1-0.1c0,0,0.1-0.1,0.1-0.1c0.1-0.1,0.1-0.1,0.1-0.1s0,0.1-0.1,0.1c0,0-0.1,0.1-0.1,0.1c0,0-0.1,0.1-0.1,0.1
			c0,0,0,0.1,0,0.1c0,0,0,0,0,0.1C59.9,78.4,59.8,78.5,59.8,78.6C59.8,78.5,59.8,78.6,59.8,78.6z M60.9,78.9l-0.4,0.3l0.1-0.3
			l-0.4,0.2l0.1-0.7l-0.4,0.4l0.3-0.5l0.6-0.4l-0.4,0.7l0.8-0.4l-0.1,0.3l0.6-0.5L61.2,79L60.9,78.9z M61.6,79.9v-0.6
			c0,0-0.2,0.1-0.3,0.4c-0.1,0.4,0-0.6,0.3-1.1l0.4-0.4L61.6,79l0.6-0.6l-0.5,1.1L61.6,79.9z M63.6,79.4l-0.1,0.2l-0.5,0.2v-0.3
			l-0.4,0.4l0-0.4l-0.2,0.3l0-0.4L62,79.8l0.2-0.7l0.4-0.2V79l0.4-0.3L62.8,79l0.4-0.1l0.1,0.3c0,0,0.3,0.1,0.3-0.3
			c0.1-0.4,0.2-0.4,0.2-0.4L63.6,79.4z M66.5,78.4C66.5,78.4,66.5,78.4,66.5,78.4C66.5,78.4,66.5,78.3,66.5,78.4
			c0-0.1,0-0.1,0.1-0.2c0,0,0,0,0.1-0.1c0,0,0.1,0,0.1,0s0,0,0,0.1c0,0,0,0,0,0.1C66.6,78.3,66.6,78.3,66.5,78.4
			C66.6,78.4,66.6,78.4,66.5,78.4C66.6,78.4,66.6,78.4,66.5,78.4C66.6,78.5,66.6,78.5,66.5,78.4c0,0.1,0,0.1,0,0.1c0,0,0,0,0,0
			c0,0,0,0,0,0s0,0,0,0C66.5,78.5,66.5,78.5,66.5,78.4C66.5,78.5,66.5,78.5,66.5,78.4C66.5,78.4,66.5,78.4,66.5,78.4z M64.4,80.5
			c0,0,0-0.1,0-0.1c0,0,0-0.1,0-0.1c0-0.1,0-0.1,0-0.2c0-0.1,0-0.1,0-0.2c0-0.1,0-0.3,0-0.4c0-0.1,0-0.3,0-0.4c0-0.1,0-0.3,0-0.4
			c0-0.1,0-0.2,0-0.3c0-0.1,0-0.1,0-0.1s0,0,0,0.1c0,0.1,0,0.2,0,0.3c0,0.2,0,0.5,0.1,0.8c0,0.1,0,0.3,0,0.4c0,0.1,0,0.1,0,0.2
			c0,0.1,0,0.1,0,0.2c0,0.1,0,0.1,0,0.1C64.4,80.5,64.4,80.5,64.4,80.5C64.5,80.6,64.5,80.6,64.4,80.5
			C64.5,80.6,64.5,80.6,64.4,80.5z M66.3,79.1l-0.1,0.1l-0.3-0.1c0,0-0.1,0.1-0.1,0.2s-0.3,0-0.3,0l-0.1,0.3l-0.3-0.4
			c0,0-0.2,0.2-0.1,0.5c0.1,0.3-0.3-0.4-0.3-0.4l0,0.4c0,0-0.2,0-0.3-1.1l0.2-0.2l0.1,0.3l0.2-0.2c0,0,0.1,0.1,0.1,0.2
			c0,0.2,0.1,0.5,0.1,0.5v-0.7l0.1,0.3l0.2-0.3l0.2-0.3l0.1,0.4l0.1-0.4l0.3,0.3h0.1l0.4,0.6L66.3,79.1z M66.8,79.2
			C66.8,79.2,66.8,79.2,66.8,79.2C66.8,79.1,66.8,79.1,66.8,79.2c-0.1-0.1-0.1-0.1-0.1-0.1c0,0-0.1-0.1-0.1-0.2
			c0-0.1-0.1-0.1-0.1-0.2c0,0,0-0.1,0-0.1c0,0,0-0.1,0-0.1c0,0,0-0.1,0-0.1c0,0,0-0.1,0-0.1c0,0-0.1-0.1-0.1-0.1c0,0,0,0,0,0
			s0,0,0,0c0,0,0.1,0.1,0.1,0.1c0,0,0,0,0.1,0.1c0,0,0,0.1,0,0.1c0,0,0,0.1,0,0.1c0,0,0,0.1,0,0.1c0,0,0,0.1,0,0.1c0,0,0,0.1,0,0.1
			c0,0.1,0.1,0.1,0.1,0.2C66.7,79.1,66.8,79.1,66.8,79.2C66.8,79.1,66.8,79.1,66.8,79.2C66.8,79.2,66.8,79.2,66.8,79.2
			C66.8,79.2,66.8,79.2,66.8,79.2z"/>
		<g>
			<path d="M63.7,71.8c0,0-0.1,0.2-0.2,0.6c-0.1,0.2-0.1,0.4-0.2,0.6c0,0.1-0.1,0.2-0.1,0.3c0,0.1,0,0.2,0.1,0.3
				c0.2,0.1,0.4,0.2,0.6,0.2c0.2,0,0.4-0.1,0.6-0.2c0.2-0.1,0.2-0.2,0.3-0.3c0-0.1,0-0.2,0-0.2s0,0.1,0,0.2c0,0.1-0.1,0.2-0.3,0.3
				c-0.2,0.1-0.4,0.2-0.6,0.2c-0.2,0-0.5,0-0.7-0.2c-0.1-0.1-0.2-0.2-0.1-0.3c0-0.1,0-0.2,0.1-0.3c0.1-0.2,0.2-0.4,0.2-0.6
				C63.6,72,63.7,71.8,63.7,71.8z"/>
		</g>
		<g>
			<path d="M66,56.4c0,0-0.2,0.2-0.3,0.5c-0.1,0.2-0.1,0.4-0.2,0.6c-0.1,0.2-0.1,0.5-0.1,0.7c0,0.2,0,0.5,0,0.7c0,0.2,0,0.4,0.1,0.6
				c0.1,0.4,0.1,0.6,0.1,0.6s0-0.2-0.1-0.6c0-0.2-0.1-0.4-0.1-0.6c0-0.2,0-0.5,0-0.7c0-0.2,0-0.5,0.1-0.7c0-0.2,0.1-0.4,0.2-0.6
				C65.8,56.6,66,56.4,66,56.4z"/>
		</g>
		<g>
			<path d="M29.5,27.8c0,0-0.4,3.4-0.9,8.4c-0.1,0.6-0.1,1.3-0.2,2c0,0.3-0.1,0.7-0.1,1c0,0.3-0.1,0.7-0.3,1
				c-0.7,1.3-1.7,2.5-2.7,3.7c-2.1,2.4-4.4,4.9-6.7,7.3c-4.7,4.8-9.6,9.5-13.3,13C1.5,67.6-1,69.9-1,69.9s2.4-2.3,6.1-5.8
				c3.7-3.5,8.5-8.2,13.2-13c2.4-2.4,4.7-4.8,6.8-7.2c1-1.2,2-2.4,2.7-3.6c0.2-0.3,0.2-0.7,0.3-1c0-0.3,0.1-0.7,0.1-1
				c0.1-0.7,0.2-1.3,0.2-2C29.1,31.2,29.5,27.8,29.5,27.8z"/>
		</g>
		<path d="M34.6,41.5c0,0,0.1,8.1-11,21.2S8.2,85.3,8.2,85.3l-2.9,6.1c0,0,12.2-19,15.9-23.6s14.3-17.6,14.3-17.6
			S35.5,43.4,34.6,41.5z"/>
		<g>
			<path d="M75.1,92.8c0,0,0.8-1.1,2-2.6c1.2-1.5,2.9-3.5,4.6-5.5c0.9-1,1.8-1.9,2.7-2.7c0.9-0.9,1.7-1.6,2.5-2.2
				c0.4-0.3,0.7-0.6,1.1-0.8c0.3-0.2,0.6-0.4,0.9-0.6c0.5-0.3,0.8-0.5,0.8-0.5s-0.3,0.2-0.7,0.5c-0.2,0.1-0.5,0.4-0.8,0.6
				c-0.3,0.2-0.7,0.5-1,0.8c-0.7,0.6-1.6,1.4-2.5,2.2c-0.9,0.9-1.8,1.8-2.6,2.8c-1.8,1.9-3.4,3.9-4.7,5.4
				C75.9,91.8,75.1,92.8,75.1,92.8z"/>
		</g>
		<g>
			<path d="M86.5,86.8c0,0,0.8-2.3,2-5.6c1.3-3.3,3.1-7.8,5.1-12.1c1-2.2,2.1-4.3,3.1-6.3c0.5-1,1.1-1.9,1.6-2.8
				c0.5-0.9,1-1.7,1.5-2.5c0.4-0.8,1-1.4,1.4-2c0.4-0.6,0.8-1.1,1.1-1.5c0.7-0.8,1-1.3,1-1.3s-0.4,0.5-1,1.3
				c-0.3,0.4-0.7,0.9-1.1,1.5c-0.4,0.6-0.9,1.3-1.3,2c-0.5,0.8-1,1.6-1.5,2.5c-0.5,0.9-1,1.8-1.5,2.8c-1,2-2.1,4.1-3.1,6.3
				c-2,4.3-3.9,8.7-5.2,12C87.3,84.6,86.5,86.8,86.5,86.8z"/>
		</g>
		<g>
			<path d="M88.6,27.9c0,0,0.8,0.6,2.1,1.2c0.7,0.3,1.5,0.7,2.4,0.8c0.9,0.1,1.9,0,2.9,0c2-0.1,3.9-0.4,5.4-0.6
				c1.5-0.2,2.5-0.3,2.5-0.3s-1,0.1-2.4,0.4C100,29.5,98,29.8,96,30c-1,0.1-2,0.1-2.9,0c-0.9-0.2-1.7-0.5-2.4-0.9
				C89.4,28.4,88.6,27.9,88.6,27.9z"/>
		</g>
		<g>
			<path d="M87.8,40.7c0,0,0.2,0.2,0.6,0.4c0.4,0.3,1,0.6,1.7,1c0.4,0.2,0.8,0.3,1.2,0.5c0.4,0.2,0.9,0.3,1.4,0.5
				c0.5,0.2,1,0.3,1.5,0.4c0.5,0.1,1.1,0.2,1.6,0.3c1.1,0.2,2.2,0.3,3.2,0.5c0.5,0.1,1,0.2,1.4,0.3c0.5,0.1,0.9,0.3,1.3,0.4
				c0.4,0.1,0.7,0.3,1,0.5c0.3,0.1,0.5,0.4,0.7,0.5c0.2,0.2,0.3,0.3,0.4,0.4c0.1,0.1,0.1,0.2,0.1,0.2s0-0.1-0.1-0.2
				c-0.1-0.1-0.2-0.2-0.4-0.4c-0.2-0.1-0.4-0.3-0.7-0.5c-0.3-0.1-0.6-0.3-1-0.4c-0.4-0.1-0.8-0.3-1.3-0.4c-0.5-0.1-0.9-0.2-1.4-0.3
				c-1-0.1-2.1-0.3-3.2-0.5c-0.5-0.1-1.1-0.2-1.6-0.3c-0.5-0.1-1-0.2-1.5-0.4c-0.5-0.2-1-0.3-1.4-0.5c-0.4-0.2-0.8-0.4-1.2-0.5
				c-0.7-0.4-1.3-0.7-1.7-1C88,40.9,87.8,40.7,87.8,40.7z"/>
		</g>
		<g>
			<path d="M93.8,43.7c0,0-0.2,0-0.4,0.1c-0.3,0.1-0.7,0.2-1.1,0.2c-0.2,0-0.5,0.1-0.8,0.1c-0.3,0.1-0.6,0-0.9,0
				c-0.6,0-1.2-0.2-1.9-0.2c-0.3-0.1-0.6,0-0.9,0c-0.3,0-0.6,0.1-0.9,0.2c-0.6,0.1-1.1,0.4-1.5,0.5c-0.9,0.3-1.5,0.6-1.5,0.6
				s0.6-0.3,1.4-0.7c0.4-0.2,1-0.4,1.5-0.6c0.3-0.1,0.6-0.2,0.9-0.2c0.3,0,0.7,0,1,0c0.7,0.1,1.3,0.2,1.9,0.2c0.3,0,0.6,0.1,0.9,0
				c0.3,0,0.5-0.1,0.8-0.1c0.5,0,0.9-0.1,1.1-0.2C93.6,43.7,93.8,43.7,93.8,43.7z"/>
		</g>
		<g>
			<path d="M55.1,86.2c0,0,0.7,1.6,1.2,3.3c0.2,0.8,0.4,1.7,0.4,2.4c0,0.2,0,0.3,0,0.4c0,0.1,0,0.2-0.1,0.3
				c-0.1,0.2-0.1,0.3-0.1,0.3s0-0.1,0.1-0.3c0-0.1,0-0.2,0.1-0.3c0-0.1,0-0.3,0-0.4c0-0.7-0.2-1.5-0.4-2.3
				C55.8,87.8,55.1,86.2,55.1,86.2z"/>
		</g>
		<g>
			<path d="M42.3,90.2c0,0-2.3,0-5.7,0.2c-1.7,0.1-3.7,0.2-5.8,0.4c-1.1,0.1-2.1,0.2-3.3,0.3c-1.1,0.1-2.2,0.3-3.3,0.5
				c-1.1,0.2-2.2,0.5-3.3,0.7c-1.1,0.2-2.2,0.5-3.2,0.5c-0.5,0-1.1,0.1-1.6,0.1c-0.5,0-1,0-1.5-0.1c-1,0-1.9-0.1-2.7-0.2
				c-0.8-0.1-1.6-0.3-2.3-0.4c-0.7-0.1-1.3-0.3-1.8-0.4c-1-0.2-1.5-0.4-1.5-0.4s0.5,0.2,1.5,0.4c0.5,0.1,1.1,0.2,1.8,0.4
				c0.7,0.1,1.4,0.3,2.3,0.3c0.8,0.1,1.8,0.2,2.7,0.2c0.5,0,1,0,1.5,0c0.5,0,1-0.1,1.6-0.1c1.1,0,2.1-0.3,3.2-0.5
				c1.1-0.2,2.2-0.5,3.3-0.7c1.1-0.2,2.2-0.3,3.4-0.5c1.1-0.1,2.2-0.2,3.3-0.3c2.1-0.2,4.1-0.3,5.8-0.3C40,90.2,42.3,90.2,42.3,90.2
				z"/>
		</g>
	</g>
</g>
</svg>
