<?xml version="1.0" encoding="utf-8"?>
<!-- Generator: Adobe Illustrator 18.1.1, SVG Export Plug-In . SVG Version: 6.00 Build 0)  -->
<svg version="1.1" id="Слой_1" xmlns="http://www.w3.org/2000/svg" xmlns:xlink="http://www.w3.org/1999/xlink" x="0px" y="0px"
	 viewBox="0 0 120 120" enable-background="new 0 0 120 120" xml:space="preserve">
<g>
	<path fill="none" stroke="#000000" stroke-width="0.784" stroke-miterlimit="10" d="M21.9,46c1-5.2,1.9-10.5,2.9-15.7
		c0.8-4.2,1.7-8.4,2.8-12.6c0.3-1,1.5-1.8,2.5-2.5c4.7-3.5,10.4-4,16-4.9c1-0.1,1.9-0.3,3.1-0.5c-1.2,3.9,0,7.1,2.2,10
		c3.1,4.1,6.3,8.1,9.6,12c1.4,1.7,3.1,1.7,5.1,0.6c4.1-2.4,7.6-5.7,9.4-10c1.1-2.8,0.4-6.2,0.5-8.9c4,1.8,8.9,4.1,13.8,6.3
		c5.8,2.6,9.5,9.1,9,15.5c-0.2,2.2-0.3,4.5-0.1,6.6c0.3,2.5,0.1,4.6-2.3,6.1c0.6,1.2,1.1,2.4,1.7,3.5c1.5,2.6,1.4,3.5-1.6,4
		c-3.8,0.6-7.7,0.7-11.8,1c-0.2,1.2,1.2,22.7,1.5,24.4c0.3,2.3,3.1,24.3,3.9,28c-19.4,2.9-38.5,2.2-57.5,1.8
		c0.8-19.4,1.6-38.8,2.3-57.3c-4.8-2.3-8.9-4.3-13-6.2C21.9,46.9,21.9,46.4,21.9,46z"/>
	<g>
		<g>
			<path d="M83.8,56.5c-0.1,0.8-0.2,1.7-0.3,2.5c-0.1,0.8-0.2,1.7-0.4,2.5l-0.1,0.6l-0.5-0.5c-0.7-0.7-1.3-1.4-1.8-2.1
				c-0.5-0.8-1-1.6-1.5-2.4c-0.5-0.8-0.9-1.6-1.3-2.4l-0.7-1.2l-0.7-1.2c0.7,0.6,1.4,1.3,1.9,2c0.6,0.7,1.1,1.5,1.5,2.3
				c0.5,0.8,1,1.6,1.4,2.3c0.5,0.8,1,1.5,1.5,2.3l-0.6,0.1c0.2-0.8,0.4-1.6,0.6-2.4C83.4,58.1,83.6,57.3,83.8,56.5z"/>
			<path d="M83.3,99.2l0.4,0.3l-0.1,0c0.9-0.8,1.9-1.6,2.9-2.3l0.5-0.3l0.2,0.6c0.5,1.9,0.9,3.8,1.3,5.7c0.2,1,0.3,1.9,0.5,2.9
				c0.1,0.5,0.1,1,0.2,1.4c0,0.5,0.1,1,0.1,1.5c-0.2-0.5-0.3-0.9-0.5-1.4c-0.2-0.5-0.3-0.9-0.4-1.4c-0.3-0.9-0.5-1.9-0.8-2.8
				c-0.5-1.9-0.9-3.8-1.2-5.7l0.6,0.3c-1.1,0.6-2.2,1.2-3.3,1.7l-0.1,0l0,0L83.3,99.2z"/>
			<path d="M85.1,88.7c0,0,0.1,0.3,0,0.6c0,0.4-0.1,0.8-0.3,1.2c-0.2,0.4-0.4,0.8-0.7,1c-0.2,0.3-0.5,0.4-0.5,0.4s-0.1-0.3,0-0.6
				c0-0.4,0.1-0.8,0.3-1.2c0.2-0.4,0.4-0.8,0.7-1C84.9,88.8,85.1,88.7,85.1,88.7z"/>
			<path d="M83.3,86.3c0,0,0,0.3-0.1,0.8c-0.1,0.5-0.3,1-0.6,1.5c-0.3,0.5-0.6,1-0.9,1.4c-0.3,0.3-0.6,0.5-0.6,0.5s0-0.3,0.1-0.8
				c0.1-0.5,0.3-1,0.6-1.5c0.3-0.5,0.6-1,0.9-1.3C83,86.4,83.3,86.3,83.3,86.3z"/>
			<path d="M79.1,69.1c1.6,0.2,3.2-0.1,4.8-0.1l0.4,0l-0.3,0.3c-1.3,1.5-2.6,2.9-3.9,4.3c-1.3,1.4-2.6,2.9-3.9,4.3l0.1-0.5l0.4,0.6
				l-0.5-0.2l8-2.8l0.5-0.2l0.1,0.6c0.2,1.2,0.4,2.4,0.6,3.6l0.3,1.8c0.1,0.6,0.1,1.3-0.1,2c-0.2,0.7-0.7,1.3-1.2,1.7
				c-0.5,0.4-1.1,0.7-1.7,0.9l-3.3,1.4c-2.2,0.9-4.4,1.9-6.5,3.1c-2.1,1.2-4,2.6-5.8,4.2c0.8-0.9,1.7-1.7,2.6-2.5
				c0.5-0.4,0.9-0.8,1.4-1.1c0.5-0.4,1-0.7,1.5-1c2-1.3,4.2-2.4,6.4-3.4c1.1-0.5,2.2-1,3.3-1.4c1.1-0.5,2.1-1.1,2.3-2
				c0.1-0.5,0.1-1,0-1.6l-0.3-1.8c-0.2-1.2-0.4-2.4-0.6-3.6l0.6,0.4l-8.1,2.7l-0.3,0.1L76,78.4l-0.4-0.6l-0.2-0.3l0.2-0.2
				c1.3-1.4,2.7-2.8,4.1-4.1c1.4-1.4,2.7-2.8,4.1-4.1l0.1,0.3C82.3,69.2,80.7,69.4,79.1,69.1z"/>
			<path d="M86.9,46.8c-0.4,1.3-0.6,2.7-1.1,4l-0.6-0.6c1.2-0.5,2.4-0.9,3.7-1.3c1.2-0.4,2.5-0.7,3.8-1.1c-1,0.8-2.3,1.4-3.5,1.9
				c-1.2,0.5-2.4,0.9-3.7,1.3l-1,0.3l0.4-0.9c0.3-0.6,0.5-1.2,0.8-1.9C86.1,48,86.4,47.4,86.9,46.8z"/>
			<path d="M93.9,37.8c-0.5,0-0.9,0-1.4,0c-0.5,0-1,0-1.4-0.1c-0.2,0-0.5-0.1-0.8-0.3c-0.2-0.2-0.5-0.4-0.5-0.7
				c-0.1-0.3-0.1-0.6-0.1-0.8c0-0.3,0.1-0.5,0.1-0.7c0.1-0.5,0.2-0.9,0.3-1.4c0.1-0.2,0.1-0.4,0.1-0.7l0.1-0.7l0.5-2.8l0.3,0.6
				l-1-0.4l0.6-0.2C90,31,89.3,32.5,88.4,34c-0.8,1.5-1.7,3-2.6,4.5c0.6-1.6,1.3-3.2,2-4.8c0.7-1.6,1.4-3.1,2.2-4.7l0.2-0.4l0.4,0.2
				l1,0.4l0.4,0.2l-0.1,0.4l-0.6,2.8l-0.2,0.7c0,0.2-0.1,0.5-0.2,0.7l-0.4,1.4c0,0.2-0.1,0.4-0.1,0.7c0,0.2,0,0.4,0,0.6
				c0,0.3,0.3,0.6,0.8,0.7C92,37.5,93,37.6,93.9,37.8z"/>
			<path d="M81.8,95.7c0,0-0.3,0.1-0.7,0.2c-0.2,0-0.5,0.1-0.8,0.2c-0.3,0.1-0.6,0.3-1,0.4c-0.3,0.1-0.7,0.3-1.1,0.5
				c-0.4,0.2-0.8,0.4-1.2,0.7c-0.4,0.2-0.8,0.5-1.2,0.8c-0.4,0.3-0.8,0.6-1.2,0.9c-0.4,0.3-0.8,0.6-1.2,0.9
				c-0.4,0.3-0.8,0.6-1.1,0.9c-0.7,0.6-1.3,1.3-1.8,1.8c-0.2,0.3-0.5,0.5-0.7,0.8c-0.2,0.2-0.4,0.5-0.5,0.7
				c-0.2,0.4-0.4,0.6-0.4,0.6s0.1-0.2,0.2-0.7c0.1-0.2,0.2-0.5,0.3-0.8c0.1-0.3,0.3-0.6,0.5-0.9c0.2-0.3,0.5-0.7,0.7-1
				c0.3-0.3,0.6-0.7,0.9-1.1c0.3-0.4,0.7-0.7,1.1-1.1c0.4-0.4,0.8-0.7,1.2-1c0.4-0.3,0.9-0.6,1.3-0.9c0.4-0.3,0.9-0.5,1.3-0.7
				c0.4-0.2,0.9-0.4,1.3-0.6c0.4-0.1,0.8-0.3,1.2-0.4c0.4-0.1,0.7-0.2,1.1-0.2c0.3,0,0.6-0.1,0.8-0.1C81.5,95.7,81.8,95.7,81.8,95.7
				z"/>
		</g>
	</g>
	<g>
		<path d="M21.9,43.9c0,0,0.6,0,1.6,0.2c0.5,0.1,1,0.2,1.6,0.4c0.6,0.1,1.2,0.4,1.8,0.6c0.6,0.2,1.2,0.5,1.7,0.8
			c0.3,0.1,0.5,0.3,0.7,0.5c0.2,0.2,0.4,0.3,0.6,0.4c0.2,0.1,0.3,0.3,0.5,0.4c0.1,0.1,0.3,0.3,0.4,0.4C30.9,47.9,31,48,31,48
			s-0.1-0.1-0.4-0.2c-0.1-0.1-0.2-0.2-0.4-0.3c-0.2-0.1-0.3-0.2-0.5-0.4c-0.4-0.2-0.9-0.5-1.4-0.7c-0.5-0.2-1.1-0.5-1.7-0.7
			c-0.6-0.2-1.2-0.5-1.7-0.7c-0.5-0.2-1.1-0.4-1.5-0.6C22.5,44.1,21.9,43.9,21.9,43.9z"/>
	</g>
	<g>
		<polygon points="34.4,53.5 35.6,43.9 35.4,53.5 		"/>
	</g>
	<g>
		<polygon points="83.7,59.5 84.9,49.9 84.7,59.5 		"/>
	</g>
</g>
<rect x="47.1" y="41.3" fill="none" stroke="#000000" stroke-width="0.1135" stroke-miterlimit="10" width="28.2" height="36.8"/>
<g>
	<path fill="none" stroke="#000000" stroke-width="2.928776e-002" stroke-miterlimit="10" d="M68.7,55.9c0,0,0.4,1.7,0.4,2.1
		c0.1,0.5-0.1,1.6-0.1,2c-0.1,0.4-0.1,1.1-0.1,1.3c0,0.2-0.1,1.1-0.7,1.8c-0.6,0.7-1.3,1.4-1.3,1.5c-0.1,0.1-0.8,1.2-1.9,1.3
		c-1.1,0.1-1.8-0.3-2-0.5c-0.2-0.2-1.6-1.5-1.8-1.7c-0.3-0.2-1-0.9-1.2-1.4c-0.1-0.5-0.2-0.8-0.4-1.4c-0.2-0.6-0.4-1.2-0.4-1.2"/>
	<path d="M65.9,62.7c-0.3-0.2-0.6-0.3-0.9-0.3c-0.3,0-0.5,0.2-0.6,0.2c-0.1,0-0.2,0-0.2-0.1c-0.1,0-0.2-0.1-0.4,0
		c-0.1,0-0.3,0.2-0.3,0.2s-0.5,0.3-0.6,0.5c-0.1,0.1-0.2,0.2-0.2,0.2s0.3,0,0.5,0c0.1,0,0.1,0,0.4-0.1c0.2,0,0.4-0.2,0.4-0.2
		s0.1,0,0.3,0c0.1,0,0.2-0.1,0.2-0.1s0.1,0,0.1,0c0,0,0.1,0,0.1,0s0.1,0,0.3,0c0.1,0,0.2,0,0.3,0c0.1,0,0.2,0.1,0.3,0.1
		c0.1,0,0.2,0,0.2,0s0.2,0,0.4,0.1c0.2,0,0.3-0.1,0.3-0.1S66.3,62.9,65.9,62.7z M63.4,63.1C63.4,63.1,63.4,63.1,63.4,63.1
		C63.4,63.1,63.4,63.1,63.4,63.1C63.4,63.1,63.4,63,63.4,63.1C63.4,63,63.4,63,63.4,63.1C63.4,63,63.4,63,63.4,63c0,0,0,0,0,0
		c0,0,0,0,0,0c0,0,0,0,0,0s0,0,0,0c0,0,0,0,0,0c0,0,0,0,0,0c0,0,0,0,0,0C63.4,63,63.4,63,63.4,63.1C63.4,63,63.4,63,63.4,63.1
		C63.4,63.1,63.4,63.1,63.4,63.1C63.4,63.1,63.4,63.1,63.4,63.1C63.4,63.1,63.4,63.1,63.4,63.1C63.5,63.1,63.5,63.1,63.4,63.1
		C63.5,63.1,63.5,63.1,63.4,63.1z M64.4,62.9C64.4,62.9,64.4,62.9,64.4,62.9C64.4,62.9,64.4,62.9,64.4,62.9
		C64.4,62.9,64.4,62.9,64.4,62.9C64.4,62.9,64.4,62.9,64.4,62.9C64.4,62.8,64.4,62.8,64.4,62.9c0-0.1,0-0.1,0-0.1c0,0,0,0,0,0
		c0,0,0,0,0,0c0,0,0,0,0,0c0,0,0,0,0,0c0,0,0,0,0,0c0,0,0,0,0,0s0,0,0,0c0,0,0,0,0,0c0,0,0,0,0,0c0,0,0,0,0,0
		C64.4,62.7,64.4,62.8,64.4,62.9C64.4,62.8,64.4,62.8,64.4,62.9C64.4,62.8,64.4,62.9,64.4,62.9z M64.6,62.7
		C64.6,62.7,64.6,62.8,64.6,62.7c0,0.1,0,0.1,0,0.1c0,0,0,0,0,0s0,0,0,0C64.6,62.8,64.6,62.8,64.6,62.7
		C64.6,62.8,64.6,62.7,64.6,62.7C64.6,62.7,64.6,62.6,64.6,62.7c0-0.1,0-0.1,0-0.1c0,0,0,0,0,0c0,0,0,0,0,0s0,0,0,0c0,0,0,0,0,0
		C64.6,62.6,64.6,62.6,64.6,62.7C64.6,62.6,64.6,62.6,64.6,62.7C64.6,62.7,64.6,62.7,64.6,62.7z M65.7,62.9
		C65.6,62.9,65.6,62.9,65.7,62.9C65.6,62.9,65.6,62.9,65.7,62.9C65.6,62.9,65.6,62.9,65.7,62.9C65.6,62.9,65.6,62.9,65.7,62.9
		C65.6,62.9,65.6,62.9,65.7,62.9C65.5,63,65.5,63,65.5,63S65.5,63,65.7,62.9C65.6,62.9,65.6,62.9,65.7,62.9
		C65.6,62.9,65.6,62.9,65.7,62.9C65.6,62.9,65.6,62.9,65.7,62.9C65.6,62.9,65.6,62.9,65.7,62.9C65.7,62.8,65.7,62.8,65.7,62.9
		C65.7,62.8,65.7,62.8,65.7,62.9z"/>
	<g>
		<path d="M64.6,63.1c0,0,0.2,0,0.4,0c0,0,0.1,0,0.1,0c0,0,0.1-0.1,0.1-0.1c0.1,0,0-0.1,0-0.1c0,0,0,0.1,0,0.1c0,0,0,0.1-0.1,0.1
			c0,0-0.1,0-0.1,0C64.7,63.2,64.6,63.1,64.6,63.1z"/>
	</g>
	<g>
		<path d="M63.7,63.2l0.2,0c0,0,0,0.1,0.1,0.1c0,0,0.1,0,0.1,0l0.4,0l0,0l0-0.1l0,0.1l0,0l-0.4,0c0,0-0.1,0-0.1,0c0,0,0-0.1-0.1-0.1
			L63.7,63.2z"/>
	</g>
	<g>
		<path d="M65.2,63C65.2,63,65.2,63,65.2,63c0,0.1,0.1,0,0.1,0c0.1,0,0.2,0,0.2,0s-0.1,0-0.2,0C65.3,63,65.2,63.1,65.2,63
			C65.2,63,65.2,63,65.2,63L65.2,63z"/>
	</g>
	<g>
		<path d="M65.3,60.4c0,0,0,0.1,0.1,0.2c0.1,0.1,0.2,0.3,0.2,0.5c0,0.1,0,0.2-0.1,0.3c0,0.1-0.1,0.1-0.2,0.2
			c-0.1,0.1-0.2,0.1-0.2,0.1s0.1,0,0.2-0.1c0.1,0,0.1-0.1,0.2-0.2c0.1-0.1,0.1-0.2,0-0.3c-0.1-0.2-0.2-0.3-0.2-0.5
			C65.3,60.5,65.3,60.4,65.3,60.4z"/>
	</g>
	<g>
		<path d="M63.2,61c0,0,0,0.1-0.1,0.2c0,0.1-0.1,0.2,0,0.4c0,0.1,0.1,0.1,0.1,0.1c0.1,0,0.1,0,0.2,0.1c0.1,0,0.2,0,0.2,0
			s-0.1,0-0.2,0c0,0-0.1,0-0.2-0.1c0,0-0.1-0.1-0.1-0.1c0-0.1,0-0.3,0-0.4C63.2,61,63.2,61,63.2,61z"/>
	</g>
	<g>
		<path d="M63.4,61.6c0,0,0.2-0.1,0.3-0.1c0,0,0.1,0,0.1,0c0,0,0.1,0.1,0.1,0.1c0.1,0,0.1,0.1,0.1,0.1s0,0-0.1-0.1
			c0,0-0.1,0-0.1-0.1c0,0-0.1,0-0.1,0C63.6,61.5,63.4,61.6,63.4,61.6z"/>
	</g>
	<g>
		<path d="M64.2,61.7c0,0,0.1,0,0.2,0c0.1,0,0.3-0.1,0.4-0.2c0.1-0.1,0.2-0.3,0.3-0.2c0.1,0,0.2,0,0.2,0s-0.1,0-0.2,0
			c-0.1,0-0.2,0.1-0.3,0.2c-0.1,0.1-0.2,0.2-0.4,0.2C64.3,61.8,64.2,61.7,64.2,61.7z"/>
	</g>
	<path d="M64.9,61.4c0,0,0.1,0,0.2-0.1c0,0,0.1,0,0.1,0C65.3,61.3,65,61.2,64.9,61.4z"/>
	<path d="M63.9,61.5C63.9,61.5,63.9,61.5,63.9,61.5c-0.1-0.1-0.2-0.1-0.2-0.1L63.9,61.5z"/>
	<g>
		<path d="M63.7,64.7c0,0,0.5-0.1,1.1-0.2c0.3,0,0.5,0,0.8,0c0.2,0,0.3,0,0.3,0s-0.1,0-0.3,0c-0.2,0-0.5,0-0.8,0
			C64.2,64.5,63.7,64.7,63.7,64.7z"/>
	</g>
	<g>
		<path d="M65.8,57.8c0,0-0.1,0.1-0.3,0.2c-0.1,0.1-0.2,0.1-0.2,0.2c0,0.1,0,0.1,0,0.1s0,0,0-0.1c0-0.1,0.1-0.1,0.2-0.2
			C65.6,57.9,65.8,57.8,65.8,57.8L65.8,57.8z"/>
	</g>
	<g>
		<path d="M65.3,58.3c0,0,0.1-0.1,0.3-0.2c0.2-0.1,0.5,0,0.8,0c0.3,0,0.5-0.1,0.7-0.2c0.2-0.1,0.3-0.2,0.3-0.2c0,0-0.1,0.1-0.3,0.2
			c-0.1,0-0.2,0.1-0.3,0.2c-0.1,0-0.3,0.1-0.4,0c-0.3,0-0.6-0.1-0.8,0C65.4,58.2,65.3,58.3,65.3,58.3z"/>
	</g>
	<g>
		<path d="M67.2,57.8c0,0-0.1,0.1-0.2,0.1c-0.1,0-0.2,0.2-0.4,0.2c-0.2,0.1-0.3,0.1-0.4,0.1c-0.1,0-0.2,0-0.2,0s0.1,0,0.2,0
			c0.1,0,0.3,0,0.4-0.1c0.2,0,0.3-0.1,0.4-0.2C67.2,57.8,67.2,57.8,67.2,57.8z"/>
	</g>
	<path fill="none" stroke="#000000" stroke-width="1.464388e-002" stroke-miterlimit="10" d="M65.5,58C65.5,58,65.6,58.1,65.5,58"/>
	<path d="M67.8,56.6c-0.2-0.1-0.5-0.1-0.7-0.1c0,0,0,0,0,0c0,0-0.1,0-0.1,0c0,0-0.1,0-0.1,0c0,0,0,0,0,0c0,0-0.1,0-0.1,0.1
		c-0.1,0-0.2,0.1-0.3,0.1c0,0,0,0,0,0c0,0,0,0-0.1,0c0,0,0,0-0.1,0c0,0,0,0-0.1,0c0,0,0,0-0.1,0c0,0,0,0-0.1,0c0,0,0,0,0,0
		c0,0,0,0,0,0c0,0,0,0,0,0c0,0-0.1,0-0.1,0c0,0,0,0-0.1,0c0,0-0.1,0-0.1,0c0,0-0.1,0-0.1,0c0,0,0,0,0,0c0,0-0.1,0.1-0.2,0.1
		c0,0.1-0.1,0-0.1,0.1c0,0,0,0,0,0c0,0,0,0,0,0c0,0,0,0,0,0c0,0-0.1,0-0.1,0c0,0,0,0,0,0.1c0,0,0.1,0,0.1-0.1c0,0,0,0-0.1,0.1
		c0,0,0,0,0.1,0c0,0,0,0,0,0l-0.1,0.1c0,0,0,0,0,0c0,0,0,0,0,0c0,0,0,0,0,0c0,0,0,0,0,0c0,0,0,0,0,0.1c0.1,0,0.1,0,0.2-0.1
		c0,0,0,0,0,0c0.1,0,0.1-0.1,0.1-0.1c0,0,0,0,0,0c0,0,0,0,0,0c0,0,0,0,0,0.1c0,0,0,0,0,0c0,0,0,0,0,0c0,0,0,0,0,0c0,0,0,0,0,0
		c0,0,0.1,0,0.1,0c0,0,0,0,0,0c0,0,0,0,0,0c0,0,0,0,0.1,0c0,0,0,0,0,0c0,0,0,0,0,0c0,0,0,0,0,0c0,0,0,0,0,0c0,0,0.1,0,0.1,0
		c0,0,0.1,0,0.1,0c0,0,0.1,0,0.1,0c0,0,0,0,0,0c0,0,0,0,0-0.1c0,0,0.6-0.2,0.6-0.2c0.1,0,0.4-0.1,0.7-0.2c0.2,0,0.4,0,0.5,0
		c0,0,0.2,0.1,0.3,0.1C68.2,56.8,67.9,56.6,67.8,56.6z M65.8,57.3c0.1,0,0.1-0.1,0.1,0C65.9,57.2,65.8,57.2,65.8,57.3z"/>
	<path d="M67.8,57.7C67.8,57.7,67.8,57.7,67.8,57.7C67.8,57.7,67.9,57.6,67.8,57.7c0-0.1,0.1-0.1,0.1-0.1c0,0,0,0,0-0.1
		c0.1-0.1,0.1-0.1,0.1-0.3c0,0.1,0,0.1-0.1,0.2c0,0-0.1,0.1-0.1,0.1c0,0-0.1,0.1-0.2,0.1l0,0c0.1-0.1,0.2-0.2,0.2-0.4
		c0,0,0,0.1,0,0.1c0,0,0,0.1-0.1,0.1c0,0,0,0,0,0c0,0.1-0.1,0.1-0.1,0.1c0-0.1,0-0.1,0.1-0.1c0,0,0-0.1,0.1-0.1
		c-0.1,0.1-0.1,0.1-0.2,0.2c0.1-0.1,0.1-0.1,0.2-0.2c0-0.1,0.1-0.1,0.1-0.2c0,0.1-0.1,0.1-0.1,0.2l0,0c0,0,0,0,0-0.1
		c0,0-0.1,0.1-0.1,0.1c0,0,0,0,0,0l0,0c0,0,0,0,0,0.1c0-0.1,0-0.1,0.1-0.2c0-0.1,0-0.2,0-0.2c0,0.1,0,0.1,0,0.2c0,0,0,0,0,0
		c0,0,0-0.1,0-0.1c0,0.1,0,0.2-0.1,0.3c0,0,0,0,0-0.1c0,0,0,0,0-0.1c0,0-0.1,0-0.1,0c0,0,0,0.1,0,0.1c0,0,0,0,0,0c0,0,0,0,0,0
		c0,0,0,0-0.1,0c0-0.1,0-0.2,0-0.3c0,0.1,0,0.1,0,0.2c0,0,0,0,0,0c0,0,0,0,0-0.1c0,0,0,0,0-0.1c0,0,0,0,0,0c0,0.1,0,0.1-0.1,0.1
		c0,0,0,0,0-0.1c0,0,0,0,0,0c0,0,0,0.1,0,0.1c0,0,0,0,0,0c0,0,0,0,0,0c0,0,0,0-0.1,0c0,0,0-0.1,0.1-0.1c0,0,0,0,0,0L67,57.2
		c0,0,0,0,0,0c0,0,0-0.1,0-0.1c0,0,0,0,0,0c0,0,0,0.1-0.1,0.2c0,0,0,0-0.1-0.1c0,0,0,0-0.1,0c0,0,0-0.1,0-0.1c0,0,0,0.1,0,0.1
		c0,0,0,0,0,0c0,0,0,0,0,0c0,0,0,0,0,0l0,0l0,0c0,0,0,0,0,0c0,0,0,0,0,0c0,0,0,0,0-0.1c0,0,0,0,0,0c0,0,0,0.1,0,0.1c0,0,0,0,0,0
		c0,0,0,0,0,0c0,0,0,0,0-0.1c0,0,0,0,0,0c0,0,0,0,0,0c0,0,0,0,0,0.1c0,0,0,0,0,0c0,0,0,0,0,0l0,0c0,0,0,0,0,0c0,0-0.1,0-0.1,0
		c0,0-0.1,0-0.1,0c0,0,0,0.1,0,0.1c0,0,0,0,0,0c0,0,0,0,0,0.1c0,0,0,0,0,0c0,0,0,0,0,0c0,0,0,0,0,0c0,0,0,0,0,0c0,0,0-0.1,0-0.1
		c0,0,0,0,0,0c0,0,0,0,0,0c0,0,0,0-0.1,0c0,0,0,0,0,0c0,0,0,0,0,0c0,0,0,0,0,0c0,0,0,0,0,0c0,0,0,0,0,0.1c0,0,0,0,0-0.1c0,0,0,0,0,0
		c0,0,0,0,0,0c0,0,0,0,0,0c0,0,0,0,0,0c0,0,0,0,0,0c0,0,0,0,0,0.1c0,0,0,0,0,0c0,0,0,0.1,0,0.1c0,0-0.1,0-0.1-0.1c0,0,0,0,0,0
		c0,0,0,0,0,0c0,0,0,0,0-0.1c0,0,0,0,0,0c0,0,0,0,0,0c0,0,0,0,0,0.1l0,0c0,0,0,0.1,0,0.1c-0.1,0-0.1,0-0.1,0.1c0,0-0.1,0.1-0.1,0.1
		c0,0,0,0,0,0c0,0,0,0,0,0c0,0,0,0,0,0c0,0,0,0,0,0.1c0,0,0,0-0.1,0c0,0,0,0.1,0,0.1c0,0-0.1,0.1-0.1,0.1c0,0,0,0-0.1,0
		c0,0,0,0.1,0,0.1c0,0,0.1,0,0.1-0.1c0,0,0.1,0,0.1,0c0,0,0,0,0,0c0-0.1,0-0.1,0.1-0.2c0,0,0,0,0.1,0c0,0,0,0,0,0
		c0.1,0,0.1-0.1,0.1-0.1c0,0,0,0,0,0c0,0,0,0,0.1,0c0,0,0,0,0,0c0,0,0,0,0,0c0,0,0,0,0,0c0,0,0,0.1,0,0.1c0,0.1,0.1,0.3,0.3,0.3
		c0.1,0,0.1,0,0.1,0c0,0-0.1,0-0.1,0c0,0,0,0,0,0c0,0,0-0.1,0-0.1c0,0,0,0,0.1,0c0.1,0,0.1,0,0.1,0c0,0,0,0,0.1,0l0,0c0,0,0,0,0,0.1
		c0,0,0,0,0,0c0,0,0,0,0,0c0,0,0,0,0-0.1c0,0,0,0,0,0c0,0,0,0,0,0c0,0,0,0.1,0,0.1c0,0,0,0,0,0.1c0.1,0,0.2,0,0.3-0.1
		c0.2-0.1,0.2-0.3,0.2-0.3c0.1,0,0.1,0,0.2,0.1c0,0,0,0,0.1,0c0,0.1,0,0.1,0,0.2c0,0,0,0,0.1,0c0,0.1,0.1,0.1,0.1,0.1c0,0,0,0-0.1,0
		c-0.1-0.1-0.1-0.1-0.2,0c0,0,0,0,0.1,0c0,0,0,0,0,0c0,0,0,0-0.1,0c0,0,0,0,0,0c-0.1,0-0.1,0-0.1,0c-0.1,0-0.1,0-0.2,0
		c0.1,0,0.1,0.1,0.1,0.2c0,0,0,0,0,0c0,0,0-0.1,0-0.1l0,0c0,0,0,0,0,0c0,0,0,0,0,0c0,0,0,0,0,0c0,0,0.1,0,0.1,0c0,0,0,0.1,0.1,0.1
		c0,0,0,0,0,0c0,0,0,0,0,0c0,0,0,0,0,0c0,0,0,0,0-0.1c0,0,0,0,0-0.1c0,0,0,0.1,0.1,0c0,0,0-0.1-0.1-0.1c0,0,0,0,0,0l0.1,0.1
		c0,0,0,0,0,0c0,0,0,0,0,0l0,0c0,0,0,0,0,0c0,0,0,0,0,0c0,0,0-0.1-0.1-0.1c0.1,0,0.2,0,0.3,0.1c0,0,0,0,0,0c0,0-0.1-0.1-0.1-0.1l0,0
		c0,0,0,0,0.1,0c0-0.1,0,0,0.1,0c0,0,0,0,0-0.1c0,0,0,0,0,0c0,0,0,0,0,0c0,0,0,0,0,0c0,0,0,0,0,0c0,0,0-0.1,0-0.1c0,0,0,0,0.1,0
		c0,0,0,0,0,0c0,0,0,0-0.1,0c0,0,0,0,0.1,0c0,0,0.1,0,0.1,0c0,0,0.1,0,0.1,0c0,0-0.1,0-0.1,0c0-0.1,0.1-0.1,0.2-0.1c0,0,0,0-0.1,0
		C67.8,57.8,67.8,57.8,67.8,57.7C67.9,57.7,67.8,57.8,67.8,57.7C67.8,57.7,67.8,57.7,67.8,57.7C67.8,57.7,67.8,57.7,67.8,57.7
		C67.8,57.7,67.8,57.7,67.8,57.7C67.8,57.7,67.8,57.7,67.8,57.7z M65.8,57.8C65.8,57.8,65.8,57.8,65.8,57.8
		C65.8,57.7,65.8,57.7,65.8,57.8C65.8,57.7,65.8,57.7,65.8,57.8C65.8,57.7,65.8,57.7,65.8,57.8z M65.9,57.7
		C65.9,57.6,65.9,57.6,65.9,57.7C65.9,57.7,65.9,57.7,65.9,57.7C65.9,57.7,65.9,57.7,65.9,57.7z M66.2,57.8
		C66.2,57.8,66.2,57.8,66.2,57.8C66.2,57.8,66.1,57.8,66.2,57.8C66.1,57.8,66.2,57.8,66.2,57.8z M66.2,58L66.2,58
		C66.2,58,66.2,58,66.2,58C66.2,58,66.2,58,66.2,58L66.2,58C66.2,58,66.2,58,66.2,58z M66.2,57.9C66.2,57.9,66.1,57.9,66.2,57.9
		C66.2,57.9,66.2,57.9,66.2,57.9C66.2,57.9,66.2,57.9,66.2,57.9C66.2,57.9,66.2,57.9,66.2,57.9C66.2,57.9,66.2,57.9,66.2,57.9
		C66.2,57.8,66.2,57.9,66.2,57.9C66.2,57.9,66.2,57.9,66.2,57.9z M66.4,57.8C66.4,57.8,66.4,57.8,66.4,57.8
		C66.4,57.7,66.4,57.7,66.4,57.8C66.4,57.7,66.4,57.7,66.4,57.8c-0.1-0.1-0.1,0-0.1,0c0,0-0.1-0.1-0.1-0.1c0,0,0.1,0,0.1,0
		c0,0,0,0,0,0c0,0,0,0,0,0c0,0,0,0,0,0c0,0,0,0,0,0.1c0,0,0,0,0,0C66.5,57.6,66.5,57.7,66.4,57.8C66.5,57.7,66.5,57.8,66.4,57.8z
		 M66.6,57.9C66.6,57.9,66.6,57.9,66.6,57.9C66.6,57.9,66.6,57.9,66.6,57.9C66.6,57.9,66.6,57.9,66.6,57.9
		C66.6,57.9,66.6,58,66.6,57.9z M67.2,57.3c0,0,0-0.1,0.1-0.1C67.2,57.3,67.2,57.3,67.2,57.3z M67.6,57.8c0.1,0,0.1,0,0.2-0.1
		c0,0,0,0,0,0C67.7,57.8,67.6,57.8,67.6,57.8z M67.7,57.7c0,0,0.1,0,0.1,0c0,0,0,0,0,0C67.8,57.7,67.7,57.7,67.7,57.7z"/>
	<path d="M66.2,58.3c0-0.1,0-0.1,0-0.1c0,0,0,0,0,0c0,0,0,0,0,0c0,0,0,0,0,0c0,0,0,0,0,0c0,0,0.1,0,0.1,0c0,0,0,0,0,0
		C66.2,58.3,66.2,58.3,66.2,58.3z"/>
	<path d="M66.4,58.4C66.4,58.3,66.4,58.3,66.4,58.4c-0.1-0.1-0.1-0.1-0.1-0.1c0,0,0,0,0,0c0,0,0,0,0,0c0,0,0,0,0,0c0,0,0,0,0,0
		c0,0,0,0,0,0.1c0,0,0,0,0-0.1c0,0,0,0,0,0C66.5,58.2,66.5,58.2,66.4,58.4C66.4,58.3,66.4,58.3,66.4,58.4z"/>
	<path d="M66.5,58.2C66.6,58.2,66.6,58.3,66.5,58.2C66.6,58.3,66.6,58.3,66.5,58.2C66.6,58.3,66.6,58.3,66.5,58.2
		C66.6,58.3,66.6,58.3,66.5,58.2c0.1,0.1,0.1,0.1,0.1,0.1c0,0,0,0,0,0C66.6,58.3,66.6,58.3,66.5,58.2C66.5,58.2,66.5,58.2,66.5,58.2
		z"/>
	<path d="M65.9,58.2C65.9,58.2,66,58.2,65.9,58.2c0.1-0.1,0.1-0.1,0.1,0C66,58.2,65.9,58.2,65.9,58.2C65.9,58.2,65.9,58.2,65.9,58.2
		z"/>
	<path d="M66.1,58.2C66.1,58.2,66.1,58.2,66.1,58.2c0,0.1,0,0.1,0,0.1C66.1,58.2,66,58.2,66.1,58.2z"/>
	<path d="M66,58.3C66,58.2,66,58.2,66,58.3C66,58.2,66,58.2,66,58.3C66,58.2,66,58.2,66,58.3C66,58.3,66,58.3,66,58.3z"/>
	<g>
		<path d="M65.1,58.3c0,0,0-0.1,0.1-0.2c0-0.1,0.1-0.2,0.2-0.3c0.1-0.1,0.2-0.2,0.3-0.2c0.1-0.1,0.1-0.1,0.1-0.1l0,0
			c0,0-0.1,0-0.1,0.1c-0.1,0.1-0.2,0.1-0.3,0.2c-0.1,0.1-0.2,0.2-0.2,0.3C65.1,58.2,65.1,58.3,65.1,58.3z"/>
	</g>
	<path d="M66.7,52.3c0.1,0.1,1,1.8-0.3,3.7c-1.3,1.8-3.1,2.6-3.1,2.6s1.5-1.3,2.2-3s0.5-2.1,0.5-2.1s0,3.3-2.9,5
		c-2.9,1.7-3.1,0.9-3.1,0.9S59,60,57.8,59.8c-1.3-0.2,0.7,0.2,1.4-0.8s0.5-2.5,0.4-3.7c-0.1-1.2,0,3-0.7,3.6
		c-0.7,0.6-0.8,1.2-0.3,1.4c0.5,0.2-3.9-0.9,0.8-7.1s-1.8,3.4-2.5,3c0,0-0.5-0.7-0.2-1.7c0.3-1.1,0.2-0.3-0.4-1.1S55.6,52,56,51
		c0.4-1,1-1.3,1-1.3s-0.2,0.3,0.5-0.5c0.7-0.9,1.1-1.5,2.6-2.1c1.2-0.4,2.7,0,3,0c0.2,0-0.9-0.5-0.9-0.5s2.9-0.1,3.4,0
		c1.1,0.3,1.4,0.5,1.7,0.6c0.8,0.5,1.1,0.9,1.5,1.2c0.9,0.8,1,1.5,1,1.5s-0.3,0.5,0.3,1.3c0.6,0.7,1,0.8,1,0.8s0.1,0.7-0.3,1.1
		c-0.4,0.4,0.1,0.5-0.7,1c-0.5,0.3-0.3,1.2-0.3,1.2l-0.3,0.3l0.1,0.3c0,0,0.3,0.2,0.6,0.7s0.3,1.5,0,2.3c-0.3,0.8-0.9,2.1-0.5,2.4
		c0.4,0.2,0.5-0.6,0.5-0.6s0,1.4-0.8,0.3s0.8-1.5,0.2-2.9C69,56.7,68.9,56,68.9,56s-0.1,0.2-0.7-0.7C67.5,54.4,66.7,52.3,66.7,52.3z
		"/>
	<path d="M69,60.2c0,0,0.2,4.1,0.7,4.5c0.1,0.1,0,0.2-0.1,0.3c-0.1,0.1-0.2,0.2-0.2,0.2s-0.8-0.5-1-1.3C68.3,63,68.3,63,68.3,63
		s0.3-0.2,0.5-1.3C68.9,61.4,68.9,60.8,69,60.2z"/>
	<g>
		<path d="M69.1,59.6c0,0,0.1,0,0.1,0c0.1,0,0.2-0.1,0.2-0.2c0.1-0.1,0.1-0.2,0.1-0.3c0-0.1,0-0.2,0-0.2s0,0.1,0,0.2
			c0,0,0,0.1,0,0.2c0,0.1,0,0.1-0.1,0.2c-0.1,0.1-0.2,0.2-0.2,0.2C69.1,59.6,69.1,59.6,69.1,59.6z"/>
	</g>
	<path d="M55.5,57.4c0,0-0.3,1.5-0.7,2.5c-0.5,1.4,0.6,2.9,1.8,4.3s0.9,1.4,1.3,1.9c0.2,0.2,0.8,0.8,0.8,0.8l0.9,0.1
		c0,0,0.2-0.2-2-3c-2.1-2.6-1.9-3.3-1.9-4.3S55.5,57.4,55.5,57.4z"/>
	<path d="M60.1,66.8c0,0,1.6-0.1-0.9-2.3c-2.4-2.3-3.2-2.7-3.1-3.7c0-1-0.2-3-0.3-3.5c-0.1-0.4,1.2-1,1.2-1s0.1,3.5,1.2,4.1
		c0.8,0.5,0.7,0,0.7,0s-0.1-0.1-0.3-0.2s-0.1-0.2-0.1-0.2l0.7-0.1c0,0,0.3,0.9,0.5,1.3c0.1,0.4,0.2,1.1,0.3,1.4
		c0.1,0.3,0.6,0.7,0.6,0.7s1.1,3.6,0.6,3.8s-1.1,0.1-1.4,0C59.5,67,60.1,66.8,60.1,66.8z"/>
	<path d="M56.7,62.3c0,0,2.8,3.6,2.7,4.2c-0.1,0.5,0.7,0.4,0.7,0.4S59.8,64.6,56.7,62.3z"/>
	<path d="M61.3,67.6c0,0,0.1-0.5,0-1.2"/>
	<g>
		<path d="M55.6,57.6c0,0-0.5,0.5-1,1.3c-0.3,0.4-0.5,1-0.7,1.6c-0.2,0.6-0.3,1.3-0.1,1.9c0.2,0.6,0.6,1.2,1,1.7
			c0.4,0.5,0.9,0.9,1.3,1.2c0.8,0.6,1.5,0.8,1.5,0.8s-0.6-0.2-1.5-0.8c-0.4-0.3-0.9-0.7-1.3-1.2c-0.4-0.5-0.8-1.1-1-1.7
			c-0.2-0.7-0.1-1.4,0-2c0.2-0.6,0.5-1.1,0.7-1.6C55.1,58,55.6,57.5,55.6,57.6L55.6,57.6z"/>
	</g>
	<g>
		<path d="M55.2,58.2c0,0-0.3,0.4-0.6,1.2c-0.1,0.4-0.3,0.8-0.4,1.3c0,0.2-0.1,0.5,0,0.8c0,0.3,0.1,0.5,0.2,0.8
			c0.1,0.3,0.2,0.5,0.4,0.7c0.2,0.2,0.3,0.4,0.5,0.5c0.4,0.3,0.7,0.6,1,0.9c0.3,0.3,0.5,0.5,0.7,0.6c0.2,0.1,0.3,0.2,0.3,0.2
			S57.2,65.1,57,65c-0.2-0.1-0.4-0.4-0.7-0.6c-0.3-0.3-0.6-0.6-1-0.9c-0.2-0.2-0.4-0.3-0.5-0.5c-0.1-0.2-0.3-0.4-0.4-0.7
			c-0.1-0.2-0.1-0.5-0.2-0.8c0-0.3,0-0.5,0-0.8c0.1-0.5,0.2-0.9,0.4-1.3C54.9,58.6,55.2,58.2,55.2,58.2L55.2,58.2z"/>
	</g>
	<path fill="none" stroke="#000000" stroke-width="1.464388e-002" stroke-miterlimit="10" d="M55.3,57.9c0,0-2,3.3,0.5,5.8"/>
	<path d="M65.4,63.2c-0.4,0.2-0.9,0.3-1.4,0.3s-0.6-0.2-0.8-0.2c-0.2,0-0.6,0-0.6,0s0.3,0.3,0.5,0.6c0.2,0.3,0.7,0.6,1.5,0.5
		c0.8-0.1,1-0.4,1.2-0.5c0.2-0.2,0.5-0.8,0.5-0.8S65.9,63,65.4,63.2z M63.2,63.5L63.2,63.5L63.2,63.5L63,63.6l0-0.1l-0.1,0l-0.1-0.1
		v0H63H63l0.1,0L63.2,63.5v-0.1V63.5z M64.2,63.7C64.2,63.7,64.2,63.7,64.2,63.7C64.2,63.7,64.2,63.7,64.2,63.7
		C64.3,63.8,64.3,63.8,64.2,63.7c0,0.1,0,0.1,0,0.1c0,0,0,0,0,0c0,0,0,0,0,0c0,0,0,0,0,0c0,0,0,0,0,0s0,0,0,0c0,0,0,0,0,0
		c0,0,0,0,0,0C64.2,63.8,64.2,63.8,64.2,63.7C64.2,63.8,64.2,63.8,64.2,63.7C64.2,63.7,64.2,63.7,64.2,63.7
		C64.2,63.7,64.2,63.7,64.2,63.7C64.2,63.7,64.2,63.7,64.2,63.7C64.2,63.7,64.2,63.7,64.2,63.7z M63.3,63.7
		C63.2,63.8,63.2,63.8,63.3,63.7C63.2,63.8,63.2,63.8,63.3,63.7C63.3,63.7,63.3,63.7,63.3,63.7C63.3,63.7,63.3,63.7,63.3,63.7
		c0-0.1,0-0.1,0-0.1c0,0,0,0,0,0c0,0,0,0,0,0c0,0,0,0,0,0s0,0,0,0c0,0,0,0,0,0c0,0,0,0,0,0C63.3,63.7,63.3,63.7,63.3,63.7
		C63.3,63.7,63.3,63.7,63.3,63.7C63.3,63.7,63.3,63.7,63.3,63.7C63.3,63.7,63.3,63.7,63.3,63.7z M63.6,63.8l-0.1,0.1L63.6,63.8
		l-0.2,0l0-0.2l-0.1,0.1l0.1-0.1l0.2-0.1l-0.1,0.2l0.2-0.1L63.6,63.8l0.2-0.2L63.6,63.8L63.6,63.8z M63.7,64.1v-0.2
		C63.7,63.9,63.7,63.9,63.7,64.1c-0.1,0-0.1-0.2,0-0.3l0.1-0.1l-0.1,0.2l0.2-0.2L63.8,64L63.7,64.1z M64.3,64L64.3,64l-0.2,0.1V64
		L64,64.1l0-0.1L64,64.1l0-0.1l-0.1,0.1l0.1-0.2l0.1-0.1v0l0.1-0.1l-0.1,0.1l0.1,0l0,0.1c0,0,0.1,0,0.1-0.1s0-0.1,0-0.1L64.3,64z
		 M65.1,63.7C65.1,63.7,65.1,63.7,65.1,63.7C65.1,63.7,65.1,63.7,65.1,63.7C65.1,63.7,65.1,63.7,65.1,63.7
		C65.1,63.6,65.1,63.6,65.1,63.7C65.1,63.6,65.1,63.6,65.1,63.7C65.1,63.6,65.1,63.6,65.1,63.7C65.1,63.6,65.1,63.7,65.1,63.7
		C65.1,63.7,65.1,63.7,65.1,63.7C65.1,63.7,65.1,63.7,65.1,63.7C65.1,63.7,65.1,63.7,65.1,63.7C65.1,63.7,65.1,63.7,65.1,63.7
		C65.1,63.7,65.1,63.7,65.1,63.7C65.1,63.7,65.1,63.7,65.1,63.7C65.1,63.7,65.1,63.7,65.1,63.7C65.1,63.7,65.1,63.7,65.1,63.7
		C65.1,63.7,65.1,63.7,65.1,63.7C65.1,63.7,65.1,63.7,65.1,63.7C65.1,63.7,65.1,63.7,65.1,63.7z M64.5,64.3
		C64.5,64.3,64.5,64.2,64.5,64.3C64.5,64.2,64.5,64.2,64.5,64.3c0-0.1,0-0.1,0-0.1c0,0,0,0,0-0.1c0,0,0-0.1,0-0.1c0,0,0-0.1,0-0.1
		c0,0,0-0.1,0-0.1c0,0,0-0.1,0-0.1c0,0,0,0,0,0s0,0,0,0c0,0,0,0,0,0.1c0,0.1,0,0.1,0,0.2c0,0,0,0.1,0,0.1c0,0,0,0,0,0.1
		C64.5,64.2,64.5,64.2,64.5,64.3C64.5,64.2,64.5,64.2,64.5,64.3C64.5,64.2,64.5,64.3,64.5,64.3C64.5,64.3,64.5,64.3,64.5,64.3
		C64.5,64.3,64.5,64.3,64.5,64.3z M65,63.9L65,63.9l-0.1,0c0,0,0,0,0,0.1c0,0-0.1,0-0.1,0l0,0.1L64.7,64c0,0,0,0,0,0.1
		c0,0.1-0.1-0.1-0.1-0.1l0,0.1c0,0-0.1,0-0.1-0.3l0.1-0.1l0,0.1l0.1-0.1c0,0,0,0,0,0.1c0,0,0,0.1,0,0.1v-0.2l0,0.1l0-0.1l0.1-0.1
		l0,0.1l0-0.1l0.1,0.1h0l0.1,0.2L65,63.9z M65.2,63.9C65.2,63.9,65.1,63.9,65.2,63.9C65.1,63.9,65.1,63.9,65.2,63.9
		C65.1,63.9,65.1,63.9,65.2,63.9C65.1,63.9,65.1,63.8,65.2,63.9c-0.1-0.1-0.1-0.1-0.1-0.1c0,0,0,0,0,0c0,0,0,0,0,0c0,0,0,0,0,0
		c0,0,0,0,0,0c0,0,0,0,0,0c0,0,0,0,0,0s0,0,0,0c0,0,0,0,0,0c0,0,0,0,0,0c0,0,0,0,0,0c0,0,0,0,0,0c0,0,0,0,0,0c0,0,0,0,0,0
		C65.1,63.8,65.1,63.8,65.2,63.9C65.1,63.8,65.1,63.9,65.2,63.9C65.1,63.9,65.1,63.9,65.2,63.9C65.1,63.9,65.1,63.9,65.2,63.9
		C65.2,63.9,65.2,63.9,65.2,63.9C65.2,63.9,65.2,63.9,65.2,63.9z"/>
	<g>
		<path d="M64.3,61.9c0,0,0,0.1-0.1,0.1c0,0,0,0.1-0.1,0.2c0,0,0,0.1,0,0.1c0,0,0,0.1,0,0.1c0.1,0.1,0.2,0.1,0.3,0
			c0.1-0.1,0.1-0.1,0.1-0.1c0,0,0,0.1-0.1,0.1c-0.1,0.1-0.2,0.1-0.3,0c0,0,0-0.1,0-0.1c0,0,0-0.1,0-0.1c0-0.1,0-0.1,0.1-0.2
			C64.3,62,64.3,61.9,64.3,61.9z"/>
	</g>
	<g>
		<path d="M64.9,57.8c0,0,0,0-0.1,0.1c-0.1,0.1,0,0.2-0.1,0.3c0,0.1,0,0.3,0,0.4c0,0.1,0,0.2,0,0.2s0-0.1,0-0.2c0-0.1,0-0.2,0-0.4
			c0-0.1,0-0.3,0.1-0.3C64.9,57.8,64.9,57.8,64.9,57.8z"/>
	</g>
	<g>
		<path d="M55.1,50.1c0,0-0.1,0.9-0.3,2.3c-0.1,0.3,0,0.7-0.2,1.1c-0.2,0.4-0.5,0.7-0.7,1c-0.6,0.6-1.2,1.3-1.8,2
			c-2.6,2.6-5.2,5-5.2,5s2.7-2.5,5.2-5.1c0.6-0.6,1.3-1.3,1.8-1.9c0.3-0.3,0.5-0.6,0.7-1c0.1-0.4,0.1-0.7,0.2-1.1
			C55,51,55.1,50.1,55.1,50.1z"/>
	</g>
	<path d="M56.5,53.8c0,0,0,2.2-2.9,5.7c-3,3.5-4.2,6.1-4.2,6.1l-0.8,1.6c0,0,3.3-5.1,4.3-6.4c1-1.3,3.9-4.7,3.9-4.7
		S56.7,54.3,56.5,53.8z"/>
	<g>
		<path d="M67.4,67.6c0,0,0.8-1.1,1.8-2.2c0.2-0.3,0.5-0.5,0.7-0.7c0.2-0.2,0.5-0.4,0.7-0.6c0.2-0.2,0.4-0.3,0.5-0.4
			c0.1-0.1,0.2-0.1,0.2-0.1s-0.1,0.1-0.2,0.1c-0.1,0.1-0.3,0.2-0.5,0.4c-0.2,0.2-0.4,0.4-0.7,0.6c-0.2,0.2-0.5,0.5-0.7,0.7
			C68.2,66.5,67.4,67.6,67.4,67.6z"/>
	</g>
	<g>
		<path d="M70.4,66c0,0,0.8-2.4,1.9-4.8c0.3-0.6,0.6-1.1,0.8-1.7c0.1-0.3,0.3-0.5,0.4-0.8c0.1-0.2,0.3-0.5,0.4-0.7
			c0.1-0.2,0.3-0.4,0.4-0.5c0.1-0.2,0.2-0.3,0.3-0.4c0.2-0.2,0.3-0.4,0.3-0.4s-0.1,0.1-0.3,0.4c-0.1,0.1-0.2,0.3-0.3,0.4
			c-0.1,0.2-0.3,0.3-0.4,0.5c-0.1,0.2-0.2,0.4-0.4,0.7c-0.1,0.2-0.3,0.5-0.4,0.8c-0.3,0.5-0.6,1.1-0.8,1.7
			C71.3,63.5,70.4,66,70.4,66z"/>
	</g>
	<g>
		<path d="M71,50.1c0,0,0.2,0.2,0.6,0.3c0.2,0.1,0.4,0.2,0.6,0.2c0.2,0,0.5,0,0.8,0c1.1-0.1,2.1-0.2,2.1-0.2s-1.1,0.2-2.1,0.3
			c-0.3,0-0.5,0-0.8,0c-0.2-0.1-0.5-0.1-0.6-0.2C71.2,50.3,71,50.1,71,50.1z"/>
	</g>
	<g>
		<path d="M70.8,53.6c0,0,0.1,0,0.2,0.1c0.1,0.1,0.3,0.2,0.5,0.3c0.2,0.1,0.4,0.2,0.7,0.3c0.3,0.1,0.6,0.1,0.8,0.2
			c0.3,0.1,0.6,0.1,0.8,0.2c0.3,0.1,0.5,0.1,0.7,0.2c0.1,0,0.2,0.1,0.3,0.1c0.1,0,0.1,0.1,0.2,0.1c0.1,0.1,0.1,0.2,0.1,0.2
			c0,0,0-0.1-0.1-0.1c-0.1,0-0.1-0.1-0.2-0.1c-0.1,0-0.2-0.1-0.3-0.1c-0.2-0.1-0.5-0.1-0.7-0.2c-0.3,0-0.6-0.1-0.8-0.2
			c-0.3-0.1-0.6-0.1-0.8-0.2c-0.3-0.1-0.5-0.2-0.7-0.3c-0.2-0.1-0.3-0.2-0.5-0.3C70.9,53.6,70.8,53.6,70.8,53.6z"/>
	</g>
	<g>
		<path d="M72.4,54.3c0,0-0.2,0-0.4,0.1c-0.1,0-0.3,0.1-0.4,0c-0.2,0-0.3,0-0.5,0c-0.2,0-0.3,0-0.5,0c-0.2,0-0.3,0.1-0.4,0.1
			c-0.2,0.1-0.4,0.2-0.4,0.2s0.2-0.1,0.4-0.2c0.1,0,0.3-0.1,0.4-0.1c0.1-0.1,0.3,0,0.5-0.1c0.2,0,0.3,0,0.5,0.1c0.2,0,0.3,0,0.4,0
			C72.2,54.4,72.4,54.3,72.4,54.3z"/>
	</g>
	<g>
		<path d="M62,65.8c0,0,0.2,0.4,0.3,0.9c0.1,0.2,0.1,0.5,0.1,0.6c0,0.1,0,0.2,0,0.2c0,0,0,0.1,0,0.1s0,0,0-0.1c0-0.1,0-0.1,0-0.2
			c0-0.2,0-0.4-0.1-0.6C62.2,66.2,62,65.8,62,65.8z"/>
	</g>
	<g>
		<path d="M58.5,66.9c0,0-0.6,0-1.5,0.1c-0.5,0-1,0.1-1.6,0.1c-0.6,0-1.2,0.1-1.8,0.2c-0.3,0.1-0.6,0.1-0.9,0.2
			c-0.3,0-0.6,0.1-0.9,0.1c-0.6,0.1-1.1,0-1.6-0.1c-0.9-0.1-1.5-0.3-1.5-0.3s0.6,0.2,1.5,0.3c0.5,0,1,0.1,1.6,0
			c0.3,0,0.6-0.1,0.9-0.1c0.3-0.1,0.6-0.1,0.9-0.2c0.6-0.1,1.2-0.2,1.8-0.2c0.6-0.1,1.1-0.1,1.6-0.1C57.9,66.9,58.5,66.9,58.5,66.9z
			"/>
	</g>
</g>
</svg>
