<?xml version="1.0" encoding="utf-8"?>
<!-- Generator: Adobe Illustrator 18.1.1, SVG Export Plug-In . SVG Version: 6.00 Build 0)  -->
<svg version="1.1" id="Слой_1" xmlns="http://www.w3.org/2000/svg" xmlns:xlink="http://www.w3.org/1999/xlink" x="0px" y="0px"
	 viewBox="0 0 120 120" enable-background="new 0 0 120 120" xml:space="preserve">
<rect x="24.2" y="18.5" fill="none" stroke="#000000" stroke-width="0.2885" stroke-miterlimit="10" width="71.6" height="93.6"/>
<line fill="none" stroke="#000000" stroke-width="0.2885" stroke-miterlimit="10" x1="34.1" y1="18.5" x2="60" y2="11.4"/>
<line fill="none" stroke="#000000" stroke-width="0.2885" stroke-miterlimit="10" x1="85.3" y1="18.5" x2="60" y2="11.4"/>
<circle cx="60" cy="11.4" r="0.7"/>
<text transform="matrix(1 0 0 1 31.4577 102.5947)" font-family="'Code-Pro-Black'" font-size="14.1884">POSTER</text>
<g>
	<path fill="none" stroke="#000000" stroke-width="7.406911e-002" stroke-miterlimit="10" d="M79.3,47.2c0,0,0.9,4.2,1.1,5.4
		c0.2,1.2-0.1,4.1-0.3,5.1c-0.2,1-0.2,2.8-0.3,3.3c-0.1,0.5-0.2,2.7-1.7,4.5c-1.5,1.9-3.2,3.5-3.4,3.8c-0.2,0.3-1.9,2.9-4.8,3.2
		c-2.9,0.3-4.4-0.6-5.1-1.2c-0.6-0.5-4.1-3.8-4.6-4.3c-0.7-0.5-2.6-2.4-3-3.5s-0.4-2-0.9-3.6c-0.5-1.5-1-3.1-1-3.1"/>
	<path d="M72.3,64.3c-0.9-0.5-1.6-0.8-2.2-0.8c-0.7,0-1.4,0.5-1.6,0.5c-0.2,0-0.5-0.1-0.6-0.2c-0.3-0.1-0.6-0.2-1-0.1
		c-0.3,0-0.8,0.4-0.8,0.4s-1.2,0.8-1.5,1.2c-0.2,0.3-0.6,0.4-0.6,0.4s0.9,0,1.2,0c0.2,0,0.4,0,0.9-0.2c0.6-0.1,1.1-0.4,1.1-0.4
		s0.3,0,0.7-0.1c0.4-0.1,0.5-0.2,0.5-0.2s0.1,0,0.2,0c0,0,0.2-0.1,0.2-0.1s0.4,0,0.7,0c0.4,0,0.6-0.1,0.8-0.1s0.4,0.1,0.7,0.2
		c0.2,0.1,0.6,0.1,0.6,0.1s0.5,0.1,0.9,0.1c0.4,0,0.9-0.2,0.9-0.2S73.2,64.8,72.3,64.3z M66,65.4C66,65.4,66,65.4,66,65.4
		c-0.1-0.1-0.1-0.1-0.1-0.1c0,0,0,0,0,0c0,0,0,0,0,0c0,0,0-0.1,0-0.1c0,0,0,0,0,0c0,0,0,0,0,0c0,0,0,0,0,0s0,0,0,0c0,0,0,0,0,0
		c0,0,0,0,0,0c0,0,0,0,0,0c0,0,0,0,0,0c0,0,0,0.1,0,0.1c0,0,0,0,0,0C66,65.3,66,65.3,66,65.4C66,65.4,66,65.4,66,65.4
		C66,65.5,66.1,65.5,66,65.4C66.1,65.5,66,65.5,66,65.4z M68.4,64.8C68.4,64.9,68.4,64.9,68.4,64.8c0,0.1,0,0.1,0,0.1
		S68.3,64.9,68.4,64.8C68.3,64.9,68.3,64.9,68.4,64.8c0-0.1,0-0.1,0-0.2c0,0,0,0,0-0.1c0,0,0,0,0-0.1c0,0,0,0,0-0.1c0,0,0,0,0,0
		c0,0,0,0,0,0c0,0,0,0,0,0c0,0,0,0,0,0s0,0,0,0c0,0,0,0,0,0c0,0,0,0,0,0c0,0,0,0.1,0,0.1c0,0,0,0.1,0,0.1c0,0,0,0.1,0,0.1
		C68.4,64.8,68.4,64.8,68.4,64.8z M68.8,64.4c0,0.1,0,0.2,0,0.2c0,0,0,0.1,0,0.1c0,0,0,0,0,0s0,0,0,0c0,0,0,0,0-0.1
		C68.8,64.6,68.8,64.5,68.8,64.4c0-0.1,0-0.2,0-0.2c0,0,0,0,0,0c0,0,0,0,0,0c0,0,0,0,0,0s0,0,0,0c0,0,0,0,0,0c0,0,0,0,0,0
		c0,0,0,0.1,0,0.1C68.8,64.3,68.9,64.4,68.8,64.4z M71.6,64.8C71.6,64.8,71.6,64.8,71.6,64.8C71.5,64.9,71.5,64.9,71.6,64.8
		c-0.1,0.1-0.1,0.1-0.1,0.1c0,0,0,0-0.1,0.1c0,0,0,0-0.1,0c0,0-0.1,0-0.1,0s0,0,0.1-0.1c0,0,0,0,0.1-0.1c0,0,0,0,0.1-0.1
		C71.5,64.9,71.5,64.9,71.6,64.8C71.5,64.8,71.6,64.8,71.6,64.8C71.6,64.7,71.6,64.7,71.6,64.8C71.6,64.7,71.6,64.8,71.6,64.8z"/>
	<g>
		<path d="M68.8,65.5c0,0,0.1,0,0.3,0c0.2,0,0.4,0,0.6-0.1c0.1,0,0.2-0.1,0.3-0.1c0.1-0.1,0.2-0.1,0.2-0.2c0.1-0.1,0.1-0.1,0.1-0.2
			c0,0,0-0.1,0-0.1s0,0,0,0.1c0,0.1,0,0.1-0.1,0.2c0,0.1-0.1,0.1-0.2,0.2c-0.1,0-0.2,0.1-0.3,0.1c-0.2,0-0.5,0-0.6,0
			C68.9,65.5,68.8,65.5,68.8,65.5z"/>
	</g>
	<g>
		<path d="M66.6,65.6l0.5-0.1c0,0,0.1,0,0.1,0.1c0,0,0,0.1,0.1,0.1c0.1,0,0.2,0,0.3,0c0.4,0,0.7,0,1.1-0.1l0,0l0.1-0.3l-0.1,0.3l0,0
			l0,0c-0.4,0-0.7,0.1-1.1,0.1c-0.1,0-0.2,0-0.3,0c-0.1,0-0.1-0.2-0.2-0.2L66.6,65.6z"/>
	</g>
	<g>
		<path d="M70.4,65.1c0,0,0,0.1,0,0.1c0,0,0.1,0,0.1,0c0.1,0,0.1,0,0.2,0c0.2,0,0.5,0,0.5,0s-0.2,0-0.5,0.1c-0.1,0-0.1,0-0.2,0
			c-0.1,0-0.1,0-0.2,0C70.3,65.2,70.3,65.1,70.4,65.1L70.4,65.1z"/>
	</g>
	<g>
		<path d="M70.6,58.6c0,0,0.1,0.2,0.3,0.5c0.2,0.3,0.5,0.7,0.6,1.1c0,0.1,0.1,0.2,0,0.4c0,0.1-0.1,0.2-0.1,0.3
			c-0.1,0.2-0.3,0.3-0.4,0.4c-0.3,0.2-0.5,0.3-0.5,0.3s0.2-0.1,0.5-0.3c0.1-0.1,0.3-0.2,0.4-0.4c0.1-0.1,0.1-0.2,0.1-0.3
			c0.1-0.1,0-0.2,0-0.3c-0.1-0.4-0.4-0.8-0.6-1.2C70.7,58.8,70.6,58.6,70.6,58.6z"/>
	</g>
	<g>
		<path d="M65.4,60c0,0-0.1,0.2-0.1,0.4c-0.1,0.3-0.2,0.6,0,1c0.1,0.2,0.2,0.3,0.3,0.4c0.1,0.1,0.3,0.1,0.4,0.2
			c0.3,0.1,0.4,0.1,0.4,0.1s-0.2,0-0.4-0.1c-0.1,0-0.3-0.1-0.4-0.2c-0.2-0.1-0.3-0.2-0.4-0.4c-0.1-0.4,0-0.7,0.1-1
			C65.4,60.2,65.4,60,65.4,60z"/>
	</g>
	<g>
		<path d="M66,61.6c0,0,0.4-0.2,0.8-0.3c0.1,0,0.2,0,0.3,0c0.1,0.1,0.2,0.1,0.2,0.2c0.1,0.1,0.2,0.2,0.2,0.2s-0.1-0.1-0.2-0.2
			c-0.1,0-0.1-0.1-0.2-0.2c-0.1-0.1-0.2,0-0.3,0C66.4,61.4,66,61.6,66,61.6z"/>
	</g>
	<g>
		<path d="M68,62c0,0,0.2,0,0.5,0c0.3-0.1,0.6-0.3,0.9-0.6c0.1-0.1,0.3-0.3,0.4-0.4c0.1-0.1,0.3-0.2,0.5-0.2c0.3,0,0.5,0.1,0.5,0
			c0,0-0.2,0-0.5,0c-0.1,0-0.3,0.1-0.4,0.2c-0.1,0.1-0.3,0.3-0.4,0.4c-0.3,0.3-0.6,0.5-0.9,0.6C68.2,62,68,62,68,62z"/>
	</g>
	<path d="M69.8,61c0,0,0.4-0.1,0.6-0.1c0.1,0,0.4,0,0.4,0C70.7,60.7,69.9,60.6,69.8,61z"/>
	<path d="M67.2,61.5c0,0-0.2-0.2-0.2-0.2c-0.1,0-0.3,0-0.3,0L67.2,61.5z"/>
	<g>
		<path d="M66.6,69.4c0,0,0.3-0.1,0.8-0.2c0.5-0.1,1.2-0.2,1.9-0.2c0.3,0,0.7-0.1,1-0.1c0.3,0,0.6,0,0.9,0c0.5,0,0.9,0,0.9,0
			s-0.3,0-0.9,0c-0.3,0-0.6,0-0.9,0c-0.3,0-0.7,0-1,0.1c-0.7,0-1.4,0.1-1.9,0.2C66.9,69.3,66.6,69.4,66.6,69.4z"/>
	</g>
	<g>
		<path d="M71.9,52c0,0-0.4,0.3-0.7,0.6c-0.1,0.1-0.2,0.2-0.3,0.2c-0.1,0.1-0.2,0.1-0.2,0.2c-0.1,0.2-0.1,0.3-0.1,0.3
			c0,0,0-0.1,0.1-0.3c0-0.1,0.1-0.2,0.2-0.2c0.1-0.1,0.2-0.2,0.3-0.2C71.5,52.2,71.8,51.9,71.9,52L71.9,52z"/>
	</g>
	<g>
		<path d="M70.7,53.4c0,0,0.1-0.1,0.2-0.2c0.1-0.1,0.1-0.1,0.2-0.2c0.1,0,0.2-0.1,0.3-0.2c0.1,0,0.3-0.1,0.4-0.1c0.2,0,0.3,0,0.5,0
			c0.3,0,0.7,0.1,1,0.1c0.4,0,0.7,0,1-0.1c0.2,0,0.3-0.1,0.4-0.2c0.1-0.1,0.3-0.1,0.4-0.2c0.2-0.1,0.4-0.2,0.5-0.3
			c0.1-0.1,0.2-0.2,0.2-0.2s-0.2,0.3-0.7,0.5c-0.1,0.1-0.3,0.1-0.4,0.2c-0.1,0.1-0.3,0.1-0.5,0.2c-0.3,0.1-0.7,0.1-1,0.1
			c-0.4,0-0.7-0.1-1-0.1c-0.2,0-0.3,0-0.5,0c-0.1,0-0.3,0.1-0.4,0.1c-0.1,0-0.2,0.1-0.3,0.2c-0.1,0-0.2,0.1-0.2,0.2
			C70.8,53.3,70.7,53.4,70.7,53.4z"/>
	</g>
	<g>
		<path d="M75.5,51.9c0,0-0.1,0.2-0.4,0.3c-0.1,0.1-0.3,0.2-0.4,0.3c-0.1,0-0.2,0.1-0.3,0.1l-0.3,0.1c-0.2,0-0.4,0.1-0.6,0.1
			c-0.2,0-0.4,0-0.5,0c-0.3,0-0.5-0.1-0.5-0.1s0.2,0,0.5,0c0.1,0,0.3,0,0.5,0c0.2,0,0.4-0.1,0.6-0.1l0.3-0.1c0.1,0,0.2-0.1,0.3-0.1
			c0.2-0.1,0.3-0.2,0.5-0.2C75.4,52,75.5,51.9,75.5,51.9z"/>
	</g>
	<path fill="none" stroke="#000000" stroke-width="3.703456e-002" stroke-miterlimit="10" d="M71.3,52.6c0,0,0.1,0,0.2,0.1"/>
	<path d="M77.1,48.8c-0.6-0.3-1.2-0.3-1.7-0.3c0,0-0.1,0-0.1,0c-0.1,0-0.2,0.1-0.4,0.1c-0.1,0-0.2,0-0.3,0c0,0-0.1,0-0.1,0.1
		c-0.1,0-0.2,0.1-0.4,0.1c-0.3,0.1-0.5,0.2-0.8,0.2c0,0,0,0,0,0c0,0.1-0.1,0.1-0.2,0.1c-0.1,0-0.1,0-0.1,0.1c0,0.1-0.1,0.1-0.2,0.1
		c0,0-0.1,0-0.1,0c0,0.1-0.1,0.1-0.2,0.1c0,0,0,0,0,0c0,0,0,0,0,0c0,0-0.1,0-0.1,0c-0.1,0-0.2,0.1-0.3,0.1c-0.1,0-0.1,0.1-0.2,0.1
		c-0.1,0-0.2,0-0.3,0.1c-0.1,0.1-0.2,0.1-0.3,0.1c0,0,0,0-0.1,0c-0.1,0.1-0.3,0.1-0.4,0.1c-0.1,0.1-0.2,0.1-0.3,0.1
		c0,0-0.1,0.1-0.1,0.1c0,0,0,0.1,0,0.1c0,0,0,0,0,0.1c-0.1,0-0.1,0-0.2,0.1c0,0.1,0,0.1,0,0.2c0.1,0,0.2-0.1,0.3-0.1
		c0,0.1-0.1,0.1-0.2,0.1c0.1,0,0.1,0,0.2,0c0,0,0,0,0,0l-0.3,0.1c0,0,0,0,0,0c0,0,0,0,0.1,0c0,0,0.1,0,0.1,0c0,0,0,0,0,0
		c0,0.1-0.1,0.1-0.1,0.1c0.2-0.1,0.3-0.1,0.5-0.2c0,0,0,0.1-0.1,0.1c0.2,0,0.2-0.2,0.3-0.2c0,0,0,0,0,0c0,0,0.1,0,0.1,0
		c0,0.1,0,0.1,0.1,0.1c0,0,0,0,0,0c0,0,0-0.1,0-0.1c0,0,0.1,0,0.1,0c0,0,0,0,0,0.1c0.1,0,0.2,0,0.3-0.1c0,0,0.1,0,0.1,0c0,0,0,0,0,0
		c0,0,0.1,0,0.1,0c0,0,0.1,0,0.1,0c0,0,0,0,0,0c0,0,0,0,0,0c0,0,0.1,0,0.1,0c0.1-0.1,0.2-0.1,0.2-0.1c0.1,0,0.2-0.1,0.2-0.1
		c0.1,0,0.2,0,0.2,0c0,0,0,0,0,0c0,0,0.1-0.1,0-0.1c0.1,0,1.6-0.4,1.6-0.4c0.3-0.1,0.9-0.4,1.7-0.5c0.6-0.1,1-0.1,1.1-0.1
		c0.1,0,0.5,0.2,0.7,0.1C78,49.4,77.4,49,77.1,48.8z M71.9,50.6c0.1-0.1,0.2-0.1,0.3-0.1C72.2,50.6,72.1,50.6,71.9,50.6z"/>
	<path d="M77.1,51.7C77.1,51.7,77.1,51.7,77.1,51.7c0.1-0.1,0.1-0.1,0.1-0.2c0,0,0.1-0.1,0.1-0.1c0,0,0-0.1,0.1-0.1
		c0.1-0.2,0.3-0.4,0.2-0.6c-0.1,0.1-0.1,0.3-0.2,0.4c-0.1,0.1-0.2,0.2-0.3,0.3c-0.1,0.1-0.3,0.2-0.4,0.2l0,0c0.2-0.3,0.5-0.5,0.5-1
		c0,0.1-0.1,0.2-0.1,0.3c0,0.1-0.1,0.2-0.2,0.2c0,0,0,0,0,0c0,0.2-0.2,0.3-0.4,0.4c0-0.1,0.1-0.1,0.2-0.2c0.1-0.1,0.1-0.2,0.2-0.3
		c-0.2,0.1-0.3,0.3-0.6,0.4c0.1-0.1,0.3-0.3,0.4-0.4c0.1-0.2,0.2-0.3,0.2-0.5c-0.1,0.2-0.2,0.4-0.3,0.5l0,0c0,0,0-0.1,0-0.2
		c-0.1,0.1-0.2,0.1-0.2,0.2c0,0,0,0,0-0.1l0,0c0,0-0.1,0.1-0.1,0.2c0.1-0.2,0.1-0.4,0.2-0.5c0.1-0.2,0.1-0.5,0-0.5
		c0,0.1,0,0.3-0.1,0.4c0,0,0,0,0,0c0-0.1,0-0.2,0-0.3c-0.1,0.2-0.1,0.5-0.3,0.7c-0.1,0-0.1-0.1,0-0.1c0,0,0.1-0.1,0.1-0.1
		c-0.1,0-0.1,0-0.2,0c0,0,0,0.1-0.1,0.2c0-0.1,0-0.1,0-0.1c0,0,0,0,0,0c0,0-0.1,0.1-0.1,0.1c0.1-0.4,0.1-0.6,0-0.7
		c0,0.2,0,0.3,0,0.5c0,0,0,0,0,0c0-0.1,0-0.1,0-0.2c0-0.1,0-0.1-0.1-0.2c0,0,0,0,0,0c0,0.1,0,0.3-0.2,0.4c0-0.1,0-0.1,0.1-0.2
		c-0.1,0.1-0.1,0-0.1-0.1c0,0.1,0,0.1-0.1,0.2c0,0,0,0-0.1,0.1c0,0,0,0-0.1-0.1c0-0.1,0-0.1-0.1-0.1c0.1-0.1,0.1-0.2,0.2-0.3
		c0,0,0,0,0,0L75,50.6c0,0,0,0,0,0c0-0.1,0-0.2,0-0.4c0,0,0,0,0,0c0,0.1-0.1,0.2-0.1,0.4c-0.1-0.1-0.1-0.1-0.1-0.2
		c0,0-0.1,0-0.2,0.1c0-0.1,0-0.2,0-0.3c-0.1,0.1,0,0.2-0.1,0.3c0,0,0-0.1,0-0.1c0,0-0.1,0.1-0.1,0.1c0,0,0,0,0,0l0-0.1l0,0
		c0,0,0,0.1-0.1,0.1c0,0-0.1,0-0.1-0.1c0,0,0-0.1,0-0.2c0,0,0,0,0,0c0,0.1-0.1,0.1-0.1,0.2c0,0-0.1,0-0.1,0c0,0-0.1,0-0.1,0
		c0-0.1,0-0.1,0-0.2c0,0-0.1,0.1-0.1,0.1c0,0,0,0-0.1-0.1c0,0-0.1,0.1-0.1,0.1c-0.1,0.1-0.1-0.1-0.1-0.1c0,0,0,0,0,0.1l0,0
		c0,0,0-0.1,0-0.1c-0.1,0.1-0.1,0.1-0.2,0c-0.1,0.1-0.2,0-0.3,0.1c0,0.1,0,0.2,0,0.4c0,0,0,0,0,0c0,0.1,0,0.1,0,0.2c0,0,0,0,0,0
		c0,0,0,0,0-0.1c0,0,0,0,0,0c0,0,0,0,0,0c0-0.1,0-0.2,0-0.3c0,0,0,0,0,0c0,0,0,0.1-0.1,0.1c-0.1,0-0.1,0-0.2,0c0,0,0,0,0,0
		c0,0,0,0.1,0,0.1c0,0,0,0.1,0,0.1c0,0,0,0,0,0c0,0,0,0.1,0,0.2c-0.1,0-0.1-0.1-0.1-0.1c0,0,0,0,0,0c0,0,0-0.1,0-0.1c0,0,0,0,0-0.1
		c0,0,0,0,0,0c0,0,0,0,0,0c0,0.1,0,0.1,0,0.2c0,0,0,0,0,0c0,0.1,0,0.2,0,0.3c-0.1,0-0.1-0.1-0.1-0.2c0,0,0,0,0,0c0,0,0,0,0-0.1
		c0,0,0-0.1,0-0.1c0,0,0,0,0,0c0,0,0,0,0,0c0,0.1,0,0.1-0.1,0.2l0,0c0,0.1,0,0.1,0.1,0.2c-0.2,0-0.2,0.1-0.3,0.2
		c-0.1,0.1-0.2,0.2-0.3,0.3c0,0,0,0,0,0c0,0,0,0.1,0,0.1c0,0-0.1,0-0.1,0c0,0.1,0.1,0.1,0.1,0.1c0,0-0.1,0-0.1,0
		c0,0.1-0.1,0.1-0.1,0.2c-0.1,0.1-0.1,0.2-0.2,0.3c0,0.1-0.1,0.1-0.2,0.1c0,0.1-0.1,0.2-0.1,0.2c0.1,0,0.2-0.1,0.2-0.2
		c0.1,0,0.1,0,0.2,0c0,0,0.1,0,0.1,0c0.1-0.1,0.1-0.3,0.2-0.4c0.1,0,0.1,0,0.2,0c0,0,0,0,0.1,0c0.2-0.1,0.2-0.2,0.2-0.3
		c0,0,0.1,0.1,0.1,0.1c0,0,0.1,0,0.1,0c0,0,0-0.1,0.1-0.1c0,0,0,0,0-0.1c0,0,0,0,0,0c0,0.1,0.1,0.2,0.1,0.3c0.1,0.4,0.3,0.6,0.7,0.8
		c0.1,0,0.1,0,0.2-0.1c-0.1,0-0.1,0-0.2,0c-0.1,0-0.1,0-0.1-0.1c0-0.1,0-0.1,0.1-0.2c0.1,0,0.1,0.1,0.2,0.1c0.1-0.1,0.2-0.1,0.3,0
		c0,0,0.1-0.1,0.1-0.1l0,0c0,0,0,0.1,0.1,0.1c0,0,0,0.1,0,0.1c0,0,0,0,0,0c0,0-0.1-0.1-0.1-0.1c0,0,0,0-0.1,0.1c0,0-0.1-0.1-0.1-0.1
		c0,0.1,0,0.1-0.1,0.2c0,0.1-0.1,0.1-0.1,0.2c0.2,0,0.5,0,0.7-0.2c0.5-0.3,0.4-0.8,0.4-0.8c0.2,0.1,0.4,0.1,0.5,0.3
		c0.1,0.1,0.1,0.1,0.1,0.1c0,0.1-0.1,0.3-0.1,0.4c0.1,0,0.1,0,0.2,0c0,0.2,0.2,0.1,0.2,0.2c0,0.1-0.1,0.1-0.1,0
		c-0.2-0.2-0.3-0.2-0.5,0c0,0,0.1,0,0.1,0c0,0,0,0,0,0c0,0-0.1,0-0.1,0c-0.1,0-0.1,0-0.1,0.1c-0.2,0-0.2,0-0.2,0.1
		c-0.2,0-0.4,0-0.6,0c0.2,0.1,0.3,0.2,0.3,0.4c0,0,0,0,0,0c0-0.1,0-0.2,0-0.3l0,0c0,0,0,0.1,0.1,0.1c0,0,0,0,0,0c0,0,0-0.1,0-0.1
		c0.1,0,0.2,0,0.2,0.1c0.1,0.1,0.1,0.2,0.1,0.3c0,0,0,0,0,0c0,0,0,0,0-0.1c0,0,0,0,0.1,0.1c0-0.1,0-0.1-0.1-0.1c0,0,0-0.1-0.1-0.2
		c0.1,0,0.1,0.2,0.2,0.1c-0.1-0.1-0.1-0.2-0.2-0.3c0,0,0,0,0,0l0.2,0.2c0,0,0,0,0,0c0,0-0.1-0.1-0.1-0.1l0,0c0,0,0.1,0,0.1,0.1
		c0,0,0,0,0,0C75.1,53.1,75,53,75,53c0.3-0.1,0.5,0.1,0.8,0.2c0,0,0,0,0,0c-0.1-0.1-0.1-0.1-0.2-0.2l0,0c0.1,0,0.1,0,0.2,0.1
		c0-0.2,0.1,0,0.2,0c0-0.1,0.1-0.1,0.1-0.2c0,0,0-0.1,0-0.1c0,0,0,0,0-0.1c0,0,0.1,0,0.1,0c0,0,0.1,0,0.1,0c0-0.1,0-0.1,0-0.2
		c0.1,0,0.1,0,0.1,0.1c0,0,0,0,0,0c-0.1,0-0.1-0.1-0.2-0.1c0,0,0.1-0.1,0.2-0.1c0.1,0,0.2,0,0.2,0c0.1,0,0.2,0,0.3,0
		c-0.1,0-0.1,0-0.2,0c0.1-0.2,0.3-0.1,0.4-0.2c0,0-0.1,0-0.2,0c0.2-0.1,0.4-0.1,0.5-0.3c-0.1,0-0.2,0.1-0.3,0.1
		C77.1,51.8,77.1,51.8,77.1,51.7C77.1,51.8,77.1,51.7,77.1,51.7c0,0.1-0.1,0.1-0.1,0.2C76.9,51.8,77,51.8,77.1,51.7z M72,51.9
		C72,51.9,72,51.9,72,51.9c0-0.1,0-0.1,0-0.2c0,0,0.1,0,0.1,0.1C72,51.8,72,51.9,72,51.9z M72.2,51.7C72.2,51.6,72.2,51.6,72.2,51.7
		c0.1,0,0.1,0,0.1,0.1C72.3,51.8,72.2,51.8,72.2,51.7z M72.9,52C72.9,52,72.9,52,72.9,52c0,0.1-0.1,0.1-0.2,0.2
		C72.7,52,72.9,52.1,72.9,52z M73,52.5L73,52.5c0,0,0-0.1,0-0.1c0,0,0.1,0,0.1,0L73,52.5C73.1,52.5,73,52.5,73,52.5z M73,52.4
		c-0.1,0-0.2-0.1-0.2-0.2c0.1,0,0.1,0.1,0.2,0.1c0,0,0,0,0,0c0,0,0-0.1,0-0.1c0,0,0.1,0,0.1,0c0,0,0,0,0,0
		C73.1,52.2,73,52.3,73,52.4z M73.6,51.9c0,0-0.1,0-0.1,0c0-0.1,0-0.1-0.1-0.2c0,0,0,0,0,0c0,0.1-0.1,0.1-0.1,0.2
		c-0.1,0-0.2-0.2-0.2-0.3c0,0,0.1-0.1,0.2-0.1c0,0,0,0,0,0c0,0,0.1,0,0.1,0c0,0,0,0,0,0c0,0,0.1,0.1,0.1,0.1c0,0,0-0.1,0-0.1
		c0.1,0,0.2,0.1,0.2,0.3C73.7,51.9,73.7,51.9,73.6,51.9z M74,52.4c0,0-0.1-0.1-0.1-0.1C73.9,52.3,74,52.3,74,52.4
		C74,52.3,74,52.4,74,52.4C74,52.4,74,52.4,74,52.4z M75.4,50.8c0-0.1,0.1-0.2,0.2-0.3C75.6,50.7,75.6,50.8,75.4,50.8z M76.4,51.9
		c0.1-0.1,0.3-0.1,0.4-0.2c0,0,0,0,0,0C76.7,51.9,76.6,52,76.4,51.9z M76.7,51.7c0.1,0,0.2-0.1,0.3-0.1c0,0,0,0,0,0
		C76.9,51.7,76.8,51.8,76.7,51.7z"/>
	<path d="M72.9,53.4c0-0.1-0.1-0.3-0.1-0.4c0,0,0,0,0,0c0,0,0,0.1,0.1,0.1c0,0,0,0,0,0c0,0,0-0.1,0-0.1c0.1,0,0.1,0,0.2,0
		c0.1,0,0.1,0.1,0,0.1C73.1,53.2,73,53.3,72.9,53.4z"/>
	<path d="M73.6,53.4c0,0-0.1,0-0.1-0.1c0-0.1-0.1-0.2-0.1-0.2c0,0,0,0,0,0c0,0,0,0,0.1,0c0,0,0-0.1,0-0.1c0,0,0.1,0,0.1,0
		c0,0.1,0,0.1,0,0.1c0-0.1,0.1-0.1,0.1-0.1c0,0,0,0,0,0c0,0.1,0,0.1,0,0.2C73.6,53.2,73.6,53.2,73.6,53.4z"/>
	<path d="M73.9,53.1c0.1,0,0.2,0.1,0.2,0.1c0,0,0,0,0,0c0,0,0,0-0.1,0c0,0,0,0,0,0c0,0.1,0.1,0.1,0.1,0.2c0,0,0,0,0,0
		C74,53.3,73.9,53.2,73.9,53.1C73.8,53.1,73.8,53.1,73.9,53.1z"/>
	<path d="M72.2,53c0.1-0.1,0.2-0.1,0.2-0.1c0.1,0,0.1,0,0.1,0C72.4,53,72.3,53,72.2,53C72.2,53,72.2,53,72.2,53z"/>
	<path d="M72.7,52.9c0,0.1,0,0.2,0,0.2c0,0,0,0,0,0C72.6,53.1,72.6,53,72.7,52.9z"/>
	<path d="M72.5,53.2c0-0.1,0-0.1,0.1-0.2c0,0,0,0,0,0C72.5,53.1,72.5,53.1,72.5,53.2C72.5,53.2,72.5,53.2,72.5,53.2z"/>
	<g>
		<path d="M70.2,53.2c0,0,0.1-0.2,0.2-0.4c0.1-0.1,0.1-0.3,0.3-0.4c0.1-0.1,0.2-0.2,0.3-0.4c0.2-0.3,0.6-0.4,0.8-0.6
			c0.2-0.2,0.4-0.3,0.4-0.3l0.1,0.1c0,0-0.1,0.1-0.4,0.2c-0.2,0.2-0.5,0.3-0.8,0.5c-0.1,0.1-0.2,0.2-0.4,0.4
			c-0.1,0.1-0.2,0.2-0.3,0.4C70.3,53,70.2,53.2,70.2,53.2z"/>
	</g>
	<path d="M74.3,38c0.2,0.3,2.5,4.6-0.8,9.3s-7.9,6.5-7.9,6.5s3.8-3.2,5.6-7.6c1.9-4.4,1.4-5.3,1.4-5.3s0,8.3-7.3,12.5
		c-7.3,4.2-7.7,2.3-7.7,2.3s-2.8,1.9-6,1.4c-3.2-0.6,1.9,0.6,3.6-1.9c1.7-2.5,1.3-6.3,1.1-9.3c-0.2-3,0.1,7.6-1.7,9
		c-1.7,1.4-2.1,3-0.7,3.6c1.4,0.6-9.9-2.4,2-18.1s-4.6,8.6-6.2,7.6c0,0-1.3-1.7-0.5-4.3c0.8-2.7,0.4-0.8-1.1-2.7s-1.8-3.8-0.8-6.3
		c1-2.6,2.6-3.2,2.6-3.2s-0.5,0.8,1.2-1.2c1.9-2.2,2.8-3.9,6.5-5.2c3.1-1.1,6.9,0,7.6,0c0.6,0-2.4-1.1-2.4-1.1s7.4-0.2,8.5,0.1
		c2.7,0.7,3.6,1.2,4.2,1.6c2,1.3,2.7,2.2,3.7,3c2.3,1.9,2.6,3.9,2.6,3.9s-0.7,1.3,0.9,3.2s2.4,2,2.4,2s0.3,1.9-0.7,2.8
		s0.2,1.3-1.9,2.4c-1.3,0.7-0.8,2.9-0.8,2.9l-0.7,0.7l0.2,0.7c0,0,0.9,0.5,1.6,1.7s0.8,3.8,0.1,5.8c-0.7,2-2.2,5.4-1.3,6
		s1.3-1.5,1.3-1.5S83,62.9,81.2,60c-1.9-2.9,2.1-3.8,0.6-7.3c-1.6-3.5-2-5.2-2-5.2s-0.2,0.5-1.8-1.8C76.3,43.3,74.3,38,74.3,38z"/>
	<path d="M80,58c0,0,0.5,10.3,1.7,11.4c0.3,0.3,0,0.5-0.1,0.6c-0.2,0.3-0.5,0.6-0.5,0.6s-1.9-1.3-2.4-3.3c-0.5-2-0.5-2-0.5-2
		s0.8-0.6,1.3-3.2C79.8,61,79.9,59.5,80,58z"/>
	<g>
		<path d="M80.3,56.6c0,0,0.2,0,0.4-0.1c0.2-0.1,0.4-0.3,0.6-0.6c0.2-0.3,0.2-0.6,0.3-0.8c0-0.2,0-0.4,0-0.4s0,0.2,0,0.4
			c0,0.2-0.1,0.6-0.2,0.8c-0.2,0.3-0.4,0.5-0.6,0.6C80.4,56.7,80.3,56.6,80.3,56.6z"/>
	</g>
	<path d="M46,51c0,0-0.8,3.8-1.7,6.3c-1.2,3.5,1.4,7.4,4.5,10.9c3.1,3.5,2.3,3.6,3.4,4.7c0.5,0.5,2.1,2.1,2.1,2.1l2.4,0.2
		c0,0,0.6-0.4-4.9-7.5c-5.3-6.7-4.8-8.2-4.7-10.9S46,51,46,51z"/>
	<path d="M57.5,74.7c0,0,3.9-0.1-2.2-5.9s-8-6.8-7.9-9.3c0.1-2.5-0.5-7.6-0.7-8.7c-0.2-1,3-2.6,3-2.6s0.2,8.7,3.1,10.3
		c2.1,1.2,1.7,0.1,1.7,0.1s-0.1-0.2-0.9-0.6c-0.7-0.4-0.2-0.5-0.2-0.5l1.9-0.4c0,0,0.8,2.4,1.2,3.4c0.3,1,0.5,2.7,0.8,3.5
		c0.3,0.7,1.4,1.8,1.4,1.8s2.8,9.2,1.6,9.7c-1.2,0.5-2.9,0.2-3.5,0C56.1,75.3,57.5,74.7,57.5,74.7z"/>
	<path d="M49,63.3c0,0,7,9.2,6.8,10.6c-0.3,1.4,1.8,1.1,1.8,1.1S56.8,69.1,49,63.3z"/>
	<path d="M60.6,76.7c0,0,0.3-1.3,0-3.1"/>
	<g>
		<path d="M46.2,51.5c0,0-0.3,0.3-0.8,0.9c-0.5,0.6-1.1,1.4-1.8,2.5c-0.7,1.1-1.4,2.4-1.8,3.9c-0.5,1.5-0.6,3.3-0.2,4.9
			c0.2,0.8,0.7,1.6,1.1,2.3c0.4,0.7,0.9,1.4,1.4,2c0.5,0.6,1.1,1.2,1.6,1.6c0.5,0.5,1.1,0.9,1.6,1.3c2.1,1.5,3.7,2.1,3.7,2.1
			s-1.6-0.6-3.7-2.1c-0.5-0.4-1.1-0.8-1.6-1.3c-0.5-0.5-1.1-1-1.6-1.6c-0.5-0.6-1-1.3-1.5-2c-0.4-0.7-0.8-1.5-1.1-2.3
			c-0.5-1.6-0.3-3.4,0.1-5c0.5-1.5,1.2-2.9,1.8-4c1.4-2.2,2.6-3.4,2.6-3.4L46.2,51.5z"/>
	</g>
	<g>
		<path d="M45.2,53c0,0-0.8,1.1-1.5,2.9c-0.2,0.5-0.4,1-0.5,1.5c-0.1,0.6-0.3,1.1-0.4,1.8c-0.1,0.3-0.1,0.6-0.1,0.9c0,0.3,0,0.6,0,1
			c0,0.3,0,0.7,0.1,1c0.1,0.3,0.1,0.7,0.3,1c0.2,0.6,0.6,1.2,0.9,1.7c0.4,0.5,0.8,1,1.3,1.4c0.9,0.9,1.8,1.6,2.5,2.3
			c0.8,0.7,1.4,1.2,1.8,1.6c0.2,0.2,0.4,0.3,0.5,0.4c0.1,0.1,0.2,0.1,0.2,0.1s-0.1,0-0.2-0.1c-0.1-0.1-0.3-0.2-0.5-0.4
			c-0.5-0.4-1.1-0.9-1.8-1.6c-0.7-0.7-1.6-1.5-2.5-2.3c-0.5-0.4-0.9-0.9-1.3-1.4c-0.4-0.5-0.7-1.1-0.9-1.8c-0.1-0.3-0.2-0.6-0.3-1
			c-0.1-0.3-0.1-0.7-0.1-1c0-0.3,0-0.7,0-1c0-0.3,0-0.6,0.1-1c0.1-0.6,0.2-1.2,0.4-1.8c0.2-0.6,0.3-1.1,0.5-1.5c0.7-1.9,1.5-3,1.5-3
			L45.2,53z"/>
	</g>
	<path fill="none" stroke="#000000" stroke-width="3.703456e-002" stroke-miterlimit="10" d="M45.3,52.4c0,0-5.1,8.2,1.2,14.7"/>
	<path d="M71,65.7c-1.1,0.6-2.3,0.8-3.5,0.6c-1.2-0.1-1.6-0.4-2.1-0.4s-1.5,0-1.5,0s0.7,0.9,1.3,1.6c0.6,0.8,1.9,1.4,3.7,1.3
		c1.9-0.1,2.6-0.9,3-1.4c0.4-0.5,1.3-2.1,1.3-2.1S72.2,65.1,71,65.7z M65.3,66.5l-0.1,0.2l-0.1-0.2L65,66.7l0-0.2l-0.1-0.1l-0.2-0.2
		v-0.1h0.2H65l0.1,0.1l0,0.2l0.2-0.2V66.5z M68,66.9C68,66.9,68,67,68,66.9c0,0.1,0,0.1,0,0.2c0,0,0,0.1,0,0.1c0,0,0,0,0,0
		c0,0,0,0,0,0c0,0,0,0,0,0c0,0,0,0,0,0c0,0,0,0,0,0s0,0,0,0c0,0,0,0,0,0c0,0,0,0,0,0c0,0,0,0,0-0.1c0,0,0-0.1,0-0.1
		C68,67,68,67,68,66.9C68,67,68,66.9,68,66.9C68,66.9,68,66.8,68,66.9C68,66.8,68,66.9,68,66.9z M65.5,67
		C65.5,67.1,65.5,67.1,65.5,67C65.5,67.1,65.5,67.1,65.5,67C65.5,67,65.5,67,65.5,67c0-0.1,0-0.1,0.1-0.2c0,0,0-0.1,0.1-0.1
		c0,0,0-0.1,0.1-0.1c0,0,0-0.1,0.1-0.1c0,0,0.1-0.1,0.1-0.1s0,0-0.1,0.1c0,0,0,0.1-0.1,0.1c0,0,0,0.1-0.1,0.1c0,0,0,0,0,0.1
		c0,0,0,0,0,0C65.6,66.9,65.6,67,65.5,67C65.5,67,65.5,67,65.5,67z M66.3,67.2L66,67.4l0.1-0.2l-0.3,0.1l0.1-0.4l-0.3,0.3l0.2-0.4
		l0.4-0.2L66,67.1l0.5-0.3L66.4,67l0.4-0.4l-0.3,0.6L66.3,67.2z M66.8,67.9v-0.4c0,0-0.1,0-0.2,0.3s0-0.4,0.2-0.8l0.3-0.3l-0.3,0.6
		l0.4-0.4l-0.4,0.7L66.8,67.9z M68.1,67.6L68,67.7l-0.4,0.1v-0.2l-0.2,0.3l0-0.3l-0.2,0.2l0-0.2L67,67.8l0.1-0.5l0.3-0.1v0.1
		l0.3-0.2l-0.2,0.2l0.2-0.1l0,0.2c0,0,0.2,0.1,0.2-0.2c0-0.3,0.1-0.3,0.1-0.3L68.1,67.6z M70.1,66.9C70.1,66.9,70.1,66.9,70.1,66.9
		C70.1,66.9,70.1,66.9,70.1,66.9c0-0.1,0-0.1,0-0.1c0,0,0,0,0,0c0,0,0,0,0,0s0,0,0,0c0,0,0,0,0,0C70.2,66.8,70.2,66.9,70.1,66.9
		C70.2,66.9,70.2,66.9,70.1,66.9C70.2,66.9,70.1,66.9,70.1,66.9C70.1,67,70.1,67,70.1,66.9C70.1,67,70.1,67,70.1,66.9
		C70.1,67,70.1,67,70.1,66.9c0,0.1,0,0.1,0,0.1S70.1,67,70.1,66.9C70.1,67,70.1,67,70.1,66.9C70.1,67,70.1,67,70.1,66.9
		C70.1,66.9,70.1,66.9,70.1,66.9z M68.7,68.4C68.7,68.3,68.7,68.3,68.7,68.4c0-0.1,0-0.1,0-0.2c0,0,0-0.1,0-0.1c0,0,0-0.1,0-0.1
		c0-0.1,0-0.2,0-0.3c0-0.1,0-0.2,0-0.3c0-0.1,0-0.2,0-0.3c0-0.1,0-0.1,0-0.2c0,0,0-0.1,0-0.1s0,0,0,0.1c0,0,0,0.1,0,0.2
		c0,0.1,0,0.3,0,0.5c0,0.1,0,0.2,0,0.3c0,0,0,0.1,0,0.1c0,0,0,0.1,0,0.1C68.7,68.2,68.7,68.3,68.7,68.4
		C68.7,68.3,68.7,68.3,68.7,68.4C68.7,68.4,68.7,68.4,68.7,68.4C68.7,68.4,68.7,68.4,68.7,68.4z M69.9,67.4l-0.1,0.1l-0.2-0.1
		c0,0-0.1,0-0.1,0.1s-0.2,0-0.2,0l-0.1,0.2l-0.2-0.2c0,0-0.1,0.1-0.1,0.3c0,0.2-0.2-0.3-0.2-0.3l0,0.3c0,0-0.1,0-0.2-0.7l0.2-0.2
		l0.1,0.2l0.2-0.2c0,0,0.1,0.1,0.1,0.2c0,0.1,0.1,0.3,0.1,0.3v-0.5l0.1,0.2l0.1-0.2l0.1-0.2l0.1,0.3l0-0.3l0.2,0.2H70l0.3,0.4
		L69.9,67.4z M70.3,67.4C70.3,67.4,70.3,67.4,70.3,67.4C70.3,67.4,70.3,67.4,70.3,67.4C70.3,67.4,70.3,67.4,70.3,67.4
		c-0.1-0.1-0.1-0.2-0.2-0.2c0,0,0-0.1-0.1-0.1c0,0,0,0,0-0.1c0,0,0,0,0-0.1c0,0,0,0,0-0.1c0,0,0,0,0-0.1c0,0,0-0.1-0.1-0.1
		c0,0,0,0,0,0s0,0,0,0c0,0,0,0,0.1,0.1c0,0,0,0,0,0.1c0,0,0,0,0,0.1c0,0,0,0,0,0.1c0,0,0,0,0,0.1c0,0,0,0,0,0.1c0,0,0,0,0,0.1
		C70.2,67.3,70.2,67.3,70.3,67.4C70.3,67.4,70.3,67.4,70.3,67.4C70.3,67.4,70.3,67.4,70.3,67.4C70.3,67.4,70.3,67.4,70.3,67.4
		C70.3,67.4,70.3,67.4,70.3,67.4z"/>
	<g>
		<path d="M68.2,62.4c0,0-0.1,0.2-0.1,0.4c0,0.1-0.1,0.2-0.1,0.4c-0.1,0.1-0.1,0.3,0,0.4c0.3,0.2,0.6,0.1,0.8,0
			c0.2-0.1,0.2-0.3,0.2-0.3c0,0,0,0.2-0.2,0.3c-0.2,0.1-0.6,0.2-0.9,0c-0.1-0.1-0.1-0.3,0-0.5c0.1-0.1,0.1-0.3,0.2-0.4
			C68.1,62.5,68.2,62.4,68.2,62.4z"/>
	</g>
	<g>
		<path d="M69.8,51.9c0,0-0.1,0.1-0.2,0.3c0,0.1-0.1,0.2-0.1,0.4c0,0.1,0,0.3-0.1,0.5c0,0.2,0,0.3,0,0.5c0,0.2,0,0.3,0,0.4
			c0,0.2,0.1,0.4,0.1,0.4s0-0.2-0.1-0.4c0-0.1-0.1-0.3-0.1-0.4c0-0.2,0-0.3,0-0.5c0-0.2,0-0.3,0.1-0.5c0-0.2,0.1-0.3,0.1-0.4
			C69.6,52.1,69.8,51.9,69.8,51.9z"/>
	</g>
	<g>
		<path d="M44.9,32.5c0,0-0.3,2.3-0.6,5.7c0,0.4-0.1,0.9-0.2,1.3c-0.1,0.5,0,1-0.3,1.4c-0.5,0.9-1.2,1.7-1.8,2.5
			c-1.4,1.6-3,3.3-4.6,4.9c-3.2,3.3-6.6,6.4-9.1,8.8c-2.5,2.3-4.2,3.9-4.2,3.9s1.7-1.6,4.2-4c2.5-2.4,5.8-5.6,9-8.9
			c1.6-1.6,3.2-3.3,4.6-4.9c0.7-0.8,1.4-1.6,1.8-2.5c0.2-0.4,0.2-0.9,0.3-1.4c0.1-0.5,0.1-0.9,0.2-1.3
			C44.6,34.8,44.9,32.5,44.9,32.5z"/>
	</g>
	<path d="M48.4,41.8c0,0,0.1,5.5-7.5,14.4S30.5,71.6,30.5,71.6l-2,4.2c0,0,8.3-12.9,10.8-16.1c2.5-3.2,9.8-12,9.8-12
		S49,43.1,48.4,41.8z"/>
	<g>
		<path d="M76,76.7c0,0,0.5-0.7,1.3-1.8c0.8-1,1.9-2.4,3.1-3.7c0.6-0.7,1.2-1.3,1.8-1.9c0.6-0.6,1.2-1.1,1.7-1.5
			c0.5-0.4,1-0.7,1.3-0.9c0.3-0.2,0.5-0.3,0.5-0.3s-0.2,0.1-0.5,0.4c-0.3,0.2-0.8,0.5-1.3,1c-0.5,0.5-1.1,0.9-1.7,1.5
			c-0.6,0.6-1.2,1.2-1.8,1.9c-1.2,1.3-2.3,2.6-3.2,3.7C76.5,76.1,76,76.7,76,76.7z"/>
	</g>
	<g>
		<path d="M83.7,72.6c0,0,0.5-1.5,1.4-3.8c0.9-2.3,2.1-5.3,3.4-8.2c0.7-1.5,1.4-2.9,2.1-4.3c0.3-0.7,0.7-1.3,1.1-1.9
			c0.3-0.6,0.7-1.2,1-1.7c0.3-0.5,0.6-1,0.9-1.4c0.3-0.4,0.5-0.8,0.8-1c0.4-0.6,0.7-0.9,0.7-0.9s-0.2,0.3-0.7,0.9
			c-0.2,0.3-0.5,0.6-0.7,1c-0.3,0.4-0.6,0.9-0.9,1.4c-0.3,0.5-0.7,1.1-1,1.7c-0.3,0.6-0.7,1.2-1,1.9c-0.7,1.3-1.4,2.8-2.1,4.3
			c-1.4,2.9-2.6,5.9-3.5,8.2C84.3,71.1,83.7,72.6,83.7,72.6z"/>
	</g>
	<g>
		<path d="M85.1,32.5c0,0,0.1,0.1,0.4,0.2c0.3,0.1,0.6,0.4,1.1,0.6c0.2,0.1,0.5,0.2,0.7,0.3c0.3,0.1,0.6,0.2,0.9,0.3
			c0.3,0,0.6,0.1,1,0c0.3,0,0.7,0,1-0.1c2.7-0.2,5.3-0.6,5.3-0.6s-2.7,0.4-5.3,0.7c-0.3,0-0.7,0-1,0c-0.3,0-0.7,0-1,0
			c-0.3-0.1-0.6-0.2-0.9-0.3c-0.3-0.1-0.5-0.2-0.7-0.3c-0.5-0.2-0.8-0.4-1.1-0.6C85.3,32.6,85.1,32.5,85.1,32.5z"/>
	</g>
	<g>
		<path d="M84.6,41.3c0,0,0.1,0.1,0.4,0.3c0.3,0.2,0.7,0.4,1.2,0.7c0.3,0.1,0.5,0.2,0.8,0.4c0.3,0.1,0.6,0.2,0.9,0.3
			c0.3,0.1,0.7,0.2,1,0.3c0.4,0.1,0.7,0.1,1.1,0.2c0.7,0.1,1.5,0.2,2.2,0.3c0.3,0.1,0.7,0.2,1,0.2c0.3,0.1,0.6,0.2,0.9,0.3
			c0.3,0.1,0.5,0.2,0.7,0.3c0.2,0.1,0.4,0.2,0.5,0.3c0.1,0.1,0.2,0.2,0.2,0.3c0,0.1,0.1,0.1,0.1,0.1s0,0-0.1-0.1
			c0-0.1-0.1-0.2-0.3-0.3c-0.1-0.1-0.3-0.2-0.5-0.3c-0.2-0.1-0.4-0.2-0.7-0.3c-0.3-0.1-0.5-0.2-0.9-0.3c-0.3-0.1-0.6-0.2-1-0.2
			c-0.7-0.1-1.4-0.2-2.2-0.3c-0.4-0.1-0.7-0.1-1.1-0.2c-0.4-0.1-0.7-0.2-1-0.3c-0.3-0.1-0.6-0.2-0.9-0.3c-0.3-0.1-0.6-0.3-0.8-0.4
			C85.2,41.8,84.6,41.3,84.6,41.3z"/>
	</g>
	<g>
		<path d="M88.7,43.3c0,0-0.1,0-0.3,0.1c-0.2,0-0.4,0.1-0.8,0.2c-0.2,0-0.3,0.1-0.5,0.1c-0.2,0-0.4,0-0.6,0c-0.4,0-0.8-0.1-1.3-0.1
			c-0.2,0-0.4,0-0.6,0c-0.2,0-0.4,0.1-0.6,0.1c-0.4,0.1-0.7,0.3-1.1,0.4c-0.6,0.2-1,0.4-1,0.4s0.4-0.2,1-0.5
			c0.3-0.1,0.7-0.3,1.1-0.4c0.2-0.1,0.4-0.1,0.6-0.1c0.2,0,0.4,0,0.7,0c0.4,0,0.9,0.1,1.3,0.2c0.2,0,0.4,0,0.6,0
			c0.2,0,0.4,0,0.5-0.1C88.2,43.4,88.7,43.3,88.7,43.3z"/>
	</g>
	<g>
		<path d="M62.4,72.2c0,0,0.5,1.1,0.8,2.2c0.2,0.6,0.3,1.2,0.3,1.6c0,0.5-0.1,0.7-0.1,0.7s0.1-0.3,0.1-0.7c0-0.4-0.1-1-0.3-1.6
			C62.8,73.3,62.4,72.2,62.4,72.2z"/>
	</g>
	<g>
		<path d="M53.6,74.9c0,0-1.5,0-3.9,0.1c-1.2,0.1-2.5,0.1-3.9,0.3c-0.7,0.1-1.5,0.1-2.2,0.2c-0.8,0.1-1.5,0.2-2.3,0.3
			c-0.8,0.1-1.5,0.3-2.3,0.5c-0.7,0.1-1.5,0.3-2.2,0.3c-0.4,0-0.7,0-1.1,0.1c-0.3,0-0.7,0-1,0c-0.7,0-1.3-0.1-1.9-0.2
			c-0.6-0.1-1.1-0.2-1.6-0.2c-0.5-0.1-0.9-0.2-1.2-0.3c-0.7-0.2-1-0.3-1-0.3s0.4,0.1,1,0.3c0.3,0.1,0.7,0.2,1.2,0.2
			c0.5,0.1,1,0.2,1.6,0.2c0.6,0.1,1.2,0.1,1.9,0.1c0.3,0,0.7,0,1,0c0.3,0,0.7,0,1.1-0.1c0.7,0,1.5-0.2,2.2-0.3
			c0.7-0.1,1.5-0.3,2.3-0.5c0.8-0.1,1.5-0.2,2.3-0.3c0.8-0.1,1.5-0.1,2.2-0.2c1.4-0.1,2.8-0.2,3.9-0.2C52.1,75,53.6,74.9,53.6,74.9z
			"/>
	</g>
</g>
</svg>
